<?xml version="1.0" encoding="UTF-8" standalone="no"?>
<svg
   xmlns:dc="http://purl.org/dc/elements/1.1/"
   xmlns:cc="http://creativecommons.org/ns#"
   xmlns:rdf="http://www.w3.org/1999/02/22-rdf-syntax-ns#"
   xmlns:svg="http://www.w3.org/2000/svg"
   xmlns="http://www.w3.org/2000/svg"
   xmlns:sodipodi="http://sodipodi.sourceforge.net/DTD/sodipodi-0.dtd"
   xmlns:inkscape="http://www.inkscape.org/namespaces/inkscape"
   width="1314.7675"
   height="551.51202"
   version="1.1"
   id="svg2171"
   sodipodi:docname="loewe_Schleuder_v6_multifigur.svg"
   inkscape:version="0.92.2 5c3e80d, 2017-08-06">
  <metadata
     id="metadata2175">
    <rdf:RDF>
      <cc:Work
         rdf:about="">
        <dc:format>image/svg+xml</dc:format>
        <dc:type
           rdf:resource="http://purl.org/dc/dcmitype/StillImage" />
        <dc:title />
      </cc:Work>
    </rdf:RDF>
  </metadata>
  <sodipodi:namedview
     pagecolor="#ffffff"
     bordercolor="#666666"
     borderopacity="1"
     objecttolerance="10"
     gridtolerance="10"
     guidetolerance="10"
     inkscape:pageopacity="0"
     inkscape:pageshadow="2"
     inkscape:window-width="1280"
     inkscape:window-height="723"
     id="namedview2173"
     showgrid="false"
     inkscape:zoom="0.32399177"
     inkscape:cx="420.26536"
     inkscape:cy="173.91471"
     inkscape:window-x="0"
     inkscape:window-y="1"
     inkscape:window-maximized="1"
     inkscape:current-layer="layer1-6"
     inkscape:measure-start="234.958,578.358"
     inkscape:measure-end="241.736,-51.9619"
     showguides="true"
     inkscape:guide-bbox="true"
     inkscape:snap-global="false">
    <sodipodi:guide
       position="288.2291,-73.50013"
       orientation="1,0"
       id="guide2240"
       inkscape:locked="false" />
    <sodipodi:guide
       position="968.54766,-73.50013"
       orientation="1,0"
       id="guide2242"
       inkscape:locked="false" />
  </sodipodi:namedview>
  <desc
     id="desc815">C:\Users\Andreas Reheis\Documents\Laser\Mohrnkopfschleuder\Mohrnkopfschleuder_v_5.dxf - scale = 1.000000, origin = (0.000000, 0.000000), method = file</desc>
  <defs
     id="defs829">
    <marker
       id="DistanceX"
       orient="auto"
       refX="0"
       refY="0"
       style="overflow:visible">
      <path
         d="M 3,-3 -3,3 M 0,-5 V 5"
         style="stroke:#000000;stroke-width:0.5"
         id="path817"
         inkscape:connector-curvature="0" />
    </marker>
    <pattern
       height="8"
       id="Hatch"
       patternUnits="userSpaceOnUse"
       width="8"
       x="0"
       y="0">
      <path
         d="M8 4 l-4,4"
         linecap="square"
         stroke="#000000"
         stroke-width="0.25"
         id="path820" />
      <path
         d="M6 2 l-4,4"
         linecap="square"
         stroke="#000000"
         stroke-width="0.25"
         id="path822" />
      <path
         d="M4 0 l-4,4"
         linecap="square"
         stroke="#000000"
         stroke-width="0.25"
         id="path824" />
    </pattern>
    <symbol
       id="*MODEL_SPACE" />
    <symbol
       id="*PAPER_SPACE" />
  </defs>
  <g
     inkscape:groupmode="layer"
     id="layer1"
     inkscape:label="Rohmaterialblock"
     transform="translate(208.75936,52.881519)"
     style="display:inline" />
  <g
     inkscape:groupmode="layer"
     id="layer2"
     inkscape:label="Baerumriss"
     transform="translate(-29.553567,78.900659)" />
  <g
     inkscape:groupmode="layer"
     inkscape:label="Borhschablone"
     id="g831"
     style="display:inline"
     transform="translate(390.93194,-685.51613)">
    <g
       style="display:inline"
       transform="matrix(0,-0.99999729,-0.99999729,0,1596.2201,804.76826)"
       id="g8957" />
    <g
       transform="matrix(0.75580143,0,0,0.75580143,-925.39484,225.98961)"
       id="layer1-6"
       inkscape:label="Ebene 1">
      <path
         id="path7616"
         style="fill:none;fill-opacity:1;stroke:#ff0000;stroke-width:1.79565203;stroke-opacity:1"
         d="m 952.88341,728.23954 c 0.7117,-3.67079 -7.2906,-12.70833 -14.66,-16.55657 -3.9427,-2.05886 -5.63611,-2.17372 -7.63152,-0.51766 -3.98064,3.30363 -3.28403,4.48447 7.76052,13.15478 10.7873,8.46843 13.5069,9.20201 14.531,3.91945 z M 1428.786,1198.36 h -20.0029 v -20.0027 h 20.0028 z m 450.0611,0 h 20.0024 l -10e-5,-20.0027 h -20.0026 z m -179.7745,-10.0014 0.3319,2.5239 0.9742,2.3518 1.5498,2.0196 2.0195,1.5496 2.3518,0.9742 2.5238,0.3323 2.5239,-0.3323 2.3518,-0.9742 2.0195,-1.5496 1.5498,-2.0196 0.974,-2.3518 0.3324,-2.5239 -0.3324,-2.5238 -0.974,-2.3518 -1.5498,-2.0196 -2.0195,-1.5496 -2.3518,-0.9742 -2.5239,-0.3323 -2.5238,0.3323 -2.3518,0.9741 -2.0195,1.5496 -1.5498,2.0196 -0.9739,2.3519 z m 55.7956,-69.1378 0.5649,2.549 1.2055,2.3159 1.7638,1.925 2.202,1.4028 2.4901,0.7851 2.6083,0.1139 2.5491,-0.5651 2.3158,-1.2056 1.925,-1.7638 1.4028,-2.202 0.7851,-2.4901 0.1138,-2.6084 -0.5651,-2.549 -1.2056,-2.3158 -1.7639,-1.925 -2.202,-1.4028 -2.4899,-0.7851 -2.6082,-0.1139 -2.5492,0.5651 -2.316,1.2056 -1.925,1.7639 -1.4027,2.202 -0.785,2.49 z m -796.00049,-2.5693 -0.1032,2.6087 0.5753,2.5468 1.2147,2.3111 1.7715,1.9179 2.2076,1.3941 2.4929,0.7752 2.6087,0.1036 2.5471,-0.5752 2.3109,-1.2146 1.9178,-1.7716 1.394,-2.2075 0.7755,-2.4931 0.1032,-2.6089 -0.575,-2.5467 -1.2147,-2.3111 -1.7715,-1.9179 -2.2076,-1.3941 -2.4931,-0.7753 -2.6089,-0.1034 -2.5467,0.5752 -2.3109,1.2147 -1.9181,1.7714 -1.394,2.2076 z m 39.8601,-318.34551 h -20.0027 v 20.00266 h 20.0027 z m -12.9458,177.62105 -19.5334,-4.30764 -4.3076,19.53335 19.5334,4.30766 z m 2.0049,-101.97445 -4.3076,19.53336 19.53319,4.30764 4.3078,-19.53336 z m 132.51349,309.53041 -0.974,2.3518 -0.3324,2.5238 0.3324,2.5238 0.974,2.3519 1.5498,2.0195 2.0195,1.5497 2.3518,0.9742 2.5238,0.3322 2.5238,-0.3322 2.3518,-0.9742 2.0196,-1.5497 1.5498,-2.0195 0.9742,-2.3519 0.3322,-2.5238 -0.3322,-2.5238 -0.9742,-2.3519 -1.5498,-2.0195 -2.0196,-1.5497 -2.3518,-0.9742 -2.5236,-0.3322 -2.5237,0.3323 -2.3518,0.9741 -2.0197,1.5497 z M 958.72241,798.30595 h -20.0026 v 20.0027 h 20.0026 z m -20.0026,380.05135 h 20.0026 l 3e-4,20.0027 h -20.0027 z m 42.9684,-252.94758 -2.3059,1.07839 -1.9481,1.63846 -1.4578,2.08685 -0.8681,2.39306 -0.219,2.53616 0.4449,2.50644 1.0783,2.30591 1.6385,1.94822 2.0868,1.45777 2.3931,0.86799 2.5362,0.21904 2.5064,-0.44483 2.3058,-1.07839 1.9483,-1.63844 1.4578,-2.08686 0.8679,-2.39306 0.2191,-2.53616 -0.4448,-2.50643 -1.0784,-2.30591 -1.6384,-1.94823 -2.0869,-1.45777 -2.393,-0.86799 -2.5362,-0.21904 z m 51.87489,392.64908 c 3.9482,-0.01 -1.7568,-0.042 3.3351,0 5.0919,0.047 13.3226,-0.074 18.242,-0.074 7.5155,0 9.4056,-8.6806 11.8329,-4.9763 3.4558,5.2743 5.8647,-3.4078 7.8967,-3.4078 0.8014,0 8.6762,0.9054 8.6762,-1.5172 0,-3.4603 0.2037,-0.8027 6.2389,-3.4723 6.2456,-2.7627 7.3226,2.5092 12.0333,-6.3291 6.6798,-12.5327 8.6035,-13.887 6.1126,-24.7397 -2.1774,-9.487 0.2047,-9.9611 5.4428,-1.083 3.3906,5.7465 4.0273,6.1313 5.2002,3.1424 2.8203,-7.1878 1.5229,-17.1077 -3.5639,-27.2499 -10.815,-21.5633 -8.8008,-24.5339 3.1288,-4.6145 6.9233,11.5604 7.1163,11.7158 9.3848,7.561 5.9171,-11.7259 7.2558,-5.1773 0.5522,-17.8104 l 0.2956,-1.2768 h 330.2014 425.0599 v 104.8269 h 50.0062 v -17.5026 h 12.0009 v -176.4227 l -113.7862,-89.0983 h -350.1962 -376.1822 l -1.3762,-0.4315 c 0.187,-0.3408 0.2173,-0.033 0.3491,-0.3558 1.5375,-3.7698 -0.4547,-6.6629 -0.4697,-16.6218 -0.024,-15.6626 -1.6624,-25.2671 -12.3934,-72.62148 -3.0535,-13.4741 -6.3114,-31.6552 -7.2401,-40.40211 -1.5865,-14.9419 -1.4656,-16.09369 2.0005,-19.04599 5.4312,-4.62621 10.1144,-3.86101 16.7049,2.7294 5.0351,5.03509 6.5683,8.8672 10.7606,26.8949 5.4298,23.3496 10.2901,32.06029 21.8879,39.22809 5.3445,3.30311 9.4686,4.2718 18.2832,4.2928 15.9235,0.0386 18.2463,-3.00619 18.2793,-23.96369 0.013,-8.5321 0.5117,-17.33111 1.1072,-19.55321 1.5524,-5.7928 -5.3005,-5.42159 -11.336,0.61391 -4.3622,4.3621 -4.5893,5.4299 -3.6174,17.01929 1.1348,13.53741 -0.6028,16.82141 -5.9874,11.31511 -2.3571,-2.41031 -4.0911,-9.2596 -6.1339,-24.22801 -4.6994,-34.4347 -9.8154,-44.1528 -26.9542,-51.2014 -4.4779,-1.8416 -8.1133,-3.7523 -8.0783,-4.2461 0.034,-0.4938 3.574,-3.4786 7.8648,-6.6331 4.6116,-3.3901 9.4439,-9.12782 11.8178,-14.03165 5.1054,-10.54639 4.1032,-19.66812 -4.6515,-42.33695 -6.2943,-16.29837 -7.5973,-28.42089 -3.2091,-29.86004 1.1123,-0.36486 3.6791,2.14442 5.704,5.57625 2.5943,4.39716 5.6789,6.79112 10.4461,8.10739 3.7204,1.02722 7.106,1.52625 7.5233,1.10882 0.4173,-0.4174 -1.0505,-5.44577 -3.2623,-11.17412 -2.2117,-5.72836 -4.7024,-12.21103 -5.5349,-14.4059 -3.5513,-9.3627 -22.5916,-6.28145 -34.9424,5.65465 -5.8119,5.61663 -8.0139,9.42641 -9.4876,16.41436 -1.9476,9.23614 -0.5262,26.08087 3.4478,40.85774 3.32,12.34587 2.4712,24.34084 -2.0641,29.16845 -2.2269,2.3704 -5.7392,4.8331 -7.805,5.4727 -9.1847,2.8437 -19.3027,8.6397 -21.1954,12.1419 -1.1343,2.0985 -3.0179,8.2598 -4.186,13.6916 l -2.1238,9.8761 -3.8896,-8.4575 c -2.6124,-5.67919 -3.4945,-10.0326 -2.6863,-13.2525 0.9123,-3.6348 0.5989,-4.604 -1.2945,-4.0052 -4.1666,1.3176 -8.78,12.6381 -8.78,21.5581 0,11.13761 2.4517,17.13221 10.3447,25.2561 3.5982,3.70351 5.7544,6.7337 4.7913,6.7337 -3.9467,0 -15.0198,-11.25729 -17.0126,-17.2955 -2.6211,-7.942 -5.2589,-5.1112 -5.2419,5.62371 0.017,10.58939 5.5583,21.00019 15.3912,28.91929 13.3192,10.7269 22.895,20.4153 21.5285,21.7818 -0.6779,0.67781 -3.0148,-0.86749 -5.1933,-3.43429 -2.1784,-2.5667 -8.9359,-7.96861 -15.0167,-12.0041 -6.0809,-4.03551 -12.8391,-9.58031 -15.0182,-12.32171 l -3.9623,-4.98439 1.3087,9.8761 c 2.1418,16.16289 5.3582,20.54109 22.4323,30.53449 11.415,6.6812 22.2627,16.15239 18.5,16.15239 -1.0388,0 -2.9977,-1.3364 -4.3532,-2.9698 -1.3554,-1.63338 -7.7167,-5.32089 -14.1363,-8.19438 -6.4194,-2.8735 -13.8937,-7.34461 -16.6096,-9.93571 l -4.9382,-4.71109 0.038,7.06959 c 0.049,8.8709 5.1265,20.03309 11.8548,26.06399 2.8404,2.546 10.6618,8.4758 17.3806,13.1772 12.0542,8.435 12.209,8.647 11.6718,15.9877 -0.4448,6.0774 -1.3666,7.7266 -5.0357,9.0088 -11.2668,3.9376 -34.9339,-9.1338 -38.5768,-21.3059 -1.1739,-3.9224 -4.7339,-13.0225 -7.9112,-20.2224 -5.6811,-12.87318 -11.7328,-39.88858 -10.1329,-45.23459 0.4486,-1.4997 0.1787,-12.4234 -0.5999,-24.27469 -1.1411,-17.3658 -0.9304,-22.12311 1.0857,-24.51201 1.6916,-2.00429 1.8824,-3.3468 0.5891,-4.1462 -1.052,-0.6501 -1.9127,-3.4575 -1.9127,-6.2386 0,-4.09129 0.9516,-5.2468 4.9857,-6.0536 6.1517,-1.2304 14.7664,-7.7958 14.7664,-11.2539 0,-1.6478 -1.9136,-2.5631 -5.3586,-2.5631 -7.031,0 -15.6307,-7.8044 -18.7972,-17.05869 -1.3515,-3.9504 -2.2881,-7.3569 -2.0812,-7.56993 0.2069,-0.21303 4.3768,1.66513 9.2664,4.17383 9.8308,5.04368 21.0453,4.94776 28.9746,-0.24776 5.5761,-3.65352 5.2347,-5.71007 -1.1815,-7.11936 -6.4648,-1.4199 -14.4138,-10.3637 -14.4138,-16.21768 0,-4.21116 0.075,-4.22823 6.6091,-1.49825 3.6351,1.51878 8.8592,2.31139 11.6094,1.76135 5.2065,-1.04127 17.6333,-8.32896 17.6723,-10.36356 0.013,-0.64258 -2.9939,-1.88167 -6.6803,-2.75347 -4.5996,-1.0878 -7.9801,-3.48076 -10.774,-7.62653 -6.1199,-9.08151 -5.4106,-10.58269 4.8533,-10.27072 7.0555,0.21445 9.7611,-0.56445 12.9188,-3.71906 2.1968,-2.19469 3.635,-4.2148 3.1961,-4.48915 -0.439,-0.27432 -3.1438,-1.71083 -6.0106,-3.19228 -5.6817,-2.93596 -10.8834,-9.36255 -12.717,-15.71195 -1.0712,-3.70922 -0.5806,-4.04022 5.9899,-4.04022 13.1971,0 17.031,-4.33415 8.0706,-9.12375 -4.9227,-2.63136 -9.5985,-11.31029 -9.5985,-17.81654 0,-3.11364 0.56,-3.41244 3.4734,-1.85329 5.0503,2.70289 13.087,2.27708 17.6749,-0.93648 5.4194,-3.79588 5.0467,-5.07971 -2.2394,-7.71444 -5.6509,-2.04337 -13.5218,-9.52809 -13.5218,-12.8582 0,-0.7347 3.7154,-0.54338 8.2565,0.42512 10.7769,2.29849 13.1485,0.0437 7.2846,-6.92533 -2.4275,-2.88474 -5.3505,-8.85916 -6.4959,-13.27646 -1.1454,-4.41732 -3.7203,-10.31711 -5.722,-13.11065 -4.32,-6.02906 -3.6561,-7.31294 2.5598,-4.9497 3.4748,1.32122 4.8166,1.14089 5.5401,-0.74466 1.1377,-2.96498 -1.0954,-11.36824 -4.8705,-18.3274 -1.4967,-2.75904 -4.8026,-9.77609 -7.3465,-15.59346 -2.5439,-5.81732 -7.5036,-13.29173 -11.0217,-16.60976 -3.5183,-3.31802 -5.5311,-6.03277 -4.4732,-6.03277 3.8735,0 1.7597,-3.39963 -4.5313,-7.28766 -6.1853,-3.82281 -6.7125,-3.86636 -12.6304,-1.04429 -7.7658,3.70322 -7.0196,3.89688 -9.6737,-2.51059 -2.6666,-6.43793 -6.6397,-8.90963 -14.3213,-8.90963 -3.0843,0 -9.22299,-0.91036 -13.64179,-2.02301 -6.7062,-1.68863 -8.5441,-1.56534 -11.1202,0.7459 -1.6973,1.52289 -6.0874,3.32579 -9.7557,4.00647 -8.4331,1.56481 -11.8619,5.27358 -9.0453,9.78376 1.7529,2.807 1.3,3.38835 -3.3671,4.32174 -7.9397,1.58794 -15.2668,9.81957 -16.7957,18.86919 -1.0723,6.34688 -2.5644,8.52048 -8.56522,12.47676 -3.99667,2.635 -9.97481,7.33625 -13.28467,10.44724 -7.3146,6.87498 -7.98832,15.17665 -2.20163,27.13036 5.33988,11.03066 2.57806,13.58552 -8.39384,7.76493 -8.52629,-4.52317 -20.5617,-16.51002 -20.5617,-20.4787 0,-6.30195 -5.86726,-21.10149 -9.03859,-22.79873 -11.69894,-6.26103 -18.33506,17.44334 -9.64087,34.43701 4.02314,7.86357 15.09639,15.60496 30.8002,21.53247 8.14776,3.07549 14.81404,5.96098 14.81404,6.41231 0,0.45128 -1.81806,2.31514 -4.0402,4.14184 -3.80774,3.13027 -3.88144,3.61169 -1.28129,8.3683 1.51733,2.77578 5.38143,6.66298 8.58663,8.6382 14.27156,8.7946 17.15684,10.9223 17.90754,13.20608 0.6207,1.88818 -1.1557,2.26065 -7.94199,1.66522 -4.80786,-0.4218 -10.15555,-1.40071 -11.88391,-2.17537 -2.42828,-1.08837 -3.14235,-0.57275 -3.14235,2.26902 0,2.02261 -0.6507,4.07956 -1.44588,4.57104 -3.2437,2.00467 -15.52123,-2.55421 -20.88837,-7.7562 -3.15399,-3.05697 -6.29621,-4.99644 -6.98276,-4.30992 -0.68656,0.68653 -0.73128,5.14496 -0.0992,9.90766 0.73101,5.51022 0.47301,8.65942 -0.70957,8.65942 -3.86199,0 -47.39261,-51.28535 -53.41389,-62.92933 -4.5017,-8.70519 -3.38686,-22.74989 2.72624,-34.34705 4.83353,-9.16939 5.26685,-11.32235 4.33764,-21.54781 -0.56788,-6.24832 -1.8878,-13.6208 -2.93331,-16.3833 -2.02671,-5.35547 -9.55076,-10.24031 -15.77288,-10.24031 -3.54986,0 -3.61046,0.24521 -0.9869,3.99084 3.19012,4.55468 3.78366,15.76133 0.83461,15.76133 -2.0545,0 -7.06586,-3.59736 -20.63684,-14.81413 -7.67025,-6.33969 -8.84979,-6.72696 -20.15842,-6.61988 -9.85626,0.0934 -11.20622,0.43497 -7.52338,1.90355 5.1479,2.0527 12.57059,8.58093 12.57059,11.05571 0,4.27377 -11.42836,15.28063 -20.918,20.1465 -13.39052,6.86604 -20.38202,13.07588 -20.38202,18.10334 0,3.66161 0.51376,3.84476 6.73376,2.40039 9.09721,-2.11261 9.42719,-2.06985 9.42719,1.22161 0,6.51604 6.3666,15.70296 14.62166,21.09868 9.51742,6.22087 9.47362,6.14085 6.97059,12.72435 -2.21658,5.82963 -6.64419,5.87992 -15.05695,0.17086 l -6.5353,-4.43505 v 4.16759 c 0,11.8474 5.84279,18.55249 18.85437,21.63679 6.04615,1.43323 22.15179,10.96331 25.58787,15.14101 4.63348,5.63329 2.75759,7.69201 -4.31581,4.73656 -3.60834,-1.50762 -6.87281,-2.42887 -7.25439,-2.04723 -0.7711,0.77111 8.83073,25.56849 13.08872,33.80273 1.49602,2.8928 6.46967,7.63766 11.05287,10.54415 9.00684,5.71206 7.82465,6.91479 -2.54008,2.58411 l -6.46319,-2.7005 1.04697,6.45206 c 1.29729,7.99385 3.58228,10.81813 12.38695,15.30992 13.16903,6.71834 1.49523,9.79709 -12.70886,3.35178 -9.64272,-4.37548 -9.23349,-4.39722 -9.22449,0.48834 0.0132,5.57983 6.15332,15.14538 10.64338,16.57046 2.04338,0.64853 3.71525,1.93276 3.71525,2.85381 0,2.54633 -8.31155,2.00142 -15.54002,-1.01884 -8.07168,-3.37252 -7.80348,-3.40537 -7.80348,0.95551 0,5.25931 4.91463,16.24887 9.51279,21.27147 l 3.9546,4.31954 -6.28484,-1.0827 c -3.45659,-0.59553 -8.1029,-1.61247 -10.32491,-2.25992 -3.43846,-1.00181 -4.04033,-0.49774 -4.04033,3.38366 0,2.5084 1.99761,6.9348 4.43911,9.8366 2.44151,2.9015 4.0066,5.7078 3.47803,6.2364 -0.52845,0.5277 -4.14209,0.5335 -8.03027,0.012 -6.17171,-0.8278 -7.06943,-0.4959 -7.06943,2.614 0,10.3858 15.05087,21.9527 30.49603,23.43671 l 8.53409,0.82009 -1.67133,7.42581 c -2.00767,8.92038 -0.73485,16.76879 4.45049,27.44198 l 3.86503,7.95511 -5.32956,4.3426 c -2.93132,2.3886 -7.74818,5.5457 -10.70424,7.0161 -5.01149,2.4927 -5.65702,2.4082 -9.5505,-1.24949 -2.29662,-2.15751 -6.702,-8.6629 -9.78984,-14.45621 -8.44122,-15.8374 -11.79818,-17.3409 -32.84624,-14.7112 -7.22476,0.9028 -11.51344,2.53771 -14.50562,5.5299 -6.01612,6.0159 -5.32625,7.7182 3.38289,8.3484 l 7.63121,0.5521 0.21421,8.2689 c 0.11776,4.54781 1.07714,9.8001 2.13164,11.67169 1.54485,2.74171 1.06245,4.29931 -2.48279,8.01561 -5.54959,5.8178 -12.20621,28.95067 -10.67658,37.10377 1.34029,7.1449 2.34399,7.2685 7.56189,0.9303 2.6741,-3.2484 4.54059,-4.2607 5.45446,-2.9584 2.13547,3.0434 19.73542,8.2996 23.64067,7.0601 2.79212,-0.8861 3.71154,0 4.71207,4.5584 1.274,5.8015 20.03153,26.804 23.93849,26.804 1.13826,0 2.06959,-1.9575 2.06959,-4.3499 0,-3.3754 1.40169,-4.8125 6.25665,-6.4147 8.38803,-2.7683 12.91302,-8.9978 14.40256,-19.8282 1.09314,-7.9488 2.08903,-9.5554 8.69313,-14.0257 12.99862,-8.79857 12.62788,-8.75157 11.44292,-1.4499 -0.58573,3.6103 -0.43186,6.564 0.34215,6.564 0.77401,0 4.28127,-2.791 7.79383,-6.2024 4.37958,-4.2535 7.63929,-10.03686 10.37373,-18.40538 7.17832,-21.9687 9.8081,-17.8014 3.6307,5.75351 -1.81304,6.91331 -3.10755,12.77717 -2.87667,13.03097 0.23088,0.2538 3.8076,-1.9928 7.94849,-4.9923 9.52973,-6.90347 13.84964,-14.00637 15.33693,-25.21837 0.6462,-4.8716 1.95513,-8.85731 2.90869,-8.85731 2.25217,0 2.19449,5.8267 -0.18537,18.70041 -1.05569,5.70989 -1.47379,10.82701 -0.92934,11.37141 2.01071,2.01069 17.22644,-15.32151 18.34048,-20.8917 2.15017,-10.75071 4.86304,-8.53171 3.80708,3.11389 -0.55107,6.0773 -0.3325,11.0496 0.48557,11.0496 0.81821,0 3.77175,-1.92339 6.56348,-4.2742 4.86608,-4.0975 6.71114,-8.75209 11.11784,-28.04771 1.63124,-7.14288 1.79518,-6.05799 1.41333,9.35072 -0.40315,16.26508 -0.19026,17.4663 3.18218,17.95659 3.05975,0.4448 17.19505,17.77727 17.19505,21.08437 0,0.6001 -5.5588,2.5231 -12.3528,4.2734 -14.6063,3.7627 -45.93958,18.8549 -64.86024,31.2413 -18.62984,12.1959 -33.62077,26.5637 -50.62109,48.5169 -7.96477,10.2852 -15.59202,19.1267 -16.94938,19.6475 -5.66245,2.1728 -11.2565,-1.189 -13.10235,-7.8742 -2.46228,-8.9179 0.53533,-20.2965 5.34703,-20.2965 2.98159,0 7.09099,5.7977 7.09099,10.0043 0,6.6176 3.26911,5.2112 4.61959,-1.9875 1.34493,-7.1691 -0.0609,-16.3595 -3.05437,-19.9664 -3.13891,-3.7821 -9.75399,-2.8481 -15.7877,2.2289 -10.41157,8.7608 -13.99543,34.5902 -6.74487,48.6115 7.11124,13.7514 18.43151,18.8678 31.66167,14.3095 4.6176,-1.591 7.20134,-1.8415 6.80759,-0.6604 -1.11061,3.332 -12.7336,8.5122 -19.09888,8.5122 -6.12818,0 -6.1344,0.01 -2.72571,3.7753 7.38949,8.1654 19.73132,11.0397 30.24278,7.0432 2.64328,-1.0049 4.60596,-1.0603 4.60596,-0.1301 0,3.1501 -9.53078,9.0641 -14.60724,9.0641 -6.34953,0 -6.478,1.7131 -0.54644,7.2854 3.43357,3.2257 6.47735,4.2705 12.01609,4.1254 6.71921,-0.1764 7.09947,0.038 4.03677,2.2777 -1.85962,1.3598 -4.13375,2.4723 -5.05343,2.4723 -3.60253,0 2.90869,5.2226 7.86963,6.3122 2.89467,0.6357 5.26288,1.5814 5.26288,2.1016 0,1.2553 -6.71272,9.829 -36.64352,46.8027 -27.38609,33.8297 -27.11075,33.6448 -40.82225,27.423 -11.85057,-5.3773 -32.06892,-4.2666 -32.06892,1.7621 0,0.9212 2.22214,2.8435 4.93806,4.2715 l 4.93805,2.5963 -5.38685,1.1765 c -15.74576,3.4393 -17.69613,4.8951 -24.10547,17.9919 -4.29569,8.7782 -6.18971,15.1988 -6.28457,21.3063 l -0.13615,8.7414 31.71896,-0.3156 c 29.9955,-0.298 31.77943,-0.1255 32.82811,3.1789 0.61008,1.9219 3.28115,5.8068 5.93607,8.6328 l 4.82705,5.1387 1.00965,-5.3869 c 0.75549,-4.0313 1.85895,-5.2374 4.38408,-4.7928 7.64471,1.3462 15.73478,-1.9998 25.50438,-10.5489 8.7839,-7.6867 11.21336,-8.9 17.82421,-8.9 11.23956,0 13.33495,1.2911 13.33495,8.2165 0,8.979 4.47934,6.0892 8.90787,-5.7468 2.00991,-5.372 4.95062,-11.7458 6.53503,-14.1638 1.90116,-2.9016 2.66127,-7.1565 2.23524,-12.5121 -0.78407,-9.8596 0.81053,-10.5522 3.18191,-1.3818 l 1.74119,6.7338 3.75733,-5.9737 c 2.86582,-4.5563 4.05489,-10.3411 5.01188,-24.3809 0.69,-10.1237 1.87509,-19.4108 2.63323,-20.6376 0.75826,-1.2268 1.95169,6.0907 2.65214,16.2612 0.70058,10.1704 1.69264,18.9106 2.20468,19.4226 0.5119,0.5118 3.80257,-2.2027 7.31248,-6.0326 l 6.38168,-6.9637 -1.22042,-17.7204 c -0.67121,-9.7463 -0.86649,-17.7206 -0.43384,-17.7206 0.74239,0 5.06719,17.295 7.521,30.0772 1.44654,7.535 3.26302,7.3574 8.85071,-0.8659 4.78749,-7.0453 6.12501,-19.3294 3.02116,-27.7476 -2.88964,-7.8376 -3.92192,-14.0332 -2.33804,-14.0332 2.54285,0 11.0534,20.5658 11.0534,26.7104 0,6.3622 1.72373,7.0598 5.93805,2.4033 4.9414,-5.4603 -6.78422,-13.9763 -6.78422,-23.4825 0,-9.3994 -0.17173,-23.2162 -8.54521,-34.3689 -4.12792,-5.4983 6.71277,-5.2642 7.85169,-36.987 0.63456,-17.676 2.13641,-36.5825 3.33751,-42.0146 2.76818,-12.5182 11.08583,-28.3855 18.79863,-35.8612 l 5.9732,-5.7892 -6.0238,25.2172 c -5.1635,21.6155 -14.14723,33.6323 -11.44454,39.6192 2.23784,4.9569 0.75165,2.1892 0.0278,7.146 -0.72545,4.9719 -4.69037,6.9869 -1.5164,17.9102 2.52196,8.6794 -0.0146,6.1958 -0.60174,7.1455 -2.5152,1.9653 1.34453,5.3906 -1.12979,4.9692 l -2.01137,7.6174 -3.66092,14.2677 c 0.49947,4.2306 5.57166,31.5135 10.75611,36.6979 6.3085,6.3087 24.33797,-13.2934 32.77897,-13.2934 7.9152,0 9.4006,-13.0671 13.8545,-17.5212 4.1864,-4.1864 5.249,-6.8239 5.249,-13.0305 0,-4.2797 -0.7562,-10.4178 -1.6804,-13.6402 -1.0158,-3.5444 -1.0252,-5.4541 -0.023,-4.8346 3.511,2.1699 7.5334,21.1739 6.5331,30.8662 -0.9569,9.2703 -0.8435,9.5981 2.9235,8.4576 5.92843,-1.7952 11.66533,-7.788 13.88013,-14.4987 1.5513,-4.7008 1.389,-8.074 -0.7436,-15.448 -2.7269,-9.4284 -2.7264,-9.4313 0.7608,-5.1948 3.6114,4.3884 4.3965,9.5566 3.6303,23.9145 -0.4065,7.6162 -0.1125,8.3136 3.1425,7.4624 8.0518,-2.1056 15.6538,-16.4416 13.524,-25.5038 -0.9323,-3.9669 -0.713,-4.3508 1.3659,-2.3923 1.362,1.2833 2.8804,7.3232 3.3742,13.4221 l 0.898,11.0891 6.7335,-6.7481 c 4.8518,-4.8625 6.7339,-5.9011 6.7339,-3.7167 0,2.7828 0.2915,2.7678 3.5537,-0.1845 3.4203,-3.0954 3.6059,-3.0891 4.9382,0.1706 2.3917,5.8523 1.4956,72.6381 -1.0756,80.1453 -4.3639,12.742 -13.9188,15.2612 -28.9643,7.637 -10.71,-5.4271 -14.1703,-5.5629 -22.8744,-0.8978 -3.6854,1.9751 -7.68463,3.5912 -8.88723,3.5912 -4.7657,0 -11.7359,4.5472 -14.1622,9.239 -4.0397,7.8119 -3.3486,8.6421 6.2485,7.5054 l 8.8071,-1.043 -5.7878,17.7921 -6.6264,14.7443 v 17.5026 h 50.00633 v -17.9569 z"
         inkscape:connector-curvature="0"
         sodipodi:nodetypes="cccccccccccccccccccccccccccccccccccccccccccccccccccccccccccccccccccccccccccccccccccccccccccccccccccccccccccccccccccccccccccccccccccccccccccccccccccccccccccccccccccccccscsscccccccccccccccccccccccccccccccccccccccscccccccccccsccccccscsccccccccccscccccccccccccccscsscscccscccccsccccscscccscccccccccscccsccccccccccscccscccccssccscsccccscscccscscsccccsccccccsccccccscsccccscccscccccccccccccccccccccssccccscscsccsccccsccccscccccssscccccsccsscccscsccscccccccccccccsscccccscccccccscccsscsccccccccscccccscscccccccccsccccscccccsccccccccc" />
      <path
         sodipodi:nodetypes="cccccccccccccccccccccccccccccccccccccccccccccccccccccccccccccccccccccccccccccccccccccccccccccccccccccccccccccccccccccccccccccccccccccccccccccccccccccccccccccccccccccccscsscccccccccccccccccccccccccccccccccccccccscccccccccccsccccccscsccccccccccscccccccccccccccscsscscccscccccsccccscscccscccccccccscccsccccccccccscccscccccssccscsccccscscccscscsccccsccccccsccccccscsccccscccscccccccccccccccccccccssccccscscsccsccccsccccscccccssscccccsccsscccscsccscccccccccccccsscccccscccccccscccsscsccccccccscccccscscccccccccsccccscccccsccccccccc"
         inkscape:connector-curvature="0"
         d="m 2155.9932,1217.9248 c -0.7117,3.6708 7.2906,12.7084 14.66,16.5566 3.9427,2.0589 5.6361,2.1737 7.6315,0.5177 3.9807,-3.3037 3.2841,-4.4845 -7.7605,-13.1548 -10.7873,-8.4684 -13.5069,-9.202 -14.531,-3.9195 z M 1680.0906,747.80438 h 20.0029 v 20.0027 h -20.0028 z m -450.0611,0 h -20.0024 l 10e-5,20.0027 h 20.0026 z m 179.7745,10.0014 -0.3319,-2.5239 -0.9742,-2.3518 -1.5498,-2.0196 -2.0195,-1.5496 -2.3518,-0.9742 -2.5238,-0.3323 -2.5239,0.3323 -2.3518,0.9742 -2.0195,1.5496 -1.5498,2.0196 -0.974,2.3518 -0.3324,2.5239 0.3324,2.5238 0.974,2.3518 1.5498,2.0196 2.0195,1.5496 2.3518,0.9742 2.5239,0.3323 2.5238,-0.3323 2.3518,-0.9741 2.0195,-1.5496 1.5498,-2.0196 0.9739,-2.3519 z m -55.7956,69.1378 -0.5649,-2.549 -1.2055,-2.3159 -1.7638,-1.925 -2.202,-1.4028 -2.4901,-0.7851 -2.6083,-0.1139 -2.5491,0.5651 -2.3158,1.2056 -1.925,1.7638 -1.4028,2.202 -0.7851,2.4901 -0.1138,2.6084 0.5651,2.549 1.2056,2.3158 1.7639,1.925 2.202,1.4028 2.4899,0.7851 2.6082,0.1139 2.5492,-0.5651 2.316,-1.2056 1.925,-1.7639 1.4027,-2.202 0.785,-2.49 z m 796.0005,2.5693 0.1032,-2.6087 -0.5753,-2.5468 -1.2147,-2.3111 -1.7715,-1.9179 -2.2076,-1.3941 -2.4929,-0.7752 -2.6087,-0.1036 -2.5471,0.5752 -2.3109,1.2146 -1.9178,1.7716 -1.394,2.2075 -0.7755,2.4931 -0.1032,2.6089 0.575,2.5467 1.2147,2.3111 1.7715,1.9179 2.2076,1.3941 2.4931,0.7753 2.6089,0.1034 2.5467,-0.5752 2.3109,-1.2147 1.9181,-1.7714 1.394,-2.2076 z m -39.8601,318.34552 h 20.0027 v -20.0027 h -20.0027 z m 12.9458,-177.62112 19.5334,4.3077 4.3076,-19.5334 -19.5334,-4.3076 z m -2.0049,101.97452 4.3076,-19.5334 -19.5332,-4.3076 -4.3078,19.5334 z m -132.5135,-309.53042 0.974,-2.3518 0.3324,-2.5238 -0.3324,-2.5238 -0.974,-2.3519 -1.5498,-2.0195 -2.0195,-1.5497 -2.3518,-0.9742 -2.5238,-0.3322 -2.5238,0.3322 -2.3518,0.9742 -2.0196,1.5497 -1.5498,2.0195 -0.9742,2.3519 -0.3322,2.5238 0.3322,2.5238 0.9742,2.3519 1.5498,2.0195 2.0196,1.5497 2.3518,0.9742 2.5236,0.3322 2.5237,-0.3323 2.3518,-0.9741 2.0197,-1.5497 z m 161.578,385.17702 h 20.0026 v -20.0027 h -20.0026 z m 20.0026,-380.05132 h -20.0026 l -3e-4,-20.0027 h 20.0027 z m -42.9684,252.94762 2.3059,-1.0784 1.9481,-1.6385 1.4578,-2.0868 0.8681,-2.3931 0.219,-2.5362 -0.4449,-2.5064 -1.0783,-2.3059 -1.6385,-1.9482 -2.0868,-1.4578 -2.3931,-0.868 -2.5362,-0.219 -2.5064,0.4448 -2.3058,1.0784 -1.9483,1.6384 -1.4578,2.0869 -0.8679,2.3931 -0.2191,2.5361 0.4448,2.5064 1.0784,2.306 1.6384,1.9482 2.0869,1.4578 2.393,0.8679 2.5362,0.2191 z m -51.8749,-392.64913 c -3.9482,0.01 1.7568,0.042 -3.3351,0 -5.0919,-0.047 -13.3226,0.074 -18.242,0.074 -7.5155,0 -9.4056,8.6806 -11.8329,4.9763 -3.4558,-5.2743 -5.8647,3.4078 -7.8967,3.4078 -0.8014,0 -8.6762,-0.9054 -8.6762,1.5172 0,3.4603 -0.2037,0.8027 -6.2389,3.4723 -6.2456,2.7627 -7.3226,-2.5092 -12.0333,6.32911 -6.6798,12.5327 -8.6035,13.887 -6.1126,24.7397 2.1774,9.487 -0.2047,9.9611 -5.4428,1.083 -3.3906,-5.7465 -4.0273,-6.1313 -5.2002,-3.1424 -2.8203,7.1878 -1.5229,17.1077 3.5639,27.2499 10.815,21.5633 8.8008,24.5339 -3.1288,4.6145 -6.9233,-11.5604 -7.1163,-11.7158 -9.3848,-7.561 -5.9171,11.7259 -7.2558,5.1773 -0.5522,17.8104 l -0.2956,1.2768 H 1650.3039 1225.244 V 609.12627 h -50.0062 v 17.5026 h -12.0009 v 176.42271 l 113.7862,89.0983 h 350.1962 376.1822 l 1.3762,0.4315 c -0.187,0.3408 -0.2173,0.033 -0.3491,0.3558 -1.5375,3.7698 0.4547,6.6629 0.4697,16.6218 0.024,15.6626 1.6624,25.2671 12.3934,72.6215 3.0535,13.4741 6.3114,31.65522 7.2401,40.40212 1.5865,14.9419 1.4656,16.0937 -2.0005,19.046 -5.4312,4.6262 -10.1144,3.861 -16.7049,-2.7294 -5.0351,-5.0351 -6.5683,-8.8672 -10.7606,-26.8949 -5.4298,-23.34962 -10.2901,-32.06032 -21.8879,-39.22812 -5.3445,-3.3031 -9.4686,-4.2718 -18.2832,-4.2928 -15.9235,-0.039 -18.2463,3.0062 -18.2793,23.9637 -0.013,8.53212 -0.5117,17.33112 -1.1072,19.55322 -1.5524,5.7928 5.3005,5.4216 11.336,-0.6139 4.3622,-4.3621 4.5893,-5.4299 3.6174,-17.01932 -1.1348,-13.5374 0.6028,-16.8214 5.9874,-11.3151 2.3571,2.4103 4.0911,9.2596 6.1339,24.22802 4.6994,34.4347 9.8154,44.1528 26.9542,51.2014 4.4779,1.8416 8.1133,3.7523 8.0783,4.2461 -0.034,0.4938 -3.574,3.4786 -7.8648,6.6331 -4.6116,3.3901 -9.4439,9.1278 -11.8178,14.0316 -5.1054,10.5464 -4.1032,19.6681 4.6515,42.337 6.2943,16.2983 7.5973,28.4209 3.2091,29.86 -1.1123,0.3649 -3.6791,-2.1444 -5.704,-5.5762 -2.5943,-4.3972 -5.6789,-6.7912 -10.4461,-8.1074 -3.7204,-1.0272 -7.106,-1.5263 -7.5233,-1.1088 -0.4173,0.4174 1.0505,5.4457 3.2623,11.1741 2.2117,5.7283 4.7024,12.211 5.5349,14.4059 3.5513,9.3627 22.5916,6.2814 34.9424,-5.6547 5.8119,-5.6166 8.0139,-9.4264 9.4876,-16.4143 1.9476,-9.2362 0.5262,-26.0809 -3.4478,-40.8578 -3.32,-12.3458 -2.4712,-24.3408 2.0641,-29.1684 2.2269,-2.3704 5.7392,-4.8331 7.805,-5.4727 9.1847,-2.8437 19.3027,-8.6397 21.1954,-12.1419 1.1343,-2.0985 3.0179,-8.2598 4.186,-13.6916 l 2.1238,-9.8761 3.8896,8.4575 c 2.6124,5.6792 3.4945,10.0326 2.6863,13.2525 -0.9123,3.6348 -0.5989,4.604 1.2945,4.0052 4.1666,-1.3176 8.78,-12.6381 8.78,-21.5581 0,-11.1376 -2.4517,-17.1322 -10.3447,-25.2561 -3.5982,-3.7035 -5.7544,-6.7337 -4.7913,-6.7337 3.9467,0 15.0198,11.2573 17.0126,17.2955 2.6211,7.942 5.2589,5.1112 5.2419,-5.6237 -0.017,-10.5894 -5.5583,-21.00022 -15.3912,-28.91932 -13.3192,-10.7269 -22.895,-20.4153 -21.5285,-21.7818 0.6779,-0.6778 3.0148,0.8675 5.1933,3.4343 2.1784,2.5667 8.9359,7.9686 15.0167,12.0041 6.0809,4.0355 12.8391,9.5803 15.0182,12.3217 l 3.9623,4.9844 -1.3087,-9.8761 c -2.1418,-16.1629 -5.3582,-20.5411 -22.4323,-30.5345 -11.415,-6.6812 -22.2627,-16.1524 -18.5,-16.1524 1.0388,0 2.9977,1.3364 4.3532,2.9698 1.3554,1.6334 7.7167,5.3209 14.1363,8.1944 6.4194,2.8735 13.8937,7.3446 16.6096,9.9357 l 4.9382,4.7111 -0.038,-7.0696 c -0.049,-8.8709 -5.1265,-20.0331 -11.8548,-26.064 -2.8404,-2.546 -10.6618,-8.4758 -17.3806,-13.1772 -12.0542,-8.435 -12.209,-8.647 -11.6718,-15.9877 0.4448,-6.0774 1.3666,-7.7266 5.0357,-9.0088 11.2668,-3.9376 34.9339,9.1338 38.5768,21.3059 1.1739,3.9224 4.7339,13.0225 7.9112,20.2224 5.6811,12.8732 11.7328,39.8886 10.1329,45.2346 -0.4486,1.4997 -0.1787,12.4234 0.5999,24.27472 1.1411,17.3658 0.9304,22.1231 -1.0857,24.512 -1.6916,2.0043 -1.8824,3.3468 -0.5891,4.1462 1.052,0.6501 1.9127,3.4575 1.9127,6.2386 0,4.0913 -0.9516,5.2468 -4.9857,6.0536 -6.1517,1.2304 -14.7664,7.7958 -14.7664,11.2539 0,1.6478 1.9136,2.5631 5.3586,2.5631 7.031,0 15.6307,7.8044 18.7972,17.0587 1.3515,3.9504 2.2881,7.3569 2.0812,7.5699 -0.2069,0.213 -4.3768,-1.6651 -9.2664,-4.1738 -9.8308,-5.0437 -21.0453,-4.9478 -28.9746,0.2477 -5.5761,3.6535 -5.2347,5.7101 1.1815,7.1194 6.4648,1.4199 14.4138,10.3637 14.4138,16.2177 0,4.2111 -0.075,4.2282 -6.6091,1.4982 -3.6351,-1.5188 -8.8592,-2.3114 -11.6094,-1.7613 -5.2065,1.0412 -17.6333,8.3289 -17.6723,10.3635 -0.013,0.6426 2.9939,1.8817 6.6803,2.7535 4.5996,1.0878 7.9801,3.4808 10.774,7.6265 6.1199,9.0815 5.4106,10.5827 -4.8533,10.2707 -7.0555,-0.2144 -9.7611,0.5645 -12.9188,3.7191 -2.1968,2.1947 -3.635,4.2148 -3.1961,4.4892 0.439,0.2743 3.1438,1.7108 6.0106,3.1922 5.6817,2.936 10.8834,9.3626 12.717,15.712 1.0712,3.7092 0.5806,4.0402 -5.9899,4.0402 -13.1971,0 -17.031,4.3342 -8.0706,9.1238 4.9227,2.6313 9.5985,11.3102 9.5985,17.8165 0,3.1136 -0.56,3.4124 -3.4734,1.8533 -5.0503,-2.7029 -13.087,-2.2771 -17.6749,0.9365 -5.4194,3.7958 -5.0467,5.0797 2.2394,7.7144 5.6509,2.0434 13.5218,9.5281 13.5218,12.8582 0,0.7347 -3.7154,0.5434 -8.2565,-0.4251 -10.7769,-2.2985 -13.1485,-0.044 -7.2846,6.9253 2.4275,2.8848 5.3505,8.8592 6.4959,13.2765 1.1454,4.4173 3.7203,10.3171 5.722,13.1106 4.32,6.0291 3.6561,7.313 -2.5598,4.9497 -3.4748,-1.3212 -4.8166,-1.1409 -5.5401,0.7447 -1.1377,2.965 1.0954,11.3682 4.8705,18.3274 1.4967,2.759 4.8026,9.7761 7.3465,15.5934 2.5439,5.8174 7.5036,13.2918 11.0217,16.6098 3.5183,3.318 5.5311,6.0328 4.4732,6.0328 -3.8735,0 -1.7597,3.3996 4.5313,7.2876 6.1853,3.8228 6.7125,3.8664 12.6304,1.0443 7.7658,-3.7032 7.0196,-3.8969 9.6737,2.5106 2.6666,6.4379 6.6397,8.9096 14.3213,8.9096 3.0843,0 9.223,0.9104 13.6418,2.0231 6.7062,1.6886 8.5441,1.5653 11.1202,-0.7459 1.6973,-1.5229 6.0874,-3.3258 9.7557,-4.0065 8.4331,-1.5648 11.8619,-5.2736 9.0453,-9.7838 -1.7529,-2.807 -1.3,-3.3883 3.3671,-4.3217 7.9397,-1.588 15.2668,-9.8196 16.7957,-18.8692 1.0723,-6.3469 2.5644,-8.5205 8.5652,-12.4768 3.9967,-2.635 9.9749,-7.3362 13.2847,-10.4472 7.3146,-6.875 7.9883,-15.1767 2.2016,-27.1304 -5.3398,-11.0306 -2.578,-13.5855 8.3939,-7.7649 8.5263,4.5232 20.5617,16.51 20.5617,20.4787 0,6.302 5.8672,21.1015 9.0386,22.7987 11.6989,6.2611 18.335,-17.4433 9.6408,-34.437 -4.0231,-7.8635 -15.0963,-15.6049 -30.8002,-21.5324 -8.1477,-3.0755 -14.814,-5.961 -14.814,-6.4124 0,-0.4512 1.8181,-2.3151 4.0402,-4.1418 3.8077,-3.1303 3.8814,-3.6117 1.2813,-8.3683 -1.5173,-2.7758 -5.3814,-6.663 -8.5866,-8.6382 -14.2716,-8.7946 -17.1569,-10.9223 -17.9076,-13.2061 -0.6207,-1.8882 1.1557,-2.2606 7.942,-1.6652 4.8079,0.4218 10.1556,1.4007 11.8839,2.1754 2.4283,1.0883 3.1424,0.5727 3.1424,-2.269 0,-2.0227 0.6507,-4.0796 1.4459,-4.5711 3.2437,-2.0047 15.5212,2.5542 20.8883,7.7562 3.154,3.057 6.2962,4.9965 6.9828,4.3099 0.6865,-0.6865 0.7313,-5.1449 0.099,-9.9076 -0.731,-5.5102 -0.473,-8.6594 0.7096,-8.6594 3.8619,0 47.3926,51.2853 53.4138,62.9293 4.5017,8.7052 3.3869,22.7499 -2.7262,34.347 -4.8335,9.1694 -5.2668,11.3224 -4.3376,21.5478 0.5678,6.2484 1.8878,13.6208 2.9333,16.3833 2.0267,5.3555 9.5507,10.2404 15.7729,10.2404 3.5498,0 3.6104,-0.2453 0.9869,-3.9909 -3.1902,-4.5547 -3.7837,-15.7613 -0.8347,-15.7613 2.0545,0 7.0659,3.5973 20.6369,14.8141 7.6702,6.3397 8.8498,6.727 20.1584,6.6199 9.8563,-0.093 11.2062,-0.435 7.5234,-1.9036 -5.1479,-2.0527 -12.5706,-8.5809 -12.5706,-11.0557 0,-4.2737 11.4284,-15.2806 20.918,-20.1465 13.3905,-6.866 20.382,-13.0758 20.382,-18.1033 0,-3.6616 -0.5137,-3.8448 -6.7337,-2.4004 -9.0973,2.1126 -9.4272,2.0699 -9.4272,-1.2216 0,-6.516 -6.3666,-15.703 -14.6217,-21.0987 -9.5174,-6.2209 -9.4736,-6.1408 -6.9706,-12.7243 2.2166,-5.8297 6.6442,-5.88 15.057,-0.1709 l 6.5353,4.4351 v -4.1676 c 0,-11.8474 -5.8428,-18.5525 -18.8544,-21.6368 -6.0462,-1.4333 -22.1518,-10.9633 -25.5879,-15.141 -4.6335,-5.6333 -2.7576,-7.692 4.3158,-4.7366 3.6084,1.5076 6.8728,2.4289 7.2544,2.0472 0.7711,-0.7711 -8.8307,-25.5685 -13.0887,-33.8027 -1.496,-2.8928 -6.4697,-7.6377 -11.0529,-10.5441 -9.0068,-5.7121 -7.8246,-6.9148 2.5401,-2.5842 l 6.4632,2.7005 -1.047,-6.452 c -1.2973,-7.9939 -3.5822,-10.8181 -12.3869,-15.3099 -13.169,-6.7184 -1.4952,-9.7971 12.7088,-3.3518 9.6428,4.3755 9.2335,4.3972 9.2245,-0.4884 -0.013,-5.5798 -6.1533,-15.1453 -10.6433,-16.5704 -2.0434,-0.6485 -3.7153,-1.9328 -3.7153,-2.8538 0,-2.5464 8.3116,-2.0014 15.54,1.0188 8.0717,3.3725 7.8035,3.4054 7.8035,-0.9555 0,-5.2593 -4.9146,-16.2489 -9.5128,-21.2715 l -3.9546,-4.3195 6.2849,1.0827 c 3.4565,0.5955 8.1029,1.6125 10.3249,2.2599 3.4384,1.0018 4.0403,0.4978 4.0403,-3.3836 0,-2.5084 -1.9976,-6.9348 -4.4391,-9.8366 -2.4415,-2.9015 -4.0066,-5.7078 -3.478,-6.2364 0.5284,-0.5277 4.142,-0.5335 8.0302,-0.012 6.1717,0.8278 7.0695,0.4959 7.0695,-2.614 0,-10.3858 -15.0509,-21.9527 -30.4961,-23.4368 l -8.5341,-0.82 1.6714,-7.4259 c 2.0076,-8.9203 0.7348,-16.7687 -4.4505,-27.4419 l -3.8651,-7.95512 5.3296,-4.3426 c 2.9313,-2.3886 7.7482,-5.5457 10.7042,-7.0161 5.0115,-2.4927 5.6571,-2.4082 9.5505,1.2494 2.2967,2.1576 6.702,8.6629 9.7899,14.4563 8.4412,15.83742 11.7982,17.34092 32.8462,14.71122 7.2248,-0.9028 11.5135,-2.5378 14.5056,-5.5299 6.0162,-6.0159 5.3263,-7.71822 -3.3828,-8.34842 l -7.6313,-0.5521 -0.2142,-8.2689 c -0.1177,-4.5479 -1.0771,-9.8001 -2.1316,-11.6717 -1.5449,-2.7417 -1.0625,-4.2993 2.4828,-8.0156 5.5496,-5.8178 12.2062,-28.9507 10.6766,-37.1038 -1.3403,-7.1449 -2.344,-7.2685 -7.5619,-0.9303 -2.6741,3.2484 -4.5406,4.2607 -5.4545,2.9584 -2.1355,-3.0434 -19.7354,-8.2996 -23.6407,-7.0601 -2.7921,0.8861 -3.7115,0 -4.712,-4.5584 -1.274,-5.8015 -20.0316,-26.804 -23.9385,-26.804 -1.1383,0 -2.0696,1.9575 -2.0696,4.3499 0,3.3754 -1.4017,4.8125 -6.2567,6.4147 -8.388,2.7683 -12.913,8.9978 -14.4025,19.8282 -1.0932,7.9488 -2.089,9.5554 -8.6931,14.0257 -12.9987,8.7986 -12.6279,8.7516 -11.443,1.4499 0.5858,-3.6103 0.4319,-6.564 -0.3421,-6.564 -0.774,0 -4.2813,2.791 -7.7938,6.2024 -4.3796,4.2535 -7.6393,10.0368 -10.3738,18.4054 -7.1783,21.9687 -9.8081,17.8014 -3.6307,-5.7535 1.8131,-6.9134 3.1076,-12.7772 2.8767,-13.031 -0.2309,-0.2538 -3.8076,1.9928 -7.9485,4.9923 -9.5297,6.9035 -13.8496,14.0064 -15.3369,25.2184 -0.6462,4.8716 -1.9552,8.8573 -2.9087,8.8573 -2.2522,0 -2.1945,-5.8267 0.1854,-18.7004 1.0556,-5.7099 1.4737,-10.8271 0.9293,-11.3715 -2.0107,-2.0106 -17.2264,15.3216 -18.3405,20.8917 -2.1502,10.7508 -4.863,8.5318 -3.8071,-3.1138 0.5511,-6.0773 0.3325,-11.0496 -0.4855,-11.0496 -0.8182,0 -3.7718,1.9233 -6.5635,4.2742 -4.8661,4.0975 -6.7112,8.752 -11.1179,28.0477 -1.6312,7.1428 -1.7951,6.058 -1.4133,-9.3508 0.4032,-16.265 0.1903,-17.4663 -3.1822,-17.9565 -3.0597,-0.4448 -17.195,-17.7773 -17.195,-21.0844 0,-0.6001 5.5588,-2.5231 12.3528,-4.2734 14.6063,-3.7627 45.9396,-18.8549 64.8602,-31.2413 18.6299,-12.1959 33.6208,-26.5637 50.6211,-48.5169 7.9648,-10.2852 15.592,-19.1267 16.9494,-19.6475 5.6624,-2.1728 11.2565,1.189 13.1023,7.8742 2.4623,8.9179 -0.5353,20.2965 -5.347,20.2965 -2.9816,0 -7.091,-5.7977 -7.091,-10.0043 0,-6.6176 -3.2691,-5.2112 -4.6196,1.9875 -1.3449,7.1691 0.061,16.3595 3.0544,19.9664 3.1389,3.7821 9.754,2.8481 15.7877,-2.2289 10.4116,-8.7608 13.9954,-34.5902 6.7449,-48.6115 -7.1113,-13.7514 -18.4315,-18.8678 -31.6617,-14.3095 -4.6176,1.591 -7.2013,1.8415 -6.8076,0.6604 1.1106,-3.332 12.7336,-8.5122 19.0989,-8.5122 6.1282,0 6.1344,-0.01 2.7257,-3.7753 -7.3895,-8.1654 -19.7313,-11.0397 -30.2428,-7.0432 -2.6433,1.0049 -4.6059,1.0603 -4.6059,0.1301 0,-3.1501 9.5307,-9.0641 14.6072,-9.0641 6.3495,0 6.478,-1.7131 0.5464,-7.2854 -3.4335,-3.2257 -6.4773,-4.2705 -12.016,-4.1254 -6.7193,0.1764 -7.0995,-0.038 -4.0368,-2.2777 1.8596,-1.3598 4.1337,-2.4723 5.0534,-2.4723 3.6025,0 -2.9087,-5.2226 -7.8696,-6.3122 -2.8947,-0.6357 -5.2629,-1.5814 -5.2629,-2.1016 0,-1.2553 6.7127,-9.829 36.6435,-46.8027 27.3861,-33.8297 27.1108,-33.6448 40.8223,-27.423 11.8505,5.3773 32.0689,4.2666 32.0689,-1.7621 0,-0.9212 -2.2221,-2.8435 -4.9381,-4.2715 l -4.938,-2.5963 5.3868,-1.1765 c 15.7458,-3.4393 17.6962,-4.8951 24.1055,-17.9919 4.2957,-8.7782 6.1897,-15.19881 6.2846,-21.30631 l 0.1361,-8.7414 -31.7189,0.3156 c -29.9955,0.298 -31.7795,0.1255 -32.8281,-3.1789 -0.6101,-1.9219 -3.2812,-5.8068 -5.9361,-8.6328 l -4.8271,-5.1387 -1.0096,5.3869 c -0.7555,4.0313 -1.859,5.2374 -4.3841,4.7928 -7.6447,-1.3462 -15.7348,1.9998 -25.5044,10.5489 -8.7839,7.6867 -11.2133,8.9 -17.8242,8.9 -11.2395,0 -13.3349,-1.2911 -13.3349,-8.2165 0,-8.979 -4.4794,-6.0892 -8.9079,5.7468 -2.0099,5.372 -4.9506,11.74581 -6.535,14.16381 -1.9012,2.9016 -2.6613,7.1565 -2.2353,12.5121 0.7841,9.8596 -0.8105,10.5522 -3.1819,1.3818 l -1.7412,-6.7338 -3.7573,5.9737 c -2.8658,4.5563 -4.0549,10.3411 -5.0119,24.3809 -0.69,10.1237 -1.8751,19.4108 -2.6332,20.6376 -0.7583,1.2268 -1.9517,-6.0907 -2.6522,-16.2612 -0.7005,-10.1704 -1.6926,-18.9106 -2.2046,-19.4226 -0.5119,-0.5118 -3.8026,2.2027 -7.3125,6.0326 l -6.3817,6.9637 1.2204,17.7204 c 0.6712,9.7463 0.8665,17.7206 0.4339,17.7206 -0.7424,0 -5.0672,-17.295 -7.521,-30.0772 -1.4466,-7.535 -3.2631,-7.3574 -8.8507,0.8659 -4.7875,7.0453 -6.1251,19.3294 -3.0212,27.7476 2.8896,7.8376 3.9219,14.0332 2.338,14.0332 -2.5428,0 -11.0534,-20.5658 -11.0534,-26.7104 0,-6.3622 -1.7237,-7.0598 -5.938,-2.4033 -4.9414,5.4603 6.7842,13.9763 6.7842,23.4825 0,9.3994 0.1717,23.2162 8.5452,34.3689 4.1279,5.4983 -6.7128,5.2642 -7.8517,36.987 -0.6345,17.676 -2.1364,36.5825 -3.3375,42.0146 -2.7682,12.5182 -11.0858,28.3855 -18.7986,35.8612 l -5.9732,5.7892 6.0238,-25.2172 c 5.1635,-21.6155 14.1472,-33.6323 11.4445,-39.6192 -2.2378,-4.9569 -0.7516,-2.1892 -0.028,-7.146 0.7255,-4.9719 4.6904,-6.9869 1.5164,-17.9102 -2.5219,-8.6794 0.015,-6.1958 0.6018,-7.1455 2.5152,-1.9653 -1.3446,-5.3906 1.1298,-4.9692 l 2.0113,-7.6174 3.6609,-14.2677 c -0.4994,-4.2306 -5.5716,-31.5135 -10.7561,-36.6979 -6.3085,-6.3087 -24.3379,13.2934 -32.7789,13.2934 -7.9152,0 -9.4006,13.0671 -13.8545,17.5212 -4.1864,4.1864 -5.249,6.8239 -5.249,13.0305 0,4.2797 0.7562,10.4178 1.6804,13.6402 1.0158,3.5444 1.0252,5.4541 0.023,4.8346 -3.511,-2.1699 -7.5334,-21.1739 -6.5331,-30.8662 0.9569,-9.2703 0.8435,-9.5981 -2.9235,-8.4576 -5.9285,1.7952 -11.6654,7.788 -13.8802,14.4987 -1.5513,4.7008 -1.389,8.074 0.7436,15.448 2.7269,9.4284 2.7264,9.4313 -0.7608,5.1948 -3.6114,-4.3884 -4.3965,-9.5566 -3.6303,-23.9145 0.4065,-7.6162 0.1125,-8.3136 -3.1425,-7.4624 -8.0518,2.1056 -15.6538,16.4416 -13.524,25.5038 0.9323,3.9669 0.713,4.3508 -1.3659,2.3923 -1.362,-1.2833 -2.8804,-7.3232 -3.3742,-13.4221 l -0.898,-11.0891 -6.7335,6.7481 c -4.8518,4.8625 -6.7339,5.9011 -6.7339,3.7167 0,-2.7828 -0.2915,-2.7678 -3.5537,0.1845 -3.4203,3.0954 -3.6059,3.0891 -4.9382,-0.1706 -2.3917,-5.8523 -1.4956,-72.6381 1.0756,-80.1453 4.3639,-12.742 13.9188,-15.2612 28.9643,-7.637 10.71,5.4271 14.1703,5.5629 22.8744,0.8978 3.6854,-1.9751 7.6847,-3.5912 8.8873,-3.5912 4.7657,0 11.7359,-4.5472 14.1622,-9.239 4.0397,-7.8119 3.3486,-8.6421 -6.2485,-7.5054 l -8.8071,1.043 5.7878,-17.79211 6.6264,-14.7443 v -17.5026 h -50.0064 v 17.9569 z"
         style="fill:none;fill-opacity:1;stroke:#ff0000;stroke-width:1.79565203;stroke-opacity:1"
         id="path21890" />
    </g>
  </g>
  <g
     inkscape:groupmode="layer"
     inkscape:label="Dackelumriss"
     id="g2167"
     transform="translate(390.93194,-685.51613)"
     style="display:none">
    <g
       id="g6192" />
    <path
       id="rect1651-7"
       style="display:inline;fill:none;fill-opacity:1;fill-rule:evenodd;stroke:#000000;stroke-width:1.88976383;stroke-miterlimit:4;stroke-dasharray:none;stroke-opacity:1"
       d="m -134.1691,1284.1346 c 0,-4.6604 32.83991,-20.3683 42.583162,-20.3683 15.165427,0 23.998052,-10.6818 25.990113,-31.4327 l 1.729125,-18.0093 -18.822612,-8.2386 c -49.438378,-21.639 -91.282858,-59.328 -109.018278,-98.1924 -6.65934,-14.593 -8.01103,-24.9222 -8.05229,-61.5365 -0.0385,-35.0359 -1.66165,-48.40969 -7.96207,-65.64549 -4.35193,-11.9049 -8.91975,-31.7724 -10.15038,-44.1502 -3.50838,-35.277 -1.12307,-34.26 -77.8188,-33.1857 -73.94148,1.0356 -81.59089,-0.4546 -106.5015,-20.7473 l -15.30498,-12.4677 10.44454,-7.163 c 5.74448,-3.9398 29.15689,-16.0285 52.02725,-26.8639 27.42776,-12.9943 48.14452,-25.6082 60.85947,-37.0557 24.95226,-22.4642 53.60063,-32.40942 94.61929,-32.84565 34.12877,-0.36331 43.22008,3.54285 63.46764,27.26915 16.77695,19.6597 46.787808,69.651 65.406864,108.9537 7.809015,16.4837 16.483955,33.0468 19.277927,36.8064 2.793971,3.7597 20.7715,13.8771 39.95035,22.4833 73.234782,32.8623 169.293269,45.53049 346.699749,45.72329 123.83634,0.1332 146.41176,2.714 203.33492,23.2325 94.39644,34.0256 119.20256,38.5375 157.35555,28.6195 16.95083,-4.4063 14.52695,-3.8589 27.08757,-12.6646 2.04257,-2.6311 2.84872,-2.6184 2.89152,0.047 0.13879,8.7797 -0.9883,13.9091 -24.66288,23.9762 -33.15529,14.0984 -57.30992,13.2776 -102.04438,4.0773 -17.54571,-3.6088 -32.68146,-5.4709 -33.63488,-4.1382 -0.95383,1.3327 0.13108,11.5623 2.40804,22.7329 4.94874,24.2655 24.15882,53.5903 39.03201,59.5834 34.58678,13.9363 31.91694,11.227 30.61537,31.0665 -0.65541,9.9885 -1.551,36.6703 -1.99052,59.2927 -0.75179,38.7129 -1.33048,41.5028 -9.83771,47.4533 l -10.39908,6.5534 v 13.2284 h -37.79528 v -13.2284 l -5.50188,-10.9708 c -0.66851,-2.998 4.96069,-11.3558 12.50949,-18.573 14.97998,-14.3219 16.15932,-20.325 9.4194,-47.9489 -5.43221,-22.2631 -9.51425,-26.5589 -24.05202,-25.3094 -10.48733,0.9011 -12.16364,2.6843 -16.59654,17.6526 -2.71224,9.1577 -6.06717,25.2032 -7.45548,35.657 -3.41122,25.6854 -9.38394,29.8909 -40.63854,28.6158 -22.05455,-0.9001 -24.4202,-1.676 -23.35805,-7.6618 1.12538,-6.3391 5.46805,-10.2466 24.11332,-21.6966 6.5306,-4.0104 8.6441,-9.6329 10.2938,-27.3848 2.0341,-21.8881 1.86638,-22.4073 -8.33296,-25.7567 -5.72482,-1.8798 -19.38935,-3.4183 -30.36516,-3.4183 -16.74999,0 -23.32105,-2.0013 -40.89646,-12.4567 l -20.93959,-12.4568 -55.56415,-1.2411 c -68.52971,-1.5305 -81.62673,0.5904 -182.13623,29.4977 -82.2382,23.6521 -126.875116,33.2519 -155.015356,33.3389 -9.101337,0.033 -18.523439,1.1518 -20.938041,2.4975 -5.1812166,2.8875 -12.906969,25.417 -12.937418,37.7286 0,4.7526 -3.057683,10.9465 -6.76846,13.7644 -12.96055,9.841 -37.459187,17.7694 -47.362961,16.1224 v 13.2284 h -37.795274 v -13.2284 c -13.75591,-1.5807 -31.46626,-10.2085 -31.46626,-13.1653 z"
       inkscape:connector-curvature="0"
       sodipodi:nodetypes="ssccscccccccccccccccccccccccccccccccccccccccccscsccccccccccccs" />
  </g>
</svg>
