  0
SECTION
  2
HEADER
  9
$ACADVER
  1
AC1014
  9
$HANDSEED
  5
FFFF
  9
$MEASUREMENT
 70
     1
  0
ENDSEC
  0
SECTION
  2
TABLES
  0
TABLE
  2
VPORT
  5
8
330
0
100
AcDbSymbolTable
 70
     4
  0
VPORT
  5
2E
330
8
100
AcDbSymbolTableRecord
100
AcDbViewportTableRecord
  2
*ACTIVE
 70
     0
 10
0.0
 20
0.0
 11
1.0
 21
1.0
 12
210.0
 22
148.5
 13
0.0
 23
0.0
 14
10.0
 24
10.0
 15
10.0
 25
10.0
 16
0.0
 26
0.0
 36
1.0
 17
0.0
 27
0.0
 37
0.0
 40
341.0
 41
1.24
 42
50.0
 43
0.0
 44
0.0
 50
0.0
 51
0.0
 71
     0
 72
   100
 73
     1
 74
     3
 75
     0
 76
     0
 77
     0
 78
     0
  0
ENDTAB
  0
TABLE
  2
LTYPE
  5
5
330
0
100
AcDbSymbolTable
 70
     1
  0
LTYPE
  5
14
330
5
100
AcDbSymbolTableRecord
100
AcDbLinetypeTableRecord
  2
BYBLOCK
 70
     0
  3

 72
    65
 73
     0
 40
0.0
  0
LTYPE
  5
15
330
5
100
AcDbSymbolTableRecord
100
AcDbLinetypeTableRecord
  2
BYLAYER
 70
     0
  3

 72
    65
 73
     0
 40
0.0
  0
LTYPE
  5
16
330
5
100
AcDbSymbolTableRecord
100
AcDbLinetypeTableRecord
  2
CONTINUOUS
 70
     0
  3
Solid line
 72
    65
 73
     0
 40
0.0
  0
ENDTAB
  0
TABLE
  2
LAYER
  5
2
100
AcDbSymbolTable
 70
4
  0
LAYER
  5
50
100
AcDbSymbolTableRecord
100
AcDbLayerTableRecord
  2
0
 70
0
  6
CONTINUOUS
  0
LAYER
  5
51
100
AcDbSymbolTableRecord
100
AcDbLayerTableRecord
  2
Rohmaterialblock
 70
0
  6
CONTINUOUS
  0
LAYER
  5
52
100
AcDbSymbolTableRecord
100
AcDbLayerTableRecord
  2
Borhschablone
 70
0
  6
CONTINUOUS
  0
LAYER
  5
53
100
AcDbSymbolTableRecord
100
AcDbLayerTableRecord
  2
Dackelumriss
 70
0
  6
CONTINUOUS
  0
ENDTAB
  0
TABLE
  2
STYLE
  5
3
330
0
100
AcDbSymbolTable
 70
     1
  0
STYLE
  5
11
330
3
100
AcDbSymbolTableRecord
100
AcDbTextStyleTableRecord
  2
STANDARD
 70
     0
 40
0.0
 41
1.0
 50
0.0
 71
     0
 42
2.5
  3
txt
  4

  0
ENDTAB
  0
TABLE
  2
VIEW
  5
6
330
0
100
AcDbSymbolTable
 70
     0
  0
ENDTAB
  0
TABLE
  2
UCS
  5
7
330
0
100
AcDbSymbolTable
 70
     0
  0
ENDTAB
  0
TABLE
  2
APPID
  5
9
330
0
100
AcDbSymbolTable
 70
     2
  0
APPID
  5
12
330
9
100
AcDbSymbolTableRecord
100
AcDbRegAppTableRecord
  2
ACAD
 70
     0
  0
ENDTAB
  0
TABLE
  2
DIMSTYLE
  5
A
330
0
100
AcDbSymbolTable
 70
     1
  0
DIMSTYLE
105
27
330
A
100
AcDbSymbolTableRecord
100
AcDbDimStyleTableRecord
  2
ISO-25
 70
     0
  3

  4

  5

  6

  7

 40
1.0
 41
2.5
 42
0.625
 43
3.75
 44
1.25
 45
0.0
 46
0.0
 47
0.0
 48
0.0
140
2.5
141
2.5
142
0.0
143
0.03937007874016
144
1.0
145
0.0
146
1.0
147
0.625
 71
     0
 72
     0
 73
     0
 74
     0
 75
     0
 76
     0
 77
     1
 78
     8
170
     0
171
     3
172
     1
173
     0
174
     0
175
     0
176
     0
177
     0
178
     0
270
     2
271
     2
272
     2
273
     2
274
     3
340
11
275
     0
280
     0
281
     0
282
     0
283
     0
284
     8
285
     0
286
     0
287
     3
288
     0
  0
ENDTAB
  0
TABLE
  2
BLOCK_RECORD
  5
1
330
0
100
AcDbSymbolTable
 70
     1
  0
BLOCK_RECORD
  5
1F
330
1
100
AcDbSymbolTableRecord
100
AcDbBlockTableRecord
  2
*MODEL_SPACE
  0
BLOCK_RECORD
  5
1B
330
1
100
AcDbSymbolTableRecord
100
AcDbBlockTableRecord
  2
*PAPER_SPACE
  0
ENDTAB
  0
ENDSEC
  0
SECTION
  2
BLOCKS
  0
BLOCK
  5
20
330
1F
100
AcDbEntity
  8
0
100
AcDbBlockBegin
  2
*MODEL_SPACE
 70
     0
 10
0.0
 20
0.0
 30
0.0
  3
*MODEL_SPACE
  1

  0
ENDBLK
  5
21
330
1F
100
AcDbEntity
  8
0
100
AcDbBlockEnd
  0
BLOCK
  5
1C
330
1B
100
AcDbEntity
 67
     1
  8
0
100
AcDbBlockBegin
  2
*PAPER_SPACE
  1

  0
ENDBLK
  5
1D
330
1B
100
AcDbEntity
 67
     1
  8
0
100
AcDbBlockEnd
  0
ENDSEC
  0
SECTION
  2
ENTITIES
  0
LWPOLYLINE
  5
100
100
AcDbEntity
  8
Borhschablone
 62
7
100
AcDbPolyline
 90
24
 70
1
 10
30.116653
 20
59.275006
 30
0.0
 10
29.655537
 20
59.059358
 30
0.0
 10
29.265965
 20
58.731711
 30
0.0
 10
28.974447
 20
58.314397
 30
0.0
 10
28.800854
 20
57.835850
 30
0.0
 10
28.757065
 20
57.328686
 30
0.0
 10
28.846018
 20
56.827465
 30
0.0
 10
29.061653
 20
56.366347
 30
0.0
 10
29.389313
 20
55.976755
 30
0.0
 10
29.806614
 20
55.685240
 30
0.0
 10
30.285166
 20
55.511666
 30
0.0
 10
30.792346
 20
55.467864
 30
0.0
 10
31.293546
 20
55.556817
 30
0.0
 10
31.754662
 20
55.772465
 30
0.0
 10
32.144261
 20
56.100110
 30
0.0
 10
32.435779
 20
56.517426
 30
0.0
 10
32.609345
 20
56.995973
 30
0.0
 10
32.653160
 20
57.503137
 30
0.0
 10
32.564208
 20
58.004355
 30
0.0
 10
32.348546
 20
58.465474
 30
0.0
 10
32.020912
 20
58.855068
 30
0.0
 10
31.603585
 20
59.146583
 30
0.0
 10
31.125059
 20
59.320157
 30
0.0
 10
30.617880
 20
59.363959
 30
0.0
  0
LWPOLYLINE
  5
101
100
AcDbEntity
  8
Borhschablone
 62
7
100
AcDbPolyline
 90
4
 70
1
 10
21.524124
 20
8.692325
 30
0.0
 10
25.524121
 20
8.692325
 30
0.0
 10
25.524174
 20
4.692327
 30
0.0
 10
21.524177
 20
4.692327
 30
0.0
  0
LWPOLYLINE
  5
102
100
AcDbEntity
  8
Borhschablone
 62
7
100
AcDbPolyline
 90
4
 70
1
 10
25.524121
 20
84.692329
 30
0.0
 10
21.524124
 20
84.692329
 30
0.0
 10
21.524124
 20
80.692329
 30
0.0
 10
25.524121
 20
80.692329
 30
0.0
  0
LWPOLYLINE
  5
103
100
AcDbEntity
  8
Borhschablone
 62
7
100
AcDbPolyline
 90
24
 70
1
 10
57.835355
 20
7.667329
 30
0.0
 10
57.640569
 20
7.197005
 30
0.0
 10
57.574106
 20
6.692313
 30
0.0
 10
57.640569
 20
6.187620
 30
0.0
 10
57.835355
 20
5.717323
 30
0.0
 10
58.145262
 20
5.313463
 30
0.0
 10
58.549122
 20
5.003583
 30
0.0
 10
59.019419
 20
4.808770
 30
0.0
 10
59.524112
 20
4.742333
 30
0.0
 10
60.028804
 20
4.808770
 30
0.0
 10
60.499101
 20
5.003583
 30
0.0
 10
60.902961
 20
5.313463
 30
0.0
 10
61.212868
 20
5.717323
 30
0.0
 10
61.407680
 20
6.187646
 30
0.0
 10
61.474117
 20
6.692339
 30
0.0
 10
61.407680
 20
7.197032
 30
0.0
 10
61.212868
 20
7.667329
 30
0.0
 10
60.902961
 20
8.071189
 30
0.0
 10
60.499101
 20
8.381069
 30
0.0
 10
60.028804
 20
8.575881
 30
0.0
 10
59.524138
 20
8.642318
 30
0.0
 10
59.019472
 20
8.575881
 30
0.0
 10
58.549175
 20
8.381069
 30
0.0
 10
58.145288
 20
8.071189
 30
0.0
  0
LWPOLYLINE
  5
104
100
AcDbEntity
  8
Borhschablone
 62
7
100
AcDbPolyline
 90
4
 70
1
 10
31.336223
 20
69.565044
 30
0.0
 10
30.474819
 20
65.658899
 30
0.0
 10
34.380943
 20
64.797488
 30
0.0
 10
35.242373
 20
68.703632
 30
0.0
  0
LWPOLYLINE
  5
105
100
AcDbEntity
  8
Borhschablone
 62
7
100
AcDbPolyline
 90
4
 70
1
 10
30.935300
 20
49.172908
 30
0.0
 10
27.029151
 20
50.034320
 30
0.0
 10
26.167747
 20
46.128175
 30
0.0
 10
30.073896
 20
45.266761
 30
0.0
  0
LWPOLYLINE
  5
106
100
AcDbEntity
  8
Borhschablone
 62
7
100
AcDbPolyline
 90
4
 70
1
 10
33.524116
 20
84.692321
 30
0.0
 10
29.524119
 20
84.692321
 30
0.0
 10
29.524119
 20
80.692329
 30
0.0
 10
33.524116
 20
80.692329
 30
0.0
  0
LWPOLYLINE
  5
107
100
AcDbEntity
  8
Borhschablone
 62
7
100
AcDbPolyline
 90
24
 70
1
 10
25.553173
 20
21.031830
 30
0.0
 10
25.532535
 20
20.510124
 30
0.0
 10
25.647576
 20
20.000854
 30
0.0
 10
25.890490
 20
19.538707
 30
0.0
 10
26.244740
 20
19.155167
 30
0.0
 10
26.686198
 20
18.876375
 30
0.0
 10
27.184699
 20
18.721356
 30
0.0
 10
27.706378
 20
18.700718
 30
0.0
 10
28.215728
 20
18.815733
 30
0.0
 10
28.677849
 20
19.058647
 30
0.0
 10
29.061362
 20
19.412897
 30
0.0
 10
29.340127
 20
19.854355
 30
0.0
 10
29.495200
 20
20.352909
 30
0.0
 10
29.515837
 20
20.874614
 30
0.0
 10
29.400849
 20
21.383884
 30
0.0
 10
29.157935
 20
21.846032
 30
0.0
 10
28.803685
 20
22.229572
 30
0.0
 10
28.362227
 20
22.508363
 30
0.0
 10
27.863673
 20
22.663383
 30
0.0
 10
27.341968
 20
22.684020
 30
0.0
 10
26.832698
 20
22.569006
 30
0.0
 10
26.370576
 20
22.326092
 30
0.0
 10
25.987010
 20
21.971841
 30
0.0
 10
25.708245
 20
21.530384
 30
0.0
  0
LWPOLYLINE
  5
108
100
AcDbEntity
  8
Borhschablone
 62
7
100
AcDbPolyline
 90
24
 70
1
 10
184.731771
 20
20.518009
 30
0.0
 10
184.844748
 20
20.008289
 30
0.0
 10
185.085810
 20
19.545162
 30
0.0
 10
185.438526
 20
19.160220
 30
0.0
 10
185.878872
 20
18.879709
 30
0.0
 10
186.376818
 20
18.722705
 30
0.0
 10
186.898418
 20
18.699951
 30
0.0
 10
187.408164
 20
18.812955
 30
0.0
 10
187.871264
 20
19.054043
 30
0.0
 10
188.256206
 20
19.406759
 30
0.0
 10
188.536718
 20
19.847105
 30
0.0
 10
188.693721
 20
20.345051
 30
0.0
 10
188.716476
 20
20.866650
 30
0.0
 10
188.603472
 20
21.376397
 30
0.0
 10
188.362384
 20
21.839497
 30
0.0
 10
188.009668
 20
22.224439
 30
0.0
 10
187.569322
 20
22.504950
 30
0.0
 10
187.071402
 20
22.661954
 30
0.0
 10
186.549829
 20
22.684708
 30
0.0
 10
186.040056
 20
22.571705
 30
0.0
 10
185.576930
 20
22.330616
 30
0.0
 10
185.191987
 20
21.977900
 30
0.0
 10
184.911476
 20
21.537554
 30
0.0
 10
184.754499
 20
21.039608
 30
0.0
  0
LWPOLYLINE
  5
109
100
AcDbEntity
  8
Borhschablone
 62
7
100
AcDbPolyline
 90
24
 70
1
 10
173.574160
 20
6.692313
 30
0.0
 10
173.640544
 20
6.187620
 30
0.0
 10
173.835356
 20
5.717323
 30
0.0
 10
174.145263
 20
5.313463
 30
0.0
 10
174.549123
 20
5.003583
 30
0.0
 10
175.019420
 20
4.808770
 30
0.0
 10
175.524112
 20
4.742307
 30
0.0
 10
176.028805
 20
4.808770
 30
0.0
 10
176.499102
 20
5.003583
 30
0.0
 10
176.902962
 20
5.313463
 30
0.0
 10
177.212868
 20
5.717323
 30
0.0
 10
177.407655
 20
6.187620
 30
0.0
 10
177.474118
 20
6.692313
 30
0.0
 10
177.407655
 20
7.197005
 30
0.0
 10
177.212868
 20
7.667329
 30
0.0
 10
176.902962
 20
8.071189
 30
0.0
 10
176.499102
 20
8.381069
 30
0.0
 10
176.028805
 20
8.575881
 30
0.0
 10
175.524112
 20
8.642318
 30
0.0
 10
175.019420
 20
8.575881
 30
0.0
 10
174.549123
 20
8.381069
 30
0.0
 10
174.145263
 20
8.071189
 30
0.0
 10
173.835356
 20
7.667329
 30
0.0
 10
173.640597
 20
7.197032
 30
0.0
  0
LWPOLYLINE
  5
10a
100
AcDbEntity
  8
Borhschablone
 62
7
100
AcDbPolyline
 90
4
 70
1
 10
209.524208
 20
4.692327
 30
0.0
 10
213.524153
 20
4.692327
 30
0.0
 10
213.524126
 20
8.692325
 30
0.0
 10
209.524155
 20
8.692325
 30
0.0
  0
LWPOLYLINE
  5
10b
100
AcDbEntity
  8
Borhschablone
 62
7
100
AcDbPolyline
 90
4
 70
1
 10
119.524150
 20
4.692327
 30
0.0
 10
115.524100
 20
4.692327
 30
0.0
 10
115.524100
 20
8.692325
 30
0.0
 10
119.524124
 20
8.692325
 30
0.0
  0
SPLINE
  5
10c
100
AcDbEntity
  8
Dackelumriss
 62
1
100
AcDbSpline
 70
8
 71
3
 72
8
 73
4
 74
0
 40
0
 40
0
 40
0
 40
0
 40
1
 40
1
 40
1
 40
1
 10
262.796089
 20
0.524240
 30
0.0
 10
262.796089
 20
0.524240
 30
0.0
 10
261.974804
 20
52.649681
 30
0.0
 10
262.385448
 20
60.041242
 30
0.0
  0
LWPOLYLINE
  5
10d
100
AcDbEntity
  8
Dackelumriss
 62
1
100
AcDbPolyline
 90
15
 70
0
 10
0.176612
 20
89.607493
 30
0.0
 10
0.176612
 20
66.086739
 30
0.0
 10
25.554088
 20
66.086739
 30
0.0
 10
25.554088
 20
56.996748
 30
0.0
 10
12.028712
 20
56.996748
 30
0.0
 10
12.028712
 20
48.588388
 30
0.0
 10
5.963359
 20
48.588388
 30
0.0
 10
5.963359
 20
40.180040
 30
0.0
 10
0.176612
 20
40.180040
 30
0.0
 10
0.176612
 20
16.698828
 30
0.0
 10
0.032642
 20
16.698828
 30
0.0
 10
0.032642
 20
0.032644
 30
0.0
 10
262.695925
 20
0.032644
 30
0.0
 10
262.695925
 20
0.524240
 30
0.0
 10
262.796089
 20
0.524240
 30
0.0
  0
LWPOLYLINE
  5
10e
100
AcDbEntity
  8
Dackelumriss
 62
1
100
AcDbPolyline
 90
46
 70
0
 10
262.385448
 20
60.041242
 30
0.0
 10
244.955981
 20
60.041242
 30
0.0
 10
245.366622
 20
44.197191
 30
0.0
 10
235.884815
 20
44.197191
 30
0.0
 10
235.474174
 20
60.041242
 30
0.0
 10
218.044678
 20
60.041242
 30
0.0
 10
218.455319
 20
16.698828
 30
0.0
 10
213.649044
 20
16.698828
 30
0.0
 10
213.649044
 20
27.982566
 30
0.0
 10
186.946786
 20
27.982566
 30
0.0
 10
186.946786
 20
48.429116
 30
0.0
 10
213.649044
 20
48.429116
 30
0.0
 10
213.238403
 20
60.041242
 30
0.0
 10
168.479227
 20
60.041242
 30
0.0
 10
168.889868
 20
16.698828
 30
0.0
 10
163.370138
 20
16.698828
 30
0.0
 10
162.959497
 20
60.041242
 30
0.0
 10
145.739051
 20
60.041242
 30
0.0
 10
146.149692
 20
16.698828
 30
0.0
 10
140.524323
 20
16.698828
 30
0.0
 10
140.524323
 20
21.358061
 30
0.0
 10
135.783418
 20
21.358061
 30
0.0
 10
135.783418
 20
25.562422
 30
0.0
 10
140.524323
 20
25.562422
 30
0.0
 10
140.113681
 20
60.041242
 30
0.0
 10
98.352240
 20
60.041242
 30
0.0
 10
98.762881
 20
16.698828
 30
0.0
 10
93.129772
 20
16.698828
 30
0.0
 10
92.719131
 20
60.041242
 30
0.0
 10
75.289647
 20
60.041242
 30
0.0
 10
75.700290
 20
24.385979
 30
0.0
 10
66.218482
 20
24.385979
 30
0.0
 10
65.807839
 20
60.041242
 30
0.0
 10
48.378359
 20
60.041242
 30
0.0
 10
48.789002
 20
16.698828
 30
0.0
 10
43.192935
 20
16.698828
 30
0.0
 10
43.192935
 20
24.044984
 30
0.0
 10
17.815462
 20
24.044984
 30
0.0
 10
17.815462
 20
33.134983
 30
0.0
 10
31.410410
 20
33.134983
 30
0.0
 10
31.410410
 20
41.543340
 30
0.0
 10
37.406194
 20
41.543340
 30
0.0
 10
37.406194
 20
49.952018
 30
0.0
 10
43.192935
 20
49.952018
 30
0.0
 10
43.192935
 20
89.607493
 30
0.0
 10
0.176612
 20
89.607493
 30
0.0
  0
LWPOLYLINE
  5
10f
100
AcDbEntity
  8
Dackelumriss
 62
1
100
AcDbPolyline
 90
4
 70
1
 10
116.820119
 20
52.605538
 30
0.0
 10
122.467074
 20
52.605538
 30
0.0
 10
122.467074
 20
44.197191
 30
0.0
 10
116.820119
 20
44.197191
 30
0.0
  0
LWPOLYLINE
  5
110
100
AcDbEntity
  8
Dackelumriss
 62
1
100
AcDbPolyline
 90
4
 70
1
 10
116.610760
 20
32.794332
 30
0.0
 10
122.676444
 20
32.794332
 30
0.0
 10
122.676444
 20
16.698828
 30
0.0
 10
116.610760
 20
16.698828
 30
0.0
  0
LWPOLYLINE
  5
111
100
AcDbEntity
  8
Dackelumriss
 62
1
100
AcDbPolyline
 90
4
 70
1
 10
235.884815
 20
32.794332
 30
0.0
 10
245.366622
 20
32.794332
 30
0.0
 10
245.366622
 20
16.698828
 30
0.0
 10
235.884815
 20
16.698828
 30
0.0
  0
ENDSEC
  0
SECTION
  2
OBJECTS
  0
DICTIONARY
  5
C
330
0
100
AcDbDictionary
  3
ACAD_GROUP
350
D
  3
ACAD_MLINESTYLE
350
17
  0
DICTIONARY
  5
D
330
C
100
AcDbDictionary
  0
DICTIONARY
  5
1A
330
C
100
AcDbDictionary
  0
DICTIONARY
  5
17
330
C
100
AcDbDictionary
  3
STANDARD
350
18
  0
DICTIONARY
  5
19
330
C
100
AcDbDictionary
  0
ENDSEC
  0
EOF
