<?xml version="1.0" encoding="UTF-8" standalone="no"?>
<svg
   xmlns:dc="http://purl.org/dc/elements/1.1/"
   xmlns:cc="http://creativecommons.org/ns#"
   xmlns:rdf="http://www.w3.org/1999/02/22-rdf-syntax-ns#"
   xmlns:svg="http://www.w3.org/2000/svg"
   xmlns="http://www.w3.org/2000/svg"
   xmlns:sodipodi="http://sodipodi.sourceforge.net/DTD/sodipodi-0.dtd"
   xmlns:inkscape="http://www.inkscape.org/namespaces/inkscape"
   width="1190.2028"
   height="534.54688"
   version="1.1"
   id="svg2171"
   sodipodi:docname="Dackel_Schleuder_v6.svg"
   inkscape:version="0.92.2 (5c3e80d, 2017-08-06)">
  <metadata
     id="metadata2175">
    <rdf:RDF>
      <cc:Work
         rdf:about="">
        <dc:format>image/svg+xml</dc:format>
        <dc:type
           rdf:resource="http://purl.org/dc/dcmitype/StillImage" />
        <dc:title />
      </cc:Work>
    </rdf:RDF>
  </metadata>
  <sodipodi:namedview
     pagecolor="#ffffff"
     bordercolor="#666666"
     borderopacity="1"
     objecttolerance="10"
     gridtolerance="10"
     guidetolerance="10"
     inkscape:pageopacity="0"
     inkscape:pageshadow="2"
     inkscape:window-width="1366"
     inkscape:window-height="749"
     id="namedview2173"
     showgrid="false"
     inkscape:zoom="0.65612346"
     inkscape:cx="568.17692"
     inkscape:cy="84.961535"
     inkscape:window-x="-4"
     inkscape:window-y="-4"
     inkscape:window-maximized="1"
     inkscape:current-layer="g2167"
     inkscape:measure-start="324.111,3.66237"
     inkscape:measure-end="353.487,2.15541" />
  <desc
     id="desc815">C:\Users\Andreas Reheis\Documents\Laser\Mohrnkopfschleuder\Mohrnkopfschleuder_v_5.dxf - scale = 1.000000, origin = (0.000000, 0.000000), method = file</desc>
  <defs
     id="defs829">
    <marker
       id="DistanceX"
       orient="auto"
       refX="0"
       refY="0"
       style="overflow:visible">
      <path
         d="M 3,-3 -3,3 M 0,-5 V 5"
         style="stroke:#000000;stroke-width:0.5"
         id="path817"
         inkscape:connector-curvature="0" />
    </marker>
    <pattern
       height="8"
       id="Hatch"
       patternUnits="userSpaceOnUse"
       width="8"
       x="0"
       y="0">
      <path
         d="M8 4 l-4,4"
         linecap="square"
         stroke="#000000"
         stroke-width="0.25"
         id="path820" />
      <path
         d="M6 2 l-4,4"
         linecap="square"
         stroke="#000000"
         stroke-width="0.25"
         id="path822" />
      <path
         d="M4 0 l-4,4"
         linecap="square"
         stroke="#000000"
         stroke-width="0.25"
         id="path824" />
    </pattern>
    <symbol
       id="*MODEL_SPACE" />
    <symbol
       id="*PAPER_SPACE" />
  </defs>
  <g
     inkscape:groupmode="layer"
     id="layer1"
     inkscape:label="Rohmaterialblock"
     transform="translate(238.31293,-26.019145)"
     style="display:inline" />
  <g
     inkscape:groupmode="layer"
     inkscape:label="Borhschablone"
     id="g831"
     style="display:inline"
     transform="translate(420.48551,-764.41679)">
    <g
       style="display:inline"
       transform="matrix(0,-1,-1,0,1596.2255,804.76709)"
       id="g8957">
      <path
         id="path8906"
         d="m -120.64767,1730.3043 -0.81505,1.7428 -1.23835,1.4724 -1.57725,1.1018 -1.80868,0.6561 -1.91684,0.1655 -1.89438,-0.3362 -1.74281,-0.815 -1.47247,-1.2384 -1.10179,-1.5772 -0.65603,-1.8087 -0.16555,-1.9169 0.3362,-1.8943 0.81505,-1.7428 1.23834,-1.4725 1.57726,-1.1018 1.80868,-0.656 1.91684,-0.1656 1.89437,0.3362 1.74281,0.8151 1.47248,1.2383 1.10179,1.5773 0.65603,1.8086 0.16555,1.9169 z"
         style="fill:none;stroke:#000000"
         inkscape:connector-curvature="0" />
      <path
         id="path8904"
         d="m -311.82629,1762.78 -1e-5,-15.1181 -15.11811,-2e-4 1e-5,15.1181 z"
         style="fill:none;stroke:#000000"
         inkscape:connector-curvature="0" />
      <path
         id="path8902"
         d="m -24.582198,1747.6619 v 15.1181 h -15.11811 v -15.1181 z"
         style="fill:none;stroke:#000000"
         inkscape:connector-curvature="0" />
      <path
         id="path8900"
         d="m -315.70034,1625.5407 -1.77752,0.7362 -1.90752,0.2512 -1.90749,-0.2512 -1.77753,-0.7362 -1.52639,-1.1713 -1.17124,-1.5264 -0.73628,-1.7775 -0.25113,-1.9075 0.25111,-1.9075 0.7363,-1.7775 1.17126,-1.5264 1.52639,-1.1713 1.77753,-0.7363 1.90751,-0.2511 1.90752,0.2511 1.77752,0.7363 1.52639,1.1713 1.17125,1.5264 0.73627,1.7775 0.25113,1.9074 -0.25114,1.9074 -0.73627,1.7775 -1.17126,1.5265 z"
         style="fill:none;stroke:#000000"
         inkscape:connector-curvature="0" />
      <path
         id="path8898"
         d="m -81.756189,1725.6949 -14.763382,3.2557 -3.255732,-14.7633 14.763383,-3.2558 z"
         style="fill:none;stroke:#000000"
         inkscape:connector-curvature="0" />
      <path
         id="path8896"
         d="m -158.82883,1727.2102 3.25573,14.7634 -14.76338,3.2557 -3.25574,-14.7634 z"
         style="fill:none;stroke:#000000"
         inkscape:connector-curvature="0" />
      <path
         id="path8894"
         d="m -24.582228,1717.4257 v 15.1181 h -15.11808 v -15.1181 z"
         style="fill:none;stroke:#000000"
         inkscape:connector-curvature="0" />
      <path
         id="path8892"
         d="m -265.18885,1747.5521 -1.97172,0.078 -1.92483,-0.4348 -1.74673,-0.9181 -1.44959,-1.3389 -1.05366,-1.6685 -0.5859,-1.8841 -0.0783,-1.9717 0.43471,-1.9251 0.91806,-1.7466 1.33893,-1.4495 1.66845,-1.0536 1.88431,-0.5861 1.97179,-0.078 1.92483,0.4346 1.74673,0.9181 1.44959,1.3389 1.05366,1.6685 0.58592,1.8843 0.0782,1.9718 -0.43473,1.9248 -0.91808,1.7466 -1.33888,1.4497 -1.66847,1.0536 z"
         style="fill:none;stroke:#000000"
         inkscape:connector-curvature="0" />
      <path
         id="path8890"
         d="m -267.13078,1145.9322 -1.92651,-0.427 -1.75037,-0.9111 -1.4549,-1.3331 -1.06026,-1.6643 -0.59337,-1.882 -0.0861,-1.9714 0.4271,-1.9266 0.91117,-1.7503 1.33315,-1.4549 1.66427,-1.0602 1.882,-0.5934 1.97144,-0.086 1.92653,0.4271 1.75032,0.9112 1.45488,1.3331 1.06026,1.6643 0.59339,1.8819 0.0861,1.9713 -0.42711,1.9267 -0.9112,1.7504 -1.33314,1.4549 -1.66428,1.0602 -1.88195,0.5933 z"
         style="fill:none;stroke:#000000"
         inkscape:connector-curvature="0" />
      <path
         id="path8888"
         d="m -319.38536,1188.1027 -1.90753,-0.2509 -1.77753,-0.7363 -1.52639,-1.1713 -1.17124,-1.5264 -0.73628,-1.7775 -0.25113,-1.9075 0.25113,-1.9075 0.73628,-1.7775 1.17124,-1.5264 1.52639,-1.1713 1.77753,-0.7362 1.90751,-0.2512 1.90752,0.2512 1.77752,0.7362 1.52639,1.1713 1.17125,1.5264 0.73627,1.7775 0.25113,1.9075 -0.25113,1.9075 -0.73624,1.7775 -1.17122,1.5264 -1.52642,1.1713 -1.77753,0.7361 z"
         style="fill:none;stroke:#000000"
         inkscape:connector-curvature="0" />
      <path
         id="path8886"
         d="m -326.9444,1052.2285 v -15.1179 l 15.11811,10e-5 v 15.118 z"
         style="fill:none;stroke:#000000"
         inkscape:connector-curvature="0" />
      <path
         id="path8882"
         d="m -326.9444,1392.3862 -1e-5,15.1183 h 15.11809 l 2e-5,-15.1182 z"
         style="fill:none;stroke:#000000"
         inkscape:connector-curvature="0" />
    </g>
  </g>
  <g
     inkscape:groupmode="layer"
     inkscape:label="Dackelumriss"
     id="g2167"
     transform="translate(420.48551,-764.41679)"
     style="display:inline">
    <g
       id="g6192">
      <path
         style="fill:none;stroke:#000000;stroke-width:3.58309364;stroke-opacity:1"
         d="m -96.374667,1295.2999 c -1.124227,-0.9714 -7.051833,-2.3413 -13.172593,-3.0447 -13.75591,-1.5807 -24.62184,-5.1652 -24.62184,-8.122 0,-4.6604 32.83991,-20.3683 42.583162,-20.3683 15.165427,0 23.998052,-10.6818 25.990113,-31.4327 l 1.729125,-18.0093 -18.822612,-8.2386 c -49.438378,-21.639 -91.282858,-59.328 -109.018278,-98.1924 -6.65934,-14.593 -8.01103,-24.9222 -8.05229,-61.5365 -0.0385,-35.0359 -1.66165,-48.40969 -7.96207,-65.64549 -4.35193,-11.9049 -8.91975,-31.7724 -10.15038,-44.1502 -3.50838,-35.277 -1.12307,-34.26 -77.8188,-33.1857 -73.94148,1.0356 -81.59089,-0.4546 -106.5015,-20.7473 l -15.30498,-12.4677 10.44454,-7.163 c 5.74448,-3.9398 29.15689,-16.0285 52.02725,-26.8639 27.42776,-12.9943 48.14452,-25.6082 60.85947,-37.0557 24.95226,-22.4642 53.60063,-32.40942 94.61929,-32.84565 34.12877,-0.36331 43.22008,3.54285 63.46764,27.26915 16.77695,19.6597 46.787808,69.651 65.406864,108.9537 7.809015,16.4837 16.483955,33.0468 19.277927,36.8064 2.793971,3.7597 20.7715,13.8771 39.95035,22.4833 73.234782,32.8623 169.293269,45.53049 346.699749,45.72329 123.83634,0.1332 146.41176,2.714 203.33492,23.2325 94.39644,34.0256 119.20256,38.5375 157.35555,28.6195 16.95083,-4.4063 29.02695,-8.8589 35.08757,-16.6646 2.04257,-2.6311 2.84872,-2.6184 2.89152,0.047 0.13879,8.7797 1.5117,14.9091 -22.16288,24.9762 -33.15529,14.0984 -67.80992,16.2776 -112.54438,7.0773 -17.54571,-3.6088 -32.68146,-5.4709 -33.63488,-4.1382 -0.95383,1.3327 0.13108,11.5623 2.40804,22.7329 4.94874,24.2655 24.15882,53.5903 39.03201,59.5834 34.58678,13.9363 31.91694,11.227 30.61537,31.0665 -0.65541,9.9885 -1.551,36.6703 -1.99052,59.2927 -0.75179,38.7129 -1.33048,41.5028 -9.83771,47.4533 -13.80294,9.6539 -51.24576,6.5746 -53.69624,-4.416 -0.66851,-2.998 4.96069,-11.3558 12.50949,-18.573 14.97998,-14.3219 16.15932,-20.325 9.4194,-47.9489 -5.43221,-22.2631 -9.51425,-26.5589 -24.05202,-25.3094 -10.48733,0.9011 -12.16364,2.6843 -16.59654,17.6526 -2.71224,9.1577 -6.06717,25.2032 -7.45548,35.657 -3.41122,25.6854 -9.38394,29.8909 -40.63854,28.6158 -22.05455,-0.9001 -24.4202,-1.676 -23.35805,-7.6618 1.12538,-6.3391 5.46805,-10.2466 24.11332,-21.6966 6.5306,-4.0104 8.6441,-9.6329 10.2938,-27.3848 2.0341,-21.8881 1.86638,-22.4073 -8.33296,-25.7567 -5.72482,-1.8798 -19.38935,-3.4183 -30.36516,-3.4183 -16.74999,0 -23.32105,-2.0013 -40.89646,-12.4567 l -20.93959,-12.4568 -55.56415,-1.2411 c -68.52971,-1.5305 -81.62673,0.5904 -182.13623,29.4977 -82.2382,23.6521 -126.875116,33.2519 -155.015356,33.3389 -9.101337,0.033 -18.523439,1.1518 -20.938041,2.4975 -5.1812166,2.8875 -12.906969,25.417 -12.937418,37.7286 0,4.7526 -3.057683,10.9465 -6.76846,13.7644 -12.96055,9.841 -71.620548,20.351 -78.830062,14.1238 z"
         id="path5807"
         inkscape:connector-curvature="0"
         sodipodi:nodetypes="ccssccscccccccccccccccccccccccccccccccccccccscscccccccccc" />
    </g>
  </g>
  <g
     inkscape:groupmode="layer"
     inkscape:label="SECTIONCUTEDGES"
     id="g2169"
     transform="translate(420.48551,-764.41679)"
     style="display:inline" />
</svg>
