<?xml version="1.0" encoding="UTF-8" standalone="no"?>
<svg
   xmlns:dc="http://purl.org/dc/elements/1.1/"
   xmlns:cc="http://creativecommons.org/ns#"
   xmlns:rdf="http://www.w3.org/1999/02/22-rdf-syntax-ns#"
   xmlns:svg="http://www.w3.org/2000/svg"
   xmlns="http://www.w3.org/2000/svg"
   xmlns:sodipodi="http://sodipodi.sourceforge.net/DTD/sodipodi-0.dtd"
   xmlns:inkscape="http://www.inkscape.org/namespaces/inkscape"
   width="19.5in"
   height="11in"
   version="1.1"
   id="svg8284"
   sodipodi:docname="Dackel_Schleuder_Teile_ohne_Dackel_v6_2x.svg"
   inkscape:version="0.92.2 5c3e80d, 2017-08-06">
  <metadata
     id="metadata8288">
    <rdf:RDF>
      <cc:Work
         rdf:about="">
        <dc:format>image/svg+xml</dc:format>
        <dc:type
           rdf:resource="http://purl.org/dc/dcmitype/StillImage" />
        <dc:title></dc:title>
      </cc:Work>
    </rdf:RDF>
  </metadata>
  <sodipodi:namedview
     pagecolor="#ffffff"
     bordercolor="#666666"
     borderopacity="1"
     objecttolerance="10"
     gridtolerance="10"
     guidetolerance="10"
     inkscape:pageopacity="0"
     inkscape:pageshadow="2"
     inkscape:window-width="1280"
     inkscape:window-height="723"
     id="namedview8286"
     showgrid="false"
     inkscape:zoom="0.30777898"
     inkscape:cx="929.32299"
     inkscape:cy="531.44715"
     inkscape:window-x="0"
     inkscape:window-y="1"
     inkscape:window-maximized="1"
     inkscape:current-layer="g8280"
     units="in"
     inkscape:snap-global="false" />
  <desc
     id="desc6784">C:\Users\Andreas Reheis\Documents\Laser\Mohrnkopfschleuder\Mohrnkopfschleuder_v_6.dxf - scale = 1.000000, origin = (0.000000, 0.000000), method = file</desc>
  <defs
     id="defs6798">
    <marker
       id="DistanceX"
       orient="auto"
       refX="0"
       refY="0"
       style="overflow:visible">
      <path
         d="M 3,-3 -3,3 M 0,-5 V 5"
         style="stroke:#000000;stroke-width:0.5"
         id="path6786"
         inkscape:connector-curvature="0" />
    </marker>
    <pattern
       height="8"
       id="Hatch"
       patternUnits="userSpaceOnUse"
       width="8"
       x="0"
       y="0">
      <path
         d="M8 4 l-4,4"
         linecap="square"
         stroke="#000000"
         stroke-width="0.25"
         id="path6789" />
      <path
         d="M6 2 l-4,4"
         linecap="square"
         stroke="#000000"
         stroke-width="0.25"
         id="path6791" />
      <path
         d="M4 0 l-4,4"
         linecap="square"
         stroke="#000000"
         stroke-width="0.25"
         id="path6793" />
    </pattern>
    <symbol
       id="*MODEL_SPACE" />
    <symbol
       id="*PAPER_SPACE" />
  </defs>
  <g
     inkscape:groupmode="layer"
     inkscape:label="0"
     id="g6800"
     transform="translate(342.56251,-590.39802)" />
  <g
     inkscape:groupmode="layer"
     inkscape:label="PROFILEEDGES"
     id="g8280"
     transform="translate(342.56251,-590.39802)">
    <path
       style="fill:none;stroke:#000000"
       d="m 169.37056,840.01614 h 30.23622 v -15.1181 h 15.11811 v 15.1181 h 22.67716 v 24.5669 h -5.66929 v 13.2284 h 5.66929 v 30.2362 h 15.11812 v -30.2362 h 5.66929 v -13.2284 h -5.66929 v -24.5669 h 22.67716 v -15.1181 h 15.11811 v 15.1181 h 30.23622 v 207.87396 h -30.23622 v 15.1181 h -15.11811 v -15.1181 h -22.67716 v -24.5669 h 5.66929 v -13.2284 h -5.66929 v -30.23616 h -15.11812 v 30.23616 h -5.66929 v 13.2284 h 5.66929 v 24.5669 h -22.67716 v 15.1181 h -15.11811 v -15.1181 h -30.23622 z"
       id="path8938"
       inkscape:connector-curvature="0" />
    <path
       style="fill:none;stroke:#000000"
       d="m -121.99451,1054.6811 v 15.1181 h 15.11811 v -15.1181 h 15.11811 V 846.80704 h -15.11811 v -15.1181 h -15.11811 v 15.1181 h -15.11811 v -15.1181 h -15.11811 v 15.1181 h -15.11811 v 207.87406 h 15.11811 v 15.1181 h 15.11811 v -15.1181 z"
       id="path8936"
       inkscape:connector-curvature="0" />
    <path
       style="fill:none;stroke:#000000"
       d="m -175.7633,674.04762 h -15.11811 V 643.8114 h -5.66929 v -13.22834 h 5.66929 v -24.56693 h -120.94488 v -15.11811 h -15.11811 v 15.11811 h -15.11811 v 207.87401 h 15.11811 v 15.1181 h 15.11811 v -15.1181 h 120.94488 v -24.56692 h -5.66929 v -13.22835 h 5.66929 v -30.23622 h 15.11811 v 30.23622 h 5.66929 v 13.22835 h -5.66929 v 24.56692 H 28.331188 v 15.1181 h 15.11811 v -15.1181 H 247.54379 v -24.56692 h -5.6693 v -13.22835 h 5.6693 v -30.23622 h 15.11811 v 30.23622 h 5.66929 v 13.22835 h -5.66929 v 24.56692 h 120.94488 v 15.1181 h 15.11811 v -15.1181 H 413.843 V 606.01613 h -15.11811 v -15.11811 h -15.11811 v 15.11811 H 262.6619 v 24.56693 h 5.66929 v 13.22834 h -5.66929 v 30.23622 H 247.54379 V 643.8114 h -5.6693 v -13.22834 h 5.6693 V 606.01613 H 43.449298 v -15.11811 h -15.11811 v 15.11811 H -175.7633 v 24.56693 h 5.66929 v 13.22834 h -5.66929 z"
       id="path8934"
       inkscape:connector-curvature="0" />
    <path
       style="fill:none;stroke:#000000"
       d="m 135.4435,1302.4238 12.53876,27.5138 3.28695,2.6555 2.48935,-4.69 1.64507,-5.0485 0.7517,-5.2563 -0.16411,-5.3073 -1.07502,-5.1998 -1.95384,-4.9372 -2.77437,-4.5273 -3.5121,-3.9823 -4.14505,-3.3185 -4.65429,-2.5556 -5.02467,-1.7165 -5.2451,-0.8261 v -64.252 l -0.45075,-3.4237 -1.32151,-3.1905 -2.10223,-2.7397 -2.73968,-2.1022 -3.19043,-1.3215 -3.42375,-0.4508 -3.42375,0.4508 -3.19042,1.3215 -2.73968,2.1022 -2.10223,2.7397 -1.32152,3.1905 -0.45074,3.4237 2.38212,75.2234 -2.81758,4.5005 -2.00103,4.9183 -1.12475,5.1893 -0.21491,5.3054 0.70133,5.2632 1.59665,5.0641 2.44434,4.7137 3.21907,4.2227 3.89775,3.6057 4.46013,2.8811 4.88941,2.0706 5.1728,1.1982 0.15227,-4.2229 -12.53875,-27.5138 z"
       id="path8880"
       inkscape:connector-curvature="0" />
    <g
       id="g8985"
       transform="translate(-352,-308.80316)">
      <path
         id="path8878"
         d="m 486.80282,1370.9801 h -15.11811 v -15.1181 h 15.11811 z"
         style="fill:none;stroke:#000000"
         inkscape:connector-curvature="0" />
      <path
         id="path8876"
         d="m 501.92093,1325.6258 h -15.11811 v 15.1181 h -15.11811 v -15.1181 H 456.5666 v 75.5906 h 15.11811 v -15.1181 h 15.11811 v 15.1181 h 15.11811 z"
         style="fill:none;stroke:#000000"
         inkscape:connector-curvature="0" />
    </g>
    <g
       id="g8981"
       transform="translate(-352,-308.80316)">
      <path
         id="path8874"
         d="m 471.68471,1442.7912 h 15.11811 v 15.1181 h -15.11811 z"
         style="fill:none;stroke:#000000"
         inkscape:connector-curvature="0" />
      <path
         id="path8872"
         d="m 486.80282,1412.5549 h 15.11811 v 75.5906 h -15.11811 v -15.1181 h -15.11811 v 15.1181 H 456.5666 v -75.5906 h 15.11811 v 15.1182 h 15.11811 z"
         style="fill:none;stroke:#000000"
         inkscape:connector-curvature="0" />
    </g>
    <g
       id="g8993"
       transform="translate(-352,-308.80316)">
      <path
         id="path8870"
         d="m 486.80282,1197.1219 h -15.11811 v -15.1181 h 15.11811 z"
         style="fill:none;stroke:#000000"
         inkscape:connector-curvature="0" />
      <path
         id="path8868"
         d="M 471.68471,1151.7675 H 456.5666 v 75.5906 h 15.11811 V 1212.24 h 15.11811 v 15.1181 h 15.11811 v -75.5906 h -15.11811 v 15.1182 h -15.11811 z"
         style="fill:none;stroke:#000000"
         inkscape:connector-curvature="0" />
    </g>
    <g
       id="g8989"
       transform="translate(-352,-308.80316)">
      <path
         id="path8866"
         d="m 471.68471,1284.051 v -15.1181 h 15.11811 v 15.1181 z"
         style="fill:none;stroke:#000000"
         inkscape:connector-curvature="0" />
      <path
         id="path8864"
         d="M 471.68471,1238.6967 H 456.5666 v 75.5905 h 15.11811 v -15.1181 h 15.11811 v 15.1181 h 15.11811 v -75.5905 h -15.11811 v 15.1181 h -15.11811 z"
         style="fill:none;stroke:#000000"
         inkscape:connector-curvature="0" />
    </g>
    <g
       id="g8977"
       transform="translate(-332,-366.80316)">
      <path
         id="path8862"
         d="m 211.87777,1441.5202 h 15.11811 v 75.5906 h -15.11811 v -15.1182 h -15.11811 v 15.1182 h -15.11811 v -75.5906 h 15.11811 v 15.1181 h 15.11811 z"
         style="fill:none;stroke:#000000"
         inkscape:connector-curvature="0" />
      <path
         id="path8860"
         d="m 196.75966,1486.8745 v -15.1181 h 15.11811 v 15.1181 z"
         style="fill:none;stroke:#000000"
         inkscape:connector-curvature="0" />
    </g>
    <g
       id="g8973"
       transform="translate(-332,-366.80316)">
      <path
         id="path8858"
         d="m 196.75966,1558.6856 h 15.11811 v 15.1181 h -15.11811 z"
         style="fill:none;stroke:#000000"
         inkscape:connector-curvature="0" />
      <path
         id="path8856"
         d="m 196.75966,1543.5674 v -15.1181 h -15.11811 v 75.5906 h 15.11811 v -15.1181 h 15.11811 v 15.1181 h 15.11811 v -75.5906 h -15.11811 v 15.1181 z"
         style="fill:none;stroke:#000000"
         inkscape:connector-curvature="0" />
    </g>
    <g
       id="g8969"
       transform="translate(-332,-366.80316)">
      <path
         id="path8854"
         d="m 196.75966,1645.6147 h 15.11811 v 15.1181 h -15.11811 z"
         style="fill:none;stroke:#000000"
         inkscape:connector-curvature="0" />
      <path
         id="path8852"
         d="m 226.99588,1615.3785 h -15.11811 v 15.1181 h -15.11811 v -15.1181 h -15.11811 v 75.5905 h 15.11811 v -15.1181 h 15.11811 v 15.1181 h 15.11811 z"
         style="fill:none;stroke:#000000"
         inkscape:connector-curvature="0" />
    </g>
    <g
       id="g8965"
       transform="translate(-332,-366.80316)">
      <path
         id="path8850"
         d="m 211.87777,1747.6619 h -15.11811 v -15.1181 h 15.11811 z"
         style="fill:none;stroke:#000000"
         inkscape:connector-curvature="0" />
      <path
         id="path8848"
         d="m 196.75966,1702.3076 h -15.11811 v 75.5906 h 15.11811 V 1762.78 h 15.11811 v 15.1182 h 15.11811 v -75.5906 h -15.11811 v 15.1181 h -15.11811 z"
         style="fill:none;stroke:#000000"
         inkscape:connector-curvature="0" />
    </g>
    <g
       id="g8961"
       transform="translate(-165.3874,-222.80316)">
      <path
         id="path8846"
         d="M -67.068809,1155.6297 H -119.9822 v -26.4567 h 52.913391 z"
         style="fill:none;stroke:#000000"
         inkscape:connector-curvature="0" />
      <path
         id="path8844"
         d="m -24.788998,1583.1924 -12.613383,16.4381 -16.438082,12.6134 -19.142551,7.9291 -20.542488,2.7044 -20.542488,-2.7044 -19.14255,-7.9291 -16.43808,-12.6134 -12.61339,-16.4381 -7.9291,-19.1425 -2.70447,-20.5425 2.70447,-20.5425 7.9291,-19.1426 12.61339,-16.4381 16.43808,-12.6133 1.88063,-160.3307 -1.95687,-0.7223 -17.33691,-12.2571 -13.57379,-16.3266 -8.88566,-19.2834 -3.59197,-20.9261 v -128.5039 h 26.4567 v -15.1182 h 15.11811 v 5.6693 h 15.1181 v -26.4567 h -15.1181 v 5.6693 h -15.11811 v -15.1181 h -26.4567 v -15.1181 h 166.299214 v 15.1181 h -26.456693 v 15.1181 h -15.11811 v -5.6693 h -15.11811 v 26.4567 h 15.11811 v -5.6693 h 15.11811 v 15.1182 h 26.456693 v 128.5039 l -3.61602,20.9201 -8.907318,19.2713 -13.591597,16.3093 -17.349632,12.2358 v 161.1097 l 16.438082,12.6133 12.613383,16.4381 7.929105,19.1426 2.70447,20.5425 -2.70447,20.5425 z"
         style="fill:none;stroke:#000000"
         inkscape:connector-curvature="0" />
    </g>
    <g
       id="g8942"
       transform="translate(-336,-316.80316)">
      <path
         id="path8842"
         d="m 338.25245,1447.4985 -1.8231,0.7552 -1.95643,0.2575 -1.95643,-0.2575 -1.8231,-0.7552 -1.56553,-1.2013 -1.20127,-1.5655 -0.75516,-1.8231 -0.25757,-1.9564 0.25757,-1.9564 0.75516,-1.8231 1.20127,-1.5656 1.56553,-1.2012 1.8231,-0.7552 1.95643,-0.2576 1.95643,0.2576 1.8231,0.7552 1.56553,1.2012 1.20127,1.5656 0.75516,1.8231 0.25757,1.9564 -0.25757,1.9564 -0.75516,1.8231 -1.20127,1.5655 z"
         style="fill:none;stroke:#000000"
         inkscape:connector-curvature="0" />
      <path
         id="path8278"
         d="m 391.16583,1732.5437 v -15.1181 h 26.4567 v -566.9291 h -60.47244 v -11.3386 h -45.35434 v 11.3386 h -60.47244 v 566.9291 h 26.4567 v 15.1181 h 15.11811 v -5.6693 h 15.11811 v 26.4567 h -15.11811 v -5.6693 h -15.11811 v 15.1181 h -26.4567 v 15.1182 h 166.29922 v -15.1182 h -26.4567 v -15.1181 h -15.11811 v 5.6693 h -15.11811 v -26.4567 h 15.11811 v 5.6693 z"
         style="fill:none;stroke:#000000"
         inkscape:connector-curvature="0" />
    </g>
    <g
       id="g18955"
       transform="translate(755.90551,-184.80316)">
      <path
         style="fill:none;stroke:#000000"
         d="m 169.37056,1024.8193 h 30.23622 v -15.1181 h 15.11811 v 15.1181 h 22.67716 v 24.5669 h -5.66929 v 13.2284 h 5.66929 v 30.2362 h 15.11812 v -30.2362 h 5.66929 v -13.2284 h -5.66929 v -24.5669 h 22.67716 v -15.1181 h 15.11811 v 15.1181 h 30.23622 v 207.874 h -30.23622 v 15.1181 h -15.11811 v -15.1181 h -22.67716 v -24.5669 h 5.66929 v -13.2284 h -5.66929 v -30.2362 h -15.11812 v 30.2362 h -5.66929 v 13.2284 h 5.66929 v 24.5669 h -22.67716 v 15.1181 h -15.11811 v -15.1181 h -30.23622 z"
         id="path18887"
         inkscape:connector-curvature="0" />
      <path
         style="fill:none;stroke:#000000"
         d="m -121.99451,1239.4843 v 15.1181 h 15.11811 v -15.1181 h 15.11811 v -207.8741 h -15.11811 v -15.1181 h -15.11811 v 15.1181 h -15.11811 v -15.1181 h -15.11811 v 15.1181 h -15.11811 v 207.8741 h 15.11811 v 15.1181 h 15.11811 v -15.1181 z"
         id="path18889"
         inkscape:connector-curvature="0" />
      <path
         style="fill:none;stroke:#000000"
         d="m -175.7633,858.85078 h -15.11811 v -30.23622 h -5.66929 v -13.22834 h 5.66929 v -24.56693 h -120.94488 v -15.11811 h -15.11811 v 15.11811 h -15.11811 V 998.6933 h 15.11811 v 15.1181 h 15.11811 v -15.1181 h 120.94488 v -24.56692 h -5.66929 v -13.22835 h 5.66929 v -30.23622 h 15.11811 v 30.23622 h 5.66929 v 13.22835 h -5.66929 V 998.6933 H 28.331188 v 15.1181 h 15.11811 V 998.6933 H 247.54379 v -24.56692 h -5.6693 v -13.22835 h 5.6693 v -30.23622 h 15.11811 v 30.23622 h 5.66929 v 13.22835 h -5.66929 v 24.56692 h 120.94488 v 15.1181 h 15.11811 V 998.6933 H 413.843 V 790.81929 h -15.11811 v -15.11811 h -15.11811 v 15.11811 H 262.6619 v 24.56693 h 5.66929 v 13.22834 h -5.66929 v 30.23622 h -15.11811 v -30.23622 h -5.6693 v -13.22834 h 5.6693 V 790.81929 H 43.449298 v -15.11811 h -15.11811 v 15.11811 H -175.7633 v 24.56693 h 5.66929 v 13.22834 h -5.66929 z"
         id="path18891"
         inkscape:connector-curvature="0" />
      <path
         style="fill:none;stroke:#000000"
         d="m 135.4435,1487.227 12.53876,27.5138 3.28695,2.6555 2.48935,-4.69 1.64507,-5.0485 0.7517,-5.2563 -0.16411,-5.3073 -1.07502,-5.1998 -1.95384,-4.9372 -2.77437,-4.5273 -3.5121,-3.9823 -4.14505,-3.3185 -4.65429,-2.5556 -5.02467,-1.7165 -5.2451,-0.8261 v -64.252 l -0.45075,-3.4237 -1.32151,-3.1905 -2.10223,-2.7397 -2.73968,-2.1022 -3.19043,-1.3215 -3.42375,-0.4508 -3.42375,0.4508 -3.19042,1.3215 -2.73968,2.1022 -2.10223,2.7397 -1.32152,3.1905 -0.45074,3.4237 2.38212,75.2234 -2.81758,4.5005 -2.00103,4.9183 -1.12475,5.1893 -0.21491,5.3054 0.70133,5.2632 1.59665,5.0641 2.44434,4.7137 3.21907,4.2227 3.89775,3.6057 4.46013,2.8811 4.88941,2.0706 5.1728,1.1982 0.15227,-4.2229 -12.53875,-27.5138 z"
         id="path18893"
         inkscape:connector-curvature="0" />
      <g
         id="g18899"
         transform="translate(-352,-124)">
        <path
           id="path18895"
           d="m 486.80282,1370.9801 h -15.11811 v -15.1181 h 15.11811 z"
           style="fill:none;stroke:#000000"
           inkscape:connector-curvature="0" />
        <path
           id="path18897"
           d="m 501.92093,1325.6258 h -15.11811 v 15.1181 h -15.11811 v -15.1181 H 456.5666 v 75.5906 h 15.11811 v -15.1181 h 15.11811 v 15.1181 h 15.11811 z"
           style="fill:none;stroke:#000000"
           inkscape:connector-curvature="0" />
      </g>
      <g
         id="g18905"
         transform="translate(-352,-124)">
        <path
           id="path18901"
           d="m 471.68471,1442.7912 h 15.11811 v 15.1181 h -15.11811 z"
           style="fill:none;stroke:#000000"
           inkscape:connector-curvature="0" />
        <path
           id="path18903"
           d="m 486.80282,1412.5549 h 15.11811 v 75.5906 h -15.11811 v -15.1181 h -15.11811 v 15.1181 H 456.5666 v -75.5906 h 15.11811 v 15.1182 h 15.11811 z"
           style="fill:none;stroke:#000000"
           inkscape:connector-curvature="0" />
      </g>
      <g
         id="g18911"
         transform="translate(-352,-124)">
        <path
           id="path18907"
           d="m 486.80282,1197.1219 h -15.11811 v -15.1181 h 15.11811 z"
           style="fill:none;stroke:#000000"
           inkscape:connector-curvature="0" />
        <path
           id="path18909"
           d="M 471.68471,1151.7675 H 456.5666 v 75.5906 h 15.11811 V 1212.24 h 15.11811 v 15.1181 h 15.11811 v -75.5906 h -15.11811 v 15.1182 h -15.11811 z"
           style="fill:none;stroke:#000000"
           inkscape:connector-curvature="0" />
      </g>
      <g
         id="g18917"
         transform="translate(-352,-124)">
        <path
           id="path18913"
           d="m 471.68471,1284.051 v -15.1181 h 15.11811 v 15.1181 z"
           style="fill:none;stroke:#000000"
           inkscape:connector-curvature="0" />
        <path
           id="path18915"
           d="M 471.68471,1238.6967 H 456.5666 v 75.5905 h 15.11811 v -15.1181 h 15.11811 v 15.1181 h 15.11811 v -75.5905 h -15.11811 v 15.1181 h -15.11811 z"
           style="fill:none;stroke:#000000"
           inkscape:connector-curvature="0" />
      </g>
      <g
         id="g18923"
         transform="translate(-332,-182)">
        <path
           id="path18919"
           d="m 211.87777,1441.5202 h 15.11811 v 75.5906 h -15.11811 v -15.1182 h -15.11811 v 15.1182 h -15.11811 v -75.5906 h 15.11811 v 15.1181 h 15.11811 z"
           style="fill:none;stroke:#000000"
           inkscape:connector-curvature="0" />
        <path
           id="path18921"
           d="m 196.75966,1486.8745 v -15.1181 h 15.11811 v 15.1181 z"
           style="fill:none;stroke:#000000"
           inkscape:connector-curvature="0" />
      </g>
      <g
         id="g18929"
         transform="translate(-332,-182)">
        <path
           id="path18925"
           d="m 196.75966,1558.6856 h 15.11811 v 15.1181 h -15.11811 z"
           style="fill:none;stroke:#000000"
           inkscape:connector-curvature="0" />
        <path
           id="path18927"
           d="m 196.75966,1543.5674 v -15.1181 h -15.11811 v 75.5906 h 15.11811 v -15.1181 h 15.11811 v 15.1181 h 15.11811 v -75.5906 h -15.11811 v 15.1181 z"
           style="fill:none;stroke:#000000"
           inkscape:connector-curvature="0" />
      </g>
      <g
         id="g18935"
         transform="translate(-332,-182)">
        <path
           id="path18931"
           d="m 196.75966,1645.6147 h 15.11811 v 15.1181 h -15.11811 z"
           style="fill:none;stroke:#000000"
           inkscape:connector-curvature="0" />
        <path
           id="path18933"
           d="m 226.99588,1615.3785 h -15.11811 v 15.1181 h -15.11811 v -15.1181 h -15.11811 v 75.5905 h 15.11811 v -15.1181 h 15.11811 v 15.1181 h 15.11811 z"
           style="fill:none;stroke:#000000"
           inkscape:connector-curvature="0" />
      </g>
      <g
         id="g18941"
         transform="translate(-332,-182)">
        <path
           id="path18937"
           d="m 211.87777,1747.6619 h -15.11811 v -15.1181 h 15.11811 z"
           style="fill:none;stroke:#000000"
           inkscape:connector-curvature="0" />
        <path
           id="path18939"
           d="m 196.75966,1702.3076 h -15.11811 v 75.5906 h 15.11811 V 1762.78 h 15.11811 v 15.1182 h 15.11811 v -75.5906 h -15.11811 v 15.1181 h -15.11811 z"
           style="fill:none;stroke:#000000"
           inkscape:connector-curvature="0" />
      </g>
      <g
         id="g18947"
         transform="translate(-165.3874,-38)">
        <path
           id="path18943"
           d="M -67.068809,1155.6297 H -119.9822 v -26.4567 h 52.913391 z"
           style="fill:none;stroke:#000000"
           inkscape:connector-curvature="0" />
        <path
           id="path18945"
           d="m -24.788998,1583.1924 -12.613383,16.4381 -16.438082,12.6134 -19.142551,7.9291 -20.542488,2.7044 -20.542488,-2.7044 -19.14255,-7.9291 -16.43808,-12.6134 -12.61339,-16.4381 -7.9291,-19.1425 -2.70447,-20.5425 2.70447,-20.5425 7.9291,-19.1426 12.61339,-16.4381 16.43808,-12.6133 1.88063,-160.3307 -1.95687,-0.7223 -17.33691,-12.2571 -13.57379,-16.3266 -8.88566,-19.2834 -3.59197,-20.9261 v -128.5039 h 26.4567 v -15.1182 h 15.11811 v 5.6693 h 15.1181 v -26.4567 h -15.1181 v 5.6693 h -15.11811 v -15.1181 h -26.4567 v -15.1181 h 166.299214 v 15.1181 h -26.456693 v 15.1181 h -15.11811 v -5.6693 h -15.11811 v 26.4567 h 15.11811 v -5.6693 h 15.11811 v 15.1182 h 26.456693 v 128.5039 l -3.61602,20.9201 -8.907318,19.2713 -13.591597,16.3093 -17.349632,12.2358 v 161.1097 l 16.438082,12.6133 12.613383,16.4381 7.929105,19.1426 2.70447,20.5425 -2.70447,20.5425 z"
           style="fill:none;stroke:#000000"
           inkscape:connector-curvature="0" />
      </g>
      <g
         id="g18953"
         transform="translate(-336,-132)">
        <path
           id="path18949"
           d="m 338.25245,1447.4985 -1.8231,0.7552 -1.95643,0.2575 -1.95643,-0.2575 -1.8231,-0.7552 -1.56553,-1.2013 -1.20127,-1.5655 -0.75516,-1.8231 -0.25757,-1.9564 0.25757,-1.9564 0.75516,-1.8231 1.20127,-1.5656 1.56553,-1.2012 1.8231,-0.7552 1.95643,-0.2576 1.95643,0.2576 1.8231,0.7552 1.56553,1.2012 1.20127,1.5656 0.75516,1.8231 0.25757,1.9564 -0.25757,1.9564 -0.75516,1.8231 -1.20127,1.5655 z"
           style="fill:none;stroke:#000000"
           inkscape:connector-curvature="0" />
        <path
           id="path18951"
           d="m 391.16583,1732.5437 v -15.1181 h 26.4567 v -566.9291 h -60.47244 v -11.3386 h -45.35434 v 11.3386 h -60.47244 v 566.9291 h 26.4567 v 15.1181 h 15.11811 v -5.6693 h 15.11811 v 26.4567 h -15.11811 v -5.6693 h -15.11811 v 15.1181 h -26.4567 v 15.1182 h 166.29922 v -15.1182 h -26.4567 v -15.1181 h -15.11811 v 5.6693 h -15.11811 v -26.4567 h 15.11811 v 5.6693 z"
           style="fill:none;stroke:#000000"
           inkscape:connector-curvature="0" />
      </g>
    </g>
    <g
       transform="rotate(90,-179.15063,1469.4939)"
       id="g18995">
      <path
         inkscape:connector-curvature="0"
         style="fill:none;stroke:#000000"
         d="M -67.068809,1155.6297 H -119.9822 v -26.4567 h 52.913391 z"
         id="path18991" />
      <path
         inkscape:connector-curvature="0"
         style="fill:none;stroke:#000000"
         d="m -24.788998,1583.1924 -12.613383,16.4381 -16.438082,12.6134 -19.142551,7.9291 -20.542488,2.7044 -20.542488,-2.7044 -19.14255,-7.9291 -16.43808,-12.6134 -12.61339,-16.4381 -7.9291,-19.1425 -2.70447,-20.5425 2.70447,-20.5425 7.9291,-19.1426 12.61339,-16.4381 16.43808,-12.6133 1.88063,-160.3307 -1.95687,-0.7223 -17.33691,-12.2571 -13.57379,-16.3266 -8.88566,-19.2834 -3.59197,-20.9261 v -128.5039 h 26.4567 v -15.1182 h 15.11811 v 5.6693 h 15.1181 v -26.4567 h -15.1181 v 5.6693 h -15.11811 v -15.1181 h -26.4567 v -15.1181 h 166.299214 v 15.1181 h -26.456693 v 15.1181 h -15.11811 v -5.6693 h -15.11811 v 26.4567 h 15.11811 v -5.6693 h 15.11811 v 15.1182 h 26.456693 v 128.5039 l -3.61602,20.9201 -8.907318,19.2713 -13.591597,16.3093 -17.349632,12.2358 v 161.1097 l 16.438082,12.6133 12.613383,16.4381 7.929105,19.1426 2.70447,20.5425 -2.70447,20.5425 z"
         id="path18993" />
    </g>
    <g
       id="g19001"
       transform="rotate(90,113.267,1761.9115)">
      <path
         id="path18997"
         d="M -67.068809,1155.6297 H -119.9822 v -26.4567 h 52.913391 z"
         style="fill:none;stroke:#000000"
         inkscape:connector-curvature="0" />
      <path
         id="path18999"
         d="m -24.788998,1583.1924 -12.613383,16.4381 -16.438082,12.6134 -19.142551,7.9291 -20.542488,2.7044 -20.542488,-2.7044 -19.14255,-7.9291 -16.43808,-12.6134 -12.61339,-16.4381 -7.9291,-19.1425 -2.70447,-20.5425 2.70447,-20.5425 7.9291,-19.1426 12.61339,-16.4381 16.43808,-12.6133 1.88063,-160.3307 -1.95687,-0.7223 -17.33691,-12.2571 -13.57379,-16.3266 -8.88566,-19.2834 -3.59197,-20.9261 v -128.5039 h 26.4567 v -15.1182 h 15.11811 v 5.6693 h 15.1181 v -26.4567 h -15.1181 v 5.6693 h -15.11811 v -15.1181 h -26.4567 v -15.1181 h 166.299214 v 15.1181 h -26.456693 v 15.1181 h -15.11811 v -5.6693 h -15.11811 v 26.4567 h 15.11811 v -5.6693 h 15.11811 v 15.1182 h 26.456693 v 128.5039 l -3.61602,20.9201 -8.907318,19.2713 -13.591597,16.3093 -17.349632,12.2358 v 161.1097 l 16.438082,12.6133 12.613383,16.4381 7.929105,19.1426 2.70447,20.5425 -2.70447,20.5425 z"
         style="fill:none;stroke:#000000"
         inkscape:connector-curvature="0" />
    </g>
    <path
       inkscape:connector-curvature="0"
       id="path19022"
       d="m 169.37056,1088.1407 h 30.23622 v -15.1181 h 15.11811 v 15.1181 h 22.67716 v 24.5669 h -5.66929 v 13.2284 h 5.66929 v 30.2362 h 15.11812 v -30.2362 h 5.66929 v -13.2284 h -5.66929 v -24.5669 h 22.67716 v -15.1181 h 15.11811 v 15.1181 h 30.23622 v 207.874 h -30.23622 v 15.1181 h -15.11811 v -15.1181 h -22.67716 v -24.5669 h 5.66929 v -13.2284 h -5.66929 v -30.2362 h -15.11812 v 30.2362 h -5.66929 v 13.2284 h 5.66929 v 24.5669 h -22.67716 v 15.1181 h -15.11811 v -15.1181 h -30.23622 z"
       style="fill:none;stroke:#000000" />
    <path
       style="fill:none;stroke:#000000"
       d="m 925.23156,1086.4381 h 30.23622 V 1071.32 h 15.11811 v 15.1181 h 22.67716 v 24.5669 h -5.66929 v 13.2284 h 5.66929 v 30.2362 h 15.11815 v -30.2362 h 5.6693 v -13.2284 h -5.6693 v -24.5669 h 22.6771 V 1071.32 h 15.1181 v 15.1181 h 30.2363 v 207.874 h -30.2363 v 15.1181 h -15.1181 v -15.1181 h -22.6771 v -24.5669 h 5.6693 v -13.2284 h -5.6693 v -30.2362 h -15.11815 v 30.2362 h -5.66929 v 13.2284 h 5.66929 v 24.5669 h -22.67716 v 15.1181 h -15.11811 v -15.1181 h -30.23622 z"
       id="path19024"
       inkscape:connector-curvature="0" />
  </g>
  <g
     inkscape:groupmode="layer"
     inkscape:label="SECTIONCUTEDGES"
     id="g8282"
     transform="translate(342.56251,-590.39802)" />
</svg>
