<?xml version="1.0" encoding="UTF-8" standalone="no"?>
<svg
   xmlns:dc="http://purl.org/dc/elements/1.1/"
   xmlns:cc="http://creativecommons.org/ns#"
   xmlns:rdf="http://www.w3.org/1999/02/22-rdf-syntax-ns#"
   xmlns:svg="http://www.w3.org/2000/svg"
   xmlns="http://www.w3.org/2000/svg"
   xmlns:xlink="http://www.w3.org/1999/xlink"
   xmlns:sodipodi="http://sodipodi.sourceforge.net/DTD/sodipodi-0.dtd"
   xmlns:inkscape="http://www.inkscape.org/namespaces/inkscape"
   width="19.5in"
   height="11in"
   version="1.1"
   id="svg8284"
   sodipodi:docname="paddle-pfote.svg"
   inkscape:version="0.92.2 5c3e80d, 2017-08-06">
  <metadata
     id="metadata8288">
    <rdf:RDF>
      <cc:Work
         rdf:about="">
        <dc:format>image/svg+xml</dc:format>
        <dc:type
           rdf:resource="http://purl.org/dc/dcmitype/StillImage" />
        <dc:title />
      </cc:Work>
    </rdf:RDF>
  </metadata>
  <sodipodi:namedview
     pagecolor="#ffffff"
     bordercolor="#666666"
     borderopacity="1"
     objecttolerance="10"
     gridtolerance="10"
     guidetolerance="10"
     inkscape:pageopacity="0"
     inkscape:pageshadow="2"
     inkscape:window-width="1280"
     inkscape:window-height="723"
     id="namedview8286"
     showgrid="false"
     inkscape:zoom="0.21763261"
     inkscape:cx="906.17941"
     inkscape:cy="588.03865"
     inkscape:window-x="0"
     inkscape:window-y="1"
     inkscape:window-maximized="1"
     inkscape:current-layer="g8280"
     units="in"
     inkscape:snap-global="false"
     showguides="true"
     inkscape:guide-bbox="true">
    <sodipodi:guide
       position="385.97157,1017.7703"
       orientation="0,1"
       id="guide942"
       inkscape:locked="false" />
  </sodipodi:namedview>
  <desc
     id="desc6784">C:\Users\Andreas Reheis\Documents\Laser\Mohrnkopfschleuder\Mohrnkopfschleuder_v_6.dxf - scale = 1.000000, origin = (0.000000, 0.000000), method = file</desc>
  <defs
     id="defs6798">
    <marker
       id="DistanceX"
       orient="auto"
       refX="0"
       refY="0"
       style="overflow:visible">
      <path
         d="M 3,-3 -3,3 M 0,-5 V 5"
         style="stroke:#000000;stroke-width:0.5"
         id="path6786"
         inkscape:connector-curvature="0" />
    </marker>
    <pattern
       height="8"
       id="Hatch"
       patternUnits="userSpaceOnUse"
       width="8"
       x="0"
       y="0">
      <path
         d="M8 4 l-4,4"
         linecap="square"
         stroke="#000000"
         stroke-width="0.25"
         id="path6789" />
      <path
         d="M6 2 l-4,4"
         linecap="square"
         stroke="#000000"
         stroke-width="0.25"
         id="path6791" />
      <path
         d="M4 0 l-4,4"
         linecap="square"
         stroke="#000000"
         stroke-width="0.25"
         id="path6793" />
    </pattern>
    <symbol
       id="*MODEL_SPACE" />
    <symbol
       id="*PAPER_SPACE" />
  </defs>
  <g
     inkscape:groupmode="layer"
     inkscape:label="0"
     id="g6800"
     transform="translate(342.56251,-590.39802)" />
  <g
     inkscape:groupmode="layer"
     inkscape:label="PROFILEEDGES"
     id="g8280"
     transform="translate(342.56251,-590.39802)">
    <g
       id="g951"
       transform="translate(-23.297288)"
       inkscape:tile-cx="102.94907"
       inkscape:tile-cy="307.53227"
       inkscape:tile-w="205.89815"
       inkscape:tile-h="603.2242"
       inkscape:tile-x0="2.0044597e-07"
       inkscape:tile-y0="5.9205118">
      <g
         style="fill:none;stroke:#ff0100;stroke-opacity:1"
         inkscape:tile-y0="4.5474735e-13"
         inkscape:tile-x0="-2.8421709e-14"
         inkscape:tile-h="567.93341"
         inkscape:tile-w="167.29921"
         inkscape:tile-cy="283.96455"
         inkscape:tile-cx="83.649607"
         transform="rotate(-180,-154.92083,1127.5648)"
         id="g8961">
        <path
           inkscape:connector-curvature="0"
           style="fill:none;stroke:#ff0100;stroke-opacity:1"
           d="M -67.068809,1155.6297 H -119.9822 v -26.4567 h 52.913391 z"
           id="path8846" />
      </g>
      <g
         transform="translate(-209.06793,-41.354097)"
         style="fill:none"
         id="g909">
        <path
           inkscape:connector-curvature="0"
           d="m -46.43596,830.06591 c -10.338363,-1.79164 -8.182273,-0.59839 -17.145618,-4.46297 -8.06261,-3.94716 -12.75852,-9.09966 -15.49546,-17.00201 -2.42618,-7.00511 -2.66166,-13.43142 -0.80809,-22.0532 0.85497,-3.97681 1.73287,-8.37183 1.9509,-9.76668 l 0.39643,-2.53612 -7.48301,-3.74391 c -12.56594,-6.28697 -18.713582,-14.14941 -23.206142,-29.67899 -1.40244,-4.84788 -1.62121,-7.28364 -1.60831,-17.90327 0.0138,-11.30457 0.1709,-12.78564 1.95586,-18.43793 3.03704,-9.61718 8.170942,-17.17287 14.328152,-21.08711 3.55615,-2.2607 9.06173,-3.69608 15.86706,-4.13676 l 6.86601,-0.44461 1.19324,-6.99206 c 1.93164,-11.31894 3.80602,-15.89113 9.04875,-22.07272 6.4972,-7.66071 16.24982,-11.62565 26.49568,-10.77185 8.88716,0.74058 15.36861,3.57933 25.1410203,11.01131 l 4.34436,3.30391 2.49706,-1.70042 c 1.37337995,-0.93522 2.49899995,-1.90535 2.50199995,-2.15584 0.00724,-0.66718 7.91324005,-6.53655 10.78164975,-8.00425 5.43876,-2.78287 9.3883,-3.61833 15.83304,-3.3492 4.9811,0.208 7.18095,0.67785 10.57603,2.25884 5.25388,2.44658 11.15916,8.20042 14.04319,13.68306 2.4663,4.68848 5.92547,18.0756 6.21861,24.06616 0.02076,0.42431 3.39623,0.80752 8.16976,0.9275 4.47391,0.11244 8.13461,0.43782 8.13489,0.72306 2.8e-4,0.28524 0.7837,0.56363 1.74091,0.61873 3.10696,0.17873 11.99665,7.49872 11.99665,9.87833 0,0.24323 0.91169,2.00207 2.02598,3.90856 4.00693,6.85557 5.44375,13.24413 5.41425,24.07343 -0.02456,9.0181 -0.70229,14.06174 -2.38043,17.71491 -0.36536,0.79536 -1.48609,4.02633 -2.49052,7.17987 -1.774,5.56977 -3.82813,9.36625 -7.11609,13.1521 -2.39212,2.75434 -11.24442,8.0299 -17.63853,10.51172 -3.10878,1.20663 -6.35241,2.46786 -7.20809,2.80278 l -1.55575,0.60881 1.69558,5.83217 c 0.93257,3.20769 1.91532,6.18777 2.18388,6.62233 0.26857,0.43448 0.89251,3.72988 1.38654,7.32303 1.57796,11.47656 -0.49617,22.21351 -5.45173,28.22152 -1.23312,1.495 -2.59149,2.50221 -3.01862,2.23822 -0.43742,-0.27035 -0.56852,-0.1433 -0.30018,0.29089 1.20562,1.95073 -11.67531,9.1886 -18.96128,10.65437 L 32.43682,831.0461 c 0,3.15899 -0.14538,3.0608 -0.14538,3.0608 l -1.73525,147.9365 1.95687,0.7223 17.33691,12.2571 13.57379,16.3266 8.88566,19.2834 3.59197,20.9261 v 128.5039 h -26.4567 v 15.1182 H 34.32658 v -5.6693 h -15.1181 v 26.4567 h 15.1181 v -5.6693 h 15.11811 v 15.1181 h 26.4567 v 15.1181 H -90.397824 v -15.1181 h 26.456693 v -15.1181 h 15.11811 v 5.6693 h 15.11811 v -26.4567 h -15.11811 v 5.6693 h -15.11811 v -15.1182 h -26.456693 v -128.5039 l 3.61602,-20.9201 8.907318,-19.2713 13.591597,-16.3093 17.349632,-12.2358 V 829.7572 Z"
           style="fill:none;stroke:#f20000;stroke-width:0.72305602;stroke-opacity:1"
           id="path896" />
        <path
           d="m -41.528368,713.02349 c -4.70408,-2.26827 -8.67052,-5.66317 -11.10459,-9.50449 -2.92419,-4.61479 -5.10707,-18.15959 -4.65073,-28.85783 0.26717,-6.26315 0.6328,-8.06913 2.34911,-11.60285 3.39363,-6.98715 11.78453,-12.80669 18.46532,-12.80669 3.33013,0 12.80339,3.2805 15.57251,5.39261 1.42464,1.08663 2.90461,1.69372 3.41424,1.40054 0.49476,-0.28461 0.66425,-0.25712 0.37663,0.0611 -0.28762,0.31824 0.43472,1.78776 1.6052,3.2656 2.91921,3.6858 3.4869,5.4608 4.71199,14.73304 2.0777903,15.7258 1.1635503,24.64643 -3.22715,31.48872 -4.02865,6.27812 -8.90865,8.7427 -17.25606,8.71495 -4.72274,-0.0157 -6.26192,-0.35857 -10.25647,-2.28472 z m 53.05764,2.38174 c -4.2947197,-0.73863 -8.6807197,-3.76786 -11.10628975,-7.67064 -2.58342995,-4.1568 -3.60806995,-8.49924 -3.61886995,-15.33695 -0.01,-6.15883 1.82649,-16.85305 3.48083995,-20.27253 0.33697,-0.69651 1.56018005,-3.21717 2.71823005,-5.60147 2.47453,-5.09476 9.3881997,-12.38435 13.9779297,-14.73796 1.92692,-0.98813 5.12827,-1.80078 8.0633,-2.04684 4.08107,-0.34215 5.3997,-0.15049 8.16065,1.18606 8.12029,3.93096 12.67604,13.95851 12.73058,28.02094 0.0497,12.81943 -2.72561,20.72682 -9.82786,28.0012 -6.54888,6.7076 -15.94882,9.9424 -24.57851,8.45819 z m 33.51729,40.94609 c -5.54098,-1.8216 -9.84255,-8.40849 -11.42481,-17.49449 -1.02564,-5.88965 -0.18568,-11.30718 2.69532,-17.38418 6.17131,-13.01739 13.03764,-21.20068 22.58919,-26.92177 8.71217,-5.21834 15.42727,-4.77243 19.24678,1.27805 2.78923,4.41843 5.22858,10.87947 6.52719,17.28834 1.15136,5.6822 1.1497,6.40305 -0.0287,12.50102 -1.92464,9.95934 -5.26301,17.63046 -9.3389,21.45955 -1.00677,0.94583 -1.62755,2.04798 -1.37952,2.44935 0.24803,0.40129 0.0964,0.51048 -0.33702,0.24266 -0.43339,-0.26782 -2.33868,0.49645 -4.23398,1.69838 -7.51832,4.76798 -18.16318,6.90569 -24.31551,4.88309 z m -126.0744,3.56907 c -3.59057,-1.34727 -7.89006,-5.52089 -10.93004,-10.61005 -4.78837,-8.01608 -6.35395,-14.50016 -6.28495,-26.03005 0.0904,-15.114 3.89078,-24.46958 12.16665,-29.95155 3.88133,-2.571 11.41677,-2.63799 16.71015,-0.14854 7.8081,3.67211 14.34448,13.34638 17.40582,25.76175 1.24914,5.06588 1.26482,17.25035 0.0289,22.41478 -2.9062,12.14351 -11.28229,19.58621 -21.909,19.46748 -2.70897,-0.0304 -5.94333,-0.43694 -7.18748,-0.90382 z m 94.81325,59.41496 c -7.9102497,-1.51481 -16.1402397,-1.4827 -32.89905,0.12827 -10.68325,1.02695 -26.95216,0.52559 -32.38612,-0.99804 -10.99999,-3.08419 -16.48453,-9.01014 -17.46218,-18.86749 -0.64467,-6.50006 1.65979,-16.7065 5.76095,-25.5152 0.78487,-1.6858 1.42705,-3.22136 1.42705,-3.41232 0,-0.60158 7.379,-12.88984 9.90017,-16.48683 14.50607,-20.69596 28.45211,-33.19763 40.87446,-36.64116 4.5981903,-1.27464 11.02214025,-0.71036 15.0893403,1.32545 6.3559497,3.18142 13.9921597,12.22087 20.5246897,24.29634 5.94115,10.98221 7.20856,13.19743 10.34245,18.0764 1.78808,2.78376 4.93448,7.01364 6.99202,9.39973 9.84927,11.42204 13.00583,31.97945 6.23254,40.59033 -2.3628,3.00379 -7.39316,6.44973 -11.82795,8.10249 -5.23308,1.9503 -12.39109,1.95088 -22.56837,0 z"
           style="fill:none;fill-opacity:1;stroke:#fffc00;stroke-width:0.72305602;stroke-opacity:1"
           id="path870"
           inkscape:connector-curvature="0" />
      </g>
    </g>
    <use
       x="0"
       y="0"
       inkscape:tiled-clone-of="#g951"
       xlink:href="#g951"
       id="use1023" />
    <use
       x="0"
       y="0"
       inkscape:tiled-clone-of="#g951"
       xlink:href="#g951"
       transform="translate(205.89815)"
       id="use1025" />
    <use
       x="0"
       y="0"
       inkscape:tiled-clone-of="#g951"
       xlink:href="#g951"
       transform="translate(411.7963)"
       id="use1027" />
    <use
       x="0"
       y="0"
       inkscape:tiled-clone-of="#g951"
       xlink:href="#g951"
       transform="translate(617.69445)"
       id="use1029" />
    <use
       x="0"
       y="0"
       inkscape:tiled-clone-of="#g951"
       xlink:href="#g951"
       transform="translate(823.5926)"
       id="use1031" />
    <use
       x="0"
       y="0"
       inkscape:tiled-clone-of="#g951"
       xlink:href="#g951"
       transform="translate(1029.4908)"
       id="use1033" />
    <use
       x="0"
       y="0"
       inkscape:tiled-clone-of="#g951"
       xlink:href="#g951"
       transform="translate(1235.3889)"
       id="use1035" />
    <use
       x="0"
       y="0"
       inkscape:tiled-clone-of="#g951"
       xlink:href="#g951"
       transform="translate(1441.2871)"
       id="use1037" />
    <use
       x="0"
       y="0"
       inkscape:tiled-clone-of="#g951"
       xlink:href="#g951"
       transform="translate(1647.1852)"
       id="use1039" />
  </g>
  <g
     inkscape:groupmode="layer"
     inkscape:label="SECTIONCUTEDGES"
     id="g8282"
     transform="translate(342.56251,-590.39802)" />
</svg>
