<?xml version="1.0" encoding="UTF-8" standalone="no"?>
<svg
   xmlns:dc="http://purl.org/dc/elements/1.1/"
   xmlns:cc="http://creativecommons.org/ns#"
   xmlns:rdf="http://www.w3.org/1999/02/22-rdf-syntax-ns#"
   xmlns:svg="http://www.w3.org/2000/svg"
   xmlns="http://www.w3.org/2000/svg"
   xmlns:xlink="http://www.w3.org/1999/xlink"
   xmlns:sodipodi="http://sodipodi.sourceforge.net/DTD/sodipodi-0.dtd"
   xmlns:inkscape="http://www.inkscape.org/namespaces/inkscape"
   width="19.5in"
   height="11in"
   version="1.1"
   id="svg8284"
   sodipodi:docname="paddle.svg"
   inkscape:version="0.92.2 5c3e80d, 2017-08-06">
  <metadata
     id="metadata8288">
    <rdf:RDF>
      <cc:Work
         rdf:about="">
        <dc:format>image/svg+xml</dc:format>
        <dc:type
           rdf:resource="http://purl.org/dc/dcmitype/StillImage" />
        <dc:title></dc:title>
      </cc:Work>
    </rdf:RDF>
  </metadata>
  <sodipodi:namedview
     pagecolor="#ffffff"
     bordercolor="#666666"
     borderopacity="1"
     objecttolerance="10"
     gridtolerance="10"
     guidetolerance="10"
     inkscape:pageopacity="0"
     inkscape:pageshadow="2"
     inkscape:window-width="1280"
     inkscape:window-height="723"
     id="namedview8286"
     showgrid="false"
     inkscape:zoom="0.21763261"
     inkscape:cx="734.03975"
     inkscape:cy="531.44715"
     inkscape:window-x="0"
     inkscape:window-y="1"
     inkscape:window-maximized="1"
     inkscape:current-layer="g8280"
     units="in"
     inkscape:snap-global="false" />
  <desc
     id="desc6784">C:\Users\Andreas Reheis\Documents\Laser\Mohrnkopfschleuder\Mohrnkopfschleuder_v_6.dxf - scale = 1.000000, origin = (0.000000, 0.000000), method = file</desc>
  <defs
     id="defs6798">
    <marker
       id="DistanceX"
       orient="auto"
       refX="0"
       refY="0"
       style="overflow:visible">
      <path
         d="M 3,-3 -3,3 M 0,-5 V 5"
         style="stroke:#000000;stroke-width:0.5"
         id="path6786"
         inkscape:connector-curvature="0" />
    </marker>
    <pattern
       height="8"
       id="Hatch"
       patternUnits="userSpaceOnUse"
       width="8"
       x="0"
       y="0">
      <path
         d="M8 4 l-4,4"
         linecap="square"
         stroke="#000000"
         stroke-width="0.25"
         id="path6789" />
      <path
         d="M6 2 l-4,4"
         linecap="square"
         stroke="#000000"
         stroke-width="0.25"
         id="path6791" />
      <path
         d="M4 0 l-4,4"
         linecap="square"
         stroke="#000000"
         stroke-width="0.25"
         id="path6793" />
    </pattern>
    <symbol
       id="*MODEL_SPACE" />
    <symbol
       id="*PAPER_SPACE" />
  </defs>
  <g
     inkscape:groupmode="layer"
     inkscape:label="0"
     id="g6800"
     transform="translate(342.56251,-590.39802)" />
  <g
     inkscape:groupmode="layer"
     inkscape:label="PROFILEEDGES"
     id="g8280"
     transform="translate(342.56251,-590.39802)">
    <g
       id="g8961"
       transform="translate(-165.3874,-465.05028)"
       inkscape:tile-cx="83.649607"
       inkscape:tile-cy="283.96455"
       inkscape:tile-w="167.29921"
       inkscape:tile-h="567.93341"
       inkscape:tile-x0="-2.8421709e-14"
       inkscape:tile-y0="4.5474735e-13">
      <path
         id="path8846"
         d="M -67.068809,1155.6297 H -119.9822 v -26.4567 h 52.913391 z"
         style="fill:none;stroke:#000000"
         inkscape:connector-curvature="0" />
      <path
         id="path8844"
         d="m -24.788998,1583.1924 -12.613383,16.4381 -16.438082,12.6134 -19.142551,7.9291 -20.542488,2.7044 -20.542488,-2.7044 -19.14255,-7.9291 -16.43808,-12.6134 -12.61339,-16.4381 -7.9291,-19.1425 -2.70447,-20.5425 2.70447,-20.5425 7.9291,-19.1426 12.61339,-16.4381 16.43808,-12.6133 1.88063,-160.3307 -1.95687,-0.7223 -17.33691,-12.2571 -13.57379,-16.3266 -8.88566,-19.2834 -3.59197,-20.9261 v -128.5039 h 26.4567 v -15.1182 h 15.11811 v 5.6693 h 15.1181 v -26.4567 h -15.1181 v 5.6693 h -15.11811 v -15.1181 h -26.4567 v -15.1181 h 166.299214 v 15.1181 h -26.456693 v 15.1181 h -15.11811 v -5.6693 h -15.11811 v 26.4567 h 15.11811 v -5.6693 h 15.11811 v 15.1182 h 26.456693 v 128.5039 l -3.61602,20.9201 -8.907318,19.2713 -13.591597,16.3093 -17.349632,12.2358 v 161.1097 l 16.438082,12.6133 12.613383,16.4381 7.929105,19.1426 2.70447,20.5425 -2.70447,20.5425 z"
         style="fill:none;stroke:#000000"
         inkscape:connector-curvature="0" />
    </g>
    <use
       x="0"
       y="0"
       inkscape:tiled-clone-of="#g8961"
       xlink:href="#g8961"
       transform="translate(175.66417)"
       id="use19740" />
    <use
       x="0"
       y="0"
       inkscape:tiled-clone-of="#g8961"
       xlink:href="#g8961"
       transform="translate(351.32834)"
       id="use19742" />
    <use
       x="0"
       y="0"
       inkscape:tiled-clone-of="#g8961"
       xlink:href="#g8961"
       transform="translate(526.99251)"
       id="use19744" />
    <use
       x="0"
       y="0"
       inkscape:tiled-clone-of="#g8961"
       xlink:href="#g8961"
       transform="translate(702.65668)"
       id="use19746" />
    <use
       x="0"
       y="0"
       inkscape:tiled-clone-of="#g8961"
       xlink:href="#g8961"
       transform="translate(878.32085)"
       id="use19748" />
    <use
       x="0"
       y="0"
       inkscape:tiled-clone-of="#g8961"
       xlink:href="#g8961"
       transform="translate(1053.985)"
       id="use19750" />
    <use
       x="0"
       y="0"
       inkscape:tiled-clone-of="#g8961"
       xlink:href="#g8961"
       transform="translate(1229.6492)"
       id="use19752" />
    <use
       x="0"
       y="0"
       inkscape:tiled-clone-of="#g8961"
       xlink:href="#g8961"
       transform="translate(1405.3134)"
       id="use19754" />
    <use
       x="0"
       y="0"
       inkscape:tiled-clone-of="#g8961"
       xlink:href="#g8961"
       transform="translate(1580.9775)"
       id="use19756" />
  </g>
  <g
     inkscape:groupmode="layer"
     inkscape:label="SECTIONCUTEDGES"
     id="g8282"
     transform="translate(342.56251,-590.39802)" />
</svg>
