<?xml version="1.0" encoding="UTF-8" standalone="no"?>
<svg
   xmlns:dc="http://purl.org/dc/elements/1.1/"
   xmlns:cc="http://creativecommons.org/ns#"
   xmlns:rdf="http://www.w3.org/1999/02/22-rdf-syntax-ns#"
   xmlns:svg="http://www.w3.org/2000/svg"
   xmlns="http://www.w3.org/2000/svg"
   xmlns:sodipodi="http://sodipodi.sourceforge.net/DTD/sodipodi-0.dtd"
   xmlns:inkscape="http://www.inkscape.org/namespaces/inkscape"
   width="600mm"
   height="300mm"
   version="1.1"
   id="svg8284"
   sodipodi:docname="Mohrnkopfschleuder_v_6_schaeferhund.svg"
   inkscape:version="0.92.2 5c3e80d, 2017-08-06">
  <metadata
     id="metadata8288">
    <rdf:RDF>
      <cc:Work
         rdf:about="">
        <dc:format>image/svg+xml</dc:format>
        <dc:type
           rdf:resource="http://purl.org/dc/dcmitype/StillImage" />
        <dc:title />
      </cc:Work>
    </rdf:RDF>
  </metadata>
  <sodipodi:namedview
     pagecolor="#ffffff"
     bordercolor="#666666"
     borderopacity="1"
     objecttolerance="10"
     gridtolerance="10"
     guidetolerance="10"
     inkscape:pageopacity="0"
     inkscape:pageshadow="2"
     inkscape:window-width="1280"
     inkscape:window-height="720"
     id="namedview8286"
     showgrid="false"
     inkscape:zoom="0.37172797"
     inkscape:cx="303.95035"
     inkscape:cy="809.94158"
     inkscape:window-x="0"
     inkscape:window-y="1"
     inkscape:window-maximized="1"
     inkscape:current-layer="g911"
     units="mm" />
  <desc
     id="desc6784">C:\Users\Andreas Reheis\Documents\Laser\Mohrnkopfschleuder\Mohrnkopfschleuder_v_6.dxf - scale = 1.000000, origin = (0.000000, 0.000000), method = file</desc>
  <defs
     id="defs6798">
    <marker
       id="DistanceX"
       orient="auto"
       refX="0"
       refY="0"
       style="overflow:visible">
      <path
         d="M 3,-3 -3,3 M 0,-5 V 5"
         style="stroke:#000000;stroke-width:0.5"
         id="path6786"
         inkscape:connector-curvature="0" />
    </marker>
    <pattern
       height="8"
       id="Hatch"
       patternUnits="userSpaceOnUse"
       width="8"
       x="0"
       y="0">
      <path
         d="M8 4 l-4,4"
         linecap="square"
         stroke="#000000"
         stroke-width="0.25"
         id="path6789" />
      <path
         d="M6 2 l-4,4"
         linecap="square"
         stroke="#000000"
         stroke-width="0.25"
         id="path6791" />
      <path
         d="M4 0 l-4,4"
         linecap="square"
         stroke="#000000"
         stroke-width="0.25"
         id="path6793" />
    </pattern>
    <symbol
       id="*MODEL_SPACE" />
    <symbol
       id="*PAPER_SPACE" />
  </defs>
  <g
     inkscape:groupmode="layer"
     inkscape:label="0"
     id="g6800"
     transform="translate(342.56251,-644.53984)" />
  <g
     inkscape:groupmode="layer"
     inkscape:label="PROFILEEDGES"
     id="g8280"
     transform="translate(342.56251,-644.53984)">
    <g
       id="g911">
      <g
         transform="translate(-705.93149,-192.8525)"
         id="g11096"
         style="fill:none;stroke:#000000;stroke-opacity:1;stroke-width:0.22677165;stroke-miterlimit:4;stroke-dasharray:none">
        <g
           id="g9008"
           transform="matrix(0,-1,-1,0,2405.2581,1511.0039)"
           style="fill:none;stroke:#000000;stroke-opacity:1;stroke-width:0.22677165;stroke-miterlimit:4;stroke-dasharray:none">
          <path
             id="path8932"
             d="m 219.10576,1058.352 -1.23834,-1.4725 -0.81505,-1.7428 -0.33621,-1.8944 0.16556,-1.9168 0.65602,-1.8087 1.1018,-1.5773 1.47247,-1.2383 1.74281,-0.8151 1.89438,-0.3362 1.91684,0.1656 1.80867,0.656 1.57726,1.1018 1.23835,1.4725 0.81505,1.7428 0.3362,1.8944 -0.16555,1.9168 -0.65603,1.8087 -1.10179,1.5772 -1.47248,1.2384 -1.74281,0.815 -1.89437,0.3362 -1.91684,-0.1655 -1.80868,-0.656 z"
             style="fill:none;stroke:#000000;stroke-opacity:1;stroke-width:0.22677165;stroke-miterlimit:4;stroke-dasharray:none"
             inkscape:connector-curvature="0" />
          <path
             id="path8930"
             d="m 25.248743,1602.1678 -0.25113,-1.9075 0.25113,-1.9076 0.736274,-1.7775 1.171243,-1.5264 1.526393,-1.1712 1.777522,-0.7363 1.907517,-0.2511 1.907517,0.2511 1.777523,0.7363 1.526393,1.1712 1.171243,1.5264 0.736274,1.7775 0.251129,1.9076 -0.251129,1.9075 -0.736274,1.7775 -1.171243,1.5264 -1.526393,1.1712 -1.777523,0.7363 -1.907517,0.2511 -1.907517,-0.2511 -1.777522,-0.7363 -1.526393,-1.1712 -1.171243,-1.5264 z"
             style="fill:none;stroke:#000000;stroke-opacity:1;stroke-width:0.22677165;stroke-miterlimit:4;stroke-dasharray:none"
             inkscape:connector-curvature="0" />
          <path
             id="path8928"
             d="m 27.15626,1167.0465 1.526393,1.1712 1.777522,0.7363 1.907517,0.2511 1.907517,-0.2511 1.777523,-0.7363 1.526393,-1.1712 1.171243,-1.5264 0.736274,-1.7775 0.251129,-1.9075 -0.251129,-1.9076 -0.736274,-1.7775 -1.171245,-1.5264 -1.526396,-1.1712 -1.777523,-0.7363 -1.907517,-0.2511 -1.907514,0.2511 -1.777522,0.7363 -1.526393,1.1712 -1.171243,1.5264 -0.736274,1.7775 -0.25113,1.9076 0.251127,1.9075 0.736277,1.7775 z"
             style="fill:none;stroke:#000000;stroke-opacity:1;stroke-width:0.22677165;stroke-miterlimit:4;stroke-dasharray:none"
             inkscape:connector-curvature="0" />
          <path
             id="path8926"
             d="m 196.17997,1039.0195 -3.25574,14.7634 -14.76339,-3.2558 3.25574,-14.7633 z"
             style="fill:none;stroke:#000000;stroke-opacity:1;stroke-width:0.22677165;stroke-miterlimit:4;stroke-dasharray:none"
             inkscape:connector-curvature="0" />
          <path
             id="path8924"
             d="m 312.05273,1033.3311 v -15.1181 h 15.11811 v 15.1181 z"
             style="fill:none;stroke:#000000;stroke-opacity:1;stroke-width:0.22677165;stroke-miterlimit:4;stroke-dasharray:none"
             inkscape:connector-curvature="0" />
          <path
             id="path8922"
             d="m 90.116992,1035.0807 1.338896,1.4496 0.918089,1.7465 0.434723,1.9249 -0.07827,1.9719 -0.585933,1.8843 -1.053663,1.6685 -1.449589,1.3389 -1.746727,0.9181 -1.924829,0.4345 -1.971759,-0.078 -1.884312,-0.586 -1.668456,-1.0537 -1.338899,-1.4497 -0.91809,-1.7467 -0.43472,-1.9247 0.07827,-1.9718 0.585929,-1.8844 1.053663,-1.6684 1.449589,-1.3389 1.746727,-0.9181 1.924829,-0.4346 1.971753,0.078 1.884315,0.5862 z"
             style="fill:none;stroke:#000000;stroke-opacity:1;stroke-width:0.22677165;stroke-miterlimit:4;stroke-dasharray:none"
             inkscape:connector-curvature="0" />
          <path
             id="path8920"
             d="m 266.74114,1070.0615 -14.76338,-3.2557 3.25573,-14.7634 14.76338,3.2558 z"
             style="fill:none;stroke:#000000;stroke-opacity:1;stroke-width:0.22677165;stroke-miterlimit:4;stroke-dasharray:none"
             inkscape:connector-curvature="0" />
          <path
             id="path8918"
             d="m 327.17083,1048.4492 v 15.1181 h -15.1181 v -15.1181 z"
             style="fill:none;stroke:#000000;stroke-opacity:1;stroke-width:0.22677165;stroke-miterlimit:4;stroke-dasharray:none"
             inkscape:connector-curvature="0" />
          <path
             id="path8916"
             d="m 24.808634,1018.2129 15.118113,10e-5 v 15.1181 l -15.118113,-1e-4 z"
             style="fill:none;stroke:#000000;stroke-opacity:1;stroke-width:0.22677165;stroke-miterlimit:4;stroke-dasharray:none"
             inkscape:connector-curvature="0" />
          <path
             id="path8914"
             d="m 92.725291,1643.9035 -0.593387,1.8821 -1.060259,1.6642 -1.454876,1.3332 -1.750345,0.9112 -1.926531,0.4271 -1.971434,-0.086 -1.881981,-0.5934 -1.664272,-1.0603 -1.333148,-1.4548 -0.911173,-1.7504 -0.427101,-1.9265 0.08607,-1.9714 0.593386,-1.882 1.060258,-1.6643 1.454879,-1.3331 1.750349,-0.9112 1.926534,-0.4271 1.971428,0.086 1.881977,0.5934 1.664272,1.0603 1.333148,1.4549 0.911176,1.7503 0.427102,1.9265 z"
             style="fill:none;stroke:#000000;stroke-opacity:1;stroke-width:0.22677165;stroke-miterlimit:4;stroke-dasharray:none"
             inkscape:connector-curvature="0" />
          <path
             id="path8912"
             d="m 24.808637,1728.764 15.118107,1e-4 v 15.1182 l -15.118107,-10e-5 z"
             style="fill:none;stroke:#000000;stroke-opacity:1;stroke-width:0.22677165;stroke-miterlimit:4;stroke-dasharray:none"
             inkscape:connector-curvature="0" />
          <path
             id="path8908"
             d="m 39.926747,1373.4886 h -15.11811 v 15.1181 h 15.11811 z"
             style="fill:none;stroke:#000000;stroke-opacity:1;stroke-width:0.22677165;stroke-miterlimit:4;stroke-dasharray:none"
             inkscape:connector-curvature="0" />
        </g>
        <path
           style="fill:none;stroke:#000000;stroke-width:0.22677165;stroke-opacity:1;stroke-miterlimit:4;stroke-dasharray:none"
           d="m 1316.3653,1744.7462 c 6.8232,-2.11 10.8377,-7.7334 8.8097,-12.3395 -3.0846,-7.0054 -10.5934,-12.115 -26.4285,-17.9836 -15.0322,-5.5711 -16.0749,-6.3492 -20.1078,-15.0016 -5.9154,-12.692 -7.6423,-46.5246 -4.1616,-81.529 1.5611,-15.6967 3.6436,-31.1835 4.6279,-34.4153 1.7469,-5.7342 1.8816,-5.5928 5.592,5.8759 2.0911,6.4633 7.1317,24.5943 11.2013,40.291 10.4145,40.1695 12.2834,44.6465 27.6177,66.1549 18.0717,25.3483 19.737,26.1786 52.5051,26.1786 21.797,0 26.263,-0.4681 30.5081,-3.198 2.7349,-1.7589 4.9731,-4.6916 4.9731,-6.517 0,-4.6748 -14.5355,-13.8773 -26.342,-16.677 -5.4714,-1.2976 -11.9148,-4.233 -14.3181,-6.523 -10.8319,-10.3212 -15.9248,-41.6729 -15.9555,-98.2213 -0.024,-41.5328 1.8718,-52.0346 11.2288,-62.253 23.9431,-26.1468 30.0412,-33.7339 37.3117,-46.4201 15.0875,-26.327 18.1784,-37.6328 17.8234,-65.198 -0.2833,-22.0306 0.42,-26.7962 6.6203,-44.8597 4.5994,-13.3999 7.4856,-27.1569 8.5643,-40.8241 0.8952,-11.3371 2.481,-21.7463 3.5245,-23.1314 1.5505,-2.0584 8.0676,-2.5181 35.6859,-2.5181 33.1007,0 34.052,-0.1025 46.7002,-5.0364 17.7383,-6.9194 42.5445,-24.3356 42.5445,-29.8704 0,-6.0266 -9.724,-11.1971 -36.9076,-19.6256 -45.2959,-14.0442 -49.7709,-16.0367 -56.1588,-25.005 -6.5027,-9.1289 -16.3555,-15.7064 -31.227,-20.8466 -13.4811,-4.6592 -18.6125,-13.5732 -24.5142,-42.5819 -2.5487,-12.5274 -5.2155,-23.4467 -5.9263,-24.2651 -3.7738,-4.3439 -9.8692,-0.6269 -18.7127,11.4108 -5.1915,7.0667 -10.6399,13.132 -12.1071,13.4784 -1.4917,0.3521 -3.38,-2.0706 -4.2833,-5.496 -3.3957,-12.8769 -11.0591,-27.5966 -15.1852,-29.1677 -10.818,-4.1187 -21.9989,9.3919 -41.3923,50.0164 -6.9705,14.6019 -15.0352,29.884 -17.9212,33.9597 -7.984,11.275 -70.4425,78.8337 -78.7702,85.2022 -8.2417,6.3027 -13.7064,8.4713 -54.2287,21.521 -58.131,18.7197 -72.7313,21.5977 -169.02147,33.3154 -70.96134,8.6356 -95.69977,12.9393 -131.66831,22.9068 -31.67606,8.7777 -143.97562,3.1051 -198.299,71.5417 -23.78718,9.6851 -51.79962,20.1745 -62.24959,23.3099 -23.23097,6.97 -60.64113,14.0884 -104.52426,19.8887 -42.59515,5.6302 -66.66197,10.928 -87.86703,19.3429 -17.48601,6.9391 -36.0233,18.044 -36.0233,21.5802 0,3.0071 10.64536,5.2547 24.88732,5.2547 7.02966,0 32.44417,1.8966 56.477,4.2146 115.43842,11.1336 154.24064,8.3194 201.22361,-14.5939 5.51607,-2.69 10.02924,-4.5915 10.02924,-4.2251 0,0.3663 -5.41674,10.7901 -12.03743,23.1642 -26.56658,49.6525 -32.84818,54.7163 -76.94935,62.0312 -24.11778,4.0002 -30.58628,6.5783 -34.89011,13.9063 -1.72267,2.933 -5.88727,18.8508 -9.25449,35.3728 -3.36746,16.5219 -8.93946,38.5491 -12.38244,48.9491 -5.55004,16.7651 -5.90259,19.5224 -3.1095,24.3196 4.64741,7.9817 19.80357,12.3984 42.76716,12.4629 21.9411,0.063 27.98223,-2.6899 27.98223,-12.7446 0,-5.2313 -1.9938,-7.9961 -10.92595,-15.1508 l -10.92572,-8.7517 1.32268,-11.2247 c 3.23745,-27.4706 13.98922,-34.0071 68.90522,-41.8907 33.49757,-4.809 57.16935,-9.7255 96.89425,-20.1246 17.68462,-4.6296 33.11734,-8.4173 34.29465,-8.4173 4.45509,0 1.57163,3.207 -17.99761,20.0189 -34.47705,29.6191 -34.68235,30.9709 -7.54104,49.6497 22.50699,15.4895 51.07703,29.9908 69.99497,35.5276 14.29718,4.1842 37.55506,5.2094 51.88029,2.2867 32.42433,-6.6156 19.61463,-32.5611 -14.65041,-29.6741 -7.30032,0.6152 -14.40526,0.1595 -19.04678,-1.2205 -9.44068,-2.8075 -34.54085,-21.9944 -34.54085,-26.4036 0,-9.0481 16.02385,-21.0109 47.56042,-35.5074 29.89869,-13.7435 46.93556,-24.6428 67.26862,-43.0344 19.77986,-17.8913 27.53841,-21.8919 60.16315,-31.0214 20.35531,-5.6963 41.56613,-8.7902 75.14823,-10.962 38.819,-2.5106 124.9719,-4.0078 133.3299,-2.3174 16.0741,3.2512 22.5916,24.2373 28.2577,90.9851 2.9961,35.2965 4.1558,41.7197 9.1897,50.9044 3.1682,5.7811 6.4938,14.2883 7.3892,18.9051 3.1236,16.0978 11.9162,26.0236 27.1378,30.6347 9.7671,2.9589 53.0793,4.5356 60.6109,2.2065 z"
           id="path11080"
           inkscape:connector-curvature="0"
           sodipodi:nodetypes="cccccccscscscccccccccscscccccccccccccccccccssccscccccccscccccsccccccscccccccccc" />
      </g>
      <g
         id="g11126"
         transform="rotate(-180,611.66149,1195.701)"
         style="fill:none;stroke:#000000;stroke-opacity:1;stroke-width:0.22677165;stroke-miterlimit:4;stroke-dasharray:none">
        <g
           transform="matrix(0,-1,-1,0,2405.2581,1511.0039)"
           id="g11122"
           style="fill:none;stroke:#000000;stroke-opacity:1;stroke-width:0.22677165;stroke-miterlimit:4;stroke-dasharray:none">
          <path
             inkscape:connector-curvature="0"
             style="fill:none;stroke:#000000;stroke-opacity:1;stroke-width:0.22677165;stroke-miterlimit:4;stroke-dasharray:none"
             d="m 219.10576,1058.352 -1.23834,-1.4725 -0.81505,-1.7428 -0.33621,-1.8944 0.16556,-1.9168 0.65602,-1.8087 1.1018,-1.5773 1.47247,-1.2383 1.74281,-0.8151 1.89438,-0.3362 1.91684,0.1656 1.80867,0.656 1.57726,1.1018 1.23835,1.4725 0.81505,1.7428 0.3362,1.8944 -0.16555,1.9168 -0.65603,1.8087 -1.10179,1.5772 -1.47248,1.2384 -1.74281,0.815 -1.89437,0.3362 -1.91684,-0.1655 -1.80868,-0.656 z"
             id="path11098" />
          <path
             inkscape:connector-curvature="0"
             style="fill:none;stroke:#000000;stroke-opacity:1;stroke-width:0.22677165;stroke-miterlimit:4;stroke-dasharray:none"
             d="m 25.248743,1602.1678 -0.25113,-1.9075 0.25113,-1.9076 0.736274,-1.7775 1.171243,-1.5264 1.526393,-1.1712 1.777522,-0.7363 1.907517,-0.2511 1.907517,0.2511 1.777523,0.7363 1.526393,1.1712 1.171243,1.5264 0.736274,1.7775 0.251129,1.9076 -0.251129,1.9075 -0.736274,1.7775 -1.171243,1.5264 -1.526393,1.1712 -1.777523,0.7363 -1.907517,0.2511 -1.907517,-0.2511 -1.777522,-0.7363 -1.526393,-1.1712 -1.171243,-1.5264 z"
             id="path11100" />
          <path
             inkscape:connector-curvature="0"
             style="fill:none;stroke:#000000;stroke-opacity:1;stroke-width:0.22677165;stroke-miterlimit:4;stroke-dasharray:none"
             d="m 27.15626,1167.0465 1.526393,1.1712 1.777522,0.7363 1.907517,0.2511 1.907517,-0.2511 1.777523,-0.7363 1.526393,-1.1712 1.171243,-1.5264 0.736274,-1.7775 0.251129,-1.9075 -0.251129,-1.9076 -0.736274,-1.7775 -1.171245,-1.5264 -1.526396,-1.1712 -1.777523,-0.7363 -1.907517,-0.2511 -1.907514,0.2511 -1.777522,0.7363 -1.526393,1.1712 -1.171243,1.5264 -0.736274,1.7775 -0.25113,1.9076 0.251127,1.9075 0.736277,1.7775 z"
             id="path11102" />
          <path
             inkscape:connector-curvature="0"
             style="fill:none;stroke:#000000;stroke-opacity:1;stroke-width:0.22677165;stroke-miterlimit:4;stroke-dasharray:none"
             d="m 196.17997,1039.0195 -3.25574,14.7634 -14.76339,-3.2558 3.25574,-14.7633 z"
             id="path11104" />
          <path
             inkscape:connector-curvature="0"
             style="fill:none;stroke:#000000;stroke-opacity:1;stroke-width:0.22677165;stroke-miterlimit:4;stroke-dasharray:none"
             d="m 312.05273,1033.3311 v -15.1181 h 15.11811 v 15.1181 z"
             id="path11106" />
          <path
             inkscape:connector-curvature="0"
             style="fill:none;stroke:#000000;stroke-opacity:1;stroke-width:0.22677165;stroke-miterlimit:4;stroke-dasharray:none"
             d="m 90.116992,1035.0807 1.338896,1.4496 0.918089,1.7465 0.434723,1.9249 -0.07827,1.9719 -0.585933,1.8843 -1.053663,1.6685 -1.449589,1.3389 -1.746727,0.9181 -1.924829,0.4345 -1.971759,-0.078 -1.884312,-0.586 -1.668456,-1.0537 -1.338899,-1.4497 -0.91809,-1.7467 -0.43472,-1.9247 0.07827,-1.9718 0.585929,-1.8844 1.053663,-1.6684 1.449589,-1.3389 1.746727,-0.9181 1.924829,-0.4346 1.971753,0.078 1.884315,0.5862 z"
             id="path11108" />
          <path
             inkscape:connector-curvature="0"
             style="fill:none;stroke:#000000;stroke-opacity:1;stroke-width:0.22677165;stroke-miterlimit:4;stroke-dasharray:none"
             d="m 266.74114,1070.0615 -14.76338,-3.2557 3.25573,-14.7634 14.76338,3.2558 z"
             id="path11110" />
          <path
             inkscape:connector-curvature="0"
             style="fill:none;stroke:#000000;stroke-opacity:1;stroke-width:0.22677165;stroke-miterlimit:4;stroke-dasharray:none"
             d="m 327.17083,1048.4492 v 15.1181 h -15.1181 v -15.1181 z"
             id="path11112" />
          <path
             inkscape:connector-curvature="0"
             style="fill:none;stroke:#000000;stroke-opacity:1;stroke-width:0.22677165;stroke-miterlimit:4;stroke-dasharray:none"
             d="m 24.808634,1018.2129 15.118113,10e-5 v 15.1181 l -15.118113,-1e-4 z"
             id="path11114" />
          <path
             inkscape:connector-curvature="0"
             style="fill:none;stroke:#000000;stroke-opacity:1;stroke-width:0.22677165;stroke-miterlimit:4;stroke-dasharray:none"
             d="m 92.725291,1643.9035 -0.593387,1.8821 -1.060259,1.6642 -1.454876,1.3332 -1.750345,0.9112 -1.926531,0.4271 -1.971434,-0.086 -1.881981,-0.5934 -1.664272,-1.0603 -1.333148,-1.4548 -0.911173,-1.7504 -0.427101,-1.9265 0.08607,-1.9714 0.593386,-1.882 1.060258,-1.6643 1.454879,-1.3331 1.750349,-0.9112 1.926534,-0.4271 1.971428,0.086 1.881977,0.5934 1.664272,1.0603 1.333148,1.4549 0.911176,1.7503 0.427102,1.9265 z"
             id="path11116" />
          <path
             inkscape:connector-curvature="0"
             style="fill:none;stroke:#000000;stroke-opacity:1;stroke-width:0.22677165;stroke-miterlimit:4;stroke-dasharray:none"
             d="m 24.808637,1728.764 15.118107,1e-4 v 15.1182 l -15.118107,-10e-5 z"
             id="path11118" />
          <path
             inkscape:connector-curvature="0"
             style="fill:none;stroke:#000000;stroke-opacity:1;stroke-width:0.22677165;stroke-miterlimit:4;stroke-dasharray:none"
             d="m 39.926747,1373.4886 h -15.11811 v 15.1181 h 15.11811 z"
             id="path11120" />
        </g>
        <path
           sodipodi:nodetypes="cccccccscscscccccccccscscccccccccccccccccccssccscccccccscccccsccccccscccccccccc"
           inkscape:connector-curvature="0"
           id="path11124"
           d="m 1316.3653,1744.7462 c 6.8232,-2.11 10.8377,-7.7334 8.8097,-12.3395 -3.0846,-7.0054 -10.5934,-12.115 -26.4285,-17.9836 -15.0322,-5.5711 -16.0749,-6.3492 -20.1078,-15.0016 -5.9154,-12.692 -7.6423,-46.5246 -4.1616,-81.529 1.5611,-15.6967 3.6436,-31.1835 4.6279,-34.4153 1.7469,-5.7342 1.8816,-5.5928 5.592,5.8759 2.0911,6.4633 7.1317,24.5943 11.2013,40.291 10.4145,40.1695 12.2834,44.6465 27.6177,66.1549 18.0717,25.3483 19.737,26.1786 52.5051,26.1786 21.797,0 26.263,-0.4681 30.5081,-3.198 2.7349,-1.7589 4.9731,-4.6916 4.9731,-6.517 0,-4.6748 -14.5355,-13.8773 -26.342,-16.677 -5.4714,-1.2976 -11.9148,-4.233 -14.3181,-6.523 -10.8319,-10.3212 -15.9248,-41.6729 -15.9555,-98.2213 -0.024,-41.5328 1.8718,-52.0346 11.2288,-62.253 23.9431,-26.1468 30.0412,-33.7339 37.3117,-46.4201 15.0875,-26.327 18.1784,-37.6328 17.8234,-65.198 -0.2833,-22.0306 0.42,-26.7962 6.6203,-44.8597 4.5994,-13.3999 7.4856,-27.1569 8.5643,-40.8241 0.8952,-11.3371 2.481,-21.7463 3.5245,-23.1314 1.5505,-2.0584 8.0676,-2.5181 35.6859,-2.5181 33.1007,0 34.052,-0.1025 46.7002,-5.0364 17.7383,-6.9194 42.5445,-24.3356 42.5445,-29.8704 0,-6.0266 -9.724,-11.1971 -36.9076,-19.6256 -45.2959,-14.0442 -49.7709,-16.0367 -56.1588,-25.005 -6.5027,-9.1289 -16.3555,-15.7064 -31.227,-20.8466 -13.4811,-4.6592 -18.6125,-13.5732 -24.5142,-42.5819 -2.5487,-12.5274 -5.2155,-23.4467 -5.9263,-24.2651 -3.7738,-4.3439 -9.8692,-0.6269 -18.7127,11.4108 -5.1915,7.0667 -10.6399,13.132 -12.1071,13.4784 -1.4917,0.3521 -3.38,-2.0706 -4.2833,-5.496 -3.3957,-12.8769 -11.0591,-27.5966 -15.1852,-29.1677 -10.818,-4.1187 -21.9989,9.3919 -41.3923,50.0164 -6.9705,14.6019 -15.0352,29.884 -17.9212,33.9597 -7.984,11.275 -70.4425,78.8337 -78.7702,85.2022 -8.2417,6.3027 -13.7064,8.4713 -54.2287,21.521 -58.131,18.7197 -72.7313,21.5977 -169.02147,33.3154 -70.96134,8.6356 -95.69977,12.9393 -131.66831,22.9068 -31.67606,8.7777 -143.97562,3.1051 -198.299,71.5417 -23.78718,9.6851 -51.79962,20.1745 -62.24959,23.3099 -23.23097,6.97 -60.64113,14.0884 -104.52426,19.8887 -42.59515,5.6302 -66.66197,10.928 -87.86703,19.3429 -17.48601,6.9391 -36.0233,18.044 -36.0233,21.5802 0,3.0071 10.64536,5.2547 24.88732,5.2547 7.02966,0 32.44417,1.8966 56.477,4.2146 115.43842,11.1336 154.24064,8.3194 201.22361,-14.5939 5.51607,-2.69 10.02924,-4.5915 10.02924,-4.2251 0,0.3663 -5.41674,10.7901 -12.03743,23.1642 -26.56658,49.6525 -32.84818,54.7163 -76.94935,62.0312 -24.11778,4.0002 -30.58628,6.5783 -34.89011,13.9063 -1.72267,2.933 -5.88727,18.8508 -9.25449,35.3728 -3.36746,16.5219 -8.93946,38.5491 -12.38244,48.9491 -5.55004,16.7651 -5.90259,19.5224 -3.1095,24.3196 4.64741,7.9817 19.80357,12.3984 42.76716,12.4629 21.9411,0.063 27.98223,-2.6899 27.98223,-12.7446 0,-5.2313 -1.9938,-7.9961 -10.92595,-15.1508 l -10.92572,-8.7517 1.32268,-11.2247 c 3.23745,-27.4706 13.98922,-34.0071 68.90522,-41.8907 33.49757,-4.809 57.16935,-9.7255 96.89425,-20.1246 17.68462,-4.6296 33.11734,-8.4173 34.29465,-8.4173 4.45509,0 1.57163,3.207 -17.99761,20.0189 -34.47705,29.6191 -34.68235,30.9709 -7.54104,49.6497 22.50699,15.4895 51.07703,29.9908 69.99497,35.5276 14.29718,4.1842 37.55506,5.2094 51.88029,2.2867 32.42433,-6.6156 19.61463,-32.5611 -14.65041,-29.6741 -7.30032,0.6152 -14.40526,0.1595 -19.04678,-1.2205 -9.44068,-2.8075 -34.54085,-21.9944 -34.54085,-26.4036 0,-9.0481 16.02385,-21.0109 47.56042,-35.5074 29.89869,-13.7435 46.93556,-24.6428 67.26862,-43.0344 19.77986,-17.8913 27.53841,-21.8919 60.16315,-31.0214 20.35531,-5.6963 41.56613,-8.7902 75.14823,-10.962 38.819,-2.5106 124.9719,-4.0078 133.3299,-2.3174 16.0741,3.2512 22.5916,24.2373 28.2577,90.9851 2.9961,35.2965 4.1558,41.7197 9.1897,50.9044 3.1682,5.7811 6.4938,14.2883 7.3892,18.9051 3.1236,16.0978 11.9162,26.0236 27.1378,30.6347 9.7671,2.9589 53.0793,4.5356 60.6109,2.2065 z"
           style="fill:none;stroke:#000000;stroke-width:0.22677165;stroke-opacity:1;stroke-miterlimit:4;stroke-dasharray:none" />
      </g>
    </g>
  </g>
  <g
     inkscape:groupmode="layer"
     inkscape:label="SECTIONCUTEDGES"
     id="g8282"
     transform="translate(342.56251,-644.53984)" />
</svg>
