  0
SECTION
  2
HEADER
  9
$ACADVER
  1
AC1014
  9
$HANDSEED
  5
FFFF
  9
$MEASUREMENT
 70
     1
  0
ENDSEC
  0
SECTION
  2
TABLES
  0
TABLE
  2
VPORT
  5
8
330
0
100
AcDbSymbolTable
 70
     4
  0
VPORT
  5
2E
330
8
100
AcDbSymbolTableRecord
100
AcDbViewportTableRecord
  2
*ACTIVE
 70
     0
 10
0.0
 20
0.0
 11
1.0
 21
1.0
 12
210.0
 22
148.5
 13
0.0
 23
0.0
 14
10.0
 24
10.0
 15
10.0
 25
10.0
 16
0.0
 26
0.0
 36
1.0
 17
0.0
 27
0.0
 37
0.0
 40
341.0
 41
1.24
 42
50.0
 43
0.0
 44
0.0
 50
0.0
 51
0.0
 71
     0
 72
   100
 73
     1
 74
     3
 75
     0
 76
     0
 77
     0
 78
     0
  0
ENDTAB
  0
TABLE
  2
LTYPE
  5
5
330
0
100
AcDbSymbolTable
 70
     1
  0
LTYPE
  5
14
330
5
100
AcDbSymbolTableRecord
100
AcDbLinetypeTableRecord
  2
BYBLOCK
 70
     0
  3

 72
    65
 73
     0
 40
0.0
  0
LTYPE
  5
15
330
5
100
AcDbSymbolTableRecord
100
AcDbLinetypeTableRecord
  2
BYLAYER
 70
     0
  3

 72
    65
 73
     0
 40
0.0
  0
LTYPE
  5
16
330
5
100
AcDbSymbolTableRecord
100
AcDbLinetypeTableRecord
  2
CONTINUOUS
 70
     0
  3
Solid line
 72
    65
 73
     0
 40
0.0
  0
ENDTAB
  0
TABLE
  2
LAYER
  5
2
100
AcDbSymbolTable
 70
4
  0
LAYER
  5
50
100
AcDbSymbolTableRecord
100
AcDbLayerTableRecord
  2
0
 70
0
  6
CONTINUOUS
  0
LAYER
  5
51
100
AcDbSymbolTableRecord
100
AcDbLayerTableRecord
  2
Rohmaterialblock
 70
0
  6
CONTINUOUS
  0
LAYER
  5
52
100
AcDbSymbolTableRecord
100
AcDbLayerTableRecord
  2
Borhschablone
 70
0
  6
CONTINUOUS
  0
LAYER
  5
53
100
AcDbSymbolTableRecord
100
AcDbLayerTableRecord
  2
Dackelumriss
 70
0
  6
CONTINUOUS
  0
ENDTAB
  0
TABLE
  2
STYLE
  5
3
330
0
100
AcDbSymbolTable
 70
     1
  0
STYLE
  5
11
330
3
100
AcDbSymbolTableRecord
100
AcDbTextStyleTableRecord
  2
STANDARD
 70
     0
 40
0.0
 41
1.0
 50
0.0
 71
     0
 42
2.5
  3
txt
  4

  0
ENDTAB
  0
TABLE
  2
VIEW
  5
6
330
0
100
AcDbSymbolTable
 70
     0
  0
ENDTAB
  0
TABLE
  2
UCS
  5
7
330
0
100
AcDbSymbolTable
 70
     0
  0
ENDTAB
  0
TABLE
  2
APPID
  5
9
330
0
100
AcDbSymbolTable
 70
     2
  0
APPID
  5
12
330
9
100
AcDbSymbolTableRecord
100
AcDbRegAppTableRecord
  2
ACAD
 70
     0
  0
ENDTAB
  0
TABLE
  2
DIMSTYLE
  5
A
330
0
100
AcDbSymbolTable
 70
     1
  0
DIMSTYLE
105
27
330
A
100
AcDbSymbolTableRecord
100
AcDbDimStyleTableRecord
  2
ISO-25
 70
     0
  3

  4

  5

  6

  7

 40
1.0
 41
2.5
 42
0.625
 43
3.75
 44
1.25
 45
0.0
 46
0.0
 47
0.0
 48
0.0
140
2.5
141
2.5
142
0.0
143
0.03937007874016
144
1.0
145
0.0
146
1.0
147
0.625
 71
     0
 72
     0
 73
     0
 74
     0
 75
     0
 76
     0
 77
     1
 78
     8
170
     0
171
     3
172
     1
173
     0
174
     0
175
     0
176
     0
177
     0
178
     0
270
     2
271
     2
272
     2
273
     2
274
     3
340
11
275
     0
280
     0
281
     0
282
     0
283
     0
284
     8
285
     0
286
     0
287
     3
288
     0
  0
ENDTAB
  0
TABLE
  2
BLOCK_RECORD
  5
1
330
0
100
AcDbSymbolTable
 70
     1
  0
BLOCK_RECORD
  5
1F
330
1
100
AcDbSymbolTableRecord
100
AcDbBlockTableRecord
  2
*MODEL_SPACE
  0
BLOCK_RECORD
  5
1B
330
1
100
AcDbSymbolTableRecord
100
AcDbBlockTableRecord
  2
*PAPER_SPACE
  0
ENDTAB
  0
ENDSEC
  0
SECTION
  2
BLOCKS
  0
BLOCK
  5
20
330
1F
100
AcDbEntity
  8
0
100
AcDbBlockBegin
  2
*MODEL_SPACE
 70
     0
 10
0.0
 20
0.0
 30
0.0
  3
*MODEL_SPACE
  1

  0
ENDBLK
  5
21
330
1F
100
AcDbEntity
  8
0
100
AcDbBlockEnd
  0
BLOCK
  5
1C
330
1B
100
AcDbEntity
 67
     1
  8
0
100
AcDbBlockBegin
  2
*PAPER_SPACE
  1

  0
ENDBLK
  5
1D
330
1B
100
AcDbEntity
 67
     1
  8
0
100
AcDbBlockEnd
  0
ENDSEC
  0
SECTION
  2
ENTITIES
  0
LWPOLYLINE
  5
100
100
AcDbEntity
  8
Borhschablone
 62
7
100
AcDbPolyline
 90
24
 70
1
 10
32.124430
 20
63.226673
 30
0.0
 10
31.632573
 20
62.996648
 30
0.0
 10
31.217029
 20
62.647158
 30
0.0
 10
30.906077
 20
62.202023
 30
0.0
 10
30.720911
 20
61.691574
 30
0.0
 10
30.674203
 20
61.150599
 30
0.0
 10
30.769086
 20
60.615963
 30
0.0
 10
30.999097
 20
60.124103
 30
0.0
 10
31.348601
 20
59.708539
 30
0.0
 10
31.793722
 20
59.397590
 30
0.0
 10
32.304177
 20
59.212443
 30
0.0
 10
32.845169
 20
59.165721
 30
0.0
 10
33.379783
 20
59.260605
 30
0.0
 10
33.871639
 20
59.490630
 30
0.0
 10
34.287212
 20
59.840117
 30
0.0
 10
34.598164
 20
60.285255
 30
0.0
 10
34.783302
 20
60.795704
 30
0.0
 10
34.830038
 20
61.336679
 30
0.0
 10
34.735155
 20
61.871312
 30
0.0
 10
34.505115
 20
62.363172
 30
0.0
 10
34.155640
 20
62.778739
 30
0.0
 10
33.710491
 20
63.089688
 30
0.0
 10
33.200063
 20
63.274835
 30
0.0
 10
32.659072
 20
63.321557
 30
0.0
  0
LWPOLYLINE
  5
101
100
AcDbEntity
  8
Borhschablone
 62
7
100
AcDbPolyline
 90
4
 70
1
 10
22.959066
 20
9.271813
 30
0.0
 10
27.225729
 20
9.271813
 30
0.0
 10
27.225786
 20
5.005149
 30
0.0
 10
22.959122
 20
5.005149
 30
0.0
  0
LWPOLYLINE
  5
102
100
AcDbEntity
  8
Borhschablone
 62
7
100
AcDbPolyline
 90
4
 70
1
 10
27.225729
 20
90.338484
 30
0.0
 10
22.959066
 20
90.338484
 30
0.0
 10
22.959066
 20
86.071817
 30
0.0
 10
27.225729
 20
86.071817
 30
0.0
  0
LWPOLYLINE
  5
103
100
AcDbEntity
  8
Borhschablone
 62
7
100
AcDbPolyline
 90
24
 70
1
 10
61.691046
 20
8.178484
 30
0.0
 10
61.483274
 20
7.676806
 30
0.0
 10
61.412380
 20
7.138467
 30
0.0
 10
61.483274
 20
6.600128
 30
0.0
 10
61.691046
 20
6.098478
 30
0.0
 10
62.021613
 20
5.667694
 30
0.0
 10
62.452397
 20
5.337155
 30
0.0
 10
62.954047
 20
5.129355
 30
0.0
 10
63.492386
 20
5.058489
 30
0.0
 10
64.030725
 20
5.129355
 30
0.0
 10
64.532375
 20
5.337155
 30
0.0
 10
64.963159
 20
5.667694
 30
0.0
 10
65.293725
 20
6.098478
 30
0.0
 10
65.501526
 20
6.600156
 30
0.0
 10
65.572392
 20
7.138495
 30
0.0
 10
65.501526
 20
7.676834
 30
0.0
 10
65.293725
 20
8.178484
 30
0.0
 10
64.963159
 20
8.609268
 30
0.0
 10
64.532375
 20
8.939807
 30
0.0
 10
64.030725
 20
9.147607
 30
0.0
 10
63.492414
 20
9.218473
 30
0.0
 10
62.954103
 20
9.147607
 30
0.0
 10
62.452453
 20
8.939807
 30
0.0
 10
62.021641
 20
8.609268
 30
0.0
  0
LWPOLYLINE
  5
104
100
AcDbEntity
  8
Borhschablone
 62
7
100
AcDbPolyline
 90
4
 70
1
 10
33.425305
 20
74.202713
 30
0.0
 10
32.506474
 20
70.036159
 30
0.0
 10
36.673005
 20
69.117320
 30
0.0
 10
37.591865
 20
73.283874
 30
0.0
  0
LWPOLYLINE
  5
105
100
AcDbEntity
  8
Borhschablone
 62
7
100
AcDbPolyline
 90
4
 70
1
 10
32.997654
 20
52.451102
 30
0.0
 10
28.831094
 20
53.369941
 30
0.0
 10
27.912263
 20
49.203387
 30
0.0
 10
32.078823
 20
48.284545
 30
0.0
  0
LWPOLYLINE
  5
106
100
AcDbEntity
  8
Borhschablone
 62
7
100
AcDbPolyline
 90
4
 70
1
 10
35.759057
 20
90.338475
 30
0.0
 10
31.492393
 20
90.338475
 30
0.0
 10
31.492393
 20
86.071817
 30
0.0
 10
35.759057
 20
86.071817
 30
0.0
  0
LWPOLYLINE
  5
107
100
AcDbEntity
  8
Borhschablone
 62
7
100
AcDbPolyline
 90
24
 70
1
 10
27.256717
 20
22.433952
 30
0.0
 10
27.234704
 20
21.877466
 30
0.0
 10
27.357414
 20
21.334245
 30
0.0
 10
27.616523
 20
20.841287
 30
0.0
 10
27.994390
 20
20.432178
 30
0.0
 10
28.465278
 20
20.134800
 30
0.0
 10
28.997013
 20
19.969446
 30
0.0
 10
29.553470
 20
19.947433
 30
0.0
 10
30.096776
 20
20.070115
 30
0.0
 10
30.589705
 20
20.329223
 30
0.0
 10
30.998787
 20
20.707090
 30
0.0
 10
31.296136
 20
21.177978
 30
0.0
 10
31.461546
 20
21.709769
 30
0.0
 10
31.483560
 20
22.266255
 30
0.0
 10
31.360906
 20
22.809477
 30
0.0
 10
31.101798
 20
23.302434
 30
0.0
 10
30.723930
 20
23.711543
 30
0.0
 10
30.253043
 20
24.008921
 30
0.0
 10
29.721251
 20
24.174275
 30
0.0
 10
29.164765
 20
24.196288
 30
0.0
 10
28.621544
 20
24.073606
 30
0.0
 10
28.128615
 20
23.814498
 30
0.0
 10
27.719477
 20
23.436631
 30
0.0
 10
27.422128
 20
22.965743
 30
0.0
  0
LWPOLYLINE
  5
108
100
AcDbEntity
  8
Borhschablone
 62
7
100
AcDbPolyline
 90
24
 70
1
 10
197.047223
 20
21.885876
 30
0.0
 10
197.167731
 20
21.342175
 30
0.0
 10
197.424864
 20
20.848173
 30
0.0
 10
197.801095
 20
20.437568
 30
0.0
 10
198.270797
 20
20.138356
 30
0.0
 10
198.801939
 20
19.970885
 30
0.0
 10
199.358312
 20
19.946614
 30
0.0
 10
199.902041
 20
20.067151
 30
0.0
 10
200.396015
 20
20.324312
 30
0.0
 10
200.806620
 20
20.700543
 30
0.0
 10
201.105832
 20
21.170245
 30
0.0
 10
201.273303
 20
21.701387
 30
0.0
 10
201.297574
 20
22.257760
 30
0.0
 10
201.177037
 20
22.801490
 30
0.0
 10
200.919876
 20
23.295463
 30
0.0
 10
200.543645
 20
23.706068
 30
0.0
 10
200.073943
 20
24.005280
 30
0.0
 10
199.542829
 20
24.172751
 30
0.0
 10
198.986484
 20
24.197022
 30
0.0
 10
198.442727
 20
24.076485
 30
0.0
 10
197.948725
 20
23.819324
 30
0.0
 10
197.538120
 20
23.443094
 30
0.0
 10
197.238908
 20
22.973391
 30
0.0
 10
197.071465
 20
22.442249
 30
0.0
  0
LWPOLYLINE
  5
109
100
AcDbEntity
  8
Borhschablone
 62
7
100
AcDbPolyline
 90
24
 70
1
 10
185.145770
 20
7.138467
 30
0.0
 10
185.216580
 20
6.600128
 30
0.0
 10
185.424380
 20
6.098478
 30
0.0
 10
185.754947
 20
5.667694
 30
0.0
 10
186.185731
 20
5.337155
 30
0.0
 10
186.687381
 20
5.129355
 30
0.0
 10
187.225720
 20
5.058461
 30
0.0
 10
187.764059
 20
5.129355
 30
0.0
 10
188.265709
 20
5.337155
 30
0.0
 10
188.696493
 20
5.667694
 30
0.0
 10
189.027060
 20
6.098478
 30
0.0
 10
189.234832
 20
6.600128
 30
0.0
 10
189.305726
 20
7.138467
 30
0.0
 10
189.234832
 20
7.676806
 30
0.0
 10
189.027060
 20
8.178484
 30
0.0
 10
188.696493
 20
8.609268
 30
0.0
 10
188.265709
 20
8.939807
 30
0.0
 10
187.764059
 20
9.147607
 30
0.0
 10
187.225720
 20
9.218473
 30
0.0
 10
186.687381
 20
9.147607
 30
0.0
 10
186.185731
 20
8.939807
 30
0.0
 10
185.754947
 20
8.609268
 30
0.0
 10
185.424380
 20
8.178484
 30
0.0
 10
185.216636
 20
7.676834
 30
0.0
  0
LWPOLYLINE
  5
10a
100
AcDbEntity
  8
Borhschablone
 62
7
100
AcDbPolyline
 90
4
 70
1
 10
223.492489
 20
5.005149
 30
0.0
 10
227.759096
 20
5.005149
 30
0.0
 10
227.759068
 20
9.271813
 30
0.0
 10
223.492433
 20
9.271813
 30
0.0
  0
LWPOLYLINE
  5
10b
100
AcDbEntity
  8
Borhschablone
 62
7
100
AcDbPolyline
 90
4
 70
1
 10
127.492427
 20
5.005149
 30
0.0
 10
123.225707
 20
5.005149
 30
0.0
 10
123.225707
 20
9.271813
 30
0.0
 10
127.492399
 20
9.271813
 30
0.0
  0
LWPOLYLINE
  5
10c
100
AcDbEntity
  8
Dackelumriss
 62
1
100
AcDbPolyline
 90
15
 70
0
 10
0.188386
 20
95.581326
 30
0.0
 10
0.188386
 20
70.492521
 30
0.0
 10
27.257694
 20
70.492521
 30
0.0
 10
27.257694
 20
60.796531
 30
0.0
 10
12.830627
 20
60.796531
 30
0.0
 10
12.830627
 20
51.827613
 30
0.0
 10
6.360916
 20
51.827613
 30
0.0
 10
6.360916
 20
42.858710
 30
0.0
 10
0.188386
 20
42.858710
 30
0.0
 10
0.188386
 20
17.812083
 30
0.0
 10
0.034818
 20
17.812083
 30
0.0
 10
0.034818
 20
0.034821
 30
0.0
 10
280.208987
 20
0.034821
 30
0.0
 10
280.208987
 20
0.559189
 30
0.0
 10
280.315828
 20
0.559189
 30
0.0
  0
LWPOLYLINE
  5
10d
100
AcDbEntity
  8
Dackelumriss
 62
1
100
AcDbPolyline
 90
46
 70
0
 10
279.877811
 20
64.043992
 30
0.0
 10
261.286379
 20
64.043992
 30
0.0
 10
261.724397
 20
47.143670
 30
0.0
 10
251.610470
 20
47.143670
 30
0.0
 10
251.172452
 20
64.043992
 30
0.0
 10
232.580990
 20
64.043992
 30
0.0
 10
233.019007
 20
17.812083
 30
0.0
 10
227.892314
 20
17.812083
 30
0.0
 10
227.892314
 20
29.848071
 30
0.0
 10
199.409905
 20
29.848071
 30
0.0
 10
199.409905
 20
51.657724
 30
0.0
 10
227.892314
 20
51.657724
 30
0.0
 10
227.454296
 20
64.043992
 30
0.0
 10
179.711175
 20
64.043992
 30
0.0
 10
180.149192
 20
17.812083
 30
0.0
 10
174.261481
 20
17.812083
 30
0.0
 10
173.823463
 20
64.043992
 30
0.0
 10
155.454988
 20
64.043992
 30
0.0
 10
155.893005
 20
17.812083
 30
0.0
 10
149.892611
 20
17.812083
 30
0.0
 10
149.892611
 20
22.781932
 30
0.0
 10
144.835646
 20
22.781932
 30
0.0
 10
144.835646
 20
27.266584
 30
0.0
 10
149.892611
 20
27.266584
 30
0.0
 10
149.454593
 20
64.043992
 30
0.0
 10
104.909056
 20
64.043992
 30
0.0
 10
105.347073
 20
17.812083
 30
0.0
 10
99.338424
 20
17.812083
 30
0.0
 10
98.900406
 20
64.043992
 30
0.0
 10
80.308957
 20
64.043992
 30
0.0
 10
80.746976
 20
26.011711
 30
0.0
 10
70.633047
 20
26.011711
 30
0.0
 10
70.195028
 20
64.043992
 30
0.0
 10
51.603583
 20
64.043992
 30
0.0
 10
52.041602
 20
17.812083
 30
0.0
 10
46.072465
 20
17.812083
 30
0.0
 10
46.072465
 20
25.647983
 30
0.0
 10
19.003160
 20
25.647983
 30
0.0
 10
19.003160
 20
35.343981
 30
0.0
 10
33.504437
 20
35.343981
 30
0.0
 10
33.504437
 20
44.312896
 30
0.0
 10
39.899940
 20
44.312896
 30
0.0
 10
39.899940
 20
53.282153
 30
0.0
 10
46.072465
 20
53.282153
 30
0.0
 10
46.072465
 20
95.581326
 30
0.0
 10
0.188386
 20
95.581326
 30
0.0
  0
LWPOLYLINE
  5
10e
100
AcDbEntity
  8
Dackelumriss
 62
1
100
AcDbPolyline
 90
4
 70
1
 10
124.608127
 20
56.112574
 30
0.0
 10
130.631545
 20
56.112574
 30
0.0
 10
130.631545
 20
47.143670
 30
0.0
 10
124.608127
 20
47.143670
 30
0.0
  0
LWPOLYLINE
  5
10f
100
AcDbEntity
  8
Dackelumriss
 62
1
100
AcDbPolyline
 90
4
 70
1
 10
124.384810
 20
34.980620
 30
0.0
 10
130.854873
 20
34.980620
 30
0.0
 10
130.854873
 20
17.812083
 30
0.0
 10
124.384810
 20
17.812083
 30
0.0
  0
SPLINE
  5
110
100
AcDbEntity
  8
Dackelumriss
 62
1
100
AcDbSpline
 70
0
 71
3
 72
10
 73
6
 74
4
 40
0.000000
 40
0.000000
 40
0.000000
 40
0.000000
 40
14.708461
 40
43.524793
 40
63.488128
 40
63.488128
 40
63.488128
 40
63.488128
 10
280.315828
 20
0.559189
 30
0.0
 10
280.246188
 20
5.461477
 30
0.0
 10
280.040110
 20
19.968165
 30
0.0
 10
279.714263
 20
41.129671
 30
0.0
 10
279.830315
 20
57.389551
 30
0.0
 10
279.877811
 20
64.043992
 30
0.0
 11
280.315828
 21
0.559189
 31
0.0
 11
280.104930
 21
15.266138
 31
0.0
 11
279.796695
 21
44.080821
 31
0.0
 11
279.877811
 21
64.043992
 31
0.0
  0
LWPOLYLINE
  5
111
100
AcDbEntity
  8
Dackelumriss
 62
1
100
AcDbPolyline
 90
4
 70
1
 10
251.610470
 20
34.980620
 30
0.0
 10
261.724397
 20
34.980620
 30
0.0
 10
261.724397
 20
17.812083
 30
0.0
 10
251.610470
 20
17.812083
 30
0.0
  0
ENDSEC
  0
SECTION
  2
OBJECTS
  0
DICTIONARY
  5
C
330
0
100
AcDbDictionary
  3
ACAD_GROUP
350
D
  3
ACAD_MLINESTYLE
350
17
  0
DICTIONARY
  5
D
330
C
100
AcDbDictionary
  0
DICTIONARY
  5
1A
330
C
100
AcDbDictionary
  0
DICTIONARY
  5
17
330
C
100
AcDbDictionary
  3
STANDARD
350
18
  0
DICTIONARY
  5
19
330
C
100
AcDbDictionary
  0
ENDSEC
  0
EOF
