<?xml version="1.0" encoding="UTF-8" standalone="no"?>
<svg
   xmlns:dc="http://purl.org/dc/elements/1.1/"
   xmlns:cc="http://creativecommons.org/ns#"
   xmlns:rdf="http://www.w3.org/1999/02/22-rdf-syntax-ns#"
   xmlns:svg="http://www.w3.org/2000/svg"
   xmlns="http://www.w3.org/2000/svg"
   xmlns:sodipodi="http://sodipodi.sourceforge.net/DTD/sodipodi-0.dtd"
   xmlns:inkscape="http://www.inkscape.org/namespaces/inkscape"
   width="993.37042"
   height="338.79736"
   version="1.1"
   id="svg2171"
   sodipodi:docname="zuerich.svg"
   inkscape:version="0.92.2 5c3e80d, 2017-08-06">
  <metadata
     id="metadata2175">
    <rdf:RDF>
      <cc:Work
         rdf:about="">
        <dc:format>image/svg+xml</dc:format>
        <dc:type
           rdf:resource="http://purl.org/dc/dcmitype/StillImage" />
        <dc:title></dc:title>
      </cc:Work>
    </rdf:RDF>
  </metadata>
  <sodipodi:namedview
     pagecolor="#ffffff"
     bordercolor="#666666"
     borderopacity="1"
     objecttolerance="10"
     gridtolerance="10"
     guidetolerance="10"
     inkscape:pageopacity="0"
     inkscape:pageshadow="2"
     inkscape:window-width="1280"
     inkscape:window-height="720"
     id="namedview2173"
     showgrid="false"
     inkscape:zoom="0.32215786"
     inkscape:cx="583.81599"
     inkscape:cy="59.295957"
     inkscape:window-x="0"
     inkscape:window-y="1"
     inkscape:window-maximized="1"
     inkscape:current-layer="g2167"
     inkscape:measure-start="1035.9,-321.071"
     inkscape:measure-end="1035.9,-305.953"
     showguides="false"
     inkscape:guide-bbox="true"
     inkscape:snap-bbox="true"
     inkscape:snap-center="true"
     inkscape:snap-global="false"
     fit-margin-top="0"
     fit-margin-left="0"
     fit-margin-right="0"
     fit-margin-bottom="0">
    <sodipodi:guide
       position="145.20268,-161.08203"
       orientation="1,0"
       id="guide2240"
       inkscape:locked="false" />
    <sodipodi:guide
       position="825.52124,-161.08203"
       orientation="1,0"
       id="guide2242"
       inkscape:locked="false" />
  </sodipodi:namedview>
  <desc
     id="desc815">C:\Users\Andreas Reheis\Documents\Laser\Mohrnkopfschleuder\Mohrnkopfschleuder_v_5.dxf - scale = 1.000000, origin = (0.000000, 0.000000), method = file</desc>
  <defs
     id="defs829">
    <marker
       id="DistanceX"
       orient="auto"
       refX="0"
       refY="0"
       style="overflow:visible">
      <path
         d="M 3,-3 -3,3 M 0,-5 V 5"
         style="stroke:#000000;stroke-width:0.5"
         id="path817"
         inkscape:connector-curvature="0" />
    </marker>
    <pattern
       height="8"
       id="Hatch"
       patternUnits="userSpaceOnUse"
       width="8"
       x="0"
       y="0">
      <path
         d="M8 4 l-4,4"
         linecap="square"
         stroke="#000000"
         stroke-width="0.25"
         id="path820" />
      <path
         d="M6 2 l-4,4"
         linecap="square"
         stroke="#000000"
         stroke-width="0.25"
         id="path822" />
      <path
         d="M4 0 l-4,4"
         linecap="square"
         stroke="#000000"
         stroke-width="0.25"
         id="path824" />
    </pattern>
    <symbol
       id="*MODEL_SPACE" />
    <symbol
       id="*PAPER_SPACE" />
  </defs>
  <g
     inkscape:groupmode="layer"
     id="layer1"
     inkscape:label="Rohmaterialblock"
     transform="translate(65.732943,-72.251267)"
     style="display:inline" />
  <g
     inkscape:groupmode="layer"
     inkscape:label="Borhschablone"
     id="g831"
     style="display:inline"
     transform="translate(247.90552,-810.64892)">
    <path
       inkscape:connector-curvature="0"
       style="fill:none;stroke:#000000"
       d="m -134.0788,925.41476 -1.7428,0.81505 -1.4724,1.23835 -1.1018,1.57725 -0.6561,1.80868 -0.1655,1.91684 0.3362,1.89438 0.815,1.74281 1.2384,1.47247 1.5772,1.10179 1.8087,0.65603 1.9169,0.16555 1.8943,-0.3362 1.7428,-0.81505 1.4725,-1.23834 1.1018,-1.57726 0.656,-1.80868 0.1656,-1.91684 -0.3362,-1.89437 -0.8151,-1.74281 -1.2383,-1.47248 -1.5773,-1.10179 -1.8086,-0.65603 -1.9169,-0.16555 z"
       id="path8906" />
    <path
       inkscape:connector-curvature="0"
       style="fill:none;stroke:#000000"
       d="m -166.5545,1116.5934 h 15.1181 l 2e-4,15.1181 h -15.1181 z"
       id="path8904" />
    <path
       inkscape:connector-curvature="0"
       style="fill:none;stroke:#000000"
       d="m -151.4364,829.34929 h -15.1181 v 15.11811 h 15.1181 z"
       id="path8902" />
    <path
       inkscape:connector-curvature="0"
       style="fill:none;stroke:#000000"
       d="m -29.3152,1120.4674 -0.7362,1.7776 -0.2512,1.9075 0.2512,1.9075 0.7362,1.7775 1.1713,1.5264 1.5264,1.1712 1.7775,0.7363 1.9075,0.2511 1.9075,-0.2511 1.7775,-0.7363 1.5264,-1.1712 1.1713,-1.5264 0.7363,-1.7776 0.2511,-1.9075 -0.2511,-1.9075 -0.7363,-1.7775 -1.1713,-1.5264 -1.5264,-1.1712 -1.7775,-0.7363 -1.9074,-0.2511 -1.9074,0.2511 -1.7775,0.7363 -1.5265,1.1712 z"
       id="path8900" />
    <path
       inkscape:connector-curvature="0"
       style="fill:none;stroke:#000000"
       d="m -129.4694,886.52328 -3.2557,14.76338 14.7633,3.25573 3.2558,-14.76338 z"
       id="path8898" />
    <path
       inkscape:connector-curvature="0"
       style="fill:none;stroke:#000000"
       d="m -130.9847,963.59592 -14.7634,-3.25573 -3.2557,14.76338 14.7634,3.25574 z"
       id="path8896" />
    <path
       inkscape:connector-curvature="0"
       style="fill:none;stroke:#000000"
       d="m -121.2002,829.34932 h -15.1181 v 15.11808 h 15.1181 z"
       id="path8894" />
    <path
       inkscape:connector-curvature="0"
       style="fill:none;stroke:#000000"
       d="m -151.3266,1069.9559 -0.078,1.9718 0.4348,1.9248 0.9181,1.7467 1.3389,1.4496 1.6685,1.0537 1.8841,0.5859 1.9717,0.078 1.9251,-0.4347 1.7466,-0.9181 1.4495,-1.3389 1.0536,-1.6685 0.5861,-1.8843 0.078,-1.9718 -0.4346,-1.9248 -0.9181,-1.7467 -1.3389,-1.4496 -1.6685,-1.0537 -1.8843,-0.5859 -1.9718,-0.078 -1.9248,0.4347 -1.7466,0.9181 -1.4497,1.3389 -1.0536,1.6685 z"
       id="path8892" />
    <path
       inkscape:connector-curvature="0"
       style="fill:none;stroke:#000000"
       d="m 450.2933,1071.8979 0.427,1.9265 0.9111,1.7504 1.3331,1.4549 1.6643,1.0602 1.882,0.5934 1.9714,0.086 1.9266,-0.4271 1.7503,-0.9112 1.4549,-1.3331 1.0602,-1.6643 0.5934,-1.882 0.086,-1.9714 -0.4271,-1.9266 -0.9112,-1.7503 -1.3331,-1.4549 -1.6643,-1.0602 -1.8819,-0.5934 -1.9713,-0.086 -1.9267,0.4271 -1.7504,0.9112 -1.4549,1.3331 -1.0602,1.6643 -0.5933,1.882 z"
       id="path8890" />
    <path
       inkscape:connector-curvature="0"
       style="fill:none;stroke:#000000"
       d="m 408.1228,1124.1525 0.2509,1.9075 0.7363,1.7775 1.1713,1.5264 1.5264,1.1712 1.7775,0.7363 1.9075,0.2512 1.9075,-0.2512 1.7775,-0.7363 1.5264,-1.1712 1.1713,-1.5264 0.7362,-1.7775 0.2512,-1.9075 -0.2512,-1.9075 -0.7362,-1.7776 -1.1713,-1.5264 -1.5264,-1.1712 -1.7775,-0.7363 -1.9075,-0.2511 -1.9075,0.2511 -1.7775,0.7363 -1.5264,1.1712 -1.1713,1.5264 -0.7361,1.7775 z"
       id="path8888" />
    <path
       inkscape:connector-curvature="0"
       style="fill:none;stroke:#000000"
       d="m 543.997,1131.7115 h 15.1179 l -1e-4,-15.1181 h -15.118 z"
       id="path8886" />
    <path
       inkscape:connector-curvature="0"
       style="fill:none;stroke:#000000"
       d="M 203.8393,1131.7115 H 188.721 v -15.1181 h 15.1182 z"
       id="path8882" />
  </g>
  <g
     inkscape:groupmode="layer"
     inkscape:label="Dackelumriss"
     id="g2167"
     transform="translate(247.90552,-810.64892)"
     style="display:inline">
    <g
       id="g6192" />
    <path
       style="font-style:normal;font-variant:normal;font-weight:normal;font-stretch:normal;font-size:515.27642822px;line-height:125%;font-family:Luchitas;-inkscape-font-specification:Luchitas;font-variant-ligatures:normal;font-variant-caps:normal;font-variant-numeric:normal;font-feature-settings:normal;text-align:center;letter-spacing:0px;word-spacing:0px;writing-mode:lr-tb;text-anchor:middle;fill:none;fill-opacity:1;stroke:#ff0000;stroke-width:0.2467453;stroke-linecap:butt;stroke-linejoin:miter;stroke-miterlimit:4;stroke-dasharray:none;stroke-opacity:1"
       d="m -247.23801,810.77229 v 88.89734 h 95.91487 v 34.35587 h -51.11953 v 31.77963 h -22.92417 v 31.77958 h -21.87117 v 88.74789 h -0.54414 v 62.9903 h 992.74312 v -1.858 h 0.37857 c 0,0 -3.10407,-197.00954 -1.55203,-224.94615 h -65.87515 l 1.55203,59.88303 h -35.83675 l -1.55203,-59.88303 h -65.87526 l 1.55203,163.81385 h -18.16545 v -42.6472 H 458.66501 V 966.4071 H 559.58693 L 558.0349,922.51875 H 388.86636 l 1.55203,163.81385 h -20.86197 l -1.55203,-163.81385 h -65.08515 l 1.55203,163.81385 h -21.26124 v -17.6097 h -17.91838 v -15.8905 h 17.91838 L 281.658,922.51875 H 123.81948 l 1.55203,163.81385 H 104.08102 L 102.52899,922.51875 H 36.653777 l 1.552034,134.76005 H 2.3690558 L 0.81702164,922.51875 H -65.058178 l 1.552034,163.81385 H -84.65663 v -27.765 h -95.91486 v -34.3559 h 51.38248 v -31.77962 h 22.66123 v -31.78083 h 21.87115 V 810.77229 Z M 193.61934,950.6222 h 21.34282 v 31.77958 h -21.34282 z m -0.79128,74.877 h 22.92542 v 60.8334 h -22.92542 z m 450.79958,0 h 35.83675 v 60.8334 h -35.83675 z"
       id="text848"
       inkscape:connector-curvature="0"
       sodipodi:nodetypes="cccccccccccccccccccccccccccccccccccccccccccccccccccccccccccccccccccccccccccc" />
  </g>
</svg>
