<?xml version="1.0" encoding="UTF-8" standalone="no"?>
<svg
   xmlns:dc="http://purl.org/dc/elements/1.1/"
   xmlns:cc="http://creativecommons.org/ns#"
   xmlns:rdf="http://www.w3.org/1999/02/22-rdf-syntax-ns#"
   xmlns:svg="http://www.w3.org/2000/svg"
   xmlns="http://www.w3.org/2000/svg"
   id="svg8284"
   version="1.1"
   height="300mm"
   width="600mm">
  <metadata
     id="metadata8288">
    <rdf:RDF>
      <cc:Work
         rdf:about="">
        <dc:format>image/svg+xml</dc:format>
        <dc:type
           rdf:resource="http://purl.org/dc/dcmitype/StillImage" />
        <dc:title></dc:title>
      </cc:Work>
    </rdf:RDF>
  </metadata>
  <desc
     id="desc6784">C:\Users\Andreas Reheis\Documents\Laser\Mohrnkopfschleuder\Mohrnkopfschleuder_v_6.dxf - scale = 1.000000, origin = (0.000000, 0.000000), method = file</desc>
  <defs
     id="defs6798">
    <marker
       style="overflow:visible"
       refY="0"
       refX="0"
       orient="auto"
       id="DistanceX">
      <path
         id="path6786"
         style="stroke:#000000;stroke-width:0.5"
         d="M 3,-3 -3,3 M 0,-5 V 5" />
    </marker>
    <pattern
       y="0"
       x="0"
       width="8"
       patternUnits="userSpaceOnUse"
       id="Hatch"
       height="8">
      <path
         id="path6789"
         stroke-width="0.25"
         stroke="#000000"
         linecap="square"
         d="M8 4 l-4,4" />
      <path
         id="path6791"
         stroke-width="0.25"
         stroke="#000000"
         linecap="square"
         d="M6 2 l-4,4" />
      <path
         id="path6793"
         stroke-width="0.25"
         stroke="#000000"
         linecap="square"
         d="M4 0 l-4,4" />
    </pattern>
    <symbol
       id="*MODEL_SPACE" />
    <symbol
       id="*PAPER_SPACE" />
  </defs>
  <g
     transform="translate(342.56251,-644.53984)"
     id="g6800" />
  <g
     transform="translate(342.56251,-644.53984)"
     id="g8280">
    <g
       style="stroke:#000000;stroke-opacity:1;stroke-width:0.22677165;stroke-miterlimit:4;stroke-dasharray:none"
       transform="matrix(0,-1,-1,0,1699.3266,1318.1514)"
       id="g9008">
      <path
         style="fill:none;stroke:#000000;stroke-opacity:1;stroke-width:0.22677165;stroke-miterlimit:4;stroke-dasharray:none"
         d="m 219.10576,1058.352 -1.23834,-1.4725 -0.81505,-1.7428 -0.33621,-1.8944 0.16556,-1.9168 0.65602,-1.8087 1.1018,-1.5773 1.47247,-1.2383 1.74281,-0.8151 1.89438,-0.3362 1.91684,0.1656 1.80867,0.656 1.57726,1.1018 1.23835,1.4725 0.81505,1.7428 0.3362,1.8944 -0.16555,1.9168 -0.65603,1.8087 -1.10179,1.5772 -1.47248,1.2384 -1.74281,0.815 -1.89437,0.3362 -1.91684,-0.1655 -1.80868,-0.656 z"
         id="path8932" />
      <path
         style="fill:none;stroke:#000000;stroke-opacity:1;stroke-width:0.22677165;stroke-miterlimit:4;stroke-dasharray:none"
         d="m 25.248743,1602.1678 -0.25113,-1.9075 0.25113,-1.9076 0.736274,-1.7775 1.171243,-1.5264 1.526393,-1.1712 1.777522,-0.7363 1.907517,-0.2511 1.907517,0.2511 1.777523,0.7363 1.526393,1.1712 1.171243,1.5264 0.736274,1.7775 0.251129,1.9076 -0.251129,1.9075 -0.736274,1.7775 -1.171243,1.5264 -1.526393,1.1712 -1.777523,0.7363 -1.907517,0.2511 -1.907517,-0.2511 -1.777522,-0.7363 -1.526393,-1.1712 -1.171243,-1.5264 z"
         id="path8930" />
      <path
         style="fill:none;stroke:#000000;stroke-opacity:1;stroke-width:0.22677165;stroke-miterlimit:4;stroke-dasharray:none"
         d="m 27.15626,1167.0465 1.526393,1.1712 1.777522,0.7363 1.907517,0.2511 1.907517,-0.2511 1.777523,-0.7363 1.526393,-1.1712 1.171243,-1.5264 0.736274,-1.7775 0.251129,-1.9075 -0.251129,-1.9076 -0.736274,-1.7775 -1.171245,-1.5264 -1.526396,-1.1712 -1.777523,-0.7363 -1.907517,-0.2511 -1.907514,0.2511 -1.777522,0.7363 -1.526393,1.1712 -1.171243,1.5264 -0.736274,1.7775 -0.25113,1.9076 0.251127,1.9075 0.736277,1.7775 z"
         id="path8928" />
      <path
         style="fill:none;stroke:#000000;stroke-opacity:1;stroke-width:0.22677165;stroke-miterlimit:4;stroke-dasharray:none"
         d="m 196.17997,1039.0195 -3.25574,14.7634 -14.76339,-3.2558 3.25574,-14.7633 z"
         id="path8926" />
      <path
         style="fill:none;stroke:#000000;stroke-opacity:1;stroke-width:0.22677165;stroke-miterlimit:4;stroke-dasharray:none"
         d="m 312.05273,1033.3311 v -15.1181 h 15.11811 v 15.1181 z"
         id="path8924" />
      <path
         style="fill:none;stroke:#000000;stroke-opacity:1;stroke-width:0.22677165;stroke-miterlimit:4;stroke-dasharray:none"
         d="m 90.116992,1035.0807 1.338896,1.4496 0.918089,1.7465 0.434723,1.9249 -0.07827,1.9719 -0.585933,1.8843 -1.053663,1.6685 -1.449589,1.3389 -1.746727,0.9181 -1.924829,0.4345 -1.971759,-0.078 -1.884312,-0.586 -1.668456,-1.0537 -1.338899,-1.4497 -0.91809,-1.7467 -0.43472,-1.9247 0.07827,-1.9718 0.585929,-1.8844 1.053663,-1.6684 1.449589,-1.3389 1.746727,-0.9181 1.924829,-0.4346 1.971753,0.078 1.884315,0.5862 z"
         id="path8922" />
      <path
         style="fill:none;stroke:#000000;stroke-opacity:1;stroke-width:0.22677165;stroke-miterlimit:4;stroke-dasharray:none"
         d="m 266.74114,1070.0615 -14.76338,-3.2557 3.25573,-14.7634 14.76338,3.2558 z"
         id="path8920" />
      <path
         style="fill:none;stroke:#000000;stroke-opacity:1;stroke-width:0.22677165;stroke-miterlimit:4;stroke-dasharray:none"
         d="m 327.17083,1048.4492 v 15.1181 h -15.1181 v -15.1181 z"
         id="path8918" />
      <path
         style="fill:none;stroke:#000000;stroke-opacity:1;stroke-width:0.22677165;stroke-miterlimit:4;stroke-dasharray:none"
         d="m 24.808634,1018.2129 15.118113,10e-5 v 15.1181 l -15.118113,-1e-4 z"
         id="path8916" />
      <path
         style="fill:none;stroke:#000000;stroke-opacity:1;stroke-width:0.22677165;stroke-miterlimit:4;stroke-dasharray:none"
         d="m 92.725291,1643.9035 -0.593387,1.8821 -1.060259,1.6642 -1.454876,1.3332 -1.750345,0.9112 -1.926531,0.4271 -1.971434,-0.086 -1.881981,-0.5934 -1.664272,-1.0603 -1.333148,-1.4548 -0.911173,-1.7504 -0.427101,-1.9265 0.08607,-1.9714 0.593386,-1.882 1.060258,-1.6643 1.454879,-1.3331 1.750349,-0.9112 1.926534,-0.4271 1.971428,0.086 1.881977,0.5934 1.664272,1.0603 1.333148,1.4549 0.911176,1.7503 0.427102,1.9265 z"
         id="path8914" />
      <path
         style="fill:none;stroke:#000000;stroke-opacity:1;stroke-width:0.22677165;stroke-miterlimit:4;stroke-dasharray:none"
         d="m 24.808637,1728.764 15.118107,1e-4 v 15.1182 l -15.118107,-10e-5 z"
         id="path8912" />
      <path
         style="fill:none;stroke:#000000;stroke-opacity:1;stroke-width:0.22677165;stroke-miterlimit:4;stroke-dasharray:none"
         d="m 39.926747,1373.4886 h -15.11811 v 15.1181 h 15.11811 z"
         id="path8908" />
    </g>
    <path
       id="path10975"
       d="m 635.12981,1549.1612 c 3.97375,-0.6383 10.88266,-1.7536 15.35313,-2.4783 17.82139,-2.8889 4.44223,-23.1345 -18.09665,-27.384 -12.16973,-2.2948 -15.16255,-5.6338 -14.14476,-15.781 0.45926,-4.5783 -2.40094,-10.8511 -6.91788,-15.172 -7.47997,-7.1551 -7.62735,-8.9013 -5.1382,-60.8797 1.93496,-40.4062 3.92076,-55.2683 8.10747,-60.6784 3.04964,-3.9408 18.72447,-13.8739 34.83296,-22.0735 17.09183,-8.7002 34.8975,-20.5464 42.75842,-28.4475 14.04483,-14.1165 52.80966,-71.3003 54.23617,-80.0062 0.45149,-2.7555 -1.40508,-12.0254 -4.12576,-20.6002 -3.99103,-12.5783 -4.11284,-18.8098 -0.63046,-32.2561 3.85519,-14.8861 3.48224,-18.924 -3.49166,-37.8043 -11.81687,-31.9914 -9.17519,-64.3156 7.35896,-90.0476 10.89458,-16.9552 12.48109,-22.2794 13.86987,-46.5456 l 1.56816,-27.40045 15.80209,-10.5666 c 10.51111,-7.0286 15.80206,-12.7996 15.80206,-17.2362 0,-3.6683 5.74684,-13.2447 12.77086,-21.281 23.02101,-26.3393 27.83572,-39.8334 29.76123,-83.4119 1.71677,-38.85345 1.6766,-39.10592 -6.2155,-39.10592 -7.93425,0 -39.86327,22.56286 -77.98348,55.10742 -9.86669,8.4236 -24.72383,19.3598 -33.01586,24.3028 l -15.07643,8.9872 -19.24235,-4.9803 c -48.57145,-12.571 -129.51068,-1.264 -166.21931,23.2201 -7.10988,4.7424 -15.59327,8.6222 -18.85203,8.6222 -3.25876,0 -24.99011,-5.6891 -48.29192,-12.6423 -119.32322,-35.6061 -120.03568,-35.7513 -120.03568,-24.4347 0,20.1312 37.05829,65.8189 72.90671,89.8837 11.7841,7.9106 23.77244,15.3806 26.64077,16.6001 2.86833,1.2193 5.21512,3.9186 5.21512,5.99795 0,5.3661 16.32963,14.4404 29.9728,16.6555 17.0004,2.7605 20.1309,5.5747 37.10709,33.3602 8.49864,13.9102 18.82837,28.044 22.95489,31.4088 20.76449,16.9313 -5.40058,37.4352 -42.94352,33.6516 -12.65995,-1.2755 -22.63497,-0.2332 -38.41746,4.0135 -53.15156,14.3029 -127.0145,18.4676 -230.84277,13.0158 -43.71128,-2.2953 -98.98259,-4.9048 -122.825111,-5.7994 -23.842527,-0.8947 -48.298082,-2.1963 -54.345701,-2.893 -14.436505,-1.6628 -38.7784285,-18.6641 -48.910955,-34.1613 -22.246407,-34.0249 -32.711325,-96.12755 -26.012156,-154.36535 2.353472,-20.4591 2.043917,-26.7567 -1.315098,-26.7567 -11.721742,0 -41.651363,46.9092 -48.301808,75.7041 -2.915358,12.6231 -3.824594,33.32595 -2.59125,59.00185 2.128276,44.3055 8.327767,64.9822 29.588469,98.6832 7.043913,11.1657 12.807118,23.5841 12.807118,27.5965 0,4.0121 -6.487841,17.0136 -14.417426,28.8922 -24.614122,36.8718 -23.113635,65.0552 5.783933,108.6378 16.896768,25.4833 26.696009,47.1296 26.696009,58.9706 0,7.7177 -3.678068,12.0959 -21.499206,25.592 -25.66463,19.4357 -28.749527,27.4619 -20.342684,52.9266 4.305598,13.0421 5.585538,27.8242 4.874635,56.2971 -1.218822,48.8157 -2.099772,47.8895 46.903015,49.3206 36.654658,1.0703 53.65478,-1.6625 57.482872,-9.2408 3.456806,-6.8431 -9.924913,-17.8822 -27.721086,-22.8677 -15.6233148,-4.3772 -16.3037727,-5.0424 -18.608687,-18.194 -3.2147,-18.3422 0.02886,-37.5713 8.0178792,-47.5525 3.6110231,-4.5108 14.3891088,-11.5586 23.9512888,-15.6621 78.253622,-33.5803 92.872269,-42.8395 114.162879,-72.3089 28.8872,-39.9837 52.28113,-49.5739 111.74167,-45.8071 27.7753,1.7594 39.69534,3.865 156.19681,27.5934 33.69588,6.8629 69.01262,12.4779 78.48164,12.4779 16.82512,0 17.17399,0.1702 15.35195,7.5468 -1.79661,7.2723 5.61765,29.7622 18.32019,55.5715 5.68641,11.5537 5.68991,14.1577 0.0545,40.4253 -3.31273,15.4421 -4.97261,30.5907 -3.68858,33.664 1.28402,3.0733 7.90596,7.3563 14.71542,9.5177 11.24273,3.5684 12.38085,4.963 12.38085,15.1715 0,13.653 10.55107,22.8727 31.14798,27.2171 13.60462,2.8694 49.95333,3.5382 64.58336,1.188 z"
       style="fill:none;stroke:#000000;stroke-width:0.22677165;stroke-opacity:1;stroke-miterlimit:4;stroke-dasharray:none" />
    <rect
       y="1365.5981"
       x="872.61975"
       height="37.704571"
       width="37.704575"
       id="rect10977"
       style="opacity:0.97000002;fill:none;fill-opacity:1;stroke:#fe0000;stroke-width:0.09070402;stroke-miterlimit:4;stroke-dasharray:none;stroke-dashoffset:0;stroke-opacity:1" />
    <text
       id="text10981"
       y="1361.1191"
       x="891.86938"
       style="font-style:normal;font-variant:normal;font-weight:normal;font-stretch:normal;font-size:19.37466621px;line-height:125%;font-family:Luchitas;-inkscape-font-specification:Luchitas;font-variant-ligatures:normal;font-variant-caps:normal;font-variant-numeric:normal;font-feature-settings:normal;text-align:center;letter-spacing:0px;word-spacing:0px;writing-mode:lr-tb;text-anchor:middle;fill:#000000;fill-opacity:1;stroke:none;stroke-width:1px;stroke-linecap:butt;stroke-linejoin:miter;stroke-opacity:1"
       xml:space="preserve"><tspan
         y="1361.1191"
         x="891.86938"
         id="tspan10979">1CM</tspan></text>
    <text
       xml:space="preserve"
       style="font-style:normal;font-variant:normal;font-weight:normal;font-stretch:normal;font-size:19.37466621px;line-height:125%;font-family:Luchitas;-inkscape-font-specification:Luchitas;font-variant-ligatures:normal;font-variant-caps:normal;font-variant-numeric:normal;font-feature-settings:normal;text-align:center;letter-spacing:0px;word-spacing:0px;writing-mode:lr-tb;text-anchor:middle;fill:#000000;fill-opacity:1;stroke:none;stroke-width:1px;stroke-linecap:butt;stroke-linejoin:miter;stroke-opacity:1"
       x="926.64209"
       y="1389.3367"
       id="text10985"><tspan
         id="tspan10983"
         x="926.64209"
         y="1389.3367">1CM</tspan></text>
  </g>
  <g
     transform="translate(342.56251,-644.53984)"
     id="g8282" />
</svg>
