<?xml version="1.0" encoding="UTF-8" standalone="no"?>
<svg
   xmlns:dc="http://purl.org/dc/elements/1.1/"
   xmlns:cc="http://creativecommons.org/ns#"
   xmlns:rdf="http://www.w3.org/1999/02/22-rdf-syntax-ns#"
   xmlns:svg="http://www.w3.org/2000/svg"
   xmlns="http://www.w3.org/2000/svg"
   xmlns:sodipodi="http://sodipodi.sourceforge.net/DTD/sodipodi-0.dtd"
   xmlns:inkscape="http://www.inkscape.org/namespaces/inkscape"
   width="925.6142"
   height="1003.197"
   version="1.1"
   id="svg8284"
   sodipodi:docname="Mohrnkopfschleuder_v_6.svg"
   inkscape:version="0.92.2 (5c3e80d, 2017-08-06)">
  <metadata
     id="metadata8288">
    <rdf:RDF>
      <cc:Work
         rdf:about="">
        <dc:format>image/svg+xml</dc:format>
        <dc:type
           rdf:resource="http://purl.org/dc/dcmitype/StillImage" />
        <dc:title></dc:title>
      </cc:Work>
    </rdf:RDF>
  </metadata>
  <sodipodi:namedview
     pagecolor="#ffffff"
     bordercolor="#666666"
     borderopacity="1"
     objecttolerance="10"
     gridtolerance="10"
     guidetolerance="10"
     inkscape:pageopacity="0"
     inkscape:pageshadow="2"
     inkscape:window-width="1366"
     inkscape:window-height="749"
     id="namedview8286"
     showgrid="false"
     inkscape:zoom="0.42048262"
     inkscape:cx="300.47249"
     inkscape:cy="438.18945"
     inkscape:window-x="-4"
     inkscape:window-y="-4"
     inkscape:window-maximized="1"
     inkscape:current-layer="g8280" />
  <desc
     id="desc6784">C:\Users\Andreas Reheis\Documents\Laser\Mohrnkopfschleuder\Mohrnkopfschleuder_v_6.dxf - scale = 1.000000, origin = (0.000000, 0.000000), method = file</desc>
  <defs
     id="defs6798">
    <marker
       id="DistanceX"
       orient="auto"
       refX="0"
       refY="0"
       style="overflow:visible">
      <path
         d="M 3,-3 -3,3 M 0,-5 V 5"
         style="stroke:#000000;stroke-width:0.5"
         id="path6786"
         inkscape:connector-curvature="0" />
    </marker>
    <pattern
       height="8"
       id="Hatch"
       patternUnits="userSpaceOnUse"
       width="8"
       x="0"
       y="0">
      <path
         d="M8 4 l-4,4"
         linecap="square"
         stroke="#000000"
         stroke-width="0.25"
         id="path6789" />
      <path
         d="M6 2 l-4,4"
         linecap="square"
         stroke="#000000"
         stroke-width="0.25"
         id="path6791" />
      <path
         d="M4 0 l-4,4"
         linecap="square"
         stroke="#000000"
         stroke-width="0.25"
         id="path6793" />
    </pattern>
    <symbol
       id="*MODEL_SPACE" />
    <symbol
       id="*PAPER_SPACE" />
  </defs>
  <g
     inkscape:groupmode="layer"
     inkscape:label="0"
     id="g6800"
     transform="translate(342.56251,-775.20118)" />
  <g
     inkscape:groupmode="layer"
     inkscape:label="PROFILEEDGES"
     id="g8280"
     transform="translate(342.56251,-775.20118)">
    <path
       style="fill:none;stroke:#000000"
       d="m 431.37056,790.81929 h 30.23622 v -15.11811 h 15.11811 v 15.11811 h 22.67716 v 24.56693 h -5.66929 v 13.22834 h 5.66929 v 30.23622 h 15.11812 v -30.23622 h 5.66929 v -13.22834 h -5.66929 v -24.56693 h 22.67716 v -15.11811 h 15.11811 v 15.11811 h 30.23622 V 998.6933 h -30.23622 v 15.1181 h -15.11811 v -15.1181 h -22.67716 v -24.56692 h 5.66929 v -13.22835 h -5.66929 v -30.23622 h -15.11812 v 30.23622 h -5.66929 v 13.22835 h 5.66929 v 24.56692 h -22.67716 v 15.1181 h -15.11811 v -15.1181 h -30.23622 z"
       id="path8938"
       inkscape:connector-curvature="0" />
    <path
       style="fill:none;stroke:#000000"
       d="m 206.00549,1421.4843 v 15.1181 h 15.11811 v -15.1181 h 15.11811 V 1213.6102 H 221.1236 v -15.1181 h -15.11811 v 15.1181 h -15.11811 v -15.1181 h -15.11811 v 15.1181 h -15.11811 v 207.8741 h 15.11811 v 15.1181 h 15.11811 v -15.1181 z"
       id="path8936"
       inkscape:connector-curvature="0" />
    <path
       style="fill:none;stroke:#000000"
       d="m -175.7633,858.85078 h -15.11811 v -30.23622 h -5.66929 v -13.22834 h 5.66929 v -24.56693 h -120.94488 v -15.11811 h -15.11811 v 15.11811 h -15.11811 V 998.6933 h 15.11811 v 15.1181 h 15.11811 v -15.1181 h 120.94488 v -24.56692 h -5.66929 v -13.22835 h 5.66929 v -30.23622 h 15.11811 v 30.23622 h 5.66929 v 13.22835 h -5.66929 V 998.6933 H 28.331188 v 15.1181 h 15.11811 V 998.6933 H 247.54379 v -24.56692 h -5.6693 v -13.22835 h 5.6693 v -30.23622 h 15.11811 v 30.23622 h 5.66929 v 13.22835 h -5.66929 v 24.56692 h 120.94488 v 15.1181 h 15.11811 V 998.6933 H 413.843 V 790.81929 h -15.11811 v -15.11811 h -15.11811 v 15.11811 H 262.6619 v 24.56693 h 5.66929 v 13.22834 h -5.66929 v 30.23622 h -15.11811 v -30.23622 h -5.6693 v -13.22834 h 5.6693 V 790.81929 H 43.449298 v -15.11811 h -15.11811 v 15.11811 H -175.7633 v 24.56693 h 5.66929 v 13.22834 h -5.66929 z"
       id="path8934"
       inkscape:connector-curvature="0" />
    <g
       id="g9008"
       transform="translate(-10,18.8978)">
      <path
         id="path8932"
         d="m 219.10576,1058.352 -1.23834,-1.4725 -0.81505,-1.7428 -0.33621,-1.8944 0.16556,-1.9168 0.65602,-1.8087 1.1018,-1.5773 1.47247,-1.2383 1.74281,-0.8151 1.89438,-0.3362 1.91684,0.1656 1.80867,0.656 1.57726,1.1018 1.23835,1.4725 0.81505,1.7428 0.3362,1.8944 -0.16555,1.9168 -0.65603,1.8087 -1.10179,1.5772 -1.47248,1.2384 -1.74281,0.815 -1.89437,0.3362 -1.91684,-0.1655 -1.80868,-0.656 z"
         style="fill:none;stroke:#000000"
         inkscape:connector-curvature="0" />
      <path
         id="path8930"
         d="m 25.248743,1602.1678 -0.25113,-1.9075 0.25113,-1.9076 0.736274,-1.7775 1.171243,-1.5264 1.526393,-1.1712 1.777522,-0.7363 1.907517,-0.2511 1.907517,0.2511 1.777523,0.7363 1.526393,1.1712 1.171243,1.5264 0.736274,1.7775 0.251129,1.9076 -0.251129,1.9075 -0.736274,1.7775 -1.171243,1.5264 -1.526393,1.1712 -1.777523,0.7363 -1.907517,0.2511 -1.907517,-0.2511 -1.777522,-0.7363 -1.526393,-1.1712 -1.171243,-1.5264 z"
         style="fill:none;stroke:#000000"
         inkscape:connector-curvature="0" />
      <path
         id="path8928"
         d="m 27.15626,1167.0465 1.526393,1.1712 1.777522,0.7363 1.907517,0.2511 1.907517,-0.2511 1.777523,-0.7363 1.526393,-1.1712 1.171243,-1.5264 0.736274,-1.7775 0.251129,-1.9075 -0.251129,-1.9076 -0.736274,-1.7775 -1.171245,-1.5264 -1.526396,-1.1712 -1.777523,-0.7363 -1.907517,-0.2511 -1.907514,0.2511 -1.777522,0.7363 -1.526393,1.1712 -1.171243,1.5264 -0.736274,1.7775 -0.25113,1.9076 0.251127,1.9075 0.736277,1.7775 z"
         style="fill:none;stroke:#000000"
         inkscape:connector-curvature="0" />
      <path
         id="path8926"
         d="m 196.17997,1039.0195 -3.25574,14.7634 -14.76339,-3.2558 3.25574,-14.7633 z"
         style="fill:none;stroke:#000000"
         inkscape:connector-curvature="0" />
      <path
         id="path8924"
         d="m 312.05273,1033.3311 v -15.1181 h 15.11811 v 15.1181 z"
         style="fill:none;stroke:#000000"
         inkscape:connector-curvature="0" />
      <path
         id="path8922"
         d="m 90.116992,1035.0807 1.338896,1.4496 0.918089,1.7465 0.434723,1.9249 -0.07827,1.9719 -0.585933,1.8843 -1.053663,1.6685 -1.449589,1.3389 -1.746727,0.9181 -1.924829,0.4345 -1.971759,-0.078 -1.884312,-0.586 -1.668456,-1.0537 -1.338899,-1.4497 -0.91809,-1.7467 -0.43472,-1.9247 0.07827,-1.9718 0.585929,-1.8844 1.053663,-1.6684 1.449589,-1.3389 1.746727,-0.9181 1.924829,-0.4346 1.971753,0.078 1.884315,0.5862 z"
         style="fill:none;stroke:#000000"
         inkscape:connector-curvature="0" />
      <path
         id="path8920"
         d="m 266.74114,1070.0615 -14.76338,-3.2557 3.25573,-14.7634 14.76338,3.2558 z"
         style="fill:none;stroke:#000000"
         inkscape:connector-curvature="0" />
      <path
         id="path8918"
         d="m 327.17083,1048.4492 v 15.1181 h -15.1181 v -15.1181 z"
         style="fill:none;stroke:#000000"
         inkscape:connector-curvature="0" />
      <path
         id="path8916"
         d="m 24.808634,1018.2129 15.118113,10e-5 v 15.1181 l -15.118113,-1e-4 z"
         style="fill:none;stroke:#000000"
         inkscape:connector-curvature="0" />
      <path
         id="path8914"
         d="m 92.725291,1643.9035 -0.593387,1.8821 -1.060259,1.6642 -1.454876,1.3332 -1.750345,0.9112 -1.926531,0.4271 -1.971434,-0.086 -1.881981,-0.5934 -1.664272,-1.0603 -1.333148,-1.4548 -0.911173,-1.7504 -0.427101,-1.9265 0.08607,-1.9714 0.593386,-1.882 1.060258,-1.6643 1.454879,-1.3331 1.750349,-0.9112 1.926534,-0.4271 1.971428,0.086 1.881977,0.5934 1.664272,1.0603 1.333148,1.4549 0.911176,1.7503 0.427102,1.9265 z"
         style="fill:none;stroke:#000000"
         inkscape:connector-curvature="0" />
      <path
         id="path8912"
         d="m 24.808637,1728.764 15.118107,1e-4 v 15.1182 l -15.118107,-10e-5 z"
         style="fill:none;stroke:#000000"
         inkscape:connector-curvature="0" />
      <path
         id="path8910"
         d="m 153.31257,1192.0713 188.97638,-113.3858 v -75.5906 H 9.690527 v 755.9055 H 134.41494 l 18.89763,-18.8976 z"
         style="fill:none;stroke:#000000"
         inkscape:connector-curvature="0" />
      <path
         id="path8908"
         d="m 39.926747,1373.4886 h -15.11811 v 15.1181 h 15.11811 z"
         style="fill:none;stroke:#000000"
         inkscape:connector-curvature="0" />
    </g>
    <g
       id="g8957">
      <path
         id="path8906"
         d="m -120.64767,1730.3043 -0.81505,1.7428 -1.23835,1.4724 -1.57725,1.1018 -1.80868,0.6561 -1.91684,0.1655 -1.89438,-0.3362 -1.74281,-0.815 -1.47247,-1.2384 -1.10179,-1.5772 -0.65603,-1.8087 -0.16555,-1.9169 0.3362,-1.8943 0.81505,-1.7428 1.23834,-1.4725 1.57726,-1.1018 1.80868,-0.656 1.91684,-0.1656 1.89437,0.3362 1.74281,0.8151 1.47248,1.2383 1.10179,1.5773 0.65603,1.8086 0.16555,1.9169 z"
         style="fill:none;stroke:#000000"
         inkscape:connector-curvature="0" />
      <path
         id="path8904"
         d="m -311.82629,1762.78 -1e-5,-15.1181 -15.11811,-2e-4 1e-5,15.1181 z"
         style="fill:none;stroke:#000000"
         inkscape:connector-curvature="0" />
      <path
         id="path8902"
         d="m -24.582198,1747.6619 v 15.1181 h -15.11811 v -15.1181 z"
         style="fill:none;stroke:#000000"
         inkscape:connector-curvature="0" />
      <path
         id="path8900"
         d="m -315.70034,1625.5407 -1.77752,0.7362 -1.90752,0.2512 -1.90749,-0.2512 -1.77753,-0.7362 -1.52639,-1.1713 -1.17124,-1.5264 -0.73628,-1.7775 -0.25113,-1.9075 0.25111,-1.9075 0.7363,-1.7775 1.17126,-1.5264 1.52639,-1.1713 1.77753,-0.7363 1.90751,-0.2511 1.90752,0.2511 1.77752,0.7363 1.52639,1.1713 1.17125,1.5264 0.73627,1.7775 0.25113,1.9074 -0.25114,1.9074 -0.73627,1.7775 -1.17126,1.5265 z"
         style="fill:none;stroke:#000000"
         inkscape:connector-curvature="0" />
      <path
         id="path8898"
         d="m -81.756189,1725.6949 -14.763382,3.2557 -3.255732,-14.7633 14.763383,-3.2558 z"
         style="fill:none;stroke:#000000"
         inkscape:connector-curvature="0" />
      <path
         id="path8896"
         d="m -158.82883,1727.2102 3.25573,14.7634 -14.76338,3.2557 -3.25574,-14.7634 z"
         style="fill:none;stroke:#000000"
         inkscape:connector-curvature="0" />
      <path
         id="path8894"
         d="m -24.582228,1717.4257 v 15.1181 h -15.11808 v -15.1181 z"
         style="fill:none;stroke:#000000"
         inkscape:connector-curvature="0" />
      <path
         id="path8892"
         d="m -265.18885,1747.5521 -1.97172,0.078 -1.92483,-0.4348 -1.74673,-0.9181 -1.44959,-1.3389 -1.05366,-1.6685 -0.5859,-1.8841 -0.0783,-1.9717 0.43471,-1.9251 0.91806,-1.7466 1.33893,-1.4495 1.66845,-1.0536 1.88431,-0.5861 1.97179,-0.078 1.92483,0.4346 1.74673,0.9181 1.44959,1.3389 1.05366,1.6685 0.58592,1.8843 0.0782,1.9718 -0.43473,1.9248 -0.91808,1.7466 -1.33888,1.4497 -1.66847,1.0536 z"
         style="fill:none;stroke:#000000"
         inkscape:connector-curvature="0" />
      <path
         id="path8890"
         d="m -267.13078,1145.9322 -1.92651,-0.427 -1.75037,-0.9111 -1.4549,-1.3331 -1.06026,-1.6643 -0.59337,-1.882 -0.0861,-1.9714 0.4271,-1.9266 0.91117,-1.7503 1.33315,-1.4549 1.66427,-1.0602 1.882,-0.5934 1.97144,-0.086 1.92653,0.4271 1.75032,0.9112 1.45488,1.3331 1.06026,1.6643 0.59339,1.8819 0.0861,1.9713 -0.42711,1.9267 -0.9112,1.7504 -1.33314,1.4549 -1.66428,1.0602 -1.88195,0.5933 z"
         style="fill:none;stroke:#000000"
         inkscape:connector-curvature="0" />
      <path
         id="path8888"
         d="m -319.38536,1188.1027 -1.90753,-0.2509 -1.77753,-0.7363 -1.52639,-1.1713 -1.17124,-1.5264 -0.73628,-1.7775 -0.25113,-1.9075 0.25113,-1.9075 0.73628,-1.7775 1.17124,-1.5264 1.52639,-1.1713 1.77753,-0.7362 1.90751,-0.2512 1.90752,0.2512 1.77752,0.7362 1.52639,1.1713 1.17125,1.5264 0.73627,1.7775 0.25113,1.9075 -0.25113,1.9075 -0.73624,1.7775 -1.17122,1.5264 -1.52642,1.1713 -1.77753,0.7361 z"
         style="fill:none;stroke:#000000"
         inkscape:connector-curvature="0" />
      <path
         id="path8886"
         d="m -326.9444,1052.2285 v -15.1179 l 15.11811,10e-5 v 15.118 z"
         style="fill:none;stroke:#000000"
         inkscape:connector-curvature="0" />
      <path
         id="path8884"
         d="M -9.464087,1702.3074 -198.44046,1588.9217 v -548.0314 l -18.89764,-18.8978 h -124.7244 v 755.9057 l 332.598413,-2e-4 z"
         style="fill:none;stroke:#000000"
         inkscape:connector-curvature="0" />
      <path
         id="path8882"
         d="m -326.9444,1392.3862 -1e-5,15.1183 h 15.11809 l 2e-5,-15.1182 z"
         style="fill:none;stroke:#000000"
         inkscape:connector-curvature="0" />
    </g>
    <path
       style="fill:none;stroke:#000000"
       d="m 479.4435,1145.227 12.53876,27.5138 3.28695,2.6555 2.48935,-4.69 1.64507,-5.0485 0.7517,-5.2563 -0.16411,-5.3073 -1.07502,-5.1998 -1.95384,-4.9372 -2.77437,-4.5273 -3.5121,-3.9823 -4.14505,-3.3185 -4.65429,-2.5556 -5.02467,-1.7165 -5.2451,-0.8261 v -64.252 l -0.45075,-3.4237 -1.32151,-3.1905 -2.10223,-2.7397 -2.73968,-2.1022 -3.19043,-1.3215 -3.42375,-0.4508 -3.42375,0.4508 -3.19042,1.3215 -2.73968,2.1022 -2.10223,2.7397 -1.32152,3.1905 -0.45074,3.4237 2.38212,75.2234 -2.81758,4.5005 -2.00103,4.9183 -1.12475,5.1893 -0.21491,5.3054 0.70133,5.2632 1.59665,5.0641 2.44434,4.7137 3.21907,4.2227 3.89775,3.6057 4.46013,2.8811 4.88941,2.0706 5.1728,1.1982 0.15227,-4.2229 -12.53875,-27.5138 z"
       id="path8880"
       inkscape:connector-curvature="0" />
    <g
       id="g8985"
       transform="translate(-8,52)">
      <path
         id="path8878"
         d="m 486.80282,1370.9801 h -15.11811 v -15.1181 h 15.11811 z"
         style="fill:none;stroke:#000000"
         inkscape:connector-curvature="0" />
      <path
         id="path8876"
         d="m 501.92093,1325.6258 h -15.11811 v 15.1181 h -15.11811 v -15.1181 H 456.5666 v 75.5906 h 15.11811 v -15.1181 h 15.11811 v 15.1181 h 15.11811 z"
         style="fill:none;stroke:#000000"
         inkscape:connector-curvature="0" />
    </g>
    <g
       id="g8981"
       transform="translate(-8,52)">
      <path
         id="path8874"
         d="m 471.68471,1442.7912 h 15.11811 v 15.1181 h -15.11811 z"
         style="fill:none;stroke:#000000"
         inkscape:connector-curvature="0" />
      <path
         id="path8872"
         d="m 486.80282,1412.5549 h 15.11811 v 75.5906 h -15.11811 v -15.1181 h -15.11811 v 15.1181 H 456.5666 v -75.5906 h 15.11811 v 15.1182 h 15.11811 z"
         style="fill:none;stroke:#000000"
         inkscape:connector-curvature="0" />
    </g>
    <g
       id="g8993"
       transform="translate(-8,52)">
      <path
         id="path8870"
         d="m 486.80282,1197.1219 h -15.11811 v -15.1181 h 15.11811 z"
         style="fill:none;stroke:#000000"
         inkscape:connector-curvature="0" />
      <path
         id="path8868"
         d="M 471.68471,1151.7675 H 456.5666 v 75.5906 h 15.11811 V 1212.24 h 15.11811 v 15.1181 h 15.11811 v -75.5906 h -15.11811 v 15.1182 h -15.11811 z"
         style="fill:none;stroke:#000000"
         inkscape:connector-curvature="0" />
    </g>
    <g
       id="g8989"
       transform="translate(-8,52)">
      <path
         id="path8866"
         d="m 471.68471,1284.051 v -15.1181 h 15.11811 v 15.1181 z"
         style="fill:none;stroke:#000000"
         inkscape:connector-curvature="0" />
      <path
         id="path8864"
         d="M 471.68471,1238.6967 H 456.5666 v 75.5905 h 15.11811 v -15.1181 h 15.11811 v 15.1181 h 15.11811 v -75.5905 h -15.11811 v 15.1181 h -15.11811 z"
         style="fill:none;stroke:#000000"
         inkscape:connector-curvature="0" />
    </g>
    <g
       id="g8977"
       transform="translate(-4)">
      <path
         id="path8862"
         d="m 211.87777,1441.5202 h 15.11811 v 75.5906 h -15.11811 v -15.1182 h -15.11811 v 15.1182 h -15.11811 v -75.5906 h 15.11811 v 15.1181 h 15.11811 z"
         style="fill:none;stroke:#000000"
         inkscape:connector-curvature="0" />
      <path
         id="path8860"
         d="m 196.75966,1486.8745 v -15.1181 h 15.11811 v 15.1181 z"
         style="fill:none;stroke:#000000"
         inkscape:connector-curvature="0" />
    </g>
    <g
       id="g8973"
       transform="translate(-4)">
      <path
         id="path8858"
         d="m 196.75966,1558.6856 h 15.11811 v 15.1181 h -15.11811 z"
         style="fill:none;stroke:#000000"
         inkscape:connector-curvature="0" />
      <path
         id="path8856"
         d="m 196.75966,1543.5674 v -15.1181 h -15.11811 v 75.5906 h 15.11811 v -15.1181 h 15.11811 v 15.1181 h 15.11811 v -75.5906 h -15.11811 v 15.1181 z"
         style="fill:none;stroke:#000000"
         inkscape:connector-curvature="0" />
    </g>
    <g
       id="g8969"
       transform="translate(-4)">
      <path
         id="path8854"
         d="m 196.75966,1645.6147 h 15.11811 v 15.1181 h -15.11811 z"
         style="fill:none;stroke:#000000"
         inkscape:connector-curvature="0" />
      <path
         id="path8852"
         d="m 226.99588,1615.3785 h -15.11811 v 15.1181 h -15.11811 v -15.1181 h -15.11811 v 75.5905 h 15.11811 v -15.1181 h 15.11811 v 15.1181 h 15.11811 z"
         style="fill:none;stroke:#000000"
         inkscape:connector-curvature="0" />
    </g>
    <g
       id="g8965"
       transform="translate(-4)">
      <path
         id="path8850"
         d="m 211.87777,1747.6619 h -15.11811 v -15.1181 h 15.11811 z"
         style="fill:none;stroke:#000000"
         inkscape:connector-curvature="0" />
      <path
         id="path8848"
         d="m 196.75966,1702.3076 h -15.11811 v 75.5906 h 15.11811 V 1762.78 h 15.11811 v 15.1182 h 15.11811 v -75.5906 h -15.11811 v 15.1181 h -15.11811 z"
         style="fill:none;stroke:#000000"
         inkscape:connector-curvature="0" />
    </g>
    <g
       id="g8961">
      <path
         id="path8846"
         d="M -67.068809,1155.6297 H -119.9822 v -26.4567 h 52.913391 z"
         style="fill:none;stroke:#000000"
         inkscape:connector-curvature="0" />
      <path
         id="path8844"
         d="m -24.788998,1583.1924 -12.613383,16.4381 -16.438082,12.6134 -19.142551,7.9291 -20.542488,2.7044 -20.542488,-2.7044 -19.14255,-7.9291 -16.43808,-12.6134 -12.61339,-16.4381 -7.9291,-19.1425 -2.70447,-20.5425 2.70447,-20.5425 7.9291,-19.1426 12.61339,-16.4381 16.43808,-12.6133 1.88063,-160.3307 -1.95687,-0.7223 -17.33691,-12.2571 -13.57379,-16.3266 -8.88566,-19.2834 -3.59197,-20.9261 v -128.5039 h 26.4567 v -15.1182 h 15.11811 v 5.6693 h 15.1181 v -26.4567 h -15.1181 v 5.6693 h -15.11811 v -15.1181 h -26.4567 v -15.1181 h 166.299214 v 15.1181 h -26.456693 v 15.1181 h -15.11811 v -5.6693 h -15.11811 v 26.4567 h 15.11811 v -5.6693 h 15.11811 v 15.1182 h 26.456693 v 128.5039 l -3.61602,20.9201 -8.907318,19.2713 -13.591597,16.3093 -17.349632,12.2358 v 161.1097 l 16.438082,12.6133 12.613383,16.4381 7.929105,19.1426 2.70447,20.5425 -2.70447,20.5425 z"
         style="fill:none;stroke:#000000"
         inkscape:connector-curvature="0" />
    </g>
    <g
       id="g8942">
      <path
         id="path8842"
         d="m 338.25245,1447.4985 -1.8231,0.7552 -1.95643,0.2575 -1.95643,-0.2575 -1.8231,-0.7552 -1.56553,-1.2013 -1.20127,-1.5655 -0.75516,-1.8231 -0.25757,-1.9564 0.25757,-1.9564 0.75516,-1.8231 1.20127,-1.5656 1.56553,-1.2012 1.8231,-0.7552 1.95643,-0.2576 1.95643,0.2576 1.8231,0.7552 1.56553,1.2012 1.20127,1.5656 0.75516,1.8231 0.25757,1.9564 -0.25757,1.9564 -0.75516,1.8231 -1.20127,1.5655 z"
         style="fill:none;stroke:#000000"
         inkscape:connector-curvature="0" />
      <path
         id="path8278"
         d="m 391.16583,1732.5437 v -15.1181 h 26.4567 v -566.9291 h -60.47244 v -11.3386 h -45.35434 v 11.3386 h -60.47244 v 566.9291 h 26.4567 v 15.1181 h 15.11811 v -5.6693 h 15.11811 v 26.4567 h -15.11811 v -5.6693 h -15.11811 v 15.1181 h -26.4567 v 15.1182 h 166.29922 v -15.1182 h -26.4567 v -15.1181 h -15.11811 v 5.6693 h -15.11811 v -26.4567 h 15.11811 v 5.6693 z"
         style="fill:none;stroke:#000000"
         inkscape:connector-curvature="0" />
    </g>
  </g>
  <g
     inkscape:groupmode="layer"
     inkscape:label="SECTIONCUTEDGES"
     id="g8282"
     transform="translate(342.56251,-775.20118)" />
</svg>
