<?xml version="1.0" encoding="UTF-8" standalone="no"?>
<svg
   xmlns:dc="http://purl.org/dc/elements/1.1/"
   xmlns:cc="http://creativecommons.org/ns#"
   xmlns:rdf="http://www.w3.org/1999/02/22-rdf-syntax-ns#"
   xmlns:svg="http://www.w3.org/2000/svg"
   xmlns="http://www.w3.org/2000/svg"
   xmlns:sodipodi="http://sodipodi.sourceforge.net/DTD/sodipodi-0.dtd"
   xmlns:inkscape="http://www.inkscape.org/namespaces/inkscape"
   width="600mm"
   height="300mm"
   version="1.1"
   id="svg8284"
   sodipodi:docname="Mohrnkopfschleuder_v_6_schaeferhund2.svg"
   inkscape:version="0.92.2 5c3e80d, 2017-08-06">
  <metadata
     id="metadata8288">
    <rdf:RDF>
      <cc:Work
         rdf:about="">
        <dc:format>image/svg+xml</dc:format>
        <dc:type
           rdf:resource="http://purl.org/dc/dcmitype/StillImage" />
        <dc:title />
      </cc:Work>
    </rdf:RDF>
  </metadata>
  <sodipodi:namedview
     pagecolor="#ffffff"
     bordercolor="#666666"
     borderopacity="1"
     objecttolerance="10"
     gridtolerance="10"
     guidetolerance="10"
     inkscape:pageopacity="0"
     inkscape:pageshadow="2"
     inkscape:window-width="1280"
     inkscape:window-height="718"
     id="namedview8286"
     showgrid="false"
     inkscape:zoom="0.25683187"
     inkscape:cx="1168.9007"
     inkscape:cy="566.92913"
     inkscape:window-x="48"
     inkscape:window-y="49"
     inkscape:window-maximized="0"
     inkscape:current-layer="g8280"
     units="mm"
     showguides="false" />
  <desc
     id="desc6784">C:\Users\Andreas Reheis\Documents\Laser\Mohrnkopfschleuder\Mohrnkopfschleuder_v_6.dxf - scale = 1.000000, origin = (0.000000, 0.000000), method = file</desc>
  <defs
     id="defs6798">
    <marker
       id="DistanceX"
       orient="auto"
       refX="0"
       refY="0"
       style="overflow:visible">
      <path
         d="M 3,-3 -3,3 M 0,-5 V 5"
         style="stroke:#000000;stroke-width:0.5"
         id="path6786"
         inkscape:connector-curvature="0" />
    </marker>
    <pattern
       height="8"
       id="Hatch"
       patternUnits="userSpaceOnUse"
       width="8"
       x="0"
       y="0">
      <path
         d="M8 4 l-4,4"
         linecap="square"
         stroke="#000000"
         stroke-width="0.25"
         id="path6789" />
      <path
         d="M6 2 l-4,4"
         linecap="square"
         stroke="#000000"
         stroke-width="0.25"
         id="path6791" />
      <path
         d="M4 0 l-4,4"
         linecap="square"
         stroke="#000000"
         stroke-width="0.25"
         id="path6793" />
    </pattern>
    <symbol
       id="*MODEL_SPACE" />
    <symbol
       id="*PAPER_SPACE" />
  </defs>
  <g
     inkscape:groupmode="layer"
     inkscape:label="0"
     id="g6800"
     transform="translate(342.56251,-644.53984)" />
  <g
     inkscape:groupmode="layer"
     inkscape:label="PROFILEEDGES"
     id="g8280"
     transform="translate(342.56251,-644.53984)">
    <g
       id="g2307">
      <path
         inkscape:connector-curvature="0"
         id="path8938"
         d="m 431.37059,660.15804 h 30.2362 v -15.1182 h 15.1181 v 15.1182 h 22.6772 v 24.5669 h -5.6693 v 13.2283 h 5.6693 v 30.2362 h 15.1181 v -30.2362 h 5.6693 v -13.2283 h -5.6693 v -24.5669 h 22.6772 v -15.1182 h 15.1181 v 15.1182 h 30.2362 v 207.874 h -30.2362 v 15.1181 h -15.1181 v -15.1181 h -22.6772 v -24.567 h 5.6693 v -13.2283 h -5.6693 v -30.2362 h -15.1181 v 30.2362 h -5.6693 v 13.2283 h 5.6693 v 24.567 h -22.6772 v 15.1181 h -15.1181 v -15.1181 h -30.2362 z"
         style="fill:none;stroke:#000000" />
      <path
         inkscape:connector-curvature="0"
         id="path8934"
         d="m -175.76331,728.18944 h -15.1181 v -30.2362 h -5.6693 v -13.2283 h 5.6693 v -24.5669 h -120.9449 v -15.1182 h -15.1181 v 15.1182 h -15.1181 v 207.874 h 15.1181 v 15.1181 h 15.1181 v -15.1181 h 120.9449 v -24.567 h -5.6693 v -13.2283 h 5.6693 v -30.2362 h 15.1181 v 30.2362 h 5.6693 v 13.2283 h -5.6693 v 24.567 h 204.0945 v 15.1181 h 15.1181 v -15.1181 h 204.0945 v -24.567 h -5.6693 v -13.2283 h 5.6693 v -30.2362 h 15.1181 v 30.2362 h 5.6693 v 13.2283 h -5.6693 v 24.567 h 120.9449 v 15.1181 h 15.1181 v -15.1181 h 15.1181 v -207.874 h -15.1181 v -15.1182 h -15.1181 v 15.1182 h -120.9449 v 24.5669 h 5.6693 v 13.2283 h -5.6693 v 30.2362 h -15.1181 v -30.2362 h -5.6693 v -13.2283 h 5.6693 v -24.5669 H 43.44929 v -15.1182 h -15.1181 v 15.1182 h -204.0945 v 24.5669 h 5.6693 v 13.2283 h -5.6693 z"
         style="fill:none;stroke:#000000" />
      <g
         transform="translate(-165.38739)"
         id="g11281">
        <path
           inkscape:connector-curvature="0"
           style="fill:none;stroke:#000000"
           d="m -67.068819,1024.9684 h -52.913391 v -26.45669 h 52.913391 z"
           id="path8846" />
        <path
           inkscape:connector-curvature="0"
           style="fill:none;stroke:#000000"
           d="m -24.789008,1452.5311 -12.613383,16.4381 -16.438082,12.6134 -19.142551,7.9291 -20.542488,2.7044 -20.542488,-2.7044 -19.14255,-7.9291 -16.43808,-12.6134 -12.61339,-16.4381 -7.9291,-19.1425 -2.70447,-20.5425 2.70447,-20.5425 7.9291,-19.1426 12.61339,-16.4381 16.43808,-12.6133 1.88063,-160.3307 -1.95687,-0.7223 -17.33691,-12.2571 -13.57379,-16.3266 -8.88566,-19.2834 -3.59197,-20.9261 V 985.75951 h 26.4567 v -15.1182 h 15.11811 v 5.6693 h 15.1181 v -26.4567 h -15.1181 v 5.6693 h -15.11811 v -15.1181 h -26.4567 v -15.1181 h 166.299214 v 15.1181 h -26.456693 v 15.1181 h -15.11811 v -5.6693 h -15.11811 v 26.4567 h 15.11811 v -5.6693 h 15.11811 v 15.1182 h 26.456693 v 128.50389 l -3.61602,20.9201 -8.907318,19.2713 -13.591597,16.3093 -17.349632,12.2358 v 161.1097 l 16.438082,12.6133 12.613383,16.4381 7.929105,19.1426 2.70447,20.5425 -2.70447,20.5425 z"
           id="path8844" />
      </g>
      <g
         transform="translate(-325.41178,-21.958523)"
         id="g11312">
        <path
           style="fill:none;stroke:#000000"
           d="m 206.00549,1290.8231 v 15.1181 h 15.1181 v -15.1181 h 15.1181 V 1082.949 h -15.1181 v -15.1181 h -15.1181 v 15.1181 h -15.1181 v -15.1181 h -15.1181 v 15.1181 h -15.1181 v 207.8741 h 15.1181 v 15.1181 h 15.1181 v -15.1181 z"
           id="path8936"
           inkscape:connector-curvature="0" />
        <path
           style="fill:none;stroke:#000000"
           d="m 479.44349,1014.5657 12.5388,27.5139 3.2869,2.6555 2.4894,-4.69 1.6451,-5.0486 0.7517,-5.2563 -0.1641,-5.3073 -1.0751,-5.1998 -1.9538,-4.9372 -2.7744,-4.5273 -3.5121,-3.9823 -4.145,-3.3185 -4.6543,-2.55555 -5.0247,-1.7165 -5.2451,-0.8261 v -64.25201 l -0.4507,-3.4237 -1.3215,-3.1905 -2.1023,-2.7397 -2.7397,-2.1022 -3.1904,-1.3215 -3.4237,-0.4508 -3.4238,0.4508 -3.1904,1.3215 -2.7397,2.1022 -2.1022,2.7397 -1.3215,3.1905 -0.4508,3.4237 2.3821,75.22336 -2.8175,4.5005 -2.0011,4.9183 -1.1247,5.1893 -0.2149,5.3054 0.7013,5.2632 1.5967,5.0641 2.4443,4.7137 3.2191,4.2227 3.8977,3.6058 4.4601,2.8811 4.8895,2.0706 5.1728,1.1982 0.1522,-4.2229 -12.5387,-27.5138 z"
           id="path8880"
           inkscape:connector-curvature="0" />
        <g
           id="g8985"
           transform="translate(-8.00001,-78.661288)">
          <path
             id="path8878"
             d="m 486.80282,1370.9801 h -15.11811 v -15.1181 h 15.11811 z"
             style="fill:none;stroke:#000000"
             inkscape:connector-curvature="0" />
          <path
             id="path8876"
             d="m 501.92093,1325.6258 h -15.11811 v 15.1181 h -15.11811 v -15.1181 H 456.5666 v 75.5906 h 15.11811 v -15.1181 h 15.11811 v 15.1181 h 15.11811 z"
             style="fill:none;stroke:#000000"
             inkscape:connector-curvature="0" />
        </g>
        <g
           id="g8981"
           transform="translate(-8.00001,-78.661288)">
          <path
             id="path8874"
             d="m 471.68471,1442.7912 h 15.11811 v 15.1181 h -15.11811 z"
             style="fill:none;stroke:#000000"
             inkscape:connector-curvature="0" />
          <path
             id="path8872"
             d="m 486.80282,1412.5549 h 15.11811 v 75.5906 h -15.11811 v -15.1181 h -15.11811 v 15.1181 H 456.5666 v -75.5906 h 15.11811 v 15.1182 h 15.11811 z"
             style="fill:none;stroke:#000000"
             inkscape:connector-curvature="0" />
        </g>
        <g
           id="g8993"
           transform="translate(-8.00001,-78.661288)">
          <path
             id="path8870"
             d="m 486.80282,1197.1219 h -15.11811 v -15.1181 h 15.11811 z"
             style="fill:none;stroke:#000000"
             inkscape:connector-curvature="0" />
          <path
             id="path8868"
             d="M 471.68471,1151.7675 H 456.5666 v 75.5906 h 15.11811 V 1212.24 h 15.11811 v 15.1181 h 15.11811 v -75.5906 h -15.11811 v 15.1182 h -15.11811 z"
             style="fill:none;stroke:#000000"
             inkscape:connector-curvature="0" />
        </g>
        <g
           id="g8989"
           transform="translate(-8.00001,-78.661288)">
          <path
             id="path8866"
             d="m 471.68471,1284.051 v -15.1181 h 15.11811 v 15.1181 z"
             style="fill:none;stroke:#000000"
             inkscape:connector-curvature="0" />
          <path
             id="path8864"
             d="M 471.68471,1238.6967 H 456.5666 v 75.5905 h 15.11811 v -15.1181 h 15.11811 v 15.1181 h 15.11811 v -75.5905 h -15.11811 v 15.1181 h -15.11811 z"
             style="fill:none;stroke:#000000"
             inkscape:connector-curvature="0" />
        </g>
        <g
           id="g8977"
           transform="translate(-4.00001,-130.66129)">
          <path
             id="path8862"
             d="m 211.87777,1441.5202 h 15.11811 v 75.5906 h -15.11811 v -15.1182 h -15.11811 v 15.1182 h -15.11811 v -75.5906 h 15.11811 v 15.1181 h 15.11811 z"
             style="fill:none;stroke:#000000"
             inkscape:connector-curvature="0" />
          <path
             id="path8860"
             d="m 196.75966,1486.8745 v -15.1181 h 15.11811 v 15.1181 z"
             style="fill:none;stroke:#000000"
             inkscape:connector-curvature="0" />
        </g>
        <g
           id="g8973"
           transform="translate(-4.00001,-130.66129)">
          <path
             id="path8858"
             d="m 196.75966,1558.6856 h 15.11811 v 15.1181 h -15.11811 z"
             style="fill:none;stroke:#000000"
             inkscape:connector-curvature="0" />
          <path
             id="path8856"
             d="m 196.75966,1543.5674 v -15.1181 h -15.11811 v 75.5906 h 15.11811 v -15.1181 h 15.11811 v 15.1181 h 15.11811 v -75.5906 h -15.11811 v 15.1181 z"
             style="fill:none;stroke:#000000"
             inkscape:connector-curvature="0" />
        </g>
        <g
           id="g8969"
           transform="translate(-4.00001,-130.66129)">
          <path
             id="path8854"
             d="m 196.75966,1645.6147 h 15.11811 v 15.1181 h -15.11811 z"
             style="fill:none;stroke:#000000"
             inkscape:connector-curvature="0" />
          <path
             id="path8852"
             d="m 226.99588,1615.3785 h -15.11811 v 15.1181 h -15.11811 v -15.1181 h -15.11811 v 75.5905 h 15.11811 v -15.1181 h 15.11811 v 15.1181 h 15.11811 z"
             style="fill:none;stroke:#000000"
             inkscape:connector-curvature="0" />
        </g>
        <g
           id="g8965"
           transform="translate(-4.00001,-130.66129)">
          <path
             id="path8850"
             d="m 211.87777,1747.6619 h -15.11811 v -15.1181 h 15.11811 z"
             style="fill:none;stroke:#000000"
             inkscape:connector-curvature="0" />
          <path
             id="path8848"
             d="m 196.75966,1702.3076 h -15.11811 v 75.5906 h 15.11811 V 1762.78 h 15.11811 v 15.1182 h 15.11811 v -75.5906 h -15.11811 v 15.1181 h -15.11811 z"
             style="fill:none;stroke:#000000"
             inkscape:connector-curvature="0" />
        </g>
        <g
           id="g8942"
           transform="translate(-1e-5,-130.66129)">
          <path
             id="path8842"
             d="m 338.25245,1447.4985 -1.8231,0.7552 -1.95643,0.2575 -1.95643,-0.2575 -1.8231,-0.7552 -1.56553,-1.2013 -1.20127,-1.5655 -0.75516,-1.8231 -0.25757,-1.9564 0.25757,-1.9564 0.75516,-1.8231 1.20127,-1.5656 1.56553,-1.2012 1.8231,-0.7552 1.95643,-0.2576 1.95643,0.2576 1.8231,0.7552 1.56553,1.2012 1.20127,1.5656 0.75516,1.8231 0.25757,1.9564 -0.25757,1.9564 -0.75516,1.8231 -1.20127,1.5655 z"
             style="fill:none;stroke:#000000"
             inkscape:connector-curvature="0" />
          <path
             id="path8278"
             d="m 391.16583,1732.5437 v -15.1181 h 26.4567 v -566.9291 h -60.47244 v -11.3386 h -45.35434 v 11.3386 h -60.47244 v 566.9291 h 26.4567 v 15.1181 h 15.11811 v -5.6693 h 15.11811 v 26.4567 h -15.11811 v -5.6693 h -15.11811 v 15.1181 h -26.4567 v 15.1182 h 166.29922 v -15.1182 h -26.4567 v -15.1181 h -15.11811 v 5.6693 h -15.11811 v -26.4567 h 15.11811 v 5.6693 z"
             style="fill:none;stroke:#000000"
             inkscape:connector-curvature="0" />
        </g>
      </g>
      <g
         id="g2248"
         transform="translate(393.9827,-42.13687)">
        <path
           id="path2244"
           d="m -67.068819,1024.9684 h -52.913391 v -26.45669 h 52.913391 z"
           style="fill:none;stroke:#000000"
           inkscape:connector-curvature="0" />
        <path
           id="path2246"
           d="m -24.789008,1452.5311 -12.613383,16.4381 -16.438082,12.6134 -19.142551,7.9291 -20.542488,2.7044 -20.542488,-2.7044 -19.14255,-7.9291 -16.43808,-12.6134 -12.61339,-16.4381 -7.9291,-19.1425 -2.70447,-20.5425 2.70447,-20.5425 7.9291,-19.1426 12.61339,-16.4381 16.43808,-12.6133 1.88063,-160.3307 -1.95687,-0.7223 -17.33691,-12.2571 -13.57379,-16.3266 -8.88566,-19.2834 -3.59197,-20.9261 V 985.75951 h 26.4567 v -15.1182 h 15.11811 v 5.6693 h 15.1181 v -26.4567 h -15.1181 v 5.6693 h -15.11811 v -15.1181 h -26.4567 v -15.1181 h 166.299214 v 15.1181 h -26.456693 v 15.1181 h -15.11811 v -5.6693 h -15.11811 v 26.4567 h 15.11811 v -5.6693 h 15.11811 v 15.1182 h 26.456693 v 128.50389 l -3.61602,20.9201 -8.907318,19.2713 -13.591597,16.3093 -17.349632,12.2358 v 161.1097 l 16.438082,12.6133 12.613383,16.4381 7.929105,19.1426 2.70447,20.5425 -2.70447,20.5425 z"
           style="fill:none;stroke:#000000"
           inkscape:connector-curvature="0" />
      </g>
    </g>
  </g>
  <g
     inkscape:groupmode="layer"
     inkscape:label="SECTIONCUTEDGES"
     id="g8282"
     transform="translate(342.56251,-644.53984)" />
</svg>
