<?xml version="1.0" encoding="UTF-8" standalone="no"?>
<svg
   xmlns:dc="http://purl.org/dc/elements/1.1/"
   xmlns:cc="http://creativecommons.org/ns#"
   xmlns:rdf="http://www.w3.org/1999/02/22-rdf-syntax-ns#"
   xmlns:svg="http://www.w3.org/2000/svg"
   xmlns="http://www.w3.org/2000/svg"
   xmlns:sodipodi="http://sodipodi.sourceforge.net/DTD/sodipodi-0.dtd"
   xmlns:inkscape="http://www.inkscape.org/namespaces/inkscape"
   width="793.700787402"
   height="1122.51968504"
   version="1.1"
   id="svg3922"
   sodipodi:docname="Mohrnkopfschleuder_v_6.svg"
   inkscape:version="0.92.2 (5c3e80d, 2017-08-06)">
  <metadata
     id="metadata3926">
    <rdf:RDF>
      <cc:Work
         rdf:about="">
        <dc:format>image/svg+xml</dc:format>
        <dc:type
           rdf:resource="http://purl.org/dc/dcmitype/StillImage" />
        <dc:title></dc:title>
      </cc:Work>
    </rdf:RDF>
  </metadata>
  <sodipodi:namedview
     pagecolor="#ffffff"
     bordercolor="#666666"
     borderopacity="1"
     objecttolerance="10"
     gridtolerance="10"
     guidetolerance="10"
     inkscape:pageopacity="0"
     inkscape:pageshadow="2"
     inkscape:window-width="1366"
     inkscape:window-height="749"
     id="namedview3924"
     showgrid="false"
     inkscape:zoom="0.42415553"
     inkscape:cx="264.80826"
     inkscape:cy="-63.166848"
     inkscape:window-x="-4"
     inkscape:window-y="-4"
     inkscape:window-maximized="1"
     inkscape:current-layer="g3918"
     inkscape:measure-start="-265.102,434.907"
     inkscape:measure-end="-259.339,-587.049" />
  <desc
     id="desc2422">C:\Users\Andreas Reheis\Documents\Laser\Mohrnkopfschleuder\Mohrnkopfschleuder_v_6.dxf - scale = 1.000000, origin = (0.000000, 0.000000), method = file</desc>
  <defs
     id="defs2436">
    <marker
       id="DistanceX"
       orient="auto"
       refX="0.0"
       refY="0.0"
       style="overflow:visible">
      <path
         d="M 3,-3 L -3,3 M 0,-5 L  0,5"
         style="stroke:#000000; stroke-width:0.5"
         id="path2424" />
    </marker>
    <pattern
       height="8"
       id="Hatch"
       patternUnits="userSpaceOnUse"
       width="8"
       x="0"
       y="0">
      <path
         d="M8 4 l-4,4"
         linecap="square"
         stroke="#000000"
         stroke-width="0.25"
         id="path2427" />
      <path
         d="M6 2 l-4,4"
         linecap="square"
         stroke="#000000"
         stroke-width="0.25"
         id="path2429" />
      <path
         d="M4 0 l-4,4"
         linecap="square"
         stroke="#000000"
         stroke-width="0.25"
         id="path2431" />
    </pattern>
    <symbol
       id="*MODEL_SPACE" />
    <symbol
       id="*PAPER_SPACE" />
  </defs>
  <g
     inkscape:groupmode="layer"
     inkscape:label="0"
     id="g2438" />
  <g
     inkscape:groupmode="layer"
     inkscape:label="PROFILEEDGES"
     id="g3918">
    <path
       style="fill:none;stroke:#000000"
       d="m 241.61196,1350.5136 h 15.11811 v -15.1181 h 15.11811 v 15.1181 h 15.11811 v -15.1181 h 15.11811 v -207.874 h -15.11811 v -15.1181 h -15.11811 v 15.1181 h -15.11811 v -15.1181 h -15.11811 v 15.1181 h -15.11811 v 207.874 h 15.11811 z"
       id="path4576" />
    <path
       style="fill:none;stroke:#000000"
       d="m 558.24821,727.29743 v 13.2284 h 5.66929 v 18.8976 h 15.11811 v -18.8976 h 5.66929 v -13.2284 h -5.66929 v -24.5669 h 22.67716 v -15.1181 h 15.11811 v 15.1181 h 30.23622 v 207.874 h -30.23622 v 15.1181 h -15.11811 v -15.1181 h -22.67716 v -24.5669 h 5.66929 v -13.2284 h -5.66929 v -18.8976 H 563.9175 v 18.8976 h -5.66929 v 13.2284 h 5.66929 v 24.5669 h -22.67717 v 15.1181 h -15.11811 v -15.1181 H 495.886 v -207.874 h 30.23622 v -15.1181 h 15.11811 v 15.1181 h 22.67717 v 24.5669 z"
       id="path4574"
       inkscape:connector-curvature="0" />
    <path
       style="fill:none;stroke:#000000"
       d="m 309.38648,910.60455 v -24.56693 h -5.66929 v -13.22834 h 5.66929 v -30.23622 h 15.11811 v 30.23622 h 5.66929 v 13.22834 h -5.66929 v 24.56693 h 120.94488 v 15.11811 h 15.11811 v -15.11811 h 15.11811 V 702.73053 h -15.11811 v -15.11811 h -15.11811 v 15.11811 H 324.50459 v 24.56694 h 5.66929 v 13.22834 h -5.66929 v 30.23622 h -15.11811 v -30.23622 h -5.66929 v -13.22834 h 5.66929 V 702.73053 H 105.29196 v -15.11811 h -15.1181 v 15.11811 h -204.0945 v 24.56694 h 5.6693 v 13.22834 h -5.6693 v 30.23622 h -15.1181 v -30.23622 h -5.6693 v -13.22834 h 5.6693 v -24.56694 h -120.9449 v -15.11811 h -15.1181 v 15.11811 h -15.1181 v 207.87402 h 15.1181 v 15.11811 h 15.1181 v -15.11811 h 120.9449 v -24.56693 h -5.6693 v -13.22834 h 5.6693 v -30.23622 h 15.1181 v 30.23622 h 5.6693 v 13.22834 h -5.6693 v 24.56693 h 204.0945 v 15.11811 h 15.1181 v -15.11811 z"
       id="path4572"
       inkscape:connector-curvature="0" />
    <path
       style="fill:none;stroke:#000000"
       d="m 283.69752,959.79739 1.89437,-0.3362 1.91684,0.16555 1.80868,0.65603 1.57726,1.10179 1.23834,1.47248 0.81505,1.74281 0.3362,1.89437 -0.16555,1.91684 -0.65603,1.80868 -1.10179,1.57726 -1.47247,1.23834 -1.74281,0.81505 -1.89438,0.3362 -1.91684,-0.16555 -1.80868,-0.65603 -1.57725,-1.10179 -1.23835,-1.47247 -0.81505,-1.74281 -0.3362,-1.89438 0.16555,-1.91684 0.65603,-1.80868 1.10179,-1.57725 1.47248,-1.23835 z"
       id="path4570" />
    <path
       style="fill:none;stroke:#000000"
       d="m 92.30286,1507.0526 1.9075,-0.2512 1.9075,0.2512 1.7776,0.7362 1.5264,1.1713 1.1712,1.5264 0.7363,1.7775 0.2511,1.9075 -0.2511,1.9075 -0.7363,1.7776 -1.1712,1.5263 -1.5264,1.1713 -1.7776,0.7363 -1.9075,0.2511 -1.9075,-0.2511 -1.7775,-0.7363 -1.5264,-1.1713 -1.1712,-1.5263 -0.7363,-1.7776 -0.2512,-1.9075 0.2512,-1.9075 0.7363,-1.7775 1.1712,-1.5264 1.5264,-1.1713 z"
       id="path4568" />
    <path
       style="fill:none;stroke:#000000"
       d="m 86.84026,1075.7463 0.2511,1.9075 0.7363,1.7775 1.1713,1.5264 1.5264,1.1713 1.7775,0.7363 1.9075,0.2511 1.9075,-0.2511 1.7776,-0.7363 1.5264,-1.1713 1.1712,-1.5264 0.7363,-1.7775 0.2511,-1.9075 -0.2511,-1.9075 -0.7363,-1.7775 -1.1713,-1.5264 -1.5264,-1.1713 -1.7776,-0.7362 -1.9075,-0.2512 -1.9074,0.2512 -1.7776,0.7362 -1.5264,1.1713 -1.1712,1.5264 -0.7363,1.7775 z"
       id="path4566" />
    <path
       style="fill:none;stroke:#000000"
       d="m 139.67436,953.51828 0.586,-1.88431 1.0537,-1.66846 1.4495,-1.33889 1.7468,-0.91809 1.9248,-0.43473 1.9717,0.0783 1.8844,0.58594 1.6684,1.05366 1.3389,1.44959 0.918,1.74673 0.4346,1.92483 -0.078,1.97175 -0.5861,1.88432 -1.0536,1.66845 -1.4496,1.3389 -1.7467,0.91809 -1.9249,0.43472 -1.9717,-0.0783 -1.8842,-0.58593 -1.6686,-1.05366 -1.3388,-1.44959 -0.9182,-1.74673 -0.4346,-1.92483 z"
       id="path4564" />
    <path
       style="fill:none;stroke:#000000"
       d="m 101.76946,932.12426 v 15.11811 h -15.1182 l 1e-4,-15.11811 z"
       id="path4562" />
    <path
       style="fill:none;stroke:#000000"
       d="m 188.25766,1688.9117 18.89761,-18.8977 V 1121.9825 L 396.13165,1008.5967 V 933.00615 H 63.53326 v 755.90555 z"
       id="path4560"
       inkscape:connector-curvature="0" />
    <path
       style="fill:none;stroke:#000000"
       d="m 143.92906,1563.3531 -1.6643,-1.0603 -1.3331,-1.4549 -0.9112,-1.7503 -0.4271,-1.9266 0.086,-1.9714 0.5934,-1.882 1.0602,-1.6643 1.4549,-1.3331 1.7505,-0.9112 1.9265,-0.4271 1.9714,0.086 1.8819,0.5934 1.6643,1.0603 1.3331,1.4548 0.9112,1.7504 0.4272,1.9265 -0.086,1.9714 -0.5934,1.882 -1.0602,1.6643 -1.4549,1.3331 -1.7503,0.9112 -1.9265,0.4271 -1.9715,-0.086 z"
       id="path4558" />
    <path
       style="fill:none;stroke:#000000"
       d="m 328.58374,983.97278 -14.76338,-3.25573 3.25573,-14.76339 14.76339,3.25574 z"
       id="path4556" />
    <path
       style="fill:none;stroke:#000000"
       d="m 254.76683,967.69412 -14.76338,-3.25573 3.25578,-14.76338 14.76338,3.25573 z"
       id="path4554" />
    <path
       style="fill:none;stroke:#000000"
       d="m 389.01349,947.24237 h -15.11811 v -15.11811 h 15.11811 z"
       id="path4552" />
    <path
       style="fill:none;stroke:#000000"
       d="m 389.01344,962.36048 v 15.11811 h -15.11806 v -15.11811 z"
       id="path4550" />
    <path
       style="fill:none;stroke:#000000"
       d="m 86.65136,1657.7935 v -15.1181 h 15.118 v 15.1181 z"
       id="path4548" />
    <path
       style="fill:none;stroke:#000000"
       d="m 86.65136,1302.518 v -15.1182 h 15.1181 v 15.1182 z"
       id="path4546" />
    <path
       style="fill:none;stroke:#000000"
       d="m -68.05554,1649.0181 -1.7428,-0.8151 -1.4725,-1.2383 -1.1018,-1.5773 -0.656,-1.8087 -0.1655,-1.9168 0.3362,-1.8944 0.815,-1.7428 1.2384,-1.4725 1.5772,-1.1018 1.8087,-0.656 1.9168,-0.1655 1.8944,0.3362 1.7428,0.815 1.4725,1.2384 1.1018,1.5772 0.656,1.8087 0.1656,1.9168 -0.3362,1.8944 -0.8151,1.7428 -1.2383,1.4725 -1.5773,1.1018 -1.8087,0.656 -1.9168,0.1656 z"
       id="path4544" />
    <path
       style="fill:none;stroke:#000000"
       d="m -210.43904,1658.8499 -1.0536,-1.6684 -0.5862,-1.8844 -0.078,-1.9717 0.4348,-1.9248 0.9185,-1.7467 1.3385,-1.4496 1.6684,-1.0537 1.8843,-0.5859 1.9715,-0.078 1.9248,0.4347 1.7467,0.9181 1.4496,1.3389 1.0538,1.6685 0.5861,1.8843 0.078,1.9717 -0.4345,1.9249 -0.9183,1.7467 -1.3391,1.4496 -1.6683,1.0536 -1.8839,0.586 -1.9721,0.078 -1.9249,-0.4347 -1.7467,-0.9181 z"
       id="path4542" />
    <path
       style="fill:none;stroke:#000000"
       d="m -249.98364,1676.6912 4e-4,-15.1181 h -15.1182 l -3e-4,15.1181 z"
       id="path4540" />
    <path
       style="fill:none;stroke:#000000"
       d="m 22.14236,1631.3369 h 15.1185 v 15.1181 h -15.1185 z"
       id="path4538" />
    <path
       style="fill:none;stroke:#000000"
       d="m -252.33124,1099.8554 -1.5262,1.1712 -1.7773,0.7363 -1.9075,0.2511 -1.9075,-0.2511 -1.7776,-0.7363 -1.5263,-1.1712 -1.1713,-1.5264 -0.7363,-1.7775 -0.2511,-1.9076 0.2511,-1.9075 0.7363,-1.7775 1.1713,-1.5264 1.5263,-1.1712 1.7776,-0.7363 1.9075,-0.2511 1.9075,0.2511 1.7775,0.7363 1.5264,1.1712 1.1713,1.5264 0.7362,1.7775 0.2512,1.9075 -0.2512,1.9076 -0.7364,1.7775 z"
       id="path4536" />
    <path
       style="fill:none;stroke:#000000"
       d="m -253.85724,1539.4518 -1.7775,0.7363 -1.9075,0.2511 -1.9075,-0.2511 -1.7777,-0.7363 -1.5263,-1.1712 -1.1713,-1.5264 -0.7363,-1.7775 -0.251,-1.9076 0.2511,-1.9075 0.7362,-1.7775 1.1713,-1.5264 1.5263,-1.1712 1.7776,-0.7363 1.9075,-0.2511 1.9075,0.2511 1.7775,0.7363 1.5264,1.1712 1.1713,1.5264 0.7362,1.7775 0.251,1.9075 -0.2513,1.9076 -0.7362,1.7775 -1.1711,1.5264 z"
       id="path4534" />
    <path
       style="fill:none;stroke:#000000"
       d="m -200.29314,1046.1212 1.4548,1.3332 1.0603,1.6642 0.5934,1.882 0.086,1.9715 -0.427,1.9265 -0.911,1.7503 -1.3332,1.4549 -1.6642,1.0603 -1.8821,0.5934 -1.9716,0.086 -1.9267,-0.4271 -1.7501,-0.9111 -1.4547,-1.3332 -1.0603,-1.6643 -0.5933,-1.8819 -0.086,-1.9715 0.4271,-1.9265 0.9112,-1.7504 1.3331,-1.4548 1.6643,-1.0603 1.8818,-0.5934 1.9712,-0.086 1.9267,0.4271 z"
       id="path4532" />
    <path
       style="fill:none;stroke:#000000"
       d="m -108.49334,1659.1404 -3.2558,-14.7633 14.7634,-3.2558 3.2558,14.7634 z"
       id="path4530" />
    <path
       style="fill:none;stroke:#000000"
       d="m -37.93214,1628.0984 14.7633,-3.2557 3.2558,14.7634 -14.7634,3.2557 z"
       id="path4528" />
    <path
       style="fill:none;stroke:#000000"
       d="m 22.14236,1661.5731 h 15.1181 v 15.1181 h -15.1181 z"
       id="path4526" />
    <path
       style="fill:none;stroke:#000000"
       d="m -265.10144,951.0219 v 15.11811 h 15.1181 V 951.0219 Z"
       id="path4524" />
    <path
       style="fill:none;stroke:#000000"
       d="m 52.37886,1691.8093 h -332.5984 V 935.90379 h 124.7244 l 18.8975,18.89764 -10e-5,548.03147 188.9764,113.3859 z"
       id="path4522" />
    <path
       style="fill:none;stroke:#000000"
       d="m -265.10144,1306.2975 h 15.1182 v 15.1181 h -15.1181 z"
       id="path4520" />
    <path
       style="fill:none;stroke:#000000"
       d="m 517.09807,1078.6479 -4.88942,-2.0705 -4.46013,-2.8811 -3.89775,-3.6058 -3.21907,-4.2227 -2.44433,-4.7137 -1.59666,-5.064 -0.70133,-5.2632 0.21492,-5.3054 1.12475,-5.1893 2.00102,-4.9183 2.81759,-4.5005 -2.38213,-75.22337 0.45075,-3.4238 1.32151,-3.1904 2.10223,-2.7397 2.73969,-2.1022 3.19043,-1.3215 3.42374,-0.4508 3.42374,0.4508 3.19043,1.3215 2.73969,2.1022 2.10223,2.7397 1.32152,3.1904 0.45074,3.4238 -10e-6,64.25197 5.2451,0.8261 5.02467,1.7165 4.6543,2.5556 4.14504,3.3185 3.51211,3.9823 2.77437,4.5273 1.95384,4.9372 1.07501,5.1998 0.16411,5.3073 -0.7517,5.2562 -1.64506,5.0485 -2.48935,4.6901 -3.28696,-2.6555 -12.53875,-27.5138 -24.07457,10.9714 12.53877,27.5138 -0.15228,4.2229 z"
       id="path4518"
       inkscape:connector-curvature="0" />
    <path
       style="fill:none;stroke:#000000"
       d="m 518.20017,1299.7732 h 15.11811 v 15.1181 h -15.11811 z"
       id="path4516"
       inkscape:connector-curvature="0" />
    <path
       style="fill:none;stroke:#000000"
       d="m 533.31828,1284.655 h -15.11811 v -15.1181 h -15.11812 v 75.5906 h 15.11812 v -15.1181 h 15.11811 v 15.1181 h 15.11811 v -75.5906 h -15.11811 z"
       id="path4514"
       inkscape:connector-curvature="0" />
    <path
       style="fill:none;stroke:#000000"
       d="m 548.43639,1356.4661 v 75.5905 h -15.11811 v -15.1181 h -15.11811 v 15.1181 h -15.11812 v -75.5905 h 15.11812 v 15.1181 h 15.11811 v -15.1181 z"
       id="path4512"
       inkscape:connector-curvature="0" />
    <path
       style="fill:none;stroke:#000000"
       d="m 518.20017,1401.8204 v -15.1181 h 15.11811 v 15.1181 z"
       id="path4510"
       inkscape:connector-curvature="0" />
    <path
       style="fill:none;stroke:#000000"
       d="m 533.31828,1171.2692 v -15.1181 h -15.11811 v 15.1181 h -15.11812 v -75.5906 h 15.11812 v 15.1181 h 15.11811 v -15.1181 h 15.11811 v 75.5906 z"
       id="path4508"
       inkscape:connector-curvature="0" />
    <path
       style="fill:none;stroke:#000000"
       d="m 518.20017,1141.033 v -15.1181 h 15.11811 v 15.1181 z"
       id="path4506"
       inkscape:connector-curvature="0" />
    <path
       style="fill:none;stroke:#000000"
       d="m 533.31828,1227.9621 h -15.11811 v -15.1181 h 15.11811 z"
       id="path4504"
       inkscape:connector-curvature="0" />
    <path
       style="fill:none;stroke:#000000"
       d="m 533.31828,1243.0802 v 15.1182 h 15.11811 v -75.5906 h -15.11811 v 15.1181 h -15.11811 v -15.1181 h -15.11812 v 75.5906 h 15.11812 v -15.1182 z"
       id="path4502"
       inkscape:connector-curvature="0" />
    <path
       style="fill:none;stroke:#000000"
       d="m 273.72046,1400.7857 h -15.11811 v -15.1181 h 15.11811 z"
       id="path4500" />
    <path
       style="fill:none;stroke:#000000"
       d="m 243.48424,1431.0219 v -75.5906 h 15.11811 v 15.1182 h 15.11811 v -15.1182 h 15.11811 v 75.5906 h -15.11811 v -15.1181 h -15.11811 v 15.1181 z"
       id="path4498" />
    <path
       style="fill:none;stroke:#000000"
       d="m 273.72046,1442.3605 h 15.11811 v 75.5905 h -15.11811 v -15.1181 h -15.11811 v 15.1181 h -15.11811 v -75.5905 h 15.11811 v 15.1181 h 15.11811 z"
       id="path4496" />
    <path
       style="fill:none;stroke:#000000"
       d="m 258.60235,1487.7148 v -15.1181 h 15.11811 v 15.1181 z"
       id="path4494" />
    <path
       style="fill:none;stroke:#000000"
       d="m 273.72046,1574.6439 -15.11811,10e-5 v -15.1182 h 15.11811 z"
       id="path4492" />
    <path
       style="fill:none;stroke:#000000"
       d="m 288.83857,1529.2896 v 75.5906 h -15.11811 v -15.1181 h -15.11811 v 15.1181 h -15.11811 v -75.5906 h 15.11811 v 15.1181 h 15.11811 v -15.1181 z"
       id="path4490" />
    <path
       style="fill:none;stroke:#000000"
       d="m 273.72046,1661.5731 h -15.11811 v -15.1181 h 15.11811 z"
       id="path4488" />
    <path
       style="fill:none;stroke:#000000"
       d="m 288.83857,1616.2187 v 75.5906 h -15.11811 v -15.1181 h -15.11811 v 15.1181 h -15.11811 v -75.5905 h 15.11811 v 15.1181 h 15.11811 v -15.1182 z"
       id="path4486" />
    <path
       style="fill:none;stroke:#000000"
       d="m -5.22614,1069.541 v -26.4567 h -52.9134 v 26.4567 z"
       id="path4484" />
    <path
       style="fill:none;stroke:#000000"
       d="m -52.22534,1534.0842 20.5425,2.7045 20.5425,-2.7045 19.1426,-7.9291 16.4381,-12.6134 12.6133,-16.438 7.9291,-19.1426 2.7045,-20.5425 -2.7045,-20.5425 -7.9291,-19.1425 -12.6133,-16.4381 -16.4381,-12.6134 v -161.1097 l 17.3496,-12.2358 13.5916,-16.3093 8.9073,-19.2713 3.616,-20.9201 V 1030.332 h -26.4567 v -15.1181 H 9.89196 v 5.6693 h -15.1181 v -26.45671 h 15.1181 v 5.66931 h 15.1181 v -15.11813 h 26.4567 v -15.11811 h -166.2992 v 15.11811 h 26.4567 v 15.11813 h 15.1181 v -5.66931 h 15.1181 v 26.45671 h -15.1181 v -5.6693 h -15.1181 v 15.1181 h -26.4567 v 128.5039 l 3.592,20.9261 8.8857,19.2835 13.5737,16.3265 17.337,12.2571 1.9568,0.7223 -1.8806,160.3307 -16.4381,12.6134 -12.6134,16.4381 -7.9291,19.1425 -2.7044,20.5425 2.7044,20.5425 7.9291,19.1426 12.6134,16.438 16.4381,12.6134 z"
       id="path4482" />
    <path
       style="fill:none;stroke:#000000"
       d="m 390.97056,1360.2085 -1.20128,-1.5655 -0.75515,-1.8231 -0.25757,-1.9565 0.25757,-1.9564 0.75515,-1.8231 1.20128,-1.5655 1.56553,-1.2013 1.8231,-0.7552 1.95643,-0.2575 1.95642,0.2575 1.8231,0.7552 1.56553,1.2013 1.20128,1.5655 0.75515,1.8231 0.25757,1.9564 -0.25757,1.9565 -0.75515,1.8231 -1.20128,1.5655 -1.56553,1.2013 -1.8231,0.7551 -1.95642,0.2576 -1.95643,-0.2576 -1.8231,-0.7551 z"
       id="path4480" />
    <path
       style="fill:none;stroke:#000000"
       d="m 422.77231,1640.7857 h 15.11811 v 5.6693 h 15.11811 v -15.1181 h 26.45669 v -566.9292 h -60.47244 v -11.3386 h -45.35433 v 11.3386 h -60.47244 v 566.9292 h 26.45669 v 15.1181 h 15.11811 v -5.6693 h 15.11811 v 26.4567 h -15.11811 v -5.6693 H 339.6227 v 15.1181 h -26.45669 v 15.1181 h 166.29921 v -15.1181 h -26.45669 v -15.1181 h -15.11811 v 5.6693 h -15.11811 z"
       id="path3916" />
  </g>
  <g
     inkscape:groupmode="layer"
     inkscape:label="SECTIONCUTEDGES"
     id="g3920" />
</svg>
