  0
SECTION
  2
HEADER
  9
$ACADVER
  1
AC1014
  9
$ACADMAINTVER
 70
     9
  9
$DWGCODEPAGE
  3
ANSI_1252
  9
$INSBASE
 10
0.0
 20
0.0
 30
0.0
  9
$EXTMIN
 10
1.000000000000000E+20
 20
1.000000000000000E+20
 30
1.000000000000000E+20
  9
$EXTMAX
 10
-1.000000000000000E+20
 20
-1.000000000000000E+20
 30
-1.000000000000000E+20
  9
$LIMMIN
 10
0.0
 20
0.0
  9
$LIMMAX
 10
12.0
 20
9.0
  9
$ORTHOMODE
 70
     0
  9
$REGENMODE
 70
     1
  9
$FILLMODE
 70
     1
  9
$QTEXTMODE
 70
     0
  9
$MIRRTEXT
 70
     1
  9
$DRAGMODE
 70
     2
  9
$LTSCALE
 40
1.0
  9
$OSMODE
 70
    37
  9
$ATTMODE
 70
     1
  9
$TEXTSIZE
 40
0.2
  9
$TRACEWID
 40
0.05
  9
$TEXTSTYLE
  7
STANDARD
  9
$CLAYER
  8
0
  9
$CELTYPE
  6
BYLAYER
  9
$CECOLOR
 62
   256
  9
$CELTSCALE
 40
1.0
  9
$DELOBJ
 70
     1
  9
$DISPSILH
 70
     0
  9
$DIMSCALE
 40
1.0
  9
$DIMASZ
 40
0.18
  9
$DIMEXO
 40
0.0625
  9
$DIMDLI
 40
0.38
  9
$DIMRND
 40
0.0
  9
$DIMDLE
 40
0.0
  9
$DIMEXE
 40
0.18
  9
$DIMTP
 40
0.0
  9
$DIMTM
 40
0.0
  9
$DIMTXT
 40
0.18
  9
$DIMCEN
 40
0.09
  9
$DIMTSZ
 40
0.0
  9
$DIMTOL
 70
     0
  9
$DIMLIM
 70
     0
  9
$DIMTIH
 70
     1
  9
$DIMTOH
 70
     1
  9
$DIMSE1
 70
     0
  9
$DIMSE2
 70
     0
  9
$DIMTAD
 70
     0
  9
$DIMZIN
 70
     0
  9
$DIMBLK
  1

  9
$DIMASO
 70
     1
  9
$DIMSHO
 70
     1
  9
$DIMPOST
  1

  9
$DIMAPOST
  1

  9
$DIMALT
 70
     0
  9
$DIMALTD
 70
     2
  9
$DIMALTF
 40
25.4
  9
$DIMLFAC
 40
1.0
  9
$DIMTOFL
 70
     0
  9
$DIMTVP
 40
0.0
  9
$DIMTIX
 70
     0
  9
$DIMSOXD
 70
     0
  9
$DIMSAH
 70
     0
  9
$DIMBLK1
  1

  9
$DIMBLK2
  1

  9
$DIMSTYLE
  2
STANDARD
  9
$DIMCLRD
 70
     0
  9
$DIMCLRE
 70
     0
  9
$DIMCLRT
 70
     0
  9
$DIMTFAC
 40
1.0
  9
$DIMGAP
 40
0.09
  9
$DIMJUST
 70
     0
  9
$DIMSD1
 70
     0
  9
$DIMSD2
 70
     0
  9
$DIMTOLJ
 70
     1
  9
$DIMTZIN
 70
     0
  9
$DIMALTZ
 70
     0
  9
$DIMALTTZ
 70
     0
  9
$DIMFIT
 70
     3
  9
$DIMUPT
 70
     0
  9
$DIMUNIT
 70
     2
  9
$DIMDEC
 70
     4
  9
$DIMTDEC
 70
     4
  9
$DIMALTU
 70
     2
  9
$DIMALTTD
 70
     2
  9
$DIMTXSTY
  7
STANDARD
  9
$DIMAUNIT
 70
     0
  9
$LUNITS
 70
     2
  9
$LUPREC
 70
     4
  9
$SKETCHINC
 40
0.1
  9
$FILLETRAD
 40
0.5
  9
$AUNITS
 70
     0
  9
$AUPREC
 70
     0
  9
$MENU
  1
.
  9
$ELEVATION
 40
0.0
  9
$PELEVATION
 40
0.0
  9
$THICKNESS
 40
0.0
  9
$LIMCHECK
 70
     0
  9
$CHAMFERA
 40
0.0
  9
$CHAMFERB
 40
0.0
  9
$CHAMFERC
 40
0.0
  9
$CHAMFERD
 40
0.0
  9
$SKPOLY
 70
     0
  9
$TDCREATE
 40
2458084.55991537
  9
$TDUPDATE
 40
2458084.559916065
  9
$TDINDWG
 40
0.0000000116
  9
$TDUSRTIMER
 40
0.0000000116
  9
$USRTIMER
 70
     1
  9
$ANGBASE
 50
0.0
  9
$ANGDIR
 70
     0
  9
$PDMODE
 70
     0
  9
$PDSIZE
 40
0.0
  9
$PLINEWID
 40
0.0
  9
$COORDS
 70
     1
  9
$SPLFRAME
 70
     0
  9
$SPLINETYPE
 70
     6
  9
$SPLINESEGS
 70
     8
  9
$ATTDIA
 70
     0
  9
$ATTREQ
 70
     1
  9
$HANDLING
 70
     1
  9
$HANDSEED
  5
2D3
  9
$SURFTAB1
 70
     6
  9
$SURFTAB2
 70
     6
  9
$SURFTYPE
 70
     6
  9
$SURFU
 70
     6
  9
$SURFV
 70
     6
  9
$UCSNAME
  2

  9
$UCSORG
 10
0.0
 20
0.0
 30
0.0
  9
$UCSXDIR
 10
1.0
 20
0.0
 30
0.0
  9
$UCSYDIR
 10
0.0
 20
1.0
 30
0.0
  9
$PUCSNAME
  2

  9
$PUCSORG
 10
0.0
 20
0.0
 30
0.0
  9
$PUCSXDIR
 10
1.0
 20
0.0
 30
0.0
  9
$PUCSYDIR
 10
0.0
 20
1.0
 30
0.0
  9
$USERI1
 70
     0
  9
$USERI2
 70
     0
  9
$USERI3
 70
     0
  9
$USERI4
 70
     0
  9
$USERI5
 70
     0
  9
$USERR1
 40
0.0
  9
$USERR2
 40
0.0
  9
$USERR3
 40
0.0
  9
$USERR4
 40
0.0
  9
$USERR5
 40
0.0
  9
$WORLDVIEW
 70
     1
  9
$SHADEDGE
 70
     3
  9
$SHADEDIF
 70
    70
  9
$TILEMODE
 70
     1
  9
$MAXACTVP
 70
    64
  9
$PINSBASE
 10
0.0
 20
0.0
 30
0.0
  9
$PLIMCHECK
 70
     0
  9
$PEXTMIN
 10
1.000000000000000E+20
 20
1.000000000000000E+20
 30
1.000000000000000E+20
  9
$PEXTMAX
 10
-1.000000000000000E+20
 20
-1.000000000000000E+20
 30
-1.000000000000000E+20
  9
$PLIMMIN
 10
0.0
 20
0.0
  9
$PLIMMAX
 10
12.0
 20
9.0
  9
$UNITMODE
 70
     0
  9
$VISRETAIN
 70
     1
  9
$PLINEGEN
 70
     0
  9
$PSLTSCALE
 70
     1
  9
$TREEDEPTH
 70
  3020
  9
$PICKSTYLE
 70
     1
  9
$CMLSTYLE
  2
STANDARD
  9
$CMLJUST
 70
     0
  9
$CMLSCALE
 40
1.0
  9
$PROXYGRAPHICS
 70
     1
  9
$MEASUREMENT
 70
     1
  0
ENDSEC
  0
SECTION
  2
CLASSES
  0
CLASS
  1
ACDBDICTIONARYWDFLT
  2
AcDbDictionaryWithDefault
  3
ObjectDBX Classes
 90
        0
280
     0
281
     0
  0
CLASS
  1
VISUALSTYLE
  2
AcDbVisualStyle
  3
ObjectDBX Classes
 90
     4095
280
     0
281
     0
  0
CLASS
  1
MATERIAL
  2
AcDbMaterial
  3
ObjectDBX Classes
 90
     1153
280
     0
281
     0
  0
CLASS
  1
SCALE
  2
AcDbScale
  3
ObjectDBX Classes
 90
     1153
280
     0
281
     0
  0
CLASS
  1
TABLESTYLE
  2
AcDbTableStyle
  3
ObjectDBX Classes
 90
     4095
280
     0
281
     0
  0
CLASS
  1
MLEADERSTYLE
  2
AcDbMLeaderStyle
  3
ACDB_MLEADERSTYLE_CLASS
 90
     4095
280
     0
281
     0
  0
CLASS
  1
SUN
  2
AcDbSun
  3
SCENEOE
 90
     1153
280
     0
281
     0
  0
CLASS
  1
DICTIONARYVAR
  2
AcDbDictionaryVar
  3
ObjectDBX Classes
 90
        0
280
     0
281
     0
  0
CLASS
  1
XRECORD
  2
AcDbXrecord
  3
ObjectDBX Classes
 90
        0
280
     0
281
     0
  0
CLASS
  1
LWPOLYLINE
  2
AcDbPolyline
  3
ObjectDBX Classes
 90
        0
280
     0
281
     1
  0
CLASS
  1
HATCH
  2
AcDbHatch
  3
ObjectDBX Classes
 90
        0
280
     0
281
     1
  0
CLASS
  1
ACDBPLACEHOLDER
  2
AcDbPlaceHolder
  3
ObjectDBX Classes
 90
        0
280
     0
281
     0
  0
CLASS
  1
LAYOUT
  2
AcDbLayout
  3
ObjectDBX Classes
 90
        0
280
     0
281
     0
  0
ENDSEC
  0
SECTION
  2
TABLES
  0
TABLE
  2
VPORT
  5
8
102
{ACAD_XDICTIONARY
360
2C8
102
}
330
0
100
AcDbSymbolTable
 70
     1
  0
VPORT
  5
29
330
8
100
AcDbSymbolTableRecord
100
AcDbViewportTableRecord
  2
*ACTIVE
 70
     0
 10
0.0
 20
0.0
 11
1.0
 21
1.0
 12
0.0
 22
0.0
 13
0.0
 23
0.0
 14
0.5
 24
0.5
 15
0.5
 25
0.5
 16
0.0
 26
0.0
 36
1.0
 17
0.0
 27
0.0
 37
-1000.0
 40
253.3803897556439
 41
1.616
 42
50.0
 43
0.1690545800497213
 44
169.0545800497213
 50
0.0
 51
0.0
 71
     0
 72
   100
 73
     1
 74
     3
 75
     0
 76
     0
 77
     0
 78
     0
  0
ENDTAB
  0
TABLE
  2
LTYPE
  5
5
330
0
100
AcDbSymbolTable
 70
     1
  0
LTYPE
  5
14
330
5
100
AcDbSymbolTableRecord
100
AcDbLinetypeTableRecord
  2
BYBLOCK
 70
     0
  3

 72
    65
 73
     0
 40
0.0
  0
LTYPE
  5
15
330
5
100
AcDbSymbolTableRecord
100
AcDbLinetypeTableRecord
  2
BYLAYER
 70
     0
  3

 72
    65
 73
     0
 40
0.0
  0
LTYPE
  5
16
330
5
100
AcDbSymbolTableRecord
100
AcDbLinetypeTableRecord
  2
CONTINUOUS
 70
     0
  3
Solid line
 72
    65
 73
     0
 40
0.0
  0
ENDTAB
  0
TABLE
  2
LAYER
  5
2
330
0
100
AcDbSymbolTable
 70
     3
  0
LAYER
  5
10
330
2
100
AcDbSymbolTableRecord
100
AcDbLayerTableRecord
  2
0
 70
     0
 62
     7
  6
CONTINUOUS
  0
LAYER
  5
6E
330
2
100
AcDbSymbolTableRecord
100
AcDbLayerTableRecord
  2
PROFILEEDGES
 70
     0
 62
     7
  6
CONTINUOUS
  0
LAYER
  5
6F
330
2
100
AcDbSymbolTableRecord
100
AcDbLayerTableRecord
  2
SECTIONCUTEDGES
 70
     0
 62
     7
  6
CONTINUOUS
  0
ENDTAB
  0
TABLE
  2
STYLE
  5
3
330
0
100
AcDbSymbolTable
 70
     1
  0
STYLE
  5
11
330
3
100
AcDbSymbolTableRecord
100
AcDbTextStyleTableRecord
  2
STANDARD
 70
     0
 40
0.0
 41
1.0
 50
0.0
 71
     0
 42
0.2
  3
txt
  4

  0
ENDTAB
  0
TABLE
  2
VIEW
  5
6
330
0
100
AcDbSymbolTable
 70
     0
  0
ENDTAB
  0
TABLE
  2
UCS
  5
7
330
0
100
AcDbSymbolTable
 70
     0
  0
ENDTAB
  0
TABLE
  2
APPID
  5
9
330
0
100
AcDbSymbolTable
 70
     2
  0
APPID
  5
12
330
9
100
AcDbSymbolTableRecord
100
AcDbRegAppTableRecord
  2
ACAD
 70
     0
  0
APPID
  5
2D2
330
9
100
AcDbSymbolTableRecord
100
AcDbRegAppTableRecord
  2
ACAD_MLEADERVER
 70
     0
  0
ENDTAB
  0
TABLE
  2
DIMSTYLE
  5
A
330
0
100
AcDbSymbolTable
 70
     1
  0
DIMSTYLE
105
27
330
A
100
AcDbSymbolTableRecord
100
AcDbDimStyleTableRecord
  2
STANDARD
 70
     0
  3

  4

  5

  6

  7

 40
1.0
 41
0.18
 42
0.0625
 43
0.38
 44
0.18
 45
0.0
 46
0.0
 47
0.0
 48
0.0
140
0.18
141
0.09
142
0.0
143
25.4
144
1.0
145
0.0
146
1.0
147
0.09
 71
     0
 72
     0
 73
     1
 74
     1
 75
     0
 76
     0
 77
     0
 78
     0
170
     0
171
     2
172
     0
173
     0
174
     0
175
     0
176
     0
177
     0
178
     0
270
     2
271
     4
272
     4
273
     2
274
     2
340
11
275
     0
280
     0
281
     0
282
     0
283
     1
284
     0
285
     0
286
     0
287
     3
288
     0
  0
ENDTAB
  0
TABLE
  2
BLOCK_RECORD
  5
1
330
0
100
AcDbSymbolTable
 70
     1
  0
BLOCK_RECORD
  5
1F
330
1
100
AcDbSymbolTableRecord
100
AcDbBlockTableRecord
  2
*MODEL_SPACE
  0
BLOCK_RECORD
  5
1B
330
1
100
AcDbSymbolTableRecord
100
AcDbBlockTableRecord
  2
*PAPER_SPACE
  0
ENDTAB
  0
ENDSEC
  0
SECTION
  2
BLOCKS
  0
BLOCK
  5
20
330
1F
100
AcDbEntity
  8
0
100
AcDbBlockBegin
  2
*MODEL_SPACE
 70
     0
 10
0.0
 20
0.0
 30
0.0
  3
*MODEL_SPACE
  1

  0
ENDBLK
  5
21
330
1F
100
AcDbEntity
  8
0
100
AcDbBlockEnd
  0
BLOCK
  5
1C
330
1B
100
AcDbEntity
 67
     1
  8
0
100
AcDbBlockBegin
  2
*PAPER_SPACE
 70
     0
 10
0.0
 20
0.0
 30
0.0
  3
*PAPER_SPACE
  1

  0
ENDBLK
  5
1D
330
1B
100
AcDbEntity
 67
     1
  8
0
100
AcDbBlockEnd
  0
ENDSEC
  0
SECTION
  2
ENTITIES
  0
LWPOLYLINE
  5
70
330
1F
100
AcDbEntity
  8
PROFILEEDGES
100
AcDbPolyline
 90
        2
 70
     0
 43
0.8108172472180606
 10
-70.91836893030198
 20
-96.01348186784443
 10
-70.91836893030198
 20
-92.01348186784445
  0
LWPOLYLINE
  5
71
330
1F
100
AcDbEntity
  8
PROFILEEDGES
100
AcDbPolyline
 90
        2
 70
     0
 43
0.8108172472180606
 10
-120.9183689303019
 20
95.98651813215541
 10
-120.9183689303019
 20
63.98651813215538
  0
LWPOLYLINE
  5
72
330
1F
100
AcDbEntity
  8
PROFILEEDGES
100
AcDbPolyline
 90
        2
 70
     0
 43
0.8108172472180606
 10
-120.9183689303019
 20
103.9865181321554
 10
-120.9183689303019
 20
99.98651813215541
  0
LWPOLYLINE
  5
73
330
1F
100
AcDbEntity
  8
PROFILEEDGES
100
AcDbPolyline
 90
        2
 70
     0
 43
0.8108172472180606
 10
-70.9183689303019
 20
99.98651813215557
 10
-70.9183689303019
 20
103.9865181321556
  0
LWPOLYLINE
  5
74
330
1F
100
AcDbEntity
  8
PROFILEEDGES
100
AcDbPolyline
 90
        2
 70
     0
 43
0.8108172472180606
 10
-70.91836893030198
 20
-88.01348186784445
 10
-66.91836893030195
 20
-88.01348186784445
  0
LWPOLYLINE
  5
75
330
1F
100
AcDbEntity
  8
PROFILEEDGES
100
AcDbPolyline
 90
        2
 70
     0
 43
0.8108172472180606
 10
-120.918368930302
 20
-92.0134818678446
 10
-120.918368930302
 20
-96.01348186784459
  0
LWPOLYLINE
  5
76
330
1F
100
AcDbEntity
  8
PROFILEEDGES
100
AcDbPolyline
 90
        2
 70
     0
 43
0.8108172472180606
 10
-120.918368930302
 20
-96.01348186784459
 10
-70.91836893030198
 20
-96.01348186784443
  0
LWPOLYLINE
  5
77
330
1F
100
AcDbEntity
  8
PROFILEEDGES
100
AcDbPolyline
 90
        2
 70
     0
 43
0.8108172472180606
 10
-70.91836893030198
 20
-88.01348186784445
 10
-70.91836893030192
 20
-56.0134818678445
  0
LWPOLYLINE
  5
78
330
1F
100
AcDbEntity
  8
PROFILEEDGES
100
AcDbPolyline
 90
        2
 70
     0
 43
0.8108172472180606
 10
-66.9183689303019
 20
5.98651813215556
 10
-66.9183689303019
 20
1.986518132155477
  0
LWPOLYLINE
  5
79
330
1F
100
AcDbEntity
  8
PROFILEEDGES
100
AcDbPolyline
 90
        2
 70
     0
 43
0.8108172472180606
 10
-66.9183689303019
 20
1.986518132155477
 10
-70.91836893030192
 20
1.986518132155477
  0
LWPOLYLINE
  5
7A
330
1F
100
AcDbEntity
  8
PROFILEEDGES
100
AcDbPolyline
 90
        2
 70
     0
 43
0.8108172472180606
 10
-66.91836893030195
 20
-92.01348186784445
 10
-70.91836893030198
 20
-92.01348186784445
  0
LWPOLYLINE
  5
7B
330
1F
100
AcDbEntity
  8
PROFILEEDGES
100
AcDbPolyline
 90
        2
 70
     0
 43
0.8108172472180606
 10
-124.9183689303019
 20
99.98651813215541
 10
-120.9183689303019
 20
99.98651813215541
  0
LWPOLYLINE
  5
7C
330
1F
100
AcDbEntity
  8
PROFILEEDGES
100
AcDbPolyline
 90
        2
 70
     0
 43
0.8108172472180606
 10
-70.91836893030192
 20
5.98651813215556
 10
-70.91836893030188
 20
59.98651813215546
  0
LWPOLYLINE
  5
7D
330
1F
100
AcDbEntity
  8
PROFILEEDGES
100
AcDbPolyline
 90
        2
 70
     0
 43
0.8108172472180606
 10
-66.91836893030195
 20
-88.01348186784445
 10
-66.91836893030195
 20
-92.01348186784445
  0
LWPOLYLINE
  5
7E
330
1F
100
AcDbEntity
  8
PROFILEEDGES
100
AcDbPolyline
 90
        2
 70
     0
 43
0.8108172472180606
 10
-77.41836893030194
 20
-56.0134818678445
 10
-77.41836893030194
 20
-57.51348186784453
  0
LWPOLYLINE
  5
7F
330
1F
100
AcDbEntity
  8
PROFILEEDGES
100
AcDbPolyline
 90
        2
 70
     0
 43
0.8108172472180606
 10
-80.91836893030191
 20
59.98651813215546
 10
-85.9183689303019
 20
59.98651813215547
  0
LWPOLYLINE
  5
80
330
1F
100
AcDbEntity
  8
PROFILEEDGES
100
AcDbPolyline
 90
        2
 70
     0
 43
0.8108172472180606
 10
-77.41836893030194
 20
-57.51348186784453
 10
-80.91836893030194
 20
-57.51348186784453
  0
LWPOLYLINE
  5
81
330
1F
100
AcDbEntity
  8
PROFILEEDGES
100
AcDbPolyline
 90
        2
 70
     0
 43
0.8108172472180606
 10
-120.9183689303019
 20
1.986518132155409
 10
-120.9183689303021
 20
-52.01348186784458
  0
LWPOLYLINE
  5
82
330
1F
100
AcDbEntity
  8
PROFILEEDGES
100
AcDbPolyline
 90
        2
 70
     0
 43
0.8108172472180606
 10
-120.9183689303019
 20
-56.01348186784458
 10
-120.918368930302
 20
-88.0134818678446
  0
LWPOLYLINE
  5
83
330
1F
100
AcDbEntity
  8
PROFILEEDGES
100
AcDbPolyline
 90
        2
 70
     0
 43
0.8108172472180606
 10
-124.9183689303019
 20
1.986518132155409
 10
-124.9183689303019
 20
5.986518132155402
  0
LWPOLYLINE
  5
84
330
1F
100
AcDbEntity
  8
PROFILEEDGES
100
AcDbPolyline
 90
        2
 70
     0
 43
0.8108172472180606
 10
-124.9183689303019
 20
5.986518132155402
 10
-120.9183689303019
 20
5.986518132155402
  0
LWPOLYLINE
  5
85
330
1F
100
AcDbEntity
  8
PROFILEEDGES
100
AcDbPolyline
 90
        2
 70
     0
 43
0.8108172472180606
 10
-70.91836893030192
 20
5.98651813215556
 10
-66.9183689303019
 20
5.98651813215556
  0
LWPOLYLINE
  5
86
330
1F
100
AcDbEntity
  8
PROFILEEDGES
100
AcDbPolyline
 90
        2
 70
     0
 43
0.8108172472180606
 10
-124.9183689303019
 20
-88.0134818678446
 10
-120.918368930302
 20
-88.0134818678446
  0
LWPOLYLINE
  5
87
330
1F
100
AcDbEntity
  8
PROFILEEDGES
100
AcDbPolyline
 90
        2
 70
     0
 43
0.8108172472180606
 10
-70.91836893030192
 20
-52.01348186784451
 10
-70.91836893030192
 20
1.986518132155477
  0
LWPOLYLINE
  5
88
330
1F
100
AcDbEntity
  8
PROFILEEDGES
100
AcDbPolyline
 90
        2
 70
     0
 43
0.8108172472180606
 10
-124.9183689303019
 20
-92.0134818678446
 10
-124.9183689303019
 20
-88.0134818678446
  0
LWPOLYLINE
  5
89
330
1F
100
AcDbEntity
  8
PROFILEEDGES
100
AcDbPolyline
 90
        2
 70
     0
 43
0.8108172472180606
 10
-70.9183689303019
 20
103.9865181321556
 10
-120.9183689303019
 20
103.9865181321554
  0
LWPOLYLINE
  5
8A
330
1F
100
AcDbEntity
  8
PROFILEEDGES
100
AcDbPolyline
 90
        2
 70
     0
 43
0.8108172472180606
 10
-120.9183689303019
 20
59.9865181321554
 10
-120.9183689303019
 20
5.986518132155402
  0
LWPOLYLINE
  5
8B
330
1F
100
AcDbEntity
  8
PROFILEEDGES
100
AcDbPolyline
 90
        2
 70
     0
 43
0.8108172472180606
 10
-120.9183689303021
 20
-52.01348186784458
 10
-114.4183689303019
 20
-52.01348186784458
  0
LWPOLYLINE
  5
8C
330
1F
100
AcDbEntity
  8
PROFILEEDGES
100
AcDbPolyline
 90
        2
 70
     0
 43
0.8108172472180606
 10
-110.9183689303019
 20
-52.01348186784458
 10
-105.9183689303019
 20
-52.01348186784458
  0
LWPOLYLINE
  5
8D
330
1F
100
AcDbEntity
  8
PROFILEEDGES
100
AcDbPolyline
 90
        2
 70
     0
 43
0.8108172472180606
 10
-110.9183689303019
 20
-56.01348186784458
 10
-110.9183689303019
 20
-57.5134818678446
  0
LWPOLYLINE
  5
8E
330
1F
100
AcDbEntity
  8
PROFILEEDGES
100
AcDbPolyline
 90
        2
 70
     0
 43
0.8108172472180606
 10
-120.918368930302
 20
-92.0134818678446
 10
-124.9183689303019
 20
-92.0134818678446
  0
LWPOLYLINE
  5
8F
330
1F
100
AcDbEntity
  8
PROFILEEDGES
100
AcDbPolyline
 90
        2
 70
     0
 43
0.8108172472180606
 10
-77.41836893030194
 20
-56.0134818678445
 10
-70.91836893030192
 20
-56.0134818678445
  0
LWPOLYLINE
  5
90
330
1F
100
AcDbEntity
  8
PROFILEEDGES
100
AcDbPolyline
 90
        2
 70
     0
 43
0.8108172472180606
 10
-80.91836893030194
 20
-57.51348186784453
 10
-80.91836893030194
 20
-56.0134818678445
  0
LWPOLYLINE
  5
91
330
1F
100
AcDbEntity
  8
PROFILEEDGES
100
AcDbPolyline
 90
        2
 70
     0
 43
0.8108172472180606
 10
-85.91836893030194
 20
-56.0134818678445
 10
-80.91836893030194
 20
-56.0134818678445
  0
LWPOLYLINE
  5
92
330
1F
100
AcDbEntity
  8
PROFILEEDGES
100
AcDbPolyline
 90
        2
 70
     0
 43
0.8108172472180606
 10
-85.91836893030194
 20
-52.01348186784451
 10
-85.91836893030194
 20
-56.0134818678445
  0
LWPOLYLINE
  5
93
330
1F
100
AcDbEntity
  8
PROFILEEDGES
100
AcDbPolyline
 90
        2
 70
     0
 43
0.8108172472180606
 10
-85.91836893030194
 20
-52.01348186784451
 10
-80.91836893030194
 20
-52.01348186784451
  0
LWPOLYLINE
  5
94
330
1F
100
AcDbEntity
  8
PROFILEEDGES
100
AcDbPolyline
 90
        2
 70
     0
 43
0.8108172472180606
 10
-80.91836893030194
 20
-52.01348186784451
 10
-80.91836893030194
 20
-50.5134818678445
  0
LWPOLYLINE
  5
95
330
1F
100
AcDbEntity
  8
PROFILEEDGES
100
AcDbPolyline
 90
        2
 70
     0
 43
0.8108172472180606
 10
-80.91836893030194
 20
-50.5134818678445
 10
-77.41836893030194
 20
-50.5134818678445
  0
LWPOLYLINE
  5
96
330
1F
100
AcDbEntity
  8
PROFILEEDGES
100
AcDbPolyline
 90
        2
 70
     0
 43
0.8108172472180606
 10
-77.41836893030194
 20
-50.5134818678445
 10
-77.41836893030194
 20
-52.01348186784451
  0
LWPOLYLINE
  5
97
330
1F
100
AcDbEntity
  8
PROFILEEDGES
100
AcDbPolyline
 90
        2
 70
     0
 43
0.8108172472180606
 10
-77.41836893030194
 20
-52.01348186784451
 10
-70.91836893030192
 20
-52.01348186784451
  0
LWPOLYLINE
  5
98
330
1F
100
AcDbEntity
  8
PROFILEEDGES
100
AcDbPolyline
 90
        2
 70
     0
 43
0.8108172472180606
 10
-77.4183689303019
 20
59.98651813215546
 10
-70.91836893030188
 20
59.98651813215546
  0
LWPOLYLINE
  5
99
330
1F
100
AcDbEntity
  8
PROFILEEDGES
100
AcDbPolyline
 90
        2
 70
     0
 43
0.8108172472180606
 10
-77.4183689303019
 20
59.98651813215546
 10
-77.4183689303019
 20
58.48651813215544
  0
LWPOLYLINE
  5
9A
330
1F
100
AcDbEntity
  8
PROFILEEDGES
100
AcDbPolyline
 90
        2
 70
     0
 43
0.8108172472180606
 10
-77.4183689303019
 20
58.48651813215544
 10
-80.91836893030191
 20
58.48651813215544
  0
LWPOLYLINE
  5
9B
330
1F
100
AcDbEntity
  8
PROFILEEDGES
100
AcDbPolyline
 90
        2
 70
     0
 43
0.8108172472180606
 10
-80.91836893030191
 20
58.48651813215544
 10
-80.91836893030191
 20
59.98651813215546
  0
LWPOLYLINE
  5
9C
330
1F
100
AcDbEntity
  8
PROFILEEDGES
100
AcDbPolyline
 90
        2
 70
     0
 43
0.8108172472180606
 10
-85.9183689303019
 20
63.98651813215547
 10
-85.9183689303019
 20
59.98651813215547
  0
LWPOLYLINE
  5
9D
330
1F
100
AcDbEntity
  8
PROFILEEDGES
100
AcDbPolyline
 90
        2
 70
     0
 43
0.8108172472180606
 10
-85.9183689303019
 20
63.98651813215547
 10
-80.91836893030191
 20
63.98651813215545
  0
LWPOLYLINE
  5
9E
330
1F
100
AcDbEntity
  8
PROFILEEDGES
100
AcDbPolyline
 90
        2
 70
     0
 43
0.8108172472180606
 10
-80.91836893030191
 20
63.98651813215545
 10
-80.91836893030188
 20
65.48651813215547
  0
LWPOLYLINE
  5
9F
330
1F
100
AcDbEntity
  8
PROFILEEDGES
100
AcDbPolyline
 90
        2
 70
     0
 43
0.8108172472180606
 10
-80.91836893030188
 20
65.48651813215547
 10
-77.4183689303019
 20
65.48651813215547
  0
LWPOLYLINE
  5
A0
330
1F
100
AcDbEntity
  8
PROFILEEDGES
100
AcDbPolyline
 90
        2
 70
     0
 43
0.8108172472180606
 10
-77.4183689303019
 20
65.48651813215547
 10
-77.4183689303019
 20
63.98651813215545
  0
LWPOLYLINE
  5
A1
330
1F
100
AcDbEntity
  8
PROFILEEDGES
100
AcDbPolyline
 90
        2
 70
     0
 43
0.8108172472180606
 10
-77.4183689303019
 20
63.98651813215545
 10
-70.91836893030188
 20
63.98651813215555
  0
LWPOLYLINE
  5
A2
330
1F
100
AcDbEntity
  8
PROFILEEDGES
100
AcDbPolyline
 90
        2
 70
     0
 43
0.8108172472180606
 10
-70.91836893030188
 20
63.98651813215555
 10
-70.9183689303019
 20
95.98651813215558
  0
LWPOLYLINE
  5
A3
330
1F
100
AcDbEntity
  8
PROFILEEDGES
100
AcDbPolyline
 90
        2
 70
     0
 43
0.8108172472180606
 10
-66.9183689303019
 20
95.98651813215558
 10
-70.9183689303019
 20
95.98651813215558
  0
LWPOLYLINE
  5
A4
330
1F
100
AcDbEntity
  8
PROFILEEDGES
100
AcDbPolyline
 90
        2
 70
     0
 43
0.8108172472180606
 10
-66.9183689303019
 20
99.98651813215557
 10
-66.9183689303019
 20
95.98651813215558
  0
LWPOLYLINE
  5
A5
330
1F
100
AcDbEntity
  8
PROFILEEDGES
100
AcDbPolyline
 90
        2
 70
     0
 43
0.8108172472180606
 10
-70.9183689303019
 20
99.98651813215557
 10
-66.9183689303019
 20
99.98651813215557
  0
LWPOLYLINE
  5
A6
330
1F
100
AcDbEntity
  8
PROFILEEDGES
100
AcDbPolyline
 90
        2
 70
     0
 43
0.8108172472180606
 10
-124.9183689303019
 20
95.98651813215541
 10
-124.9183689303019
 20
99.98651813215541
  0
LWPOLYLINE
  5
A7
330
1F
100
AcDbEntity
  8
PROFILEEDGES
100
AcDbPolyline
 90
        2
 70
     0
 43
0.8108172472180606
 10
-120.9183689303019
 20
95.98651813215541
 10
-124.9183689303019
 20
95.98651813215541
  0
LWPOLYLINE
  5
A8
330
1F
100
AcDbEntity
  8
PROFILEEDGES
100
AcDbPolyline
 90
        2
 70
     0
 43
0.8108172472180606
 10
-114.4183689303019
 20
63.98651813215538
 10
-120.9183689303019
 20
63.98651813215538
  0
LWPOLYLINE
  5
A9
330
1F
100
AcDbEntity
  8
PROFILEEDGES
100
AcDbPolyline
 90
        2
 70
     0
 43
0.8108172472180606
 10
-114.4183689303019
 20
63.98651813215538
 10
-114.4183689303019
 20
65.48651813215541
  0
LWPOLYLINE
  5
AA
330
1F
100
AcDbEntity
  8
PROFILEEDGES
100
AcDbPolyline
 90
        2
 70
     0
 43
0.8108172472180606
 10
-114.4183689303019
 20
65.48651813215541
 10
-110.9183689303019
 20
65.48651813215541
  0
LWPOLYLINE
  5
AB
330
1F
100
AcDbEntity
  8
PROFILEEDGES
100
AcDbPolyline
 90
        2
 70
     0
 43
0.8108172472180606
 10
-110.9183689303019
 20
65.48651813215541
 10
-110.9183689303019
 20
63.98651813215538
  0
LWPOLYLINE
  5
AC
330
1F
100
AcDbEntity
  8
PROFILEEDGES
100
AcDbPolyline
 90
        2
 70
     0
 43
0.8108172472180606
 10
-105.9183689303019
 20
63.98651813215538
 10
-110.9183689303019
 20
63.98651813215538
  0
LWPOLYLINE
  5
AD
330
1F
100
AcDbEntity
  8
PROFILEEDGES
100
AcDbPolyline
 90
        2
 70
     0
 43
0.8108172472180606
 10
-105.9183689303019
 20
59.9865181321554
 10
-105.9183689303019
 20
63.98651813215538
  0
LWPOLYLINE
  5
AE
330
1F
100
AcDbEntity
  8
PROFILEEDGES
100
AcDbPolyline
 90
        2
 70
     0
 43
0.8108172472180606
 10
-105.9183689303019
 20
59.9865181321554
 10
-110.9183689303019
 20
59.9865181321554
  0
LWPOLYLINE
  5
AF
330
1F
100
AcDbEntity
  8
PROFILEEDGES
100
AcDbPolyline
 90
        2
 70
     0
 43
0.8108172472180606
 10
-110.9183689303019
 20
59.9865181321554
 10
-110.9183689303019
 20
58.48651813215546
  0
LWPOLYLINE
  5
B0
330
1F
100
AcDbEntity
  8
PROFILEEDGES
100
AcDbPolyline
 90
        2
 70
     0
 43
0.8108172472180606
 10
-110.9183689303019
 20
58.48651813215546
 10
-114.4183689303019
 20
58.48651813215546
  0
LWPOLYLINE
  5
B1
330
1F
100
AcDbEntity
  8
PROFILEEDGES
100
AcDbPolyline
 90
        2
 70
     0
 43
0.8108172472180606
 10
-114.4183689303019
 20
58.48651813215546
 10
-114.4183689303019
 20
59.9865181321554
  0
LWPOLYLINE
  5
B2
330
1F
100
AcDbEntity
  8
PROFILEEDGES
100
AcDbPolyline
 90
        2
 70
     0
 43
0.8108172472180606
 10
-114.4183689303019
 20
59.9865181321554
 10
-120.9183689303019
 20
59.9865181321554
  0
LWPOLYLINE
  5
B3
330
1F
100
AcDbEntity
  8
PROFILEEDGES
100
AcDbPolyline
 90
        2
 70
     0
 43
0.8108172472180606
 10
-120.9183689303019
 20
1.986518132155409
 10
-124.9183689303019
 20
1.986518132155409
  0
LWPOLYLINE
  5
B4
330
1F
100
AcDbEntity
  8
PROFILEEDGES
100
AcDbPolyline
 90
        2
 70
     0
 43
0.8108172472180606
 10
-110.9183689303019
 20
-50.51348186784465
 10
-110.9183689303019
 20
-52.01348186784458
  0
LWPOLYLINE
  5
B5
330
1F
100
AcDbEntity
  8
PROFILEEDGES
100
AcDbPolyline
 90
        2
 70
     0
 43
0.8108172472180606
 10
-114.4183689303019
 20
-50.51348186784456
 10
-110.9183689303019
 20
-50.51348186784465
  0
LWPOLYLINE
  5
B6
330
1F
100
AcDbEntity
  8
PROFILEEDGES
100
AcDbPolyline
 90
        2
 70
     0
 43
0.8108172472180606
 10
-114.4183689303019
 20
-57.5134818678446
 10
-114.4183689303019
 20
-56.01348186784458
  0
LWPOLYLINE
  5
B7
330
1F
100
AcDbEntity
  8
PROFILEEDGES
100
AcDbPolyline
 90
        2
 70
     0
 43
0.8108172472180606
 10
-110.9183689303019
 20
-57.5134818678446
 10
-114.4183689303019
 20
-57.5134818678446
  0
LWPOLYLINE
  5
B8
330
1F
100
AcDbEntity
  8
PROFILEEDGES
100
AcDbPolyline
 90
        2
 70
     0
 43
0.8108172472180606
 10
-114.4183689303019
 20
-52.01348186784458
 10
-114.4183689303019
 20
-50.51348186784456
  0
LWPOLYLINE
  5
B9
330
1F
100
AcDbEntity
  8
PROFILEEDGES
100
AcDbPolyline
 90
        2
 70
     0
 43
0.8108172472180606
 10
-105.9183689303019
 20
-56.01348186784458
 10
-105.9183689303019
 20
-52.01348186784458
  0
LWPOLYLINE
  5
BA
330
1F
100
AcDbEntity
  8
PROFILEEDGES
100
AcDbPolyline
 90
        2
 70
     0
 43
0.8108172472180606
 10
-105.9183689303019
 20
-56.01348186784458
 10
-110.9183689303019
 20
-56.01348186784458
  0
LWPOLYLINE
  5
BB
330
1F
100
AcDbEntity
  8
PROFILEEDGES
100
AcDbPolyline
 90
        2
 70
     0
 43
0.8108172472180606
 10
-114.4183689303019
 20
-56.01348186784458
 10
-120.9183689303019
 20
-56.01348186784458
  0
LWPOLYLINE
  5
BC
330
1F
100
AcDbEntity
  8
PROFILEEDGES
100
AcDbPolyline
 90
        2
 70
     0
 43
0.8108172472180606
 10
138.0087212901561
 20
103.9865181321554
 10
138.0087212901561
 20
99.98651813215541
  0
LWPOLYLINE
  5
BD
330
1F
100
AcDbEntity
  8
PROFILEEDGES
100
AcDbPolyline
 90
        2
 70
     0
 43
0.8108172472180606
 10
142.0087212901558
 20
103.9865181321554
 10
138.0087212901561
 20
103.9865181321554
  0
LWPOLYLINE
  5
BE
330
1F
100
AcDbEntity
  8
PROFILEEDGES
100
AcDbPolyline
 90
        2
 70
     0
 43
0.8108172472180606
 10
142.0087212901558
 20
61.98651813215539
 10
142.0087212901558
 20
103.9865181321554
  0
LWPOLYLINE
  5
BF
330
1F
100
AcDbEntity
  8
PROFILEEDGES
100
AcDbPolyline
 90
        2
 70
     0
 43
0.8108172472180606
 10
138.0087212901558
 20
61.98651813215539
 10
142.0087212901558
 20
61.98651813215539
  0
LWPOLYLINE
  5
C0
330
1F
100
AcDbEntity
  8
PROFILEEDGES
100
AcDbPolyline
 90
        2
 70
     0
 43
0.8108172472180606
 10
-23.99127870984448
 20
61.98651813215539
 10
126.0087212901558
 20
61.98651813215539
  0
LWPOLYLINE
  5
C1
330
1F
100
AcDbEntity
  8
PROFILEEDGES
100
AcDbPolyline
 90
        2
 70
     0
 43
0.8108172472180606
 10
-23.99127870984445
 20
76.98651813215541
 10
-23.99127870984448
 20
61.98651813215539
  0
LWPOLYLINE
  5
C2
330
1F
100
AcDbEntity
  8
PROFILEEDGES
100
AcDbPolyline
 90
        2
 70
     0
 43
0.8108172472180606
 10
-26.99127870984456
 20
88.98651813215548
 10
-26.99127870984456
 20
76.98651813215541
  0
LWPOLYLINE
  5
C3
330
1F
100
AcDbEntity
  8
PROFILEEDGES
100
AcDbPolyline
 90
        2
 70
     0
 43
0.8108172472180606
 10
-23.99127870984445
 20
88.98651813215548
 10
-26.99127870984456
 20
88.98651813215548
  0
LWPOLYLINE
  5
C4
330
1F
100
AcDbEntity
  8
PROFILEEDGES
100
AcDbPolyline
 90
        2
 70
     0
 43
0.8108172472180606
 10
-23.99127870984448
 20
103.9865181321554
 10
-23.99127870984445
 20
88.98651813215548
  0
LWPOLYLINE
  5
C5
330
1F
100
AcDbEntity
  8
PROFILEEDGES
100
AcDbPolyline
 90
        2
 70
     0
 43
0.8108172472180606
 10
126.0087212901562
 20
103.9865181321554
 10
-23.99127870984448
 20
103.9865181321554
  0
LWPOLYLINE
  5
C6
330
1F
100
AcDbEntity
  8
PROFILEEDGES
100
AcDbPolyline
 90
        2
 70
     0
 43
0.8108172472180606
 10
128.5087212901558
 20
89.98651813215552
 10
128.5087212901558
 20
93.98651813215551
  0
LWPOLYLINE
  5
C7
330
1F
100
AcDbEntity
  8
PROFILEEDGES
100
AcDbPolyline
 90
        2
 70
     0
 43
0.8108172472180606
 10
134.0087212901558
 20
93.98651813215551
 10
135.5087212901558
 20
93.98651813215551
  0
LWPOLYLINE
  5
C8
330
1F
100
AcDbEntity
  8
PROFILEEDGES
100
AcDbPolyline
 90
        2
 70
     0
 43
0.8108172472180606
 10
134.0087212901561
 20
99.98651813215541
 10
134.0087212901558
 20
93.98651813215551
  0
LWPOLYLINE
  5
C9
330
1F
100
AcDbEntity
  8
PROFILEEDGES
100
AcDbPolyline
 90
        2
 70
     0
 43
0.8108172472180606
 10
130.0087212901559
 20
93.98651813215551
 10
130.0087212901561
 20
99.98651813215541
  0
LWPOLYLINE
  5
CA
330
1F
100
AcDbEntity
  8
PROFILEEDGES
100
AcDbPolyline
 90
        2
 70
     0
 43
0.8108172472180606
 10
130.0087212901561
 20
99.98651813215541
 10
126.0087212901562
 20
99.98651813215541
  0
LWPOLYLINE
  5
CB
330
1F
100
AcDbEntity
  8
PROFILEEDGES
100
AcDbPolyline
 90
        2
 70
     0
 43
0.8108172472180606
 10
126.0087212901562
 20
99.98651813215541
 10
126.0087212901562
 20
103.9865181321554
  0
LWPOLYLINE
  5
CC
330
1F
100
AcDbEntity
  8
PROFILEEDGES
100
AcDbPolyline
 90
        2
 70
     0
 43
0.8108172472180606
 10
-23.99127870984445
 20
76.98651813215541
 10
-26.99127870984456
 20
76.98651813215541
  0
LWPOLYLINE
  5
CD
330
1F
100
AcDbEntity
  8
PROFILEEDGES
100
AcDbPolyline
 90
        2
 70
     0
 43
0.8108172472180606
 10
126.0087212901558
 20
61.98651813215539
 10
126.0087212901558
 20
65.98651813215538
  0
LWPOLYLINE
  5
CE
330
1F
100
AcDbEntity
  8
PROFILEEDGES
100
AcDbPolyline
 90
        2
 70
     0
 43
0.8108172472180606
 10
126.0087212901558
 20
65.98651813215538
 10
130.0087212901559
 20
65.98651813215538
  0
LWPOLYLINE
  5
CF
330
1F
100
AcDbEntity
  8
PROFILEEDGES
100
AcDbPolyline
 90
        2
 70
     0
 43
0.8108172472180606
 10
130.0087212901559
 20
65.98651813215538
 10
130.0087212901558
 20
71.98651813215537
  0
LWPOLYLINE
  5
D0
330
1F
100
AcDbEntity
  8
PROFILEEDGES
100
AcDbPolyline
 90
        2
 70
     0
 43
0.8108172472180606
 10
130.0087212901558
 20
71.98651813215537
 10
128.5087212901557
 20
71.98651813215537
  0
LWPOLYLINE
  5
D1
330
1F
100
AcDbEntity
  8
PROFILEEDGES
100
AcDbPolyline
 90
        2
 70
     0
 43
0.8108172472180606
 10
128.5087212901557
 20
71.98651813215537
 10
128.5087212901557
 20
75.98651813215537
  0
LWPOLYLINE
  5
D2
330
1F
100
AcDbEntity
  8
PROFILEEDGES
100
AcDbPolyline
 90
        2
 70
     0
 43
0.8108172472180606
 10
128.5087212901557
 20
75.98651813215537
 10
135.5087212901558
 20
75.98651813215537
  0
LWPOLYLINE
  5
D3
330
1F
100
AcDbEntity
  8
PROFILEEDGES
100
AcDbPolyline
 90
        2
 70
     0
 43
0.8108172472180606
 10
135.5087212901558
 20
75.98651813215537
 10
135.5087212901558
 20
71.98651813215537
  0
LWPOLYLINE
  5
D4
330
1F
100
AcDbEntity
  8
PROFILEEDGES
100
AcDbPolyline
 90
        2
 70
     0
 43
0.8108172472180606
 10
135.5087212901558
 20
71.98651813215537
 10
134.0087212901557
 20
71.98651813215537
  0
LWPOLYLINE
  5
D5
330
1F
100
AcDbEntity
  8
PROFILEEDGES
100
AcDbPolyline
 90
        2
 70
     0
 43
0.8108172472180606
 10
134.0087212901557
 20
65.98651813215538
 10
134.0087212901557
 20
71.98651813215537
  0
LWPOLYLINE
  5
D6
330
1F
100
AcDbEntity
  8
PROFILEEDGES
100
AcDbPolyline
 90
        2
 70
     0
 43
0.8108172472180606
 10
134.0087212901557
 20
65.98651813215538
 10
138.0087212901559
 20
65.98651813215538
  0
LWPOLYLINE
  5
D7
330
1F
100
AcDbEntity
  8
PROFILEEDGES
100
AcDbPolyline
 90
        2
 70
     0
 43
0.8108172472180606
 10
138.0087212901559
 20
65.98651813215538
 10
138.0087212901558
 20
61.98651813215539
  0
LWPOLYLINE
  5
D8
330
1F
100
AcDbEntity
  8
PROFILEEDGES
100
AcDbPolyline
 90
        2
 70
     0
 43
0.8108172472180606
 10
138.0087212901561
 20
99.98651813215541
 10
134.0087212901561
 20
99.98651813215541
  0
LWPOLYLINE
  5
D9
330
1F
100
AcDbEntity
  8
PROFILEEDGES
100
AcDbPolyline
 90
        2
 70
     0
 43
0.8108172472180606
 10
135.5087212901558
 20
89.98651813215542
 10
128.5087212901558
 20
89.98651813215552
  0
LWPOLYLINE
  5
DA
330
1F
100
AcDbEntity
  8
PROFILEEDGES
100
AcDbPolyline
 90
        2
 70
     0
 43
0.8108172472180606
 10
128.5087212901558
 20
93.98651813215551
 10
130.0087212901559
 20
93.98651813215551
  0
LWPOLYLINE
  5
DB
330
1F
100
AcDbEntity
  8
PROFILEEDGES
100
AcDbPolyline
 90
        2
 70
     0
 43
0.8108172472180606
 10
135.5087212901558
 20
93.98651813215551
 10
135.5087212901558
 20
89.98651813215542
  0
LWPOLYLINE
  5
DC
330
1F
100
AcDbEntity
  8
PROFILEEDGES
100
AcDbPolyline
 90
        2
 70
     0
 43
0.8108172472180606
 10
50.85846089343443
 20
82.9865181321554
 10
50.9266092408563
 20
83.50415622236046
  0
LWPOLYLINE
  5
DD
330
1F
100
AcDbEntity
  8
PROFILEEDGES
100
AcDbPolyline
 90
        2
 70
     0
 43
0.8108172472180606
 10
50.9266092408563
 20
83.50415622236046
 10
51.12641008586555
 20
83.98651813215544
  0
LWPOLYLINE
  5
DE
330
1F
100
AcDbEntity
  8
PROFILEEDGES
100
AcDbPolyline
 90
        2
 70
     0
 43
0.8108172472180606
 10
51.12641008586555
 20
83.98651813215544
 10
51.44424733106132
 20
84.40073169452849
  0
LWPOLYLINE
  5
DF
330
1F
100
AcDbEntity
  8
PROFILEEDGES
100
AcDbPolyline
 90
        2
 70
     0
 43
0.8108172472180606
 10
51.44424733106132
 20
84.40073169452849
 10
51.85846089343442
 20
84.71856893972426
  0
LWPOLYLINE
  5
E0
330
1F
100
AcDbEntity
  8
PROFILEEDGES
100
AcDbPolyline
 90
        2
 70
     0
 43
0.8108172472180606
 10
51.85846089343442
 20
84.71856893972426
 10
52.34082280322939
 20
84.91836978473356
  0
LWPOLYLINE
  5
E1
330
1F
100
AcDbEntity
  8
PROFILEEDGES
100
AcDbPolyline
 90
        2
 70
     0
 43
0.8108172472180606
 10
52.34082280322939
 20
84.91836978473356
 10
52.85846089343442
 20
84.9865181321554
  0
LWPOLYLINE
  5
E2
330
1F
100
AcDbEntity
  8
PROFILEEDGES
100
AcDbPolyline
 90
        2
 70
     0
 43
0.8108172472180606
 10
52.85846089343442
 20
84.9865181321554
 10
53.37609898363944
 20
84.91836978473356
  0
LWPOLYLINE
  5
E3
330
1F
100
AcDbEntity
  8
PROFILEEDGES
100
AcDbPolyline
 90
        2
 70
     0
 43
0.8108172472180606
 10
53.37609898363944
 20
84.91836978473356
 10
53.85846089343442
 20
84.71856893972426
  0
LWPOLYLINE
  5
E4
330
1F
100
AcDbEntity
  8
PROFILEEDGES
100
AcDbPolyline
 90
        2
 70
     0
 43
0.8108172472180606
 10
53.85846089343442
 20
84.71856893972426
 10
54.27267445580752
 20
84.40073169452849
  0
LWPOLYLINE
  5
E5
330
1F
100
AcDbEntity
  8
PROFILEEDGES
100
AcDbPolyline
 90
        2
 70
     0
 43
0.8108172472180606
 10
54.27267445580752
 20
84.40073169452849
 10
54.59051170100329
 20
83.98651813215544
  0
LWPOLYLINE
  5
E6
330
1F
100
AcDbEntity
  8
PROFILEEDGES
100
AcDbPolyline
 90
        2
 70
     0
 43
0.8108172472180606
 10
54.59051170100329
 20
83.98651813215544
 10
54.79031254601254
 20
83.50415622236046
  0
LWPOLYLINE
  5
E7
330
1F
100
AcDbEntity
  8
PROFILEEDGES
100
AcDbPolyline
 90
        2
 70
     0
 43
0.8108172472180606
 10
54.79031254601254
 20
83.50415622236046
 10
54.85846089343442
 20
82.9865181321554
  0
LWPOLYLINE
  5
E8
330
1F
100
AcDbEntity
  8
PROFILEEDGES
100
AcDbPolyline
 90
        2
 70
     0
 43
0.8108172472180606
 10
54.85846089343442
 20
82.9865181321554
 10
54.79031254601254
 20
82.46888004195033
  0
LWPOLYLINE
  5
E9
330
1F
100
AcDbEntity
  8
PROFILEEDGES
100
AcDbPolyline
 90
        2
 70
     0
 43
0.8108172472180606
 10
54.79031254601254
 20
82.46888004195033
 10
54.59051170100329
 20
81.98651813215544
  0
LWPOLYLINE
  5
EA
330
1F
100
AcDbEntity
  8
PROFILEEDGES
100
AcDbPolyline
 90
        2
 70
     0
 43
0.8108172472180606
 10
54.59051170100329
 20
81.98651813215544
 10
54.27267445580752
 20
81.5723045697823
  0
LWPOLYLINE
  5
EB
330
1F
100
AcDbEntity
  8
PROFILEEDGES
100
AcDbPolyline
 90
        2
 70
     0
 43
0.8108172472180606
 10
54.27267445580752
 20
81.5723045697823
 10
53.85846089343442
 20
81.25446732458653
  0
LWPOLYLINE
  5
EC
330
1F
100
AcDbEntity
  8
PROFILEEDGES
100
AcDbPolyline
 90
        2
 70
     0
 43
0.8108172472180606
 10
53.85846089343442
 20
81.25446732458653
 10
53.37609898363944
 20
81.05466647957724
  0
LWPOLYLINE
  5
ED
330
1F
100
AcDbEntity
  8
PROFILEEDGES
100
AcDbPolyline
 90
        2
 70
     0
 43
0.8108172472180606
 10
53.37609898363944
 20
81.05466647957724
 10
52.85846089343442
 20
80.9865181321554
  0
LWPOLYLINE
  5
EE
330
1F
100
AcDbEntity
  8
PROFILEEDGES
100
AcDbPolyline
 90
        2
 70
     0
 43
0.8108172472180606
 10
52.85846089343442
 20
80.9865181321554
 10
52.34082280322939
 20
81.05466647957724
  0
LWPOLYLINE
  5
EF
330
1F
100
AcDbEntity
  8
PROFILEEDGES
100
AcDbPolyline
 90
        2
 70
     0
 43
0.8108172472180606
 10
52.34082280322939
 20
81.05466647957724
 10
51.85846089343442
 20
81.25446732458653
  0
LWPOLYLINE
  5
F0
330
1F
100
AcDbEntity
  8
PROFILEEDGES
100
AcDbPolyline
 90
        2
 70
     0
 43
0.8108172472180606
 10
51.85846089343442
 20
81.25446732458653
 10
51.44424733106132
 20
81.5723045697823
  0
LWPOLYLINE
  5
F1
330
1F
100
AcDbEntity
  8
PROFILEEDGES
100
AcDbPolyline
 90
        2
 70
     0
 43
0.8108172472180606
 10
51.44424733106132
 20
81.5723045697823
 10
51.12641008586555
 20
81.98651813215544
  0
LWPOLYLINE
  5
F2
330
1F
100
AcDbEntity
  8
PROFILEEDGES
100
AcDbPolyline
 90
        2
 70
     0
 43
0.8108172472180606
 10
51.12641008586555
 20
81.98651813215544
 10
50.9266092408563
 20
82.46888004195033
  0
LWPOLYLINE
  5
F3
330
1F
100
AcDbEntity
  8
PROFILEEDGES
100
AcDbPolyline
 90
        2
 70
     0
 43
0.8108172472180606
 10
50.9266092408563
 20
82.46888004195033
 10
50.85846089343443
 20
82.9865181321554
  0
LWPOLYLINE
  5
F4
330
1F
100
AcDbEntity
  8
PROFILEEDGES
100
AcDbPolyline
 90
        2
 70
     0
 43
0.8108172472180606
 10
100.2772937751812
 20
-35.68993108004224
 10
98.17938490258403
 20
-40.75473113288925
  0
LWPOLYLINE
  5
F5
330
1F
100
AcDbEntity
  8
PROFILEEDGES
100
AcDbPolyline
 90
        2
 70
     0
 43
0.8108172472180606
 10
100.992851423111
 20
-30.2547311328893
 10
100.2772937751812
 20
-35.68993108004224
  0
LWPOLYLINE
  5
F6
330
1F
100
AcDbEntity
  8
PROFILEEDGES
100
AcDbPolyline
 90
        2
 70
     0
 43
0.8108172472180606
 10
-45.00714857688924
 20
-51.25473113288918
 10
-49.00714857688932
 20
-51.25473113288909
  0
LWPOLYLINE
  5
F7
330
1F
100
AcDbEntity
  8
PROFILEEDGES
100
AcDbPolyline
 90
        2
 70
     0
 43
0.8108172472180606
 10
-49.00714857688936
 20
-9.254731132889171
 10
-45.00714857688936
 20
-9.254731132889082
  0
LWPOLYLINE
  5
F8
330
1F
100
AcDbEntity
  8
PROFILEEDGES
100
AcDbPolyline
 90
        2
 70
     0
 43
0.8108172472180606
 10
0.992851423110779
 20
-9.254731132889214
 10
-33.00714857688939
 20
-9.254731132889097
  0
LWPOLYLINE
  5
F9
330
1F
100
AcDbEntity
  8
PROFILEEDGES
100
AcDbPolyline
 90
        2
 70
     0
 43
0.8108172472180606
 10
61.8063179436377
 20
-19.75473113288931
 10
19.17938490258396
 20
-19.75473113288918
  0
LWPOLYLINE
  5
FA
330
1F
100
AcDbEntity
  8
PROFILEEDGES
100
AcDbPolyline
 90
        2
 70
     0
 43
0.8108172472180606
 10
11.49285142311078
 20
-12.06819765341599
 10
15.84209382802826
 20
-15.40548872797174
  0
LWPOLYLINE
  5
FB
330
1F
100
AcDbEntity
  8
PROFILEEDGES
100
AcDbPolyline
 90
        2
 70
     0
 43
0.8108172472180606
 10
61.80631794363773
 20
-40.7547311328893
 10
19.38549030218262
 20
-40.25714868189991
  0
LWPOLYLINE
  5
FC
330
1F
100
AcDbEntity
  8
PROFILEEDGES
100
AcDbPolyline
 90
        2
 70
     0
 43
0.8108172472180606
 10
15.84209382802826
 20
-15.40548872797174
 10
19.17938490258396
 20
-19.75473113288918
  0
LWPOLYLINE
  5
FD
330
1F
100
AcDbEntity
  8
PROFILEEDGES
100
AcDbPolyline
 90
        2
 70
     0
 43
0.8108172472180606
 10
85.42805137026376
 20
-9.970288780818848
 10
90.49285142311078
 20
-12.06819765341605
  0
LWPOLYLINE
  5
FE
330
1F
100
AcDbEntity
  8
PROFILEEDGES
100
AcDbPolyline
 90
        2
 70
     0
 43
0.8108172472180606
 10
90.49285142311078
 20
-12.06819765341605
 10
94.84209382802835
 20
-15.4054887279718
  0
LWPOLYLINE
  5
FF
330
1F
100
AcDbEntity
  8
PROFILEEDGES
100
AcDbPolyline
 90
        2
 70
     0
 43
0.8108172472180606
 10
94.84209382802835
 20
-15.4054887279718
 10
98.179384902584
 20
-19.75473113288924
  0
LWPOLYLINE
  5
100
330
1F
100
AcDbEntity
  8
PROFILEEDGES
100
AcDbPolyline
 90
        2
 70
     0
 43
0.8108172472180606
 10
98.179384902584
 20
-19.75473113288924
 10
100.2772937751812
 20
-24.81953118573635
  0
LWPOLYLINE
  5
101
330
1F
100
AcDbEntity
  8
PROFILEEDGES
100
AcDbPolyline
 90
        2
 70
     0
 43
0.8108172472180606
 10
100.2772937751812
 20
-24.81953118573635
 10
100.992851423111
 20
-30.2547311328893
  0
LWPOLYLINE
  5
102
330
1F
100
AcDbEntity
  8
PROFILEEDGES
100
AcDbPolyline
 90
        2
 70
     0
 43
0.8108172472180606
 10
98.17938490258403
 20
-40.75473113288925
 10
94.84209382802837
 20
-45.10397353780678
  0
LWPOLYLINE
  5
103
330
1F
100
AcDbEntity
  8
PROFILEEDGES
100
AcDbPolyline
 90
        2
 70
     0
 43
0.8108172472180606
 10
94.84209382802837
 20
-45.10397353780678
 10
90.49285142311074
 20
-48.44126461236243
  0
LWPOLYLINE
  5
104
330
1F
100
AcDbEntity
  8
PROFILEEDGES
100
AcDbPolyline
 90
        2
 70
     0
 43
0.8108172472180606
 10
90.49285142311074
 20
-48.44126461236243
 10
85.42805137026373
 20
-50.53917348495972
  0
LWPOLYLINE
  5
105
330
1F
100
AcDbEntity
  8
PROFILEEDGES
100
AcDbPolyline
 90
        2
 70
     0
 43
0.8108172472180606
 10
85.42805137026373
 20
-50.53917348495972
 10
79.99285142311078
 20
-51.25473113288928
  0
LWPOLYLINE
  5
106
330
1F
100
AcDbEntity
  8
PROFILEEDGES
100
AcDbPolyline
 90
        2
 70
     0
 43
0.8108172472180606
 10
61.8063179436377
 20
-19.75473113288931
 10
65.14360901819337
 20
-15.40548872797168
  0
LWPOLYLINE
  5
107
330
1F
100
AcDbEntity
  8
PROFILEEDGES
100
AcDbPolyline
 90
        2
 70
     0
 43
0.8108172472180606
 10
65.14360901819337
 20
-15.40548872797168
 10
69.4928514231108
 20
-12.06819765341603
  0
LWPOLYLINE
  5
108
330
1F
100
AcDbEntity
  8
PROFILEEDGES
100
AcDbPolyline
 90
        2
 70
     0
 43
0.8108172472180606
 10
69.4928514231108
 20
-12.06819765341603
 10
74.55765147595783
 20
-9.970288780818748
  0
LWPOLYLINE
  5
109
330
1F
100
AcDbEntity
  8
PROFILEEDGES
100
AcDbPolyline
 90
        2
 70
     0
 43
0.8108172472180606
 10
74.55765147595783
 20
-9.970288780818748
 10
79.99285142311082
 20
-9.25473113288927
  0
LWPOLYLINE
  5
10A
330
1F
100
AcDbEntity
  8
PROFILEEDGES
100
AcDbPolyline
 90
        2
 70
     0
 43
0.8108172472180606
 10
0.992851423110779
 20
-9.254731132889214
 10
6.428051370263676
 20
-9.970288780818787
  0
LWPOLYLINE
  5
10B
330
1F
100
AcDbEntity
  8
PROFILEEDGES
100
AcDbPolyline
 90
        2
 70
     0
 43
0.8108172472180606
 10
6.428051370263676
 20
-9.970288780818787
 10
11.49285142311078
 20
-12.06819765341599
  0
LWPOLYLINE
  5
10C
330
1F
100
AcDbEntity
  8
PROFILEEDGES
100
AcDbPolyline
 90
        2
 70
     0
 43
0.8108172472180606
 10
65.14360901819339
 20
-45.10397353780657
 10
61.80631794363773
 20
-40.7547311328893
  0
LWPOLYLINE
  5
10D
330
1F
100
AcDbEntity
  8
PROFILEEDGES
100
AcDbPolyline
 90
        2
 70
     0
 43
0.8108172472180606
 10
19.38549030218262
 20
-40.25714868189991
 10
19.17938490258399
 20
-40.75473113288919
  0
LWPOLYLINE
  5
10E
330
1F
100
AcDbEntity
  8
PROFILEEDGES
100
AcDbPolyline
 90
        2
 70
     0
 43
0.8108172472180606
 10
19.17938490258399
 20
-40.75473113288919
 10
15.84209382802833
 20
-45.10397353780672
  0
LWPOLYLINE
  5
10F
330
1F
100
AcDbEntity
  8
PROFILEEDGES
100
AcDbPolyline
 90
        2
 70
     0
 43
0.8108172472180606
 10
15.84209382802833
 20
-45.10397353780672
 10
11.49285142311079
 20
-48.44126461236246
  0
LWPOLYLINE
  5
110
330
1F
100
AcDbEntity
  8
PROFILEEDGES
100
AcDbPolyline
 90
        2
 70
     0
 43
0.8108172472180606
 10
11.49285142311079
 20
-48.44126461236246
 10
6.428051370263689
 20
-50.53917348495965
  0
LWPOLYLINE
  5
111
330
1F
100
AcDbEntity
  8
PROFILEEDGES
100
AcDbPolyline
 90
        2
 70
     0
 43
0.8108172472180606
 10
6.428051370263689
 20
-50.53917348495965
 10
0.9928514231108349
 20
-51.25473113288923
  0
LWPOLYLINE
  5
112
330
1F
100
AcDbEntity
  8
PROFILEEDGES
100
AcDbPolyline
 90
        2
 70
     0
 43
0.8108172472180606
 10
79.99285142311078
 20
-51.25473113288928
 10
74.55765147595774
 20
-50.53917348495961
  0
LWPOLYLINE
  5
113
330
1F
100
AcDbEntity
  8
PROFILEEDGES
100
AcDbPolyline
 90
        2
 70
     0
 43
0.8108172472180606
 10
74.55765147595774
 20
-50.53917348495961
 10
69.49285142311078
 20
-48.44126461236242
  0
LWPOLYLINE
  5
114
330
1F
100
AcDbEntity
  8
PROFILEEDGES
100
AcDbPolyline
 90
        2
 70
     0
 43
0.8108172472180606
 10
69.49285142311078
 20
-48.44126461236242
 10
65.14360901819339
 20
-45.10397353780657
  0
LWPOLYLINE
  5
115
330
1F
100
AcDbEntity
  8
PROFILEEDGES
100
AcDbPolyline
 90
        2
 70
     0
 43
0.8108172472180606
 10
-29.63310759251854
 20
-23.25473113288916
 10
-22.63310759251858
 20
-23.25473113288917
  0
LWPOLYLINE
  5
116
330
1F
100
AcDbEntity
  8
PROFILEEDGES
100
AcDbPolyline
 90
        2
 70
     0
 43
0.8108172472180606
 10
-29.6331075925186
 20
-37.25473113288923
 10
-29.63310759251854
 20
-23.25473113288916
  0
LWPOLYLINE
  5
117
330
1F
100
AcDbEntity
  8
PROFILEEDGES
100
AcDbPolyline
 90
        2
 70
     0
 43
0.8108172472180606
 10
-22.63310759251859
 20
-37.25473113288923
 10
-29.6331075925186
 20
-37.25473113288923
  0
LWPOLYLINE
  5
118
330
1F
100
AcDbEntity
  8
PROFILEEDGES
100
AcDbPolyline
 90
        2
 70
     0
 43
0.8108172472180606
 10
-22.63310759251859
 20
-37.25473113288923
 10
-22.63310759251858
 20
-23.25473113288917
  0
LWPOLYLINE
  5
119
330
1F
100
AcDbEntity
  8
PROFILEEDGES
100
AcDbPolyline
 90
        2
 70
     0
 43
0.8108172472180606
 10
-45.00714857688924
 20
-51.25473113288918
 10
-45.00714857688924
 20
-47.25473113288919
  0
LWPOLYLINE
  5
11A
330
1F
100
AcDbEntity
  8
PROFILEEDGES
100
AcDbPolyline
 90
        2
 70
     0
 43
0.8108172472180606
 10
-33.00714857688921
 20
-47.2547311328892
 10
-33.00714857688921
 20
-51.25473113288919
  0
LWPOLYLINE
  5
11B
330
1F
100
AcDbEntity
  8
PROFILEEDGES
100
AcDbPolyline
 90
        2
 70
     0
 43
0.8108172472180606
 10
-33.00714857688932
 20
-13.25473113288918
 10
-37.00714857688936
 20
-13.25473113288917
  0
LWPOLYLINE
  5
11C
330
1F
100
AcDbEntity
  8
PROFILEEDGES
100
AcDbPolyline
 90
        2
 70
     0
 43
0.8108172472180606
 10
-41.00714857688931
 20
-13.25473113288917
 10
-45.0071485768893
 20
-13.25473113288917
  0
LWPOLYLINE
  5
11D
330
1F
100
AcDbEntity
  8
PROFILEEDGES
100
AcDbPolyline
 90
        2
 70
     0
 43
0.8108172472180606
 10
-45.00714857688924
 20
-47.25473113288919
 10
-41.00714857688915
 20
-47.25473113288919
  0
LWPOLYLINE
  5
11E
330
1F
100
AcDbEntity
  8
PROFILEEDGES
100
AcDbPolyline
 90
        2
 70
     0
 43
0.8108172472180606
 10
-37.00714857688929
 20
-47.2547311328892
 10
-33.00714857688921
 20
-47.2547311328892
  0
LWPOLYLINE
  5
11F
330
1F
100
AcDbEntity
  8
PROFILEEDGES
100
AcDbPolyline
 90
        2
 70
     0
 43
0.8108172472180606
 10
-33.00714857688939
 20
-9.254731132889097
 10
-33.00714857688932
 20
-13.25473113288918
  0
LWPOLYLINE
  5
120
330
1F
100
AcDbEntity
  8
PROFILEEDGES
100
AcDbPolyline
 90
        2
 70
     0
 43
0.8108172472180606
 10
-45.0071485768893
 20
-13.25473113288917
 10
-45.00714857688936
 20
-9.254731132889082
  0
LWPOLYLINE
  5
121
330
1F
100
AcDbEntity
  8
PROFILEEDGES
100
AcDbPolyline
 90
        2
 70
     0
 43
0.8108172472180606
 10
-41.00714857688931
 20
-19.25473113288916
 10
-41.00714857688931
 20
-13.25473113288917
  0
LWPOLYLINE
  5
122
330
1F
100
AcDbEntity
  8
PROFILEEDGES
100
AcDbPolyline
 90
        2
 70
     0
 43
0.8108172472180606
 10
-37.00714857688936
 20
-13.25473113288917
 10
-37.00714857688936
 20
-19.25473113288916
  0
LWPOLYLINE
  5
123
330
1F
100
AcDbEntity
  8
PROFILEEDGES
100
AcDbPolyline
 90
        2
 70
     0
 43
0.8108172472180606
 10
-35.50714857688913
 20
-41.25473113288921
 10
-37.00714857688919
 20
-41.25473113288921
  0
LWPOLYLINE
  5
124
330
1F
100
AcDbEntity
  8
PROFILEEDGES
100
AcDbPolyline
 90
        2
 70
     0
 43
0.8108172472180606
 10
-37.00714857688929
 20
-47.2547311328892
 10
-37.00714857688919
 20
-41.25473113288921
  0
LWPOLYLINE
  5
125
330
1F
100
AcDbEntity
  8
PROFILEEDGES
100
AcDbPolyline
 90
        2
 70
     0
 43
0.8108172472180606
 10
-33.00714857688921
 20
-51.25473113288919
 10
0.9928514231108349
 20
-51.25473113288923
  0
LWPOLYLINE
  5
126
330
1F
100
AcDbEntity
  8
PROFILEEDGES
100
AcDbPolyline
 90
        2
 70
     0
 43
0.8108172472180606
 10
79.99285142311082
 20
-9.25473113288927
 10
85.42805137026376
 20
-9.970288780818848
  0
LWPOLYLINE
  5
127
330
1F
100
AcDbEntity
  8
PROFILEEDGES
100
AcDbPolyline
 90
        2
 70
     0
 43
0.8108172472180606
 10
-49.00714857688932
 20
-51.25473113288909
 10
-49.00714857688936
 20
-9.254731132889171
  0
LWPOLYLINE
  5
128
330
1F
100
AcDbEntity
  8
PROFILEEDGES
100
AcDbPolyline
 90
        2
 70
     0
 43
0.8108172472180606
 10
-41.00714857688915
 20
-47.25473113288919
 10
-41.00714857688914
 20
-41.25473113288921
  0
LWPOLYLINE
  5
129
330
1F
100
AcDbEntity
  8
PROFILEEDGES
100
AcDbPolyline
 90
        2
 70
     0
 43
0.8108172472180606
 10
-41.00714857688914
 20
-41.25473113288921
 10
-42.50714857688921
 20
-41.25473113288921
  0
LWPOLYLINE
  5
12A
330
1F
100
AcDbEntity
  8
PROFILEEDGES
100
AcDbPolyline
 90
        2
 70
     0
 43
0.8108172472180606
 10
-42.50714857688921
 20
-41.25473113288921
 10
-42.50714857688928
 20
-37.25473113288921
  0
LWPOLYLINE
  5
12B
330
1F
100
AcDbEntity
  8
PROFILEEDGES
100
AcDbPolyline
 90
        2
 70
     0
 43
0.8108172472180606
 10
-42.50714857688928
 20
-37.25473113288921
 10
-35.5071485768892
 20
-37.25473113288922
  0
LWPOLYLINE
  5
12C
330
1F
100
AcDbEntity
  8
PROFILEEDGES
100
AcDbPolyline
 90
        2
 70
     0
 43
0.8108172472180606
 10
-35.5071485768892
 20
-37.25473113288922
 10
-35.50714857688913
 20
-41.25473113288921
  0
LWPOLYLINE
  5
12D
330
1F
100
AcDbEntity
  8
PROFILEEDGES
100
AcDbPolyline
 90
        2
 70
     0
 43
0.8108172472180606
 10
-35.50714857688937
 20
-23.25473113288916
 10
-42.5071485768894
 20
-23.25473113288915
  0
LWPOLYLINE
  5
12E
330
1F
100
AcDbEntity
  8
PROFILEEDGES
100
AcDbPolyline
 90
        2
 70
     0
 43
0.8108172472180606
 10
-35.50714857688929
 20
-19.25473113288916
 10
-35.50714857688937
 20
-23.25473113288916
  0
LWPOLYLINE
  5
12F
330
1F
100
AcDbEntity
  8
PROFILEEDGES
100
AcDbPolyline
 90
        2
 70
     0
 43
0.8108172472180606
 10
-37.00714857688936
 20
-19.25473113288916
 10
-35.50714857688929
 20
-19.25473113288916
  0
LWPOLYLINE
  5
130
330
1F
100
AcDbEntity
  8
PROFILEEDGES
100
AcDbPolyline
 90
        2
 70
     0
 43
0.8108172472180606
 10
-42.50714857688937
 20
-19.25473113288916
 10
-41.00714857688931
 20
-19.25473113288916
  0
LWPOLYLINE
  5
131
330
1F
100
AcDbEntity
  8
PROFILEEDGES
100
AcDbPolyline
 90
        2
 70
     0
 43
0.8108172472180606
 10
-42.5071485768894
 20
-23.25473113288915
 10
-42.50714857688937
 20
-19.25473113288916
  0
LWPOLYLINE
  5
132
330
1F
100
AcDbEntity
  8
PROFILEEDGES
100
AcDbPolyline
 90
        2
 70
     0
 43
0.8108172472180606
 10
142.008721290156
 20
54.54988357224529
 10
142.008721290156
 20
50.54988357224529
  0
LWPOLYLINE
  5
133
330
1F
100
AcDbEntity
  8
PROFILEEDGES
100
AcDbPolyline
 90
        2
 70
     0
 43
0.8108172472180606
 10
126.0087212901561
 20
50.54988357224513
 10
126.0087212901562
 20
46.54988357224518
  0
LWPOLYLINE
  5
134
330
1F
100
AcDbEntity
  8
PROFILEEDGES
100
AcDbPolyline
 90
        2
 70
     0
 43
0.8108172472180606
 10
138.0087212901562
 20
46.5498835722452
 10
138.0087212901561
 20
50.54988357224515
  0
LWPOLYLINE
  5
135
330
1F
100
AcDbEntity
  8
PROFILEEDGES
100
AcDbPolyline
 90
        2
 70
     0
 43
0.8108172472180606
 10
130.0087212901562
 20
46.54988357224519
 10
130.0087212901562
 20
50.54988357224514
  0
LWPOLYLINE
  5
136
330
1F
100
AcDbEntity
  8
PROFILEEDGES
100
AcDbPolyline
 90
        2
 70
     0
 43
0.8108172472180606
 10
134.0087212901562
 20
50.54988357224519
 10
134.0087212901561
 20
46.5498835722452
  0
LWPOLYLINE
  5
137
330
1F
100
AcDbEntity
  8
PROFILEEDGES
100
AcDbPolyline
 90
        2
 70
     0
 43
0.8108172472180606
 10
122.008721290156
 20
50.5498835722453
 10
126.0087212901561
 20
50.54988357224513
  0
LWPOLYLINE
  5
138
330
1F
100
AcDbEntity
  8
PROFILEEDGES
100
AcDbPolyline
 90
        2
 70
     0
 43
0.8108172472180606
 10
142.0087212901562
 20
42.54988357224531
 10
122.0087212901562
 20
42.54988357224523
  0
LWPOLYLINE
  5
139
330
1F
100
AcDbEntity
  8
PROFILEEDGES
100
AcDbPolyline
 90
        2
 70
     0
 43
0.8108172472180606
 10
126.0087212901562
 20
46.54988357224518
 10
122.0087212901561
 20
46.54988357224522
  0
LWPOLYLINE
  5
13A
330
1F
100
AcDbEntity
  8
PROFILEEDGES
100
AcDbPolyline
 90
        2
 70
     0
 43
0.8108172472180606
 10
138.0087212901561
 20
50.54988357224515
 10
142.008721290156
 20
50.54988357224529
  0
LWPOLYLINE
  5
13B
330
1F
100
AcDbEntity
  8
PROFILEEDGES
100
AcDbPolyline
 90
        2
 70
     0
 43
0.8108172472180606
 10
142.0087212901561
 20
46.5498835722453
 10
142.0087212901562
 20
42.54988357224531
  0
LWPOLYLINE
  5
13C
330
1F
100
AcDbEntity
  8
PROFILEEDGES
100
AcDbPolyline
 90
        2
 70
     0
 43
0.8108172472180606
 10
122.008721290156
 20
54.54988357224529
 10
142.008721290156
 20
54.54988357224529
  0
LWPOLYLINE
  5
13D
330
1F
100
AcDbEntity
  8
PROFILEEDGES
100
AcDbPolyline
 90
        2
 70
     0
 43
0.8108172472180606
 10
122.0087212901562
 20
42.54988357224523
 10
122.0087212901561
 20
46.54988357224522
  0
LWPOLYLINE
  5
13E
330
1F
100
AcDbEntity
  8
PROFILEEDGES
100
AcDbPolyline
 90
        2
 70
     0
 43
0.8108172472180606
 10
142.0087212901561
 20
46.5498835722453
 10
138.0087212901562
 20
46.5498835722452
  0
LWPOLYLINE
  5
13F
330
1F
100
AcDbEntity
  8
PROFILEEDGES
100
AcDbPolyline
 90
        2
 70
     0
 43
0.8108172472180606
 10
122.008721290156
 20
50.5498835722453
 10
122.008721290156
 20
54.54988357224529
  0
LWPOLYLINE
  5
140
330
1F
100
AcDbEntity
  8
PROFILEEDGES
100
AcDbPolyline
 90
        2
 70
     0
 43
0.8108172472180606
 10
134.0087212901561
 20
46.5498835722452
 10
130.0087212901562
 20
46.54988357224519
  0
LWPOLYLINE
  5
141
330
1F
100
AcDbEntity
  8
PROFILEEDGES
100
AcDbPolyline
 90
        2
 70
     0
 43
0.8108172472180606
 10
130.0087212901562
 20
50.54988357224514
 10
134.0087212901562
 20
50.54988357224519
  0
LWPOLYLINE
  5
142
330
1F
100
AcDbEntity
  8
PROFILEEDGES
100
AcDbPolyline
 90
        2
 70
     0
 43
0.8108172472180606
 10
119.008721290156
 20
54.54988357224529
 10
119.008721290156
 20
50.54988357224529
  0
LWPOLYLINE
  5
143
330
1F
100
AcDbEntity
  8
PROFILEEDGES
100
AcDbPolyline
 90
        2
 70
     0
 43
0.8108172472180606
 10
103.0087212901561
 20
50.54988357224513
 10
103.0087212901562
 20
46.54988357224518
  0
LWPOLYLINE
  5
144
330
1F
100
AcDbEntity
  8
PROFILEEDGES
100
AcDbPolyline
 90
        2
 70
     0
 43
0.8108172472180606
 10
115.0087212901561
 20
46.5498835722452
 10
115.0087212901561
 20
50.54988357224515
  0
LWPOLYLINE
  5
145
330
1F
100
AcDbEntity
  8
PROFILEEDGES
100
AcDbPolyline
 90
        2
 70
     0
 43
0.8108172472180606
 10
107.0087212901562
 20
46.54988357224519
 10
107.0087212901562
 20
50.54988357224514
  0
LWPOLYLINE
  5
146
330
1F
100
AcDbEntity
  8
PROFILEEDGES
100
AcDbPolyline
 90
        2
 70
     0
 43
0.8108172472180606
 10
111.0087212901562
 20
50.54988357224519
 10
111.0087212901561
 20
46.5498835722452
  0
LWPOLYLINE
  5
147
330
1F
100
AcDbEntity
  8
PROFILEEDGES
100
AcDbPolyline
 90
        2
 70
     0
 43
0.8108172472180606
 10
99.00872129015606
 20
50.5498835722453
 10
103.0087212901561
 20
50.54988357224513
  0
LWPOLYLINE
  5
148
330
1F
100
AcDbEntity
  8
PROFILEEDGES
100
AcDbPolyline
 90
        2
 70
     0
 43
0.8108172472180606
 10
119.0087212901562
 20
42.54988357224531
 10
99.00872129015616
 20
42.54988357224523
  0
LWPOLYLINE
  5
149
330
1F
100
AcDbEntity
  8
PROFILEEDGES
100
AcDbPolyline
 90
        2
 70
     0
 43
0.8108172472180606
 10
103.0087212901562
 20
46.54988357224518
 10
99.00872129015606
 20
46.54988357224522
  0
LWPOLYLINE
  5
14A
330
1F
100
AcDbEntity
  8
PROFILEEDGES
100
AcDbPolyline
 90
        2
 70
     0
 43
0.8108172472180606
 10
115.0087212901561
 20
50.54988357224515
 10
119.008721290156
 20
50.54988357224529
  0
LWPOLYLINE
  5
14B
330
1F
100
AcDbEntity
  8
PROFILEEDGES
100
AcDbPolyline
 90
        2
 70
     0
 43
0.8108172472180606
 10
119.0087212901561
 20
46.5498835722453
 10
119.0087212901562
 20
42.54988357224531
  0
LWPOLYLINE
  5
14C
330
1F
100
AcDbEntity
  8
PROFILEEDGES
100
AcDbPolyline
 90
        2
 70
     0
 43
0.8108172472180606
 10
99.00872129015605
 20
54.54988357224529
 10
119.008721290156
 20
54.54988357224529
  0
LWPOLYLINE
  5
14D
330
1F
100
AcDbEntity
  8
PROFILEEDGES
100
AcDbPolyline
 90
        2
 70
     0
 43
0.8108172472180606
 10
99.00872129015616
 20
42.54988357224523
 10
99.00872129015606
 20
46.54988357224522
  0
LWPOLYLINE
  5
14E
330
1F
100
AcDbEntity
  8
PROFILEEDGES
100
AcDbPolyline
 90
        2
 70
     0
 43
0.8108172472180606
 10
119.0087212901561
 20
46.5498835722453
 10
115.0087212901561
 20
46.5498835722452
  0
LWPOLYLINE
  5
14F
330
1F
100
AcDbEntity
  8
PROFILEEDGES
100
AcDbPolyline
 90
        2
 70
     0
 43
0.8108172472180606
 10
99.00872129015606
 20
50.5498835722453
 10
99.00872129015605
 20
54.54988357224529
  0
LWPOLYLINE
  5
150
330
1F
100
AcDbEntity
  8
PROFILEEDGES
100
AcDbPolyline
 90
        2
 70
     0
 43
0.8108172472180606
 10
111.0087212901561
 20
46.5498835722452
 10
107.0087212901562
 20
46.54988357224519
  0
LWPOLYLINE
  5
151
330
1F
100
AcDbEntity
  8
PROFILEEDGES
100
AcDbPolyline
 90
        2
 70
     0
 43
0.8108172472180606
 10
107.0087212901562
 20
50.54988357224514
 10
111.0087212901562
 20
50.54988357224519
  0
LWPOLYLINE
  5
152
330
1F
100
AcDbEntity
  8
PROFILEEDGES
100
AcDbPolyline
 90
        2
 70
     0
 43
0.8108172472180606
 10
96.00872129015605
 20
54.54988357224529
 10
96.00872129015606
 20
50.54988357224529
  0
LWPOLYLINE
  5
153
330
1F
100
AcDbEntity
  8
PROFILEEDGES
100
AcDbPolyline
 90
        2
 70
     0
 43
0.8108172472180606
 10
80.00872129015612
 20
50.54988357224513
 10
80.00872129015617
 20
46.54988357224518
  0
LWPOLYLINE
  5
154
330
1F
100
AcDbEntity
  8
PROFILEEDGES
100
AcDbPolyline
 90
        2
 70
     0
 43
0.8108172472180606
 10
92.00872129015615
 20
46.5498835722452
 10
92.0087212901561
 20
50.54988357224515
  0
LWPOLYLINE
  5
155
330
1F
100
AcDbEntity
  8
PROFILEEDGES
100
AcDbPolyline
 90
        2
 70
     0
 43
0.8108172472180606
 10
84.00872129015617
 20
46.54988357224519
 10
84.00872129015616
 20
50.54988357224514
  0
LWPOLYLINE
  5
156
330
1F
100
AcDbEntity
  8
PROFILEEDGES
100
AcDbPolyline
 90
        2
 70
     0
 43
0.8108172472180606
 10
88.00872129015616
 20
50.54988357224519
 10
88.00872129015612
 20
46.5498835722452
  0
LWPOLYLINE
  5
157
330
1F
100
AcDbEntity
  8
PROFILEEDGES
100
AcDbPolyline
 90
        2
 70
     0
 43
0.8108172472180606
 10
76.00872129015605
 20
50.5498835722453
 10
80.00872129015612
 20
50.54988357224513
  0
LWPOLYLINE
  5
158
330
1F
100
AcDbEntity
  8
PROFILEEDGES
100
AcDbPolyline
 90
        2
 70
     0
 43
0.8108172472180606
 10
96.00872129015616
 20
42.54988357224531
 10
76.00872129015616
 20
42.54988357224523
  0
LWPOLYLINE
  5
159
330
1F
100
AcDbEntity
  8
PROFILEEDGES
100
AcDbPolyline
 90
        2
 70
     0
 43
0.8108172472180606
 10
80.00872129015617
 20
46.54988357224518
 10
76.00872129015605
 20
46.54988357224522
  0
LWPOLYLINE
  5
15A
330
1F
100
AcDbEntity
  8
PROFILEEDGES
100
AcDbPolyline
 90
        2
 70
     0
 43
0.8108172472180606
 10
92.0087212901561
 20
50.54988357224515
 10
96.00872129015606
 20
50.54988357224529
  0
LWPOLYLINE
  5
15B
330
1F
100
AcDbEntity
  8
PROFILEEDGES
100
AcDbPolyline
 90
        2
 70
     0
 43
0.8108172472180606
 10
96.00872129015606
 20
46.5498835722453
 10
96.00872129015616
 20
42.54988357224531
  0
LWPOLYLINE
  5
15C
330
1F
100
AcDbEntity
  8
PROFILEEDGES
100
AcDbPolyline
 90
        2
 70
     0
 43
0.8108172472180606
 10
76.00872129015605
 20
54.54988357224529
 10
96.00872129015605
 20
54.54988357224529
  0
LWPOLYLINE
  5
15D
330
1F
100
AcDbEntity
  8
PROFILEEDGES
100
AcDbPolyline
 90
        2
 70
     0
 43
0.8108172472180606
 10
76.00872129015616
 20
42.54988357224523
 10
76.00872129015605
 20
46.54988357224522
  0
LWPOLYLINE
  5
15E
330
1F
100
AcDbEntity
  8
PROFILEEDGES
100
AcDbPolyline
 90
        2
 70
     0
 43
0.8108172472180606
 10
96.00872129015606
 20
46.5498835722453
 10
92.00872129015615
 20
46.5498835722452
  0
LWPOLYLINE
  5
15F
330
1F
100
AcDbEntity
  8
PROFILEEDGES
100
AcDbPolyline
 90
        2
 70
     0
 43
0.8108172472180606
 10
76.00872129015605
 20
50.5498835722453
 10
76.00872129015605
 20
54.54988357224529
  0
LWPOLYLINE
  5
160
330
1F
100
AcDbEntity
  8
PROFILEEDGES
100
AcDbPolyline
 90
        2
 70
     0
 43
0.8108172472180606
 10
88.00872129015612
 20
46.5498835722452
 10
84.00872129015617
 20
46.54988357224519
  0
LWPOLYLINE
  5
161
330
1F
100
AcDbEntity
  8
PROFILEEDGES
100
AcDbPolyline
 90
        2
 70
     0
 43
0.8108172472180606
 10
84.00872129015616
 20
50.54988357224514
 10
88.00872129015616
 20
50.54988357224519
  0
LWPOLYLINE
  5
162
330
1F
100
AcDbEntity
  8
PROFILEEDGES
100
AcDbPolyline
 90
        2
 70
     0
 43
0.8108172472180606
 10
73.00872129015605
 20
54.54988357224529
 10
73.00872129015606
 20
50.54988357224529
  0
LWPOLYLINE
  5
163
330
1F
100
AcDbEntity
  8
PROFILEEDGES
100
AcDbPolyline
 90
        2
 70
     0
 43
0.8108172472180606
 10
57.00872129015612
 20
50.54988357224513
 10
57.00872129015618
 20
46.54988357224518
  0
LWPOLYLINE
  5
164
330
1F
100
AcDbEntity
  8
PROFILEEDGES
100
AcDbPolyline
 90
        2
 70
     0
 43
0.8108172472180606
 10
69.00872129015615
 20
46.5498835722452
 10
69.0087212901561
 20
50.54988357224515
  0
LWPOLYLINE
  5
165
330
1F
100
AcDbEntity
  8
PROFILEEDGES
100
AcDbPolyline
 90
        2
 70
     0
 43
0.8108172472180606
 10
61.00872129015617
 20
46.54988357224519
 10
61.00872129015616
 20
50.54988357224514
  0
LWPOLYLINE
  5
166
330
1F
100
AcDbEntity
  8
PROFILEEDGES
100
AcDbPolyline
 90
        2
 70
     0
 43
0.8108172472180606
 10
65.00872129015615
 20
50.54988357224519
 10
65.00872129015612
 20
46.5498835722452
  0
LWPOLYLINE
  5
167
330
1F
100
AcDbEntity
  8
PROFILEEDGES
100
AcDbPolyline
 90
        2
 70
     0
 43
0.8108172472180606
 10
53.00872129015605
 20
50.5498835722453
 10
57.00872129015612
 20
50.54988357224513
  0
LWPOLYLINE
  5
168
330
1F
100
AcDbEntity
  8
PROFILEEDGES
100
AcDbPolyline
 90
        2
 70
     0
 43
0.8108172472180606
 10
73.00872129015616
 20
42.54988357224531
 10
53.00872129015615
 20
42.54988357224523
  0
LWPOLYLINE
  5
169
330
1F
100
AcDbEntity
  8
PROFILEEDGES
100
AcDbPolyline
 90
        2
 70
     0
 43
0.8108172472180606
 10
57.00872129015618
 20
46.54988357224518
 10
53.00872129015605
 20
46.54988357224522
  0
LWPOLYLINE
  5
16A
330
1F
100
AcDbEntity
  8
PROFILEEDGES
100
AcDbPolyline
 90
        2
 70
     0
 43
0.8108172472180606
 10
69.0087212901561
 20
50.54988357224515
 10
73.00872129015606
 20
50.54988357224529
  0
LWPOLYLINE
  5
16B
330
1F
100
AcDbEntity
  8
PROFILEEDGES
100
AcDbPolyline
 90
        2
 70
     0
 43
0.8108172472180606
 10
73.00872129015606
 20
46.5498835722453
 10
73.00872129015616
 20
42.54988357224531
  0
LWPOLYLINE
  5
16C
330
1F
100
AcDbEntity
  8
PROFILEEDGES
100
AcDbPolyline
 90
        2
 70
     0
 43
0.8108172472180606
 10
53.00872129015604
 20
54.54988357224529
 10
73.00872129015605
 20
54.54988357224529
  0
LWPOLYLINE
  5
16D
330
1F
100
AcDbEntity
  8
PROFILEEDGES
100
AcDbPolyline
 90
        2
 70
     0
 43
0.8108172472180606
 10
53.00872129015615
 20
42.54988357224523
 10
53.00872129015605
 20
46.54988357224522
  0
LWPOLYLINE
  5
16E
330
1F
100
AcDbEntity
  8
PROFILEEDGES
100
AcDbPolyline
 90
        2
 70
     0
 43
0.8108172472180606
 10
73.00872129015606
 20
46.5498835722453
 10
69.00872129015615
 20
46.5498835722452
  0
LWPOLYLINE
  5
16F
330
1F
100
AcDbEntity
  8
PROFILEEDGES
100
AcDbPolyline
 90
        2
 70
     0
 43
0.8108172472180606
 10
53.00872129015605
 20
50.5498835722453
 10
53.00872129015604
 20
54.54988357224529
  0
LWPOLYLINE
  5
170
330
1F
100
AcDbEntity
  8
PROFILEEDGES
100
AcDbPolyline
 90
        2
 70
     0
 43
0.8108172472180606
 10
65.00872129015612
 20
46.5498835722452
 10
61.00872129015617
 20
46.54988357224519
  0
LWPOLYLINE
  5
171
330
1F
100
AcDbEntity
  8
PROFILEEDGES
100
AcDbPolyline
 90
        2
 70
     0
 43
0.8108172472180606
 10
61.00872129015616
 20
50.54988357224514
 10
65.00872129015615
 20
50.54988357224519
  0
LWPOLYLINE
  5
172
330
1F
100
AcDbEntity
  8
PROFILEEDGES
100
AcDbPolyline
 90
        2
 70
     0
 43
0.8108172472180606
 10
-53.99127870984383
 20
-92.0134818678446
 10
-53.99127870984383
 20
-88.0134818678446
  0
LWPOLYLINE
  5
173
330
1F
100
AcDbEntity
  8
PROFILEEDGES
100
AcDbPolyline
 90
        2
 70
     0
 43
0.8108172472180606
 10
-14.10772334858017
 20
-89.5087847298947
 10
-14.04127870984385
 20
-90.01348186784452
  0
LWPOLYLINE
  5
174
330
1F
100
AcDbEntity
  8
PROFILEEDGES
100
AcDbPolyline
 90
        2
 70
     0
 43
0.8108172472180606
 10
-49.99127870984382
 20
-88.0134818678446
 10
-49.99127870984382
 20
-92.0134818678446
  0
LWPOLYLINE
  5
175
330
1F
100
AcDbEntity
  8
PROFILEEDGES
100
AcDbPolyline
 90
        2
 70
     0
 43
0.8108172472180606
 10
-49.99127870984382
 20
-92.0134818678446
 10
-53.99127870984383
 20
-92.0134818678446
  0
LWPOLYLINE
  5
176
330
1F
100
AcDbEntity
  8
PROFILEEDGES
100
AcDbPolyline
 90
        2
 70
     0
 43
0.8108172472180606
 10
142.0087212901562
 20
-8.013481867844574
 10
122.0087212901562
 20
-8.013481867844574
  0
LWPOLYLINE
  5
177
330
1F
100
AcDbEntity
  8
PROFILEEDGES
100
AcDbPolyline
 90
        2
 70
     0
 43
0.8108172472180606
 10
40.00872129015617
 20
-92.0134818678446
 10
40.00872129015617
 20
-88.0134818678446
  0
LWPOLYLINE
  5
178
330
1F
100
AcDbEntity
  8
PROFILEEDGES
100
AcDbPolyline
 90
        2
 70
     0
 43
0.8108172472180606
 10
134.0087212901562
 20
-92.0134818678446
 10
134.0087212901562
 20
-88.0134818678446
  0
LWPOLYLINE
  5
179
330
1F
100
AcDbEntity
  8
PROFILEEDGES
100
AcDbPolyline
 90
        2
 70
     0
 43
0.8108172472180606
 10
44.00872129015621
 20
-92.0134818678446
 10
40.00872129015617
 20
-92.0134818678446
  0
LWPOLYLINE
  5
17A
330
1F
100
AcDbEntity
  8
PROFILEEDGES
100
AcDbPolyline
 90
        2
 70
     0
 43
0.8108172472180606
 10
-57.99127870984383
 20
-63.01348186784461
 10
-57.99127870984383
 20
-96.01348186784459
  0
LWPOLYLINE
  5
17B
330
1F
100
AcDbEntity
  8
PROFILEEDGES
100
AcDbPolyline
 90
        2
 70
     0
 43
0.8108172472180606
 10
92.00872129015617
 20
-58.01348186784457
 10
122.0087212901562
 20
-8.013481867844574
  0
LWPOLYLINE
  5
17C
330
1F
100
AcDbEntity
  8
PROFILEEDGES
100
AcDbPolyline
 90
        2
 70
     0
 43
0.8108172472180606
 10
-52.99127870984383
 20
-58.01348186784457
 10
92.00872129015617
 20
-58.01348186784457
  0
LWPOLYLINE
  5
17D
330
1F
100
AcDbEntity
  8
PROFILEEDGES
100
AcDbPolyline
 90
        2
 70
     0
 43
0.8108172472180606
 10
-27.01696722434849
 20
-74.02109247166125
 10
-26.50723842319248
 20
-74.13409662627288
  0
LWPOLYLINE
  5
17E
330
1F
100
AcDbEntity
  8
PROFILEEDGES
100
AcDbPolyline
 90
        2
 70
     0
 43
0.8108172472180606
 10
-25.19888931366032
 20
-76.18779335334008
 10
-25.31189346827198
 20
-76.69752215449599
  0
LWPOLYLINE
  5
17F
330
1F
100
AcDbEntity
  8
PROFILEEDGES
100
AcDbPolyline
 90
        2
 70
     0
 43
0.8108172472180606
 10
-29.1608942158682
 20
-76.3607782231786
 10
-29.18366810602731
 20
-75.83917038234935
  0
LWPOLYLINE
  5
180
330
1F
100
AcDbEntity
  8
PROFILEEDGES
100
AcDbPolyline
 90
        2
 70
     0
 43
0.8108172472180606
 10
-29.18366810602731
 20
-75.83917038234935
 10
-29.07066395141567
 20
-75.32944158119345
  0
LWPOLYLINE
  5
181
330
1F
100
AcDbEntity
  8
PROFILEEDGES
100
AcDbPolyline
 90
        2
 70
     0
 43
0.8108172472180606
 10
-25.22166320381941
 20
-75.66618551251084
 10
-25.19888931366032
 20
-76.18779335334008
  0
LWPOLYLINE
  5
182
330
1F
100
AcDbEntity
  8
PROFILEEDGES
100
AcDbPolyline
 90
        2
 70
     0
 43
0.8108172472180606
 10
-27.53857506517767
 20
-74.04386636182026
 10
-27.01696722434849
 20
-74.02109247166125
  0
LWPOLYLINE
  5
183
330
1F
100
AcDbEntity
  8
PROFILEEDGES
100
AcDbPolyline
 90
        2
 70
     0
 43
0.8108172472180606
 10
138.0087212901562
 20
-92.0134818678446
 10
134.0087212901562
 20
-92.0134818678446
  0
LWPOLYLINE
  5
184
330
1F
100
AcDbEntity
  8
PROFILEEDGES
100
AcDbPolyline
 90
        2
 70
     0
 43
0.8108172472180606
 10
133.2882229250889
 20
-77.5506466495775
 10
132.8467774431431
 20
-77.82942842114295
  0
LWPOLYLINE
  5
185
330
1F
100
AcDbEntity
  8
PROFILEEDGES
100
AcDbPolyline
 90
        2
 70
     0
 43
0.8108172472180606
 10
133.8246678434554
 20
-75.17542571485627
 10
133.979695858407
 20
-75.67398333867479
  0
LWPOLYLINE
  5
186
330
1F
100
AcDbEntity
  8
PROFILEEDGES
100
AcDbPolyline
 90
        2
 70
     0
 43
0.8108172472180606
 10
133.8853846010587
 20
-76.7049548011615
 10
133.6424724850904
 20
-77.16710963842189
  0
LWPOLYLINE
  5
187
330
1F
100
AcDbEntity
  8
PROFILEEDGES
100
AcDbPolyline
 90
        2
 70
     0
 43
0.8108172472180606
 10
131.3172483568379
 20
-77.89014517874617
 10
130.8550935195774
 20
-77.64723306277791
  0
LWPOLYLINE
  5
188
330
1F
100
AcDbEntity
  8
PROFILEEDGES
100
AcDbPolyline
 90
        2
 70
     0
 43
0.8108172472180606
 10
133.979695858407
 20
-75.67398333867479
 10
134.0004052137216
 20
-76.19567722620839
  0
LWPOLYLINE
  5
189
330
1F
100
AcDbEntity
  8
PROFILEEDGES
100
AcDbPolyline
 90
        2
 70
     0
 43
0.8108172472180606
 10
130.1927747368564
 20
-76.85153802083065
 10
130.0377467219049
 20
-76.35298039701203
  0
LWPOLYLINE
  5
18A
330
1F
100
AcDbEntity
  8
PROFILEEDGES
100
AcDbPolyline
 90
        2
 70
     0
 43
0.8108172472180606
 10
-25.37866313577053
 20
-75.16824534436327
 10
-25.22166320381941
 20
-75.66618551251084
  0
LWPOLYLINE
  5
18B
330
1F
100
AcDbEntity
  8
PROFILEEDGES
100
AcDbPolyline
 90
        2
 70
     0
 43
0.8108172472180606
 10
132.1909166485209
 20
-74.02179794427767
 10
132.700194223474
 20
-74.13681855694065
  0
LWPOLYLINE
  5
18C
330
1F
100
AcDbEntity
  8
PROFILEEDGES
100
AcDbPolyline
 90
        2
 70
     0
 43
0.8108172472180606
 10
-26.04412583714172
 20
-74.37517777926675
 10
-25.65918982360586
 20
-74.72790664847163
  0
LWPOLYLINE
  5
18D
330
1F
100
AcDbEntity
  8
PROFILEEDGES
100
AcDbPolyline
 90
        2
 70
     0
 43
0.8108172472180606
 10
-25.65918982360586
 20
-74.72790664847163
 10
-25.37866313577053
 20
-75.16824534436327
  0
LWPOLYLINE
  5
18E
330
1F
100
AcDbEntity
  8
PROFILEEDGES
100
AcDbPolyline
 90
        2
 70
     0
 43
0.8108172472180606
 10
-28.72336759608175
 20
-77.29905708721772
 10
-29.00389428391708
 20
-76.85871839132616
  0
LWPOLYLINE
  5
18F
330
1F
100
AcDbEntity
  8
PROFILEEDGES
100
AcDbPolyline
 90
        2
 70
     0
 43
0.8108172472180606
 10
126.0087212901562
 20
-16.01348186784456
 10
126.0087212901562
 20
-12.01348186784456
  0
LWPOLYLINE
  5
190
330
1F
100
AcDbEntity
  8
PROFILEEDGES
100
AcDbPolyline
 90
        2
 70
     0
 43
0.8108172472180606
 10
130.0087212901561
 20
-12.01348186784456
 10
130.0087212901561
 20
-16.01348186784456
  0
LWPOLYLINE
  5
191
330
1F
100
AcDbEntity
  8
PROFILEEDGES
100
AcDbPolyline
 90
        2
 70
     0
 43
0.8108172472180606
 10
126.0087212901562
 20
-12.01348186784456
 10
130.0087212901561
 20
-12.01348186784456
  0
LWPOLYLINE
  5
192
330
1F
100
AcDbEntity
  8
PROFILEEDGES
100
AcDbPolyline
 90
        2
 70
     0
 43
0.8108172472180606
 10
134.0087212901561
 20
-12.01348186784456
 10
138.0087212901561
 20
-12.01348186784456
  0
LWPOLYLINE
  5
193
330
1F
100
AcDbEntity
  8
PROFILEEDGES
100
AcDbPolyline
 90
        2
 70
     0
 43
0.8108172472180606
 10
138.0087212901561
 20
-16.01348186784456
 10
134.0087212901561
 20
-16.01348186784456
  0
LWPOLYLINE
  5
194
330
1F
100
AcDbEntity
  8
PROFILEEDGES
100
AcDbPolyline
 90
        2
 70
     0
 43
0.8108172472180606
 10
133.3650871326887
 20
-50.5776289752062
 10
129.4589421395861
 20
-51.43904135778424
  0
LWPOLYLINE
  5
195
330
1F
100
AcDbEntity
  8
PROFILEEDGES
100
AcDbPolyline
 90
        2
 70
     0
 43
0.8108172472180606
 10
128.597529757008
 20
-47.53289636468149
 10
132.5036747501106
 20
-46.67148398210345
  0
LWPOLYLINE
  5
196
330
1F
100
AcDbEntity
  8
PROFILEEDGES
100
AcDbPolyline
 90
        2
 70
     0
 43
0.8108172472180606
 10
129.4589421395861
 20
-51.43904135778424
 10
128.597529757008
 20
-47.53289636468149
  0
LWPOLYLINE
  5
197
330
1F
100
AcDbEntity
  8
PROFILEEDGES
100
AcDbPolyline
 90
        2
 70
     0
 43
0.8108172472180606
 10
125.1518802266957
 20
-31.90831639227077
 10
124.2904678441177
 20
-28.00217139916811
  0
LWPOLYLINE
  5
198
330
1F
100
AcDbEntity
  8
PROFILEEDGES
100
AcDbPolyline
 90
        2
 70
     0
 43
0.8108172472180606
 10
129.0580252197984
 20
-31.04690400969273
 10
125.1518802266957
 20
-31.90831639227077
  0
LWPOLYLINE
  5
199
330
1F
100
AcDbEntity
  8
PROFILEEDGES
100
AcDbPolyline
 90
        2
 70
     0
 43
0.8108172472180606
 10
124.2904678441177
 20
-28.00217139916811
 10
128.1966128372204
 20
-27.14075901659007
  0
LWPOLYLINE
  5
19A
330
1F
100
AcDbEntity
  8
PROFILEEDGES
100
AcDbPolyline
 90
        2
 70
     0
 43
0.8108172472180606
 10
128.1966128372204
 20
-27.14075901659007
 10
129.0580252197984
 20
-31.04690400969273
  0
LWPOLYLINE
  5
19B
330
1F
100
AcDbEntity
  8
PROFILEEDGES
100
AcDbPolyline
 90
        2
 70
     0
 43
0.8108172472180606
 10
132.5036747501106
 20
-46.67148398210345
 10
133.3650871326887
 20
-50.5776289752062
  0
LWPOLYLINE
  5
19C
330
1F
100
AcDbEntity
  8
PROFILEEDGES
100
AcDbPolyline
 90
        2
 70
     0
 43
0.8108172472180606
 10
-28.03651523332523
 20
-74.20086629377138
 10
-27.53857506517767
 20
-74.04386636182026
  0
LWPOLYLINE
  5
19D
330
1F
100
AcDbEntity
  8
PROFILEEDGES
100
AcDbPolyline
 90
        2
 70
     0
 43
0.8108172472180606
 10
-28.47685392921688
 20
-74.48139298160676
 10
-28.03651523332523
 20
-74.20086629377138
  0
LWPOLYLINE
  5
19E
330
1F
100
AcDbEntity
  8
PROFILEEDGES
100
AcDbPolyline
 90
        2
 70
     0
 43
0.8108172472180606
 10
-25.9057034904707
 20
-77.54557075408268
 10
-26.3460421863624
 20
-77.82609744191797
  0
LWPOLYLINE
  5
19F
330
1F
100
AcDbEntity
  8
PROFILEEDGES
100
AcDbPolyline
 90
        2
 70
     0
 43
0.8108172472180606
 10
-29.07066395141567
 20
-75.32944158119345
 10
-28.8295827984218
 20
-74.8663289951426
  0
LWPOLYLINE
  5
1A0
330
1F
100
AcDbEntity
  8
PROFILEEDGES
100
AcDbPolyline
 90
        2
 70
     0
 43
0.8108172472180606
 10
-28.8295827984218
 20
-74.8663289951426
 10
-28.47685392921688
 20
-74.48139298160676
  0
LWPOLYLINE
  5
1A1
330
1F
100
AcDbEntity
  8
PROFILEEDGES
100
AcDbPolyline
 90
        2
 70
     0
 43
0.8108172472180606
 10
130.8550935195774
 20
-77.64723306277791
 10
130.4715565084218
 20
-77.29298350277642
  0
LWPOLYLINE
  5
1A2
330
1F
100
AcDbEntity
  8
PROFILEEDGES
100
AcDbPolyline
 90
        2
 70
     0
 43
0.8108172472180606
 10
-25.55297462126585
 20
-77.16063474054684
 10
-25.9057034904707
 20
-77.54557075408268
  0
LWPOLYLINE
  5
1A3
330
1F
100
AcDbEntity
  8
PROFILEEDGES
100
AcDbPolyline
 90
        2
 70
     0
 43
0.8108172472180606
 10
-29.00389428391708
 20
-76.85871839132616
 10
-29.1608942158682
 20
-76.3607782231786
  0
LWPOLYLINE
  5
1A4
330
1F
100
AcDbEntity
  8
PROFILEEDGES
100
AcDbPolyline
 90
        2
 70
     0
 43
0.8108172472180606
 10
-28.33843158254589
 20
-77.65178595642269
 10
-28.72336759608175
 20
-77.29905708721772
  0
LWPOLYLINE
  5
1A5
330
1F
100
AcDbEntity
  8
PROFILEEDGES
100
AcDbPolyline
 90
        2
 70
     0
 43
0.8108172472180606
 10
-27.36559019533916
 20
-78.00587126402819
 10
-27.87531899649517
 20
-77.89286710941647
  0
LWPOLYLINE
  5
1A6
330
1F
100
AcDbEntity
  8
PROFILEEDGES
100
AcDbPolyline
 90
        2
 70
     0
 43
0.8108172472180606
 10
-14.30252917246417
 20
-89.03848186784455
 10
-14.10772334858017
 20
-89.5087847298947
  0
LWPOLYLINE
  5
1A7
330
1F
100
AcDbEntity
  8
PROFILEEDGES
100
AcDbPolyline
 90
        2
 70
     0
 43
0.8108172472180606
 10
-27.87531899649517
 20
-77.89286710941647
 10
-28.33843158254589
 20
-77.65178595642269
  0
LWPOLYLINE
  5
1A8
330
1F
100
AcDbEntity
  8
PROFILEEDGES
100
AcDbPolyline
 90
        2
 70
     0
 43
0.8108172472180606
 10
-26.3460421863624
 20
-77.82609744191797
 10
-26.84398235450996
 20
-77.98309737386907
  0
LWPOLYLINE
  5
1A9
330
1F
100
AcDbEntity
  8
PROFILEEDGES
100
AcDbPolyline
 90
        2
 70
     0
 43
0.8108172472180606
 10
-26.50723842319248
 20
-74.13409662627288
 10
-26.04412583714172
 20
-74.37517777926675
  0
LWPOLYLINE
  5
1AA
330
1F
100
AcDbEntity
  8
PROFILEEDGES
100
AcDbPolyline
 90
        2
 70
     0
 43
0.8108172472180606
 10
-15.48658157189392
 20
-88.12992650658079
 10
-15.01627870984381
 20
-88.32473233046483
  0
LWPOLYLINE
  5
1AB
330
1F
100
AcDbEntity
  8
PROFILEEDGES
100
AcDbPolyline
 90
        2
 70
     0
 43
0.8108172472180606
 10
-15.99127870984386
 20
-88.0634818678446
 10
-15.48658157189392
 20
-88.12992650658079
  0
LWPOLYLINE
  5
1AC
330
1F
100
AcDbEntity
  8
PROFILEEDGES
100
AcDbPolyline
 90
        2
 70
     0
 43
0.8108172472180606
 10
-16.49597584779375
 20
-88.12992650658097
 10
-15.99127870984386
 20
-88.0634818678446
  0
LWPOLYLINE
  5
1AD
330
1F
100
AcDbEntity
  8
PROFILEEDGES
100
AcDbPolyline
 90
        2
 70
     0
 43
0.8108172472180606
 10
-16.96627870984391
 20
-88.32473233046483
 10
-16.49597584779375
 20
-88.12992650658097
  0
LWPOLYLINE
  5
1AE
330
1F
100
AcDbEntity
  8
PROFILEEDGES
100
AcDbPolyline
 90
        2
 70
     0
 43
0.8108172472180606
 10
-17.37013693315765
 20
-88.63462364453078
 10
-16.96627870984391
 20
-88.32473233046483
  0
LWPOLYLINE
  5
1AF
330
1F
100
AcDbEntity
  8
PROFILEEDGES
100
AcDbPolyline
 90
        2
 70
     0
 43
0.8108172472180606
 10
-17.68002824722354
 20
-89.03848186784464
 10
-17.37013693315765
 20
-88.63462364453078
  0
LWPOLYLINE
  5
1B0
330
1F
100
AcDbEntity
  8
PROFILEEDGES
100
AcDbPolyline
 90
        2
 70
     0
 43
0.8108172472180606
 10
-17.87483407110754
 20
-89.5087847298947
 10
-17.68002824722354
 20
-89.03848186784464
  0
LWPOLYLINE
  5
1B1
330
1F
100
AcDbEntity
  8
PROFILEEDGES
100
AcDbPolyline
 90
        2
 70
     0
 43
0.8108172472180606
 10
-17.94127870984382
 20
-90.01348186784452
 10
-17.87483407110754
 20
-89.5087847298947
  0
LWPOLYLINE
  5
1B2
330
1F
100
AcDbEntity
  8
PROFILEEDGES
100
AcDbPolyline
 90
        2
 70
     0
 43
0.8108172472180606
 10
-17.8748340711075
 20
-90.5181790057945
 10
-17.94127870984382
 20
-90.01348186784452
  0
LWPOLYLINE
  5
1B3
330
1F
100
AcDbEntity
  8
PROFILEEDGES
100
AcDbPolyline
 90
        2
 70
     0
 43
0.8108172472180606
 10
-17.6800282472235
 20
-90.98848186784456
 10
-17.8748340711075
 20
-90.5181790057945
  0
LWPOLYLINE
  5
1B4
330
1F
100
AcDbEntity
  8
PROFILEEDGES
100
AcDbPolyline
 90
        2
 70
     0
 43
0.8108172472180606
 10
-17.37013693315751
 20
-91.39234009115835
 10
-17.6800282472235
 20
-90.98848186784456
  0
LWPOLYLINE
  5
1B5
330
1F
100
AcDbEntity
  8
PROFILEEDGES
100
AcDbPolyline
 90
        2
 70
     0
 43
0.8108172472180606
 10
-16.96627870984382
 20
-91.7022314052242
 10
-17.37013693315751
 20
-91.39234009115835
  0
LWPOLYLINE
  5
1B6
330
1F
100
AcDbEntity
  8
PROFILEEDGES
100
AcDbPolyline
 90
        2
 70
     0
 43
0.8108172472180606
 10
-16.49597584779375
 20
-91.89703722910824
 10
-16.96627870984382
 20
-91.7022314052242
  0
LWPOLYLINE
  5
1B7
330
1F
100
AcDbEntity
  8
PROFILEEDGES
100
AcDbPolyline
 90
        2
 70
     0
 43
0.8108172472180606
 10
-15.99127870984386
 20
-91.96348186784444
 10
-16.49597584779375
 20
-91.89703722910824
  0
LWPOLYLINE
  5
1B8
330
1F
100
AcDbEntity
  8
PROFILEEDGES
100
AcDbPolyline
 90
        2
 70
     0
 43
0.8108172472180606
 10
-15.48658157189392
 20
-91.89703722910824
 10
-15.99127870984386
 20
-91.96348186784444
  0
LWPOLYLINE
  5
1B9
330
1F
100
AcDbEntity
  8
PROFILEEDGES
100
AcDbPolyline
 90
        2
 70
     0
 43
0.8108172472180606
 10
-15.01627870984385
 20
-91.7022314052242
 10
-15.48658157189392
 20
-91.89703722910824
  0
LWPOLYLINE
  5
1BA
330
1F
100
AcDbEntity
  8
PROFILEEDGES
100
AcDbPolyline
 90
        2
 70
     0
 43
0.8108172472180606
 10
-14.61242048653007
 20
-91.39234009115826
 10
-15.01627870984385
 20
-91.7022314052242
  0
LWPOLYLINE
  5
1BB
330
1F
100
AcDbEntity
  8
PROFILEEDGES
100
AcDbPolyline
 90
        2
 70
     0
 43
0.8108172472180606
 10
-14.30252917246426
 20
-90.98848186784465
 10
-14.61242048653007
 20
-91.39234009115826
  0
LWPOLYLINE
  5
1BC
330
1F
100
AcDbEntity
  8
PROFILEEDGES
100
AcDbPolyline
 90
        2
 70
     0
 43
0.8108172472180606
 10
-14.10772334858017
 20
-90.5181790057945
 10
-14.30252917246426
 20
-90.98848186784465
  0
LWPOLYLINE
  5
1BD
330
1F
100
AcDbEntity
  8
PROFILEEDGES
100
AcDbPolyline
 90
        2
 70
     0
 43
0.8108172472180606
 10
-14.04127870984385
 20
-90.01348186784452
 10
-14.10772334858017
 20
-90.5181790057945
  0
LWPOLYLINE
  5
1BE
330
1F
100
AcDbEntity
  8
PROFILEEDGES
100
AcDbPolyline
 90
        2
 70
     0
 43
0.8108172472180606
 10
138.0087212901562
 20
-88.0134818678446
 10
134.0087212901562
 20
-88.0134818678446
  0
LWPOLYLINE
  5
1BF
330
1F
100
AcDbEntity
  8
PROFILEEDGES
100
AcDbPolyline
 90
        2
 70
     0
 43
0.8108172472180606
 10
44.00872129015621
 20
-88.0134818678446
 10
40.00872129015617
 20
-88.0134818678446
  0
LWPOLYLINE
  5
1C0
330
1F
100
AcDbEntity
  8
PROFILEEDGES
100
AcDbPolyline
 90
        2
 70
     0
 43
0.8108172472180606
 10
44.00872129015621
 20
-92.0134818678446
 10
44.00872129015621
 20
-88.0134818678446
  0
LWPOLYLINE
  5
1C1
330
1F
100
AcDbEntity
  8
PROFILEEDGES
100
AcDbPolyline
 90
        2
 70
     0
 43
0.8108172472180606
 10
101.6974708275359
 20
-89.03848186784455
 10
101.8922766514198
 20
-89.50878472989461
  0
LWPOLYLINE
  5
1C2
330
1F
100
AcDbEntity
  8
PROFILEEDGES
100
AcDbPolyline
 90
        2
 70
     0
 43
0.8108172472180606
 10
100.0087212901562
 20
-91.96348186784452
 10
99.50402415220626
 20
-91.89703722910824
  0
LWPOLYLINE
  5
1C3
330
1F
100
AcDbEntity
  8
PROFILEEDGES
100
AcDbPolyline
 90
        2
 70
     0
 43
0.8108172472180606
 10
101.6974708275358
 20
-90.98848186784465
 10
101.3875795134699
 20
-91.39234009115835
  0
LWPOLYLINE
  5
1C4
330
1F
100
AcDbEntity
  8
PROFILEEDGES
100
AcDbPolyline
 90
        2
 70
     0
 43
0.8108172472180606
 10
100.9837212901562
 20
-91.7022314052242
 10
100.5134184281061
 20
-91.89703722910824
  0
LWPOLYLINE
  5
1C5
330
1F
100
AcDbEntity
  8
PROFILEEDGES
100
AcDbPolyline
 90
        2
 70
     0
 43
0.8108172472180606
 10
101.38757951347
 20
-88.63462364453078
 10
101.6974708275359
 20
-89.03848186784455
  0
LWPOLYLINE
  5
1C6
330
1F
100
AcDbEntity
  8
PROFILEEDGES
100
AcDbPolyline
 90
        2
 70
     0
 43
0.8108172472180606
 10
101.8922766514198
 20
-89.50878472989461
 10
101.9587212901562
 20
-90.0134818678446
  0
LWPOLYLINE
  5
1C7
330
1F
100
AcDbEntity
  8
PROFILEEDGES
100
AcDbPolyline
 90
        2
 70
     0
 43
0.8108172472180606
 10
101.9587212901562
 20
-90.0134818678446
 10
101.8922766514198
 20
-90.5181790057945
  0
LWPOLYLINE
  5
1C8
330
1F
100
AcDbEntity
  8
PROFILEEDGES
100
AcDbPolyline
 90
        2
 70
     0
 43
0.8108172472180606
 10
99.50402415220626
 20
-91.89703722910824
 10
99.0337212901562
 20
-91.70223140522428
  0
LWPOLYLINE
  5
1C9
330
1F
100
AcDbEntity
  8
PROFILEEDGES
100
AcDbPolyline
 90
        2
 70
     0
 43
0.8108172472180606
 10
-26.84398235450996
 20
-77.98309737386907
 10
-27.36559019533916
 20
-78.00587126402819
  0
LWPOLYLINE
  5
1CA
330
1F
100
AcDbEntity
  8
PROFILEEDGES
100
AcDbPolyline
 90
        2
 70
     0
 43
0.8108172472180606
 10
-49.99127870984382
 20
-88.0134818678446
 10
-53.99127870984383
 20
-88.0134818678446
  0
LWPOLYLINE
  5
1CB
330
1F
100
AcDbEntity
  8
PROFILEEDGES
100
AcDbPolyline
 90
        2
 70
     0
 43
0.8108172472180606
 10
-57.99127870984383
 20
-63.01348186784461
 10
-52.99127870984383
 20
-58.01348186784457
  0
LWPOLYLINE
  5
1CC
330
1F
100
AcDbEntity
  8
PROFILEEDGES
100
AcDbPolyline
 90
        2
 70
     0
 43
0.8108172472180606
 10
142.0087212901562
 20
-96.01348186784459
 10
142.0087212901562
 20
-8.013481867844574
  0
LWPOLYLINE
  5
1CD
330
1F
100
AcDbEntity
  8
PROFILEEDGES
100
AcDbPolyline
 90
        2
 70
     0
 43
0.8108172472180606
 10
-57.99127870984383
 20
-96.01348186784459
 10
142.0087212901562
 20
-96.01348186784459
  0
LWPOLYLINE
  5
1CE
330
1F
100
AcDbEntity
  8
PROFILEEDGES
100
AcDbPolyline
 90
        2
 70
     0
 43
0.8108172472180606
 10
101.3875795134699
 20
-91.39234009115835
 10
100.9837212901562
 20
-91.7022314052242
  0
LWPOLYLINE
  5
1CF
330
1F
100
AcDbEntity
  8
PROFILEEDGES
100
AcDbPolyline
 90
        2
 70
     0
 43
0.8108172472180606
 10
100.5134184281061
 20
-91.89703722910824
 10
100.0087212901562
 20
-91.96348186784452
  0
LWPOLYLINE
  5
1D0
330
1F
100
AcDbEntity
  8
PROFILEEDGES
100
AcDbPolyline
 90
        2
 70
     0
 43
0.8108172472180606
 10
99.50402415220626
 20
-88.12992650658079
 10
100.0087212901562
 20
-88.0634818678446
  0
LWPOLYLINE
  5
1D1
330
1F
100
AcDbEntity
  8
PROFILEEDGES
100
AcDbPolyline
 90
        2
 70
     0
 43
0.8108172472180606
 10
-25.31189346827198
 20
-76.69752215449599
 10
-25.55297462126585
 20
-77.16063474054684
  0
LWPOLYLINE
  5
1D2
330
1F
100
AcDbEntity
  8
PROFILEEDGES
100
AcDbPolyline
 90
        2
 70
     0
 43
0.8108172472180606
 10
131.1706651371687
 20
-74.19753531454397
 10
131.6692227609873
 20
-74.04250729959234
  0
LWPOLYLINE
  5
1D3
330
1F
100
AcDbEntity
  8
PROFILEEDGES
100
AcDbPolyline
 90
        2
 70
     0
 43
0.8108172472180606
 10
-15.01627870984381
 20
-88.32473233046483
 10
-14.61242048653007
 20
-88.63462364453078
  0
LWPOLYLINE
  5
1D4
330
1F
100
AcDbEntity
  8
PROFILEEDGES
100
AcDbPolyline
 90
        2
 70
     0
 43
0.8108172472180606
 10
-14.61242048653007
 20
-88.63462364453078
 10
-14.30252917246417
 20
-89.03848186784455
  0
LWPOLYLINE
  5
1D5
330
1F
100
AcDbEntity
  8
PROFILEEDGES
100
AcDbPolyline
 90
        2
 70
     0
 43
0.8108172472180606
 10
130.0087212901561
 20
-16.01348186784456
 10
126.0087212901562
 20
-16.01348186784456
  0
LWPOLYLINE
  5
1D6
330
1F
100
AcDbEntity
  8
PROFILEEDGES
100
AcDbPolyline
 90
        2
 70
     0
 43
0.8108172472180606
 10
138.0087212901561
 20
-12.01348186784456
 10
138.0087212901561
 20
-16.01348186784456
  0
LWPOLYLINE
  5
1D7
330
1F
100
AcDbEntity
  8
PROFILEEDGES
100
AcDbPolyline
 90
        2
 70
     0
 43
0.8108172472180606
 10
134.0087212901561
 20
-16.01348186784456
 10
134.0087212901561
 20
-12.01348186784456
  0
LWPOLYLINE
  5
1D8
330
1F
100
AcDbEntity
  8
PROFILEEDGES
100
AcDbPolyline
 90
        2
 70
     0
 43
0.8108172472180606
 10
138.0087212901562
 20
-92.0134818678446
 10
138.0087212901562
 20
-88.0134818678446
  0
LWPOLYLINE
  5
1D9
330
1F
100
AcDbEntity
  8
PROFILEEDGES
100
AcDbPolyline
 90
        2
 70
     0
 43
0.8108172472180606
 10
133.5458860718901
 20
-74.73398023291048
 10
133.8246678434554
 20
-75.17542571485627
  0
LWPOLYLINE
  5
1DA
330
1F
100
AcDbEntity
  8
PROFILEEDGES
100
AcDbPolyline
 90
        2
 70
     0
 43
0.8108172472180606
 10
134.0004052137216
 20
-76.19567722620839
 10
133.8853846010587
 20
-76.7049548011615
  0
LWPOLYLINE
  5
1DB
330
1F
100
AcDbEntity
  8
PROFILEEDGES
100
AcDbPolyline
 90
        2
 70
     0
 43
0.8108172472180606
 10
133.6424724850904
 20
-77.16710963842189
 10
133.2882229250889
 20
-77.5506466495775
  0
LWPOLYLINE
  5
1DC
330
1F
100
AcDbEntity
  8
PROFILEEDGES
100
AcDbPolyline
 90
        2
 70
     0
 43
0.8108172472180606
 10
132.8467774431431
 20
-77.82942842114295
 10
132.3482198193246
 20
-77.98445643609439
  0
LWPOLYLINE
  5
1DD
330
1F
100
AcDbEntity
  8
PROFILEEDGES
100
AcDbPolyline
 90
        2
 70
     0
 43
0.8108172472180606
 10
132.3482198193246
 20
-77.98445643609439
 10
131.826525931791
 20
-78.00516579140917
  0
LWPOLYLINE
  5
1DE
330
1F
100
AcDbEntity
  8
PROFILEEDGES
100
AcDbPolyline
 90
        2
 70
     0
 43
0.8108172472180606
 10
131.826525931791
 20
-78.00516579140917
 10
131.3172483568379
 20
-77.89014517874617
  0
LWPOLYLINE
  5
1DF
330
1F
100
AcDbEntity
  8
PROFILEEDGES
100
AcDbPolyline
 90
        2
 70
     0
 43
0.8108172472180606
 10
130.4715565084218
 20
-77.29298350277642
 10
130.1927747368564
 20
-76.85153802083065
  0
LWPOLYLINE
  5
1E0
330
1F
100
AcDbEntity
  8
PROFILEEDGES
100
AcDbPolyline
 90
        2
 70
     0
 43
0.8108172472180606
 10
130.0377467219049
 20
-76.35298039701203
 10
130.0170373665901
 20
-75.83128650947852
  0
LWPOLYLINE
  5
1E1
330
1F
100
AcDbEntity
  8
PROFILEEDGES
100
AcDbPolyline
 90
        2
 70
     0
 43
0.8108172472180606
 10
130.0170373665901
 20
-75.83128650947852
 10
130.1320579792531
 20
-75.3220089345254
  0
LWPOLYLINE
  5
1E2
330
1F
100
AcDbEntity
  8
PROFILEEDGES
100
AcDbPolyline
 90
        2
 70
     0
 43
0.8108172472180606
 10
130.1320579792531
 20
-75.3220089345254
 10
130.3749700952214
 20
-74.85985409726484
  0
LWPOLYLINE
  5
1E3
330
1F
100
AcDbEntity
  8
PROFILEEDGES
100
AcDbPolyline
 90
        2
 70
     0
 43
0.8108172472180606
 10
130.3749700952214
 20
-74.85985409726484
 10
130.729219655223
 20
-74.47631708610923
  0
LWPOLYLINE
  5
1E4
330
1F
100
AcDbEntity
  8
PROFILEEDGES
100
AcDbPolyline
 90
        2
 70
     0
 43
0.8108172472180606
 10
130.729219655223
 20
-74.47631708610923
 10
131.1706651371687
 20
-74.19753531454397
  0
LWPOLYLINE
  5
1E5
330
1F
100
AcDbEntity
  8
PROFILEEDGES
100
AcDbPolyline
 90
        2
 70
     0
 43
0.8108172472180606
 10
131.6692227609873
 20
-74.04250729959234
 10
132.1909166485209
 20
-74.02179794427767
  0
LWPOLYLINE
  5
1E6
330
1F
100
AcDbEntity
  8
PROFILEEDGES
100
AcDbPolyline
 90
        2
 70
     0
 43
0.8108172472180606
 10
132.700194223474
 20
-74.13681855694065
 10
133.1623490607345
 20
-74.3797306729089
  0
LWPOLYLINE
  5
1E7
330
1F
100
AcDbEntity
  8
PROFILEEDGES
100
AcDbPolyline
 90
        2
 70
     0
 43
0.8108172472180606
 10
133.1623490607345
 20
-74.3797306729089
 10
133.5458860718901
 20
-74.73398023291048
  0
LWPOLYLINE
  5
1E8
330
1F
100
AcDbEntity
  8
PROFILEEDGES
100
AcDbPolyline
 90
        2
 70
     0
 43
0.8108172472180606
 10
101.8922766514198
 20
-90.5181790057945
 10
101.6974708275358
 20
-90.98848186784465
  0
LWPOLYLINE
  5
1E9
330
1F
100
AcDbEntity
  8
PROFILEEDGES
100
AcDbPolyline
 90
        2
 70
     0
 43
0.8108172472180606
 10
99.0337212901562
 20
-91.70223140522428
 10
98.62986306684242
 20
-91.39234009115835
  0
LWPOLYLINE
  5
1EA
330
1F
100
AcDbEntity
  8
PROFILEEDGES
100
AcDbPolyline
 90
        2
 70
     0
 43
0.8108172472180606
 10
98.62986306684242
 20
-91.39234009115835
 10
98.31997175277661
 20
-90.98848186784465
  0
LWPOLYLINE
  5
1EB
330
1F
100
AcDbEntity
  8
PROFILEEDGES
100
AcDbPolyline
 90
        2
 70
     0
 43
0.8108172472180606
 10
98.31997175277661
 20
-90.98848186784465
 10
98.12516592889247
 20
-90.5181790057945
  0
LWPOLYLINE
  5
1EC
330
1F
100
AcDbEntity
  8
PROFILEEDGES
100
AcDbPolyline
 90
        2
 70
     0
 43
0.8108172472180606
 10
98.12516592889247
 20
-90.5181790057945
 10
98.0587212901562
 20
-90.01348186784469
  0
LWPOLYLINE
  5
1ED
330
1F
100
AcDbEntity
  8
PROFILEEDGES
100
AcDbPolyline
 90
        2
 70
     0
 43
0.8108172472180606
 10
98.0587212901562
 20
-90.01348186784469
 10
98.12516592889247
 20
-89.5087847298947
  0
LWPOLYLINE
  5
1EE
330
1F
100
AcDbEntity
  8
PROFILEEDGES
100
AcDbPolyline
 90
        2
 70
     0
 43
0.8108172472180606
 10
98.12516592889247
 20
-89.5087847298947
 10
98.31997175277651
 20
-89.03848186784455
  0
LWPOLYLINE
  5
1EF
330
1F
100
AcDbEntity
  8
PROFILEEDGES
100
AcDbPolyline
 90
        2
 70
     0
 43
0.8108172472180606
 10
98.31997175277651
 20
-89.03848186784455
 10
98.62986306684238
 20
-88.63462364453086
  0
LWPOLYLINE
  5
1F0
330
1F
100
AcDbEntity
  8
PROFILEEDGES
100
AcDbPolyline
 90
        2
 70
     0
 43
0.8108172472180606
 10
98.62986306684238
 20
-88.63462364453086
 10
99.03372129015615
 20
-88.32473233046493
  0
LWPOLYLINE
  5
1F1
330
1F
100
AcDbEntity
  8
PROFILEEDGES
100
AcDbPolyline
 90
        2
 70
     0
 43
0.8108172472180606
 10
99.03372129015615
 20
-88.32473233046493
 10
99.50402415220626
 20
-88.12992650658079
  0
LWPOLYLINE
  5
1F2
330
1F
100
AcDbEntity
  8
PROFILEEDGES
100
AcDbPolyline
 90
        2
 70
     0
 43
0.8108172472180606
 10
100.0087212901562
 20
-88.0634818678446
 10
100.5134184281061
 20
-88.12992650658087
  0
LWPOLYLINE
  5
1F3
330
1F
100
AcDbEntity
  8
PROFILEEDGES
100
AcDbPolyline
 90
        2
 70
     0
 43
0.8108172472180606
 10
100.5134184281061
 20
-88.12992650658087
 10
100.9837212901562
 20
-88.32473233046493
  0
LWPOLYLINE
  5
1F4
330
1F
100
AcDbEntity
  8
PROFILEEDGES
100
AcDbPolyline
 90
        2
 70
     0
 43
0.8108172472180606
 10
100.9837212901562
 20
-88.32473233046493
 10
101.38757951347
 20
-88.63462364453078
  0
LWPOLYLINE
  5
1F5
330
1F
100
AcDbEntity
  8
PROFILEEDGES
100
AcDbPolyline
 90
        2
 70
     0
 43
0.8108172472180606
 10
133.0087212901562
 20
1.054509834893012
 10
133.0087212901562
 20
5.054509834893005
  0
LWPOLYLINE
  5
1F6
330
1F
100
AcDbEntity
  8
PROFILEEDGES
100
AcDbPolyline
 90
        2
 70
     0
 43
0.8108172472180606
 10
-58.99127870984383
 20
5.054509834892858
 10
-54.99127870984383
 20
5.054509834892861
  0
LWPOLYLINE
  5
1F7
330
1F
100
AcDbEntity
  8
PROFILEEDGES
100
AcDbPolyline
 90
        2
 70
     0
 43
0.8108172472180606
 10
129.0087212901562
 20
1.05450983489301
 10
129.0087212901562
 20
5.054509834893002
  0
LWPOLYLINE
  5
1F8
330
1F
100
AcDbEntity
  8
PROFILEEDGES
100
AcDbPolyline
 90
        2
 70
     0
 43
0.8108172472180606
 10
133.0087212901562
 20
1.054509834893012
 10
129.0087212901562
 20
1.05450983489301
  0
LWPOLYLINE
  5
1F9
330
1F
100
AcDbEntity
  8
PROFILEEDGES
100
AcDbPolyline
 90
        2
 70
     0
 43
0.8108172472180606
 10
-62.99127870984395
 20
85.0545098348929
 10
-42.99127870984395
 20
85.05450983489273
  0
LWPOLYLINE
  5
1FA
330
1F
100
AcDbEntity
  8
PROFILEEDGES
100
AcDbPolyline
 90
        2
 70
     0
 43
0.8108172472180606
 10
39.00872129015617
 20
1.05450983489294
 10
39.00872129015617
 20
5.054509834892933
  0
LWPOLYLINE
  5
1FB
330
1F
100
AcDbEntity
  8
PROFILEEDGES
100
AcDbPolyline
 90
        2
 70
     0
 43
0.8108172472180606
 10
35.00872129015618
 20
1.054509834892938
 10
35.00872129015618
 20
5.05450983489293
  0
LWPOLYLINE
  5
1FC
330
1F
100
AcDbEntity
  8
PROFILEEDGES
100
AcDbPolyline
 90
        2
 70
     0
 43
0.8108172472180606
 10
-54.99127870984383
 20
1.054509834892869
 10
-54.99127870984383
 20
5.054509834892861
  0
LWPOLYLINE
  5
1FD
330
1F
100
AcDbEntity
  8
PROFILEEDGES
100
AcDbPolyline
 90
        2
 70
     0
 43
0.8108172472180606
 10
39.00872129015617
 20
1.05450983489294
 10
35.00872129015618
 20
1.054509834892938
  0
LWPOLYLINE
  5
1FE
330
1F
100
AcDbEntity
  8
PROFILEEDGES
100
AcDbPolyline
 90
        2
 70
     0
 43
0.8108172472180606
 10
137.008721290156
 20
30.05450983489301
 10
137.0087212901562
 20
-2.945490165106977
  0
LWPOLYLINE
  5
1FF
330
1F
100
AcDbEntity
  8
PROFILEEDGES
100
AcDbPolyline
 90
        2
 70
     0
 43
0.8108172472180606
 10
-12.99127870984384
 20
35.05450983489284
 10
-42.99127870984395
 20
85.05450983489273
  0
LWPOLYLINE
  5
200
330
1F
100
AcDbEntity
  8
PROFILEEDGES
100
AcDbPolyline
 90
        2
 70
     0
 43
0.8108172472180606
 10
132.008721290156
 20
35.05450983489295
 10
-12.99127870984384
 20
35.05450983489284
  0
LWPOLYLINE
  5
201
330
1F
100
AcDbEntity
  8
PROFILEEDGES
100
AcDbPolyline
 90
        2
 70
     0
 43
0.8108172472180606
 10
105.5246810035048
 20
18.93389507646471
 10
106.0344098046608
 20
19.04689923107634
  0
LWPOLYLINE
  5
202
330
1F
100
AcDbEntity
  8
PROFILEEDGES
100
AcDbPolyline
 90
        2
 70
     0
 43
0.8108172472180606
 10
104.3293360485843
 20
16.37046954824151
 10
104.2163318939727
 20
16.8801983493975
  0
LWPOLYLINE
  5
203
330
1F
100
AcDbEntity
  8
PROFILEEDGES
100
AcDbPolyline
 90
        2
 70
     0
 43
0.8108172472180606
 10
108.2011106863396
 20
17.22882132038815
 10
108.1783367961805
 20
16.70721347955899
  0
LWPOLYLINE
  5
204
330
1F
100
AcDbEntity
  8
PROFILEEDGES
100
AcDbPolyline
 90
        2
 70
     0
 43
0.8108172472180606
 10
108.088106531728
 20
17.73855012154424
 10
108.2011106863396
 20
17.22882132038815
  0
LWPOLYLINE
  5
205
330
1F
100
AcDbEntity
  8
PROFILEEDGES
100
AcDbPolyline
 90
        2
 70
     0
 43
0.8108172472180606
 10
35.00872129015618
 20
5.05450983489293
 10
39.00872129015617
 20
5.054509834892933
  0
LWPOLYLINE
  5
206
330
1F
100
AcDbEntity
  8
PROFILEEDGES
100
AcDbPolyline
 90
        2
 70
     0
 43
0.8108172472180606
 10
104.2163318939727
 20
16.8801983493975
 10
104.2391057841317
 20
17.40180619022675
  0
LWPOLYLINE
  5
207
330
1F
100
AcDbEntity
  8
PROFILEEDGES
100
AcDbPolyline
 90
        2
 70
     0
 43
0.8108172472180606
 10
106.0344098046608
 20
19.04689923107634
 10
106.55601764549
 20
19.02412534091732
  0
LWPOLYLINE
  5
208
330
1F
100
AcDbEntity
  8
PROFILEEDGES
100
AcDbPolyline
 90
        2
 70
     0
 43
0.8108172472180606
 10
-54.99127870984383
 20
1.054509834892869
 10
-58.99127870984383
 20
1.054509834892866
  0
LWPOLYLINE
  5
209
330
1F
100
AcDbEntity
  8
PROFILEEDGES
100
AcDbPolyline
 90
        2
 70
     0
 43
0.8108172472180606
 10
-53.82933486283088
 20
15.23856328159461
 10
-54.27078034477667
 20
15.51734505315996
  0
LWPOLYLINE
  5
20A
330
1F
100
AcDbEntity
  8
PROFILEEDGES
100
AcDbPolyline
 90
        2
 70
     0
 43
0.8108172472180606
 10
-54.96225327809468
 20
17.39400836406268
 10
-54.80722526314312
 20
17.89256598788129
  0
LWPOLYLINE
  5
20B
330
1F
100
AcDbEntity
  8
PROFILEEDGES
100
AcDbPolyline
 90
        2
 70
     0
 43
0.8108172472180606
 10
-54.62502990477814
 20
15.90088206431558
 10
-54.86794202074643
 20
16.36303690157605
  0
LWPOLYLINE
  5
20C
330
1F
100
AcDbEntity
  8
PROFILEEDGES
100
AcDbPolyline
 90
        2
 70
     0
 43
0.8108172472180606
 10
-51.83765093926513
 20
15.42075863995955
 10
-52.29980577652564
 20
15.1778465239913
  0
LWPOLYLINE
  5
20D
330
1F
100
AcDbEntity
  8
PROFILEEDGES
100
AcDbPolyline
 90
        2
 70
     0
 43
0.8108172472180606
 10
-54.98296263340936
 20
16.87231447652907
 10
-54.96225327809468
 20
17.39400836406268
  0
LWPOLYLINE
  5
20E
330
1F
100
AcDbEntity
  8
PROFILEEDGES
100
AcDbPolyline
 90
        2
 70
     0
 43
0.8108172472180606
 10
-51.02030414159263
 20
16.71501130572544
 10
-51.17533215654414
 20
16.21645368190692
  0
LWPOLYLINE
  5
20F
330
1F
100
AcDbEntity
  8
PROFILEEDGES
100
AcDbPolyline
 90
        2
 70
     0
 43
0.8108172472180606
 10
104.2391057841317
 20
17.40180619022675
 10
104.3961057160828
 20
17.89974635837422
  0
LWPOLYLINE
  5
210
330
1F
100
AcDbEntity
  8
PROFILEEDGES
100
AcDbPolyline
 90
        2
 70
     0
 43
0.8108172472180606
 10
-53.68275164316171
 20
18.93117314579682
 10
-53.17347406820864
 20
19.04619375845981
  0
LWPOLYLINE
  5
211
330
1F
100
AcDbEntity
  8
PROFILEEDGES
100
AcDbPolyline
 90
        2
 70
     0
 43
0.8108172472180606
 10
104.6766324039182
 20
18.34008505426596
 10
105.061568417454
 20
18.69281392347083
  0
LWPOLYLINE
  5
212
330
1F
100
AcDbEntity
  8
PROFILEEDGES
100
AcDbPolyline
 90
        2
 70
     0
 43
0.8108172472180606
 10
104.3961057160828
 20
17.89974635837422
 10
104.6766324039182
 20
18.34008505426596
  0
LWPOLYLINE
  5
213
330
1F
100
AcDbEntity
  8
PROFILEEDGES
100
AcDbPolyline
 90
        2
 70
     0
 43
0.8108172472180606
 10
108.0213368642294
 20
16.20927331141143
 10
107.7408101763941
 20
15.76893461551979
  0
LWPOLYLINE
  5
214
330
1F
100
AcDbEntity
  8
PROFILEEDGES
100
AcDbPolyline
 90
        2
 70
     0
 43
0.8108172472180606
 10
-46.99127870984394
 20
81.05450983489273
 10
-46.99127870984394
 20
77.05450983489274
  0
LWPOLYLINE
  5
215
330
1F
100
AcDbEntity
  8
PROFILEEDGES
100
AcDbPolyline
 90
        2
 70
     0
 43
0.8108172472180606
 10
-50.99127870984393
 20
77.05450983489301
 10
-50.99127870984393
 20
81.054509834893
  0
LWPOLYLINE
  5
216
330
1F
100
AcDbEntity
  8
PROFILEEDGES
100
AcDbPolyline
 90
        2
 70
     0
 43
0.8108172472180606
 10
-50.99127870984393
 20
81.054509834893
 10
-46.99127870984394
 20
81.05450983489273
  0
LWPOLYLINE
  5
217
330
1F
100
AcDbEntity
  8
PROFILEEDGES
100
AcDbPolyline
 90
        2
 70
     0
 43
0.8108172472180606
 10
-58.99127870984394
 20
81.0545098348929
 10
-54.99127870984395
 20
81.0545098348929
  0
LWPOLYLINE
  5
218
330
1F
100
AcDbEntity
  8
PROFILEEDGES
100
AcDbPolyline
 90
        2
 70
     0
 43
0.8108172472180606
 10
-54.99127870984395
 20
77.05450983489291
 10
-58.99127870984394
 20
77.05450983489291
  0
LWPOLYLINE
  5
219
330
1F
100
AcDbEntity
  8
PROFILEEDGES
100
AcDbPolyline
 90
        2
 70
     0
 43
0.8108172472180606
 10
-50.44149955927382
 20
41.62895034495332
 10
-54.34764455237648
 20
42.49036272753136
  0
LWPOLYLINE
  5
21A
330
1F
100
AcDbEntity
  8
PROFILEEDGES
100
AcDbPolyline
 90
        2
 70
     0
 43
0.8108172472180606
 10
-53.48623216979841
 20
46.39650772063401
 10
-49.58008717669573
 20
45.53509533805597
  0
LWPOLYLINE
  5
21B
330
1F
100
AcDbEntity
  8
PROFILEEDGES
100
AcDbPolyline
 90
        2
 70
     0
 43
0.8108172472180606
 10
-46.13443764638344
 20
61.1596753104667
 10
-50.04058263948612
 20
62.02108769304483
  0
LWPOLYLINE
  5
21C
330
1F
100
AcDbEntity
  8
PROFILEEDGES
100
AcDbPolyline
 90
        2
 70
     0
 43
0.8108172472180606
 10
-49.17917025690804
 20
65.92723268614749
 10
-45.27302526380538
 20
65.06582030356937
  0
LWPOLYLINE
  5
21D
330
1F
100
AcDbEntity
  8
PROFILEEDGES
100
AcDbPolyline
 90
        2
 70
     0
 43
0.8108172472180606
 10
-45.27302526380538
 20
65.06582030356937
 10
-46.13443764638344
 20
61.1596753104667
  0
LWPOLYLINE
  5
21E
330
1F
100
AcDbEntity
  8
PROFILEEDGES
100
AcDbPolyline
 90
        2
 70
     0
 43
0.8108172472180606
 10
-50.04058263948612
 20
62.02108769304483
 10
-49.17917025690804
 20
65.92723268614749
  0
LWPOLYLINE
  5
21F
330
1F
100
AcDbEntity
  8
PROFILEEDGES
100
AcDbPolyline
 90
        2
 70
     0
 43
0.8108172472180606
 10
-49.58008717669573
 20
45.53509533805597
 10
-50.44149955927382
 20
41.62895034495332
  0
LWPOLYLINE
  5
220
330
1F
100
AcDbEntity
  8
PROFILEEDGES
100
AcDbPolyline
 90
        2
 70
     0
 43
0.8108172472180606
 10
106.55601764549
 20
19.02412534091732
 10
107.0539578136376
 20
18.8671254089662
  0
LWPOLYLINE
  5
221
330
1F
100
AcDbEntity
  8
PROFILEEDGES
100
AcDbPolyline
 90
        2
 70
     0
 43
0.8108172472180606
 10
129.0087212901562
 20
5.054509834893002
 10
133.0087212901562
 20
5.054509834893005
  0
LWPOLYLINE
  5
222
330
1F
100
AcDbEntity
  8
PROFILEEDGES
100
AcDbPolyline
 90
        2
 70
     0
 43
0.8108172472180606
 10
107.0539578136376
 20
18.8671254089662
 10
107.4942965095292
 20
18.58659872113083
  0
LWPOLYLINE
  5
223
330
1F
100
AcDbEntity
  8
PROFILEEDGES
100
AcDbPolyline
 90
        2
 70
     0
 43
0.8108172472180606
 10
105.3634847666748
 20
15.24189426081963
 10
104.923146070783
 20
15.52242094865491
  0
LWPOLYLINE
  5
224
330
1F
100
AcDbEntity
  8
PROFILEEDGES
100
AcDbPolyline
 90
        2
 70
     0
 43
0.8108172472180606
 10
107.8470253787341
 20
18.20166270759499
 10
108.088106531728
 20
17.73855012154424
  0
LWPOLYLINE
  5
225
330
1F
100
AcDbEntity
  8
PROFILEEDGES
100
AcDbPolyline
 90
        2
 70
     0
 43
0.8108172472180606
 10
107.4942965095292
 20
18.58659872113083
 10
107.8470253787341
 20
18.20166270759499
  0
LWPOLYLINE
  5
226
330
1F
100
AcDbEntity
  8
PROFILEEDGES
100
AcDbPolyline
 90
        2
 70
     0
 43
0.8108172472180606
 10
-51.45411392810951
 20
15.77500819996104
 10
-51.83765093926513
 20
15.42075863995955
  0
LWPOLYLINE
  5
227
330
1F
100
AcDbEntity
  8
PROFILEEDGES
100
AcDbPolyline
 90
        2
 70
     0
 43
0.8108172472180606
 10
104.923146070783
 20
15.52242094865491
 10
104.5704172015782
 20
15.90735696219075
  0
LWPOLYLINE
  5
228
330
1F
100
AcDbEntity
  8
PROFILEEDGES
100
AcDbPolyline
 90
        2
 70
     0
 43
0.8108172472180606
 10
108.1783367961805
 20
16.70721347955899
 10
108.0213368642294
 20
16.20927331141143
  0
LWPOLYLINE
  5
229
330
1F
100
AcDbEntity
  8
PROFILEEDGES
100
AcDbPolyline
 90
        2
 70
     0
 43
0.8108172472180606
 10
107.7408101763941
 20
15.76893461551979
 10
107.3558741628582
 20
15.41620574631491
  0
LWPOLYLINE
  5
22A
330
1F
100
AcDbEntity
  8
PROFILEEDGES
100
AcDbPolyline
 90
        2
 70
     0
 43
0.8108172472180606
 10
106.8927615768075
 20
15.17512459332104
 10
106.3830327756515
 20
15.0621204387094
  0
LWPOLYLINE
  5
22B
330
1F
100
AcDbEntity
  8
PROFILEEDGES
100
AcDbPolyline
 90
        2
 70
     0
 43
0.8108172472180606
 10
107.3558741628582
 20
15.41620574631491
 10
106.8927615768075
 20
15.17512459332104
  0
LWPOLYLINE
  5
22C
330
1F
100
AcDbEntity
  8
PROFILEEDGES
100
AcDbPolyline
 90
        2
 70
     0
 43
0.8108172472180606
 10
105.8614249348223
 20
15.08489432886842
 10
105.3634847666748
 20
15.24189426081963
  0
LWPOLYLINE
  5
22D
330
1F
100
AcDbEntity
  8
PROFILEEDGES
100
AcDbPolyline
 90
        2
 70
     0
 43
0.8108172472180606
 10
105.061568417454
 20
18.69281392347083
 10
105.5246810035048
 20
18.93389507646471
  0
LWPOLYLINE
  5
22E
330
1F
100
AcDbEntity
  8
PROFILEEDGES
100
AcDbPolyline
 90
        2
 70
     0
 43
0.8108172472180606
 10
-22.68002824722353
 20
4.029509834892847
 10
-22.87483407110749
 20
3.559206972842875
  0
LWPOLYLINE
  5
22F
330
1F
100
AcDbEntity
  8
PROFILEEDGES
100
AcDbPolyline
 90
        2
 70
     0
 43
0.8108172472180606
 10
-20.99127870984385
 20
1.104509834892974
 10
-20.48658157189391
 20
1.170954473629253
  0
LWPOLYLINE
  5
230
330
1F
100
AcDbEntity
  8
PROFILEEDGES
100
AcDbPolyline
 90
        2
 70
     0
 43
0.8108172472180606
 10
-22.68002824722342
 20
2.07950983489284
 10
-22.37013693315759
 20
1.675651611579148
  0
LWPOLYLINE
  5
231
330
1F
100
AcDbEntity
  8
PROFILEEDGES
100
AcDbPolyline
 90
        2
 70
     0
 43
0.8108172472180606
 10
-21.96627870984385
 20
1.365760297513297
 10
-21.49597584779374
 20
1.170954473629252
  0
LWPOLYLINE
  5
232
330
1F
100
AcDbEntity
  8
PROFILEEDGES
100
AcDbPolyline
 90
        2
 70
     0
 43
0.8108172472180606
 10
-22.37013693315764
 20
4.433368058206632
 10
-22.68002824722353
 20
4.029509834892847
  0
LWPOLYLINE
  5
233
330
1F
100
AcDbEntity
  8
PROFILEEDGES
100
AcDbPolyline
 90
        2
 70
     0
 43
0.8108172472180606
 10
-22.87483407110749
 20
3.559206972842875
 10
-22.94127870984381
 20
3.05450983489289
  0
LWPOLYLINE
  5
234
330
1F
100
AcDbEntity
  8
PROFILEEDGES
100
AcDbPolyline
 90
        2
 70
     0
 43
0.8108172472180606
 10
-22.94127870984381
 20
3.05450983489289
 10
-22.87483407110749
 20
2.549812696942993
  0
LWPOLYLINE
  5
235
330
1F
100
AcDbEntity
  8
PROFILEEDGES
100
AcDbPolyline
 90
        2
 70
     0
 43
0.8108172472180606
 10
-20.48658157189391
 20
1.170954473629253
 10
-20.01627870984385
 20
1.365760297513208
  0
LWPOLYLINE
  5
236
330
1F
100
AcDbEntity
  8
PROFILEEDGES
100
AcDbPolyline
 90
        2
 70
     0
 43
0.8108172472180606
 10
106.3830327756515
 20
15.0621204387094
 10
105.8614249348223
 20
15.08489432886842
  0
LWPOLYLINE
  5
237
330
1F
100
AcDbEntity
  8
PROFILEEDGES
100
AcDbPolyline
 90
        2
 70
     0
 43
0.8108172472180606
 10
137.008721290156
 20
30.05450983489301
 10
132.008721290156
 20
35.05450983489295
  0
LWPOLYLINE
  5
238
330
1F
100
AcDbEntity
  8
PROFILEEDGES
100
AcDbPolyline
 90
        2
 70
     0
 43
0.8108172472180606
 10
-62.99127870984382
 20
-2.945490165107131
 10
-62.99127870984395
 20
85.0545098348929
  0
LWPOLYLINE
  5
239
330
1F
100
AcDbEntity
  8
PROFILEEDGES
100
AcDbPolyline
 90
        2
 70
     0
 43
0.8108172472180606
 10
137.0087212901562
 20
-2.945490165106977
 10
-62.99127870984382
 20
-2.945490165107131
  0
LWPOLYLINE
  5
23A
330
1F
100
AcDbEntity
  8
PROFILEEDGES
100
AcDbPolyline
 90
        2
 70
     0
 43
0.8108172472180606
 10
-58.99127870984383
 20
1.054509834892866
 10
-58.99127870984383
 20
5.054509834892858
  0
LWPOLYLINE
  5
23B
330
1F
100
AcDbEntity
  8
PROFILEEDGES
100
AcDbPolyline
 90
        2
 70
     0
 43
0.8108172472180606
 10
-54.80722526314312
 20
17.89256598788129
 10
-54.52844349157782
 20
18.33401146982707
  0
LWPOLYLINE
  5
23C
330
1F
100
AcDbEntity
  8
PROFILEEDGES
100
AcDbPolyline
 90
        2
 70
     0
 43
0.8108172472180606
 10
-54.52844349157782
 20
18.33401146982707
 10
-54.1449064804222
 20
18.68826102982857
  0
LWPOLYLINE
  5
23D
330
1F
100
AcDbEntity
  8
PROFILEEDGES
100
AcDbPolyline
 90
        2
 70
     0
 43
0.8108172472180606
 10
-54.1449064804222
 20
18.68826102982857
 10
-53.68275164316171
 20
18.93117314579682
  0
LWPOLYLINE
  5
23E
330
1F
100
AcDbEntity
  8
PROFILEEDGES
100
AcDbPolyline
 90
        2
 70
     0
 43
0.8108172472180606
 10
-53.17347406820864
 20
19.04619375845981
 10
-52.65178018067505
 20
19.02548440314513
  0
LWPOLYLINE
  5
23F
330
1F
100
AcDbEntity
  8
PROFILEEDGES
100
AcDbPolyline
 90
        2
 70
     0
 43
0.8108172472180606
 10
-52.65178018067505
 20
19.02548440314513
 10
-52.15322255685645
 20
18.8704563881936
  0
LWPOLYLINE
  5
240
330
1F
100
AcDbEntity
  8
PROFILEEDGES
100
AcDbPolyline
 90
        2
 70
     0
 43
0.8108172472180606
 10
-52.15322255685645
 20
18.8704563881936
 10
-51.71177707491073
 20
18.59167461662824
  0
LWPOLYLINE
  5
241
330
1F
100
AcDbEntity
  8
PROFILEEDGES
100
AcDbPolyline
 90
        2
 70
     0
 43
0.8108172472180606
 10
-51.71177707491073
 20
18.59167461662824
 10
-51.35752751490917
 20
18.20813760547272
  0
LWPOLYLINE
  5
242
330
1F
100
AcDbEntity
  8
PROFILEEDGES
100
AcDbPolyline
 90
        2
 70
     0
 43
0.8108172472180606
 10
-51.35752751490917
 20
18.20813760547272
 10
-51.11461539894087
 20
17.74598276821207
  0
LWPOLYLINE
  5
243
330
1F
100
AcDbEntity
  8
PROFILEEDGES
100
AcDbPolyline
 90
        2
 70
     0
 43
0.8108172472180606
 10
-51.11461539894087
 20
17.74598276821207
 10
-50.99959478627785
 20
17.23670519325904
  0
LWPOLYLINE
  5
244
330
1F
100
AcDbEntity
  8
PROFILEEDGES
100
AcDbPolyline
 90
        2
 70
     0
 43
0.8108172472180606
 10
-50.99959478627785
 20
17.23670519325904
 10
-51.02030414159263
 20
16.71501130572544
  0
LWPOLYLINE
  5
245
330
1F
100
AcDbEntity
  8
PROFILEEDGES
100
AcDbPolyline
 90
        2
 70
     0
 43
0.8108172472180606
 10
-51.17533215654414
 20
16.21645368190692
 10
-51.45411392810951
 20
15.77500819996104
  0
LWPOLYLINE
  5
246
330
1F
100
AcDbEntity
  8
PROFILEEDGES
100
AcDbPolyline
 90
        2
 70
     0
 43
0.8108172472180606
 10
-52.29980577652564
 20
15.1778465239913
 10
-52.80908335147872
 20
15.06282591132831
  0
LWPOLYLINE
  5
247
330
1F
100
AcDbEntity
  8
PROFILEEDGES
100
AcDbPolyline
 90
        2
 70
     0
 43
0.8108172472180606
 10
-52.80908335147872
 20
15.06282591132831
 10
-53.33077723901232
 20
15.08353526664308
  0
LWPOLYLINE
  5
248
330
1F
100
AcDbEntity
  8
PROFILEEDGES
100
AcDbPolyline
 90
        2
 70
     0
 43
0.8108172472180606
 10
-53.33077723901232
 20
15.08353526664308
 10
-53.82933486283088
 20
15.23856328159461
  0
LWPOLYLINE
  5
249
330
1F
100
AcDbEntity
  8
PROFILEEDGES
100
AcDbPolyline
 90
        2
 70
     0
 43
0.8108172472180606
 10
-54.27078034477667
 20
15.51734505315996
 10
-54.62502990477814
 20
15.90088206431558
  0
LWPOLYLINE
  5
24A
330
1F
100
AcDbEntity
  8
PROFILEEDGES
100
AcDbPolyline
 90
        2
 70
     0
 43
0.8108172472180606
 10
-54.86794202074643
 20
16.36303690157605
 10
-54.98296263340936
 20
16.87231447652907
  0
LWPOLYLINE
  5
24B
330
1F
100
AcDbEntity
  8
PROFILEEDGES
100
AcDbPolyline
 90
        2
 70
     0
 43
0.8108172472180606
 10
104.5704172015782
 20
15.90735696219075
 10
104.3293360485843
 20
16.37046954824151
  0
LWPOLYLINE
  5
24C
330
1F
100
AcDbEntity
  8
PROFILEEDGES
100
AcDbPolyline
 90
        2
 70
     0
 43
0.8108172472180606
 10
-46.99127870984394
 20
77.05450983489274
 10
-50.99127870984393
 20
77.05450983489301
  0
LWPOLYLINE
  5
24D
330
1F
100
AcDbEntity
  8
PROFILEEDGES
100
AcDbPolyline
 90
        2
 70
     0
 43
0.8108172472180606
 10
-54.99127870984395
 20
81.0545098348929
 10
-54.99127870984395
 20
77.05450983489291
  0
LWPOLYLINE
  5
24E
330
1F
100
AcDbEntity
  8
PROFILEEDGES
100
AcDbPolyline
 90
        2
 70
     0
 43
0.8108172472180606
 10
-58.99127870984394
 20
77.05450983489291
 10
-58.99127870984394
 20
81.0545098348929
  0
LWPOLYLINE
  5
24F
330
1F
100
AcDbEntity
  8
PROFILEEDGES
100
AcDbPolyline
 90
        2
 70
     0
 43
0.8108172472180606
 10
-22.37013693315759
 20
1.675651611579148
 10
-21.96627870984385
 20
1.365760297513297
  0
LWPOLYLINE
  5
250
330
1F
100
AcDbEntity
  8
PROFILEEDGES
100
AcDbPolyline
 90
        2
 70
     0
 43
0.8108172472180606
 10
-21.49597584779374
 20
1.170954473629252
 10
-20.99127870984385
 20
1.104509834892974
  0
LWPOLYLINE
  5
251
330
1F
100
AcDbEntity
  8
PROFILEEDGES
100
AcDbPolyline
 90
        2
 70
     0
 43
0.8108172472180606
 10
93.62986306684242
 20
4.433368058206812
 10
94.03372129015617
 20
4.743259372272663
  0
LWPOLYLINE
  5
252
330
1F
100
AcDbEntity
  8
PROFILEEDGES
100
AcDbPolyline
 90
        2
 70
     0
 43
0.8108172472180606
 10
94.03372129015617
 20
4.743259372272663
 10
94.50402415220627
 20
4.938065196156708
  0
LWPOLYLINE
  5
253
330
1F
100
AcDbEntity
  8
PROFILEEDGES
100
AcDbPolyline
 90
        2
 70
     0
 43
0.8108172472180606
 10
94.50402415220627
 20
4.938065196156708
 10
95.00872129015622
 20
5.004509834892987
  0
LWPOLYLINE
  5
254
330
1F
100
AcDbEntity
  8
PROFILEEDGES
100
AcDbPolyline
 90
        2
 70
     0
 43
0.8108172472180606
 10
95.00872129015622
 20
5.004509834892987
 10
95.5134184281061
 20
4.938065196156619
  0
LWPOLYLINE
  5
255
330
1F
100
AcDbEntity
  8
PROFILEEDGES
100
AcDbPolyline
 90
        2
 70
     0
 43
0.8108172472180606
 10
95.5134184281061
 20
4.938065196156619
 10
95.98372129015625
 20
4.743259372272755
  0
LWPOLYLINE
  5
256
330
1F
100
AcDbEntity
  8
PROFILEEDGES
100
AcDbPolyline
 90
        2
 70
     0
 43
0.8108172472180606
 10
95.98372129015625
 20
4.743259372272755
 10
96.38757951347
 20
4.433368058206812
  0
LWPOLYLINE
  5
257
330
1F
100
AcDbEntity
  8
PROFILEEDGES
100
AcDbPolyline
 90
        2
 70
     0
 43
0.8108172472180606
 10
96.38757951347
 20
4.433368058206812
 10
96.6974708275359
 20
4.02950983489294
  0
LWPOLYLINE
  5
258
330
1F
100
AcDbEntity
  8
PROFILEEDGES
100
AcDbPolyline
 90
        2
 70
     0
 43
0.8108172472180606
 10
96.6974708275359
 20
4.02950983489294
 10
96.89227665141989
 20
3.559206972842877
  0
LWPOLYLINE
  5
259
330
1F
100
AcDbEntity
  8
PROFILEEDGES
100
AcDbPolyline
 90
        2
 70
     0
 43
0.8108172472180606
 10
96.89227665141989
 20
3.559206972842877
 10
96.95872129015618
 20
3.054509834892981
  0
LWPOLYLINE
  5
25A
330
1F
100
AcDbEntity
  8
PROFILEEDGES
100
AcDbPolyline
 90
        2
 70
     0
 43
0.8108172472180606
 10
96.95872129015618
 20
3.054509834892981
 10
96.89227665141985
 20
2.549812696942995
  0
LWPOLYLINE
  5
25B
330
1F
100
AcDbEntity
  8
PROFILEEDGES
100
AcDbPolyline
 90
        2
 70
     0
 43
0.8108172472180606
 10
96.89227665141985
 20
2.549812696942995
 10
96.69747082753585
 20
2.079509834893023
  0
LWPOLYLINE
  5
25C
330
1F
100
AcDbEntity
  8
PROFILEEDGES
100
AcDbPolyline
 90
        2
 70
     0
 43
0.8108172472180606
 10
96.69747082753585
 20
2.079509834893023
 10
96.38757951346986
 20
1.675651611579239
  0
LWPOLYLINE
  5
25D
330
1F
100
AcDbEntity
  8
PROFILEEDGES
100
AcDbPolyline
 90
        2
 70
     0
 43
0.8108172472180606
 10
96.38757951346986
 20
1.675651611579239
 10
95.98372129015617
 20
1.365760297513387
  0
LWPOLYLINE
  5
25E
330
1F
100
AcDbEntity
  8
PROFILEEDGES
100
AcDbPolyline
 90
        2
 70
     0
 43
0.8108172472180606
 10
95.98372129015617
 20
1.365760297513387
 10
95.5134184281061
 20
1.170954473629342
  0
LWPOLYLINE
  5
25F
330
1F
100
AcDbEntity
  8
PROFILEEDGES
100
AcDbPolyline
 90
        2
 70
     0
 43
0.8108172472180606
 10
95.5134184281061
 20
1.170954473629342
 10
95.00872129015616
 20
1.104509834893062
  0
LWPOLYLINE
  5
260
330
1F
100
AcDbEntity
  8
PROFILEEDGES
100
AcDbPolyline
 90
        2
 70
     0
 43
0.8108172472180606
 10
95.00872129015616
 20
1.104509834893062
 10
94.50402415220627
 20
1.170954473629341
  0
LWPOLYLINE
  5
261
330
1F
100
AcDbEntity
  8
PROFILEEDGES
100
AcDbPolyline
 90
        2
 70
     0
 43
0.8108172472180606
 10
94.50402415220627
 20
1.170954473629341
 10
94.03372129015621
 20
1.365760297513386
  0
LWPOLYLINE
  5
262
330
1F
100
AcDbEntity
  8
PROFILEEDGES
100
AcDbPolyline
 90
        2
 70
     0
 43
0.8108172472180606
 10
94.03372129015621
 20
1.365760297513386
 10
93.62986306684247
 20
1.675651611579237
  0
LWPOLYLINE
  5
263
330
1F
100
AcDbEntity
  8
PROFILEEDGES
100
AcDbPolyline
 90
        2
 70
     0
 43
0.8108172472180606
 10
93.62986306684247
 20
1.675651611579237
 10
93.31997175277657
 20
2.079509834892929
  0
LWPOLYLINE
  5
264
330
1F
100
AcDbEntity
  8
PROFILEEDGES
100
AcDbPolyline
 90
        2
 70
     0
 43
0.8108172472180606
 10
93.31997175277657
 20
2.079509834892929
 10
93.12516592889253
 20
2.549812696943082
  0
LWPOLYLINE
  5
265
330
1F
100
AcDbEntity
  8
PROFILEEDGES
100
AcDbPolyline
 90
        2
 70
     0
 43
0.8108172472180606
 10
93.12516592889253
 20
2.549812696943082
 10
93.0587212901562
 20
3.054509834892979
  0
LWPOLYLINE
  5
266
330
1F
100
AcDbEntity
  8
PROFILEEDGES
100
AcDbPolyline
 90
        2
 70
     0
 43
0.8108172472180606
 10
93.0587212901562
 20
3.054509834892979
 10
93.12516592889253
 20
3.559206972842874
  0
LWPOLYLINE
  5
267
330
1F
100
AcDbEntity
  8
PROFILEEDGES
100
AcDbPolyline
 90
        2
 70
     0
 43
0.8108172472180606
 10
93.12516592889253
 20
3.559206972842874
 10
93.31997175277652
 20
4.029509834893027
  0
LWPOLYLINE
  5
268
330
1F
100
AcDbEntity
  8
PROFILEEDGES
100
AcDbPolyline
 90
        2
 70
     0
 43
0.8108172472180606
 10
93.31997175277652
 20
4.029509834893027
 10
93.62986306684242
 20
4.433368058206812
  0
LWPOLYLINE
  5
269
330
1F
100
AcDbEntity
  8
PROFILEEDGES
100
AcDbPolyline
 90
        2
 70
     0
 43
0.8108172472180606
 10
-19.10772334858017
 20
2.549812696942906
 10
-19.04127870984384
 20
3.054509834892802
  0
LWPOLYLINE
  5
26A
330
1F
100
AcDbEntity
  8
PROFILEEDGES
100
AcDbPolyline
 90
        2
 70
     0
 43
0.8108172472180606
 10
-19.61242048653006
 20
1.67565161157915
 10
-19.30252917246421
 20
2.079509834892844
  0
LWPOLYLINE
  5
26B
330
1F
100
AcDbEntity
  8
PROFILEEDGES
100
AcDbPolyline
 90
        2
 70
     0
 43
0.8108172472180606
 10
-20.01627870984385
 20
1.365760297513208
 10
-19.61242048653006
 20
1.67565161157915
  0
LWPOLYLINE
  5
26C
330
1F
100
AcDbEntity
  8
PROFILEEDGES
100
AcDbPolyline
 90
        2
 70
     0
 43
0.8108172472180606
 10
-22.87483407110749
 20
2.549812696942993
 10
-22.68002824722342
 20
2.07950983489284
  0
LWPOLYLINE
  5
26D
330
1F
100
AcDbEntity
  8
PROFILEEDGES
100
AcDbPolyline
 90
        2
 70
     0
 43
0.8108172472180606
 10
-20.48658157189391
 20
4.93806519615662
 10
-20.99127870984385
 20
5.004509834892898
  0
LWPOLYLINE
  5
26E
330
1F
100
AcDbEntity
  8
PROFILEEDGES
100
AcDbPolyline
 90
        2
 70
     0
 43
0.8108172472180606
 10
-21.49597584779374
 20
4.938065196156619
 10
-20.99127870984385
 20
5.004509834892898
  0
LWPOLYLINE
  5
26F
330
1F
100
AcDbEntity
  8
PROFILEEDGES
100
AcDbPolyline
 90
        2
 70
     0
 43
0.8108172472180606
 10
-21.96627870984381
 20
4.743259372272574
 10
-21.49597584779374
 20
4.938065196156619
  0
LWPOLYLINE
  5
270
330
1F
100
AcDbEntity
  8
PROFILEEDGES
100
AcDbPolyline
 90
        2
 70
     0
 43
0.8108172472180606
 10
-22.37013693315764
 20
4.433368058206632
 10
-21.96627870984381
 20
4.743259372272574
  0
LWPOLYLINE
  5
271
330
1F
100
AcDbEntity
  8
PROFILEEDGES
100
AcDbPolyline
 90
        2
 70
     0
 43
0.8108172472180606
 10
-19.30252917246407
 20
4.029509834892851
 10
-19.61242048652997
 20
4.433368058206634
  0
LWPOLYLINE
  5
272
330
1F
100
AcDbEntity
  8
PROFILEEDGES
100
AcDbPolyline
 90
        2
 70
     0
 43
0.8108172472180606
 10
-20.01627870984385
 20
4.743259372272666
 10
-20.48658157189391
 20
4.93806519615662
  0
LWPOLYLINE
  5
273
330
1F
100
AcDbEntity
  8
PROFILEEDGES
100
AcDbPolyline
 90
        2
 70
     0
 43
0.8108172472180606
 10
-19.61242048652997
 20
4.433368058206634
 10
-20.01627870984385
 20
4.743259372272666
  0
LWPOLYLINE
  5
274
330
1F
100
AcDbEntity
  8
PROFILEEDGES
100
AcDbPolyline
 90
        2
 70
     0
 43
0.8108172472180606
 10
-19.10772334858012
 20
3.559206972842788
 10
-19.30252917246407
 20
4.029509834892851
  0
LWPOLYLINE
  5
275
330
1F
100
AcDbEntity
  8
PROFILEEDGES
100
AcDbPolyline
 90
        2
 70
     0
 43
0.8108172472180606
 10
-19.04127870984384
 20
3.054509834892802
 10
-19.10772334858012
 20
3.559206972842788
  0
LWPOLYLINE
  5
276
330
1F
100
AcDbEntity
  8
PROFILEEDGES
100
AcDbPolyline
 90
        2
 70
     0
 43
0.8108172472180606
 10
-19.30252917246421
 20
2.079509834892844
 10
-19.10772334858017
 20
2.549812696942906
  0
LWPOLYLINE
  5
277
330
1F
100
AcDbEntity
  8
PROFILEEDGES
100
AcDbPolyline
 90
        2
 70
     0
 43
0.8108172472180606
 10
-54.34764455237648
 20
42.49036272753136
 10
-53.48623216979841
 20
46.39650772063401
  0
LWPOLYLINE
  5
278
330
1F
100
AcDbEntity
  8
PROFILEEDGES
100
AcDbPolyline
 90
        2
 70
     0
 43
0.8108172472180606
 10
43.33931751687398
 20
45.9927509493305
 10
43.33931751687398
 20
49.99275094933049
  0
LWPOLYLINE
  5
279
330
1F
100
AcDbEntity
  8
PROFILEEDGES
100
AcDbPolyline
 90
        2
 70
     0
 43
0.8108172472180606
 10
47.33931751687398
 20
45.9927509493305
 10
43.33931751687398
 20
45.9927509493305
  0
LWPOLYLINE
  5
27A
330
1F
100
AcDbEntity
  8
PROFILEEDGES
100
AcDbPolyline
 90
        2
 70
     0
 43
0.8108172472180606
 10
47.33931751687397
 20
41.99275094933049
 10
47.33931751687398
 20
45.9927509493305
  0
LWPOLYLINE
  5
27B
330
1F
100
AcDbEntity
  8
PROFILEEDGES
100
AcDbPolyline
 90
        2
 70
     0
 43
0.8108172472180606
 10
43.33931751687398
 20
41.99275094933049
 10
47.33931751687397
 20
41.99275094933049
  0
LWPOLYLINE
  5
27C
330
1F
100
AcDbEntity
  8
PROFILEEDGES
100
AcDbPolyline
 90
        2
 70
     0
 43
0.8108172472180606
 10
43.33931751687398
 20
37.99275094933048
 10
43.33931751687398
 20
41.99275094933049
  0
LWPOLYLINE
  5
27D
330
1F
100
AcDbEntity
  8
PROFILEEDGES
100
AcDbPolyline
 90
        2
 70
     0
 43
0.8108172472180606
 10
-6.660682483126023
 20
37.9927509493305
 10
43.33931751687398
 20
37.99275094933048
  0
LWPOLYLINE
  5
27E
330
1F
100
AcDbEntity
  8
PROFILEEDGES
100
AcDbPolyline
 90
        2
 70
     0
 43
0.8108172472180606
 10
-6.660682483126021
 20
41.99275094933051
 10
-6.660682483126023
 20
37.9927509493305
  0
LWPOLYLINE
  5
27F
330
1F
100
AcDbEntity
  8
PROFILEEDGES
100
AcDbPolyline
 90
        2
 70
     0
 43
0.8108172472180606
 10
-10.66068248312602
 20
41.99275094933051
 10
-6.660682483126021
 20
41.99275094933051
  0
LWPOLYLINE
  5
280
330
1F
100
AcDbEntity
  8
PROFILEEDGES
100
AcDbPolyline
 90
        2
 70
     0
 43
0.8108172472180606
 10
-10.66068248312602
 20
45.99275094933051
 10
-10.66068248312602
 20
41.99275094933051
  0
LWPOLYLINE
  5
281
330
1F
100
AcDbEntity
  8
PROFILEEDGES
100
AcDbPolyline
 90
        2
 70
     0
 43
0.8108172472180606
 10
-6.660682483126021
 20
45.99275094933051
 10
-10.66068248312602
 20
45.99275094933051
  0
LWPOLYLINE
  5
282
330
1F
100
AcDbEntity
  8
PROFILEEDGES
100
AcDbPolyline
 90
        2
 70
     0
 43
0.8108172472180606
 10
-6.660682483126014
 20
57.99275094933051
 10
-6.660682483126016
 20
53.99275094933051
  0
LWPOLYLINE
  5
283
330
1F
100
AcDbEntity
  8
PROFILEEDGES
100
AcDbPolyline
 90
        2
 70
     0
 43
0.8108172472180606
 10
43.33931751687398
 20
57.99275094933049
 10
-6.660682483126014
 20
57.99275094933051
  0
LWPOLYLINE
  5
284
330
1F
100
AcDbEntity
  8
PROFILEEDGES
100
AcDbPolyline
 90
        2
 70
     0
 43
0.8108172472180606
 10
43.33931751687398
 20
49.99275094933049
 10
47.33931751687398
 20
49.99275094933049
  0
LWPOLYLINE
  5
285
330
1F
100
AcDbEntity
  8
PROFILEEDGES
100
AcDbPolyline
 90
        2
 70
     0
 43
0.8108172472180606
 10
43.33931751687398
 20
53.99275094933049
 10
43.33931751687398
 20
57.99275094933049
  0
LWPOLYLINE
  5
286
330
1F
100
AcDbEntity
  8
PROFILEEDGES
100
AcDbPolyline
 90
        2
 70
     0
 43
0.8108172472180606
 10
47.33931751687398
 20
53.99275094933049
 10
43.33931751687398
 20
53.99275094933049
  0
LWPOLYLINE
  5
287
330
1F
100
AcDbEntity
  8
PROFILEEDGES
100
AcDbPolyline
 90
        2
 70
     0
 43
0.8108172472180606
 10
47.33931751687398
 20
49.99275094933049
 10
47.33931751687398
 20
53.99275094933049
  0
LWPOLYLINE
  5
288
330
1F
100
AcDbEntity
  8
PROFILEEDGES
100
AcDbPolyline
 90
        2
 70
     0
 43
0.8108172472180606
 10
-10.66068248312602
 20
49.99275094933051
 10
-6.660682483126017
 20
49.99275094933051
  0
LWPOLYLINE
  5
289
330
1F
100
AcDbEntity
  8
PROFILEEDGES
100
AcDbPolyline
 90
        2
 70
     0
 43
0.8108172472180606
 10
-10.66068248312602
 20
53.99275094933051
 10
-10.66068248312602
 20
49.99275094933051
  0
LWPOLYLINE
  5
28A
330
1F
100
AcDbEntity
  8
PROFILEEDGES
100
AcDbPolyline
 90
        2
 70
     0
 43
0.8108172472180606
 10
-6.660682483126016
 20
53.99275094933051
 10
-10.66068248312602
 20
53.99275094933051
  0
LWPOLYLINE
  5
28B
330
1F
100
AcDbEntity
  8
PROFILEEDGES
100
AcDbPolyline
 90
        2
 70
     0
 43
0.8108172472180606
 10
-6.660682483126017
 20
49.99275094933051
 10
-6.660682483126021
 20
45.99275094933051
  0
LWPOLYLINE
  5
28C
330
1F
100
AcDbEntity
  8
PROFILEEDGES
100
AcDbPolyline
 90
        2
 70
     0
 43
0.8108172472180606
 10
-138.3873249427883
 20
-42.0134818678446
 10
-130.3873249427883
 20
-42.0134818678446
  0
LWPOLYLINE
  5
28D
330
1F
100
AcDbEntity
  8
PROFILEEDGES
100
AcDbPolyline
 90
        2
 70
     0
 43
0.8108172472180606
 10
-138.3873249427883
 20
-38.01348186784461
 10
-138.3873249427883
 20
-42.0134818678446
  0
LWPOLYLINE
  5
28E
330
1F
100
AcDbEntity
  8
PROFILEEDGES
100
AcDbPolyline
 90
        2
 70
     0
 43
0.8108172472180606
 10
-142.3873249427883
 20
-38.01348186784461
 10
-138.3873249427883
 20
-38.01348186784461
  0
LWPOLYLINE
  5
28F
330
1F
100
AcDbEntity
  8
PROFILEEDGES
100
AcDbPolyline
 90
        2
 70
     0
 43
0.8108172472180606
 10
-142.3873249427883
 20
-42.0134818678446
 10
-142.3873249427883
 20
-38.01348186784461
  0
LWPOLYLINE
  5
290
330
1F
100
AcDbEntity
  8
PROFILEEDGES
100
AcDbPolyline
 90
        2
 70
     0
 43
0.8108172472180606
 10
-158.3873249427883
 20
-42.01348186784459
 10
-142.3873249427883
 20
-42.0134818678446
  0
LWPOLYLINE
  5
291
330
1F
100
AcDbEntity
  8
PROFILEEDGES
100
AcDbPolyline
 90
        2
 70
     0
 43
0.8108172472180606
 10
-130.3873249427883
 20
-42.0134818678446
 10
-130.3873249427883
 20
-92.0134818678446
  0
LWPOLYLINE
  5
292
330
1F
100
AcDbEntity
  8
PROFILEEDGES
100
AcDbPolyline
 90
        2
 70
     0
 43
0.8108172472180606
 10
-130.3873249427883
 20
-92.0134818678446
 10
-138.3873249427883
 20
-92.0134818678446
  0
LWPOLYLINE
  5
293
330
1F
100
AcDbEntity
  8
PROFILEEDGES
100
AcDbPolyline
 90
        2
 70
     0
 43
0.8108172472180606
 10
-138.3873249427883
 20
-92.0134818678446
 10
-138.3873249427883
 20
-96.01348186784459
  0
LWPOLYLINE
  5
294
330
1F
100
AcDbEntity
  8
PROFILEEDGES
100
AcDbPolyline
 90
        2
 70
     0
 43
0.8108172472180606
 10
-138.3873249427883
 20
-96.01348186784459
 10
-142.3873249427883
 20
-96.01348186784459
  0
LWPOLYLINE
  5
295
330
1F
100
AcDbEntity
  8
PROFILEEDGES
100
AcDbPolyline
 90
        2
 70
     0
 43
0.8108172472180606
 10
-142.3873249427883
 20
-96.01348186784459
 10
-142.3873249427883
 20
-92.0134818678446
  0
LWPOLYLINE
  5
296
330
1F
100
AcDbEntity
  8
PROFILEEDGES
100
AcDbPolyline
 90
        2
 70
     0
 43
0.8108172472180606
 10
-142.3873249427883
 20
-92.0134818678446
 10
-158.3873249427883
 20
-92.01348186784459
  0
LWPOLYLINE
  5
297
330
1F
100
AcDbEntity
  8
PROFILEEDGES
100
AcDbPolyline
 90
        2
 70
     0
 43
0.8108172472180606
 10
-158.3873249427883
 20
-38.0134818678446
 10
-158.3873249427883
 20
-42.01348186784459
  0
LWPOLYLINE
  5
298
330
1F
100
AcDbEntity
  8
PROFILEEDGES
100
AcDbPolyline
 90
        2
 70
     0
 43
0.8108172472180606
 10
-162.3873249427883
 20
-38.0134818678446
 10
-158.3873249427883
 20
-38.0134818678446
  0
LWPOLYLINE
  5
299
330
1F
100
AcDbEntity
  8
PROFILEEDGES
100
AcDbPolyline
 90
        2
 70
     0
 43
0.8108172472180606
 10
-162.3873249427883
 20
-42.01348186784459
 10
-162.3873249427883
 20
-38.0134818678446
  0
LWPOLYLINE
  5
29A
330
1F
100
AcDbEntity
  8
PROFILEEDGES
100
AcDbPolyline
 90
        2
 70
     0
 43
0.8108172472180606
 10
-170.3873249427883
 20
-42.01348186784458
 10
-162.3873249427883
 20
-42.01348186784459
  0
LWPOLYLINE
  5
29B
330
1F
100
AcDbEntity
  8
PROFILEEDGES
100
AcDbPolyline
 90
        2
 70
     0
 43
0.8108172472180606
 10
-158.3873249427883
 20
-92.01348186784459
 10
-158.3873249427883
 20
-96.01348186784458
  0
LWPOLYLINE
  5
29C
330
1F
100
AcDbEntity
  8
PROFILEEDGES
100
AcDbPolyline
 90
        2
 70
     0
 43
0.8108172472180606
 10
-158.3873249427883
 20
-96.01348186784458
 10
-162.3873249427883
 20
-96.01348186784458
  0
LWPOLYLINE
  5
29D
330
1F
100
AcDbEntity
  8
PROFILEEDGES
100
AcDbPolyline
 90
        2
 70
     0
 43
0.8108172472180606
 10
-162.3873249427883
 20
-96.01348186784458
 10
-162.3873249427883
 20
-92.01348186784459
  0
LWPOLYLINE
  5
29E
330
1F
100
AcDbEntity
  8
PROFILEEDGES
100
AcDbPolyline
 90
        2
 70
     0
 43
0.8108172472180606
 10
-162.3873249427883
 20
-92.01348186784459
 10
-170.3873249427883
 20
-92.01348186784458
  0
LWPOLYLINE
  5
29F
330
1F
100
AcDbEntity
  8
PROFILEEDGES
100
AcDbPolyline
 90
        2
 70
     0
 43
0.8108172472180606
 10
-170.3873249427883
 20
-92.01348186784458
 10
-170.3873249427883
 20
-42.01348186784458
  0
ENDSEC
  0
SECTION
  2
OBJECTS
  0
DICTIONARY
  5
C
330
0
100
AcDbDictionary
  3
ACAD_GROUP
350
D
  3
ACAD_LAYOUT
350
1A
  3
ACAD_MATERIAL
350
43
  3
ACAD_MLEADERSTYLE
350
6B
  3
ACAD_MLINESTYLE
350
17
  3
ACAD_PLOTSETTINGS
350
19
  3
ACAD_SCALELIST
350
47
  3
ACAD_VISUALSTYLE
350
2A
  3
ACDBHEADERROUNDTRIPXREC
350
2A0
  3
ACDBVARIABLEDICTIONARY
350
2C1
  0
DICTIONARY
  5
2C8
330
8
100
AcDbDictionary
280
     1
  3
ACAD_XREC_ROUNDTRIP
360
2C9
  0
DICTIONARY
  5
D
102
{ACAD_REACTORS
330
C
102
}
330
C
100
AcDbDictionary
  0
DICTIONARY
  5
1A
102
{ACAD_REACTORS
330
C
102
}
330
C
100
AcDbDictionary
  0
DICTIONARY
  5
43
102
{ACAD_REACTORS
330
C
102
}
330
C
100
AcDbDictionary
  3
BYBLOCK
350
45
  3
BYLAYER
350
44
  3
GLOBAL
350
46
  0
DICTIONARY
  5
6B
102
{ACAD_REACTORS
330
C
102
}
330
C
100
AcDbDictionary
  3
STANDARD
350
6C
  0
DICTIONARY
  5
17
102
{ACAD_REACTORS
330
C
102
}
330
C
100
AcDbDictionary
  3
STANDARD
350
18
  0
DICTIONARY
  5
19
102
{ACAD_REACTORS
330
C
102
}
330
C
100
AcDbDictionary
  0
DICTIONARY
  5
47
102
{ACAD_REACTORS
330
C
102
}
330
C
100
AcDbDictionary
  3
A0
350
48
  3
A1
350
49
  3
A2
350
4A
  3
A3
350
4B
  3
A4
350
4C
  3
A5
350
4D
  3
A6
350
4E
  3
A7
350
4F
  3
A8
350
50
  3
A9
350
51
  3
B0
350
52
  3
B1
350
53
  3
B2
350
54
  3
B3
350
55
  3
B4
350
56
  3
B5
350
57
  3
B6
350
58
  3
B7
350
59
  3
B8
350
5A
  3
B9
350
5B
  3
C0
350
5C
  3
C1
350
5D
  3
C2
350
5E
  3
C3
350
5F
  3
C4
350
60
  3
C5
350
61
  3
C6
350
62
  3
C7
350
63
  3
C8
350
64
  3
C9
350
65
  3
D0
350
66
  3
D1
350
67
  3
D2
350
68
  0
DICTIONARY
  5
2A
102
{ACAD_REACTORS
330
C
102
}
330
C
100
AcDbDictionary
  3
2DWIREFRAME
350
2F
  3
BASIC
350
32
  3
BRIGHTEN
350
36
  3
COLORCHANGE
350
3A
  3
CONCEPTUAL
350
34
  3
DIM
350
35
  3
EDGECOLOROFF
350
3D
  3
FACEPATTERN
350
39
  3
FLAT
350
2B
  3
FLATWITHEDGES
350
2C
  3
GOURAUD
350
2D
  3
GOURAUDWITHEDGES
350
2E
  3
HIDDEN
350
31
  3
JITTEROFF
350
3B
  3
LINEPATTERN
350
38
  3
OVERHANGOFF
350
3C
  3
REALISTIC
350
33
  3
SHADED
350
42
  3
SHADED_WITH_EDGES
350
41
  3
SHADES_OF_GRAY
350
3E
  3
SKETCHY
350
3F
  3
THICKEN
350
37
  3
WIREFRAME
350
30
  3
X-RAY
350
40
  0
DICTIONARY
  5
2A0
102
{ACAD_REACTORS
330
C
102
}
330
C
100
AcDbDictionary
  3
CEPSNID
350
2AA
  3
CEPSNTYPE
350
2A9
  3
DIMSTYLEDATA
350
2C0
  3
FINGERPRINTGUID
350
2AB
  3
HYPERLINKBASE
350
2A3
  3
INSUNITS
350
2A8
  3
LAYOUTDICT
350
2A5
  3
LWETCUNION
350
2A7
  3
PLOTSETDICT
350
2A6
  3
PSVPSCALE
350
2AD
  3
PUCSBASE
350
2B0
  3
PUCSORGBACK
350
2B6
  3
PUCSORGBOTTOM
350
2B2
  3
PUCSORGFRONT
350
2B5
  3
PUCSORGLEFT
350
2B3
  3
PUCSORGRIGHT
350
2B4
  3
PUCSORGTOP
350
2B1
  3
PUCSORTHOREF
350
2AE
  3
PUCSORTHOVIEW
350
2AF
  3
STYLESHEET
350
2A4
  3
TSTACKALIGN
350
2A1
  3
TSTACKSIZE
350
2A2
  3
UCSBASE
350
2B9
  3
UCSORGBACK
350
2BF
  3
UCSORGBOTTOM
350
2BB
  3
UCSORGFRONT
350
2BE
  3
UCSORGLEFT
350
2BC
  3
UCSORGRIGHT
350
2BD
  3
UCSORGTOP
350
2BA
  3
UCSORTHOREF
350
2B7
  3
UCSORTHOVIEW
350
2B8
  3
VERSIONGUID
350
2AC
  0
DICTIONARY
  5
2C1
102
{ACAD_REACTORS
330
C
102
}
330
C
100
AcDbDictionary
  3
CANNOSCALE
350
2CA
  3
CMLEADERSTYLE
350
2C3
  3
CTABLESTYLE
350
2C2
  3
DIMASSOC
350
2C6
  3
HIDETEXT
350
2C7
  3
MSLTSCALE
350
2CB
  0
XRECORD
  5
2C9
102
{ACAD_REACTORS
330
2C8
102
}
330
2C8
100
AcDbXrecord
102
VTR_0.000_0.000_1.000_1.000_VISUALSTYLE
340
2F
102
VTR_0.000_0.000_1.000_1.000_GRIDDISPLAY
 70
     3
102
VTR_0.000_0.000_1.000_1.000_GRIDMAJOR
 70
     5
102
VTR_0.000_0.000_1.000_1.000_DEFAULTLIGHTING
280
     1
102
VTR_0.000_0.000_1.000_1.000_DEFAULTLIGHTINGTYPE
 70
     1
102
VTR_0.000_0.000_1.000_1.000_BRIGHTNESS
141
0.0
102
VTR_0.000_0.000_1.000_1.000_CONTRAST
142
0.0
  0
MATERIAL
  5
45
102
{ACAD_REACTORS
330
43
102
}
102
{ACAD_XDICTIONARY
360
2CE
102
}
330
43
100
AcDbMaterial
  1
BYBLOCK
  0
MATERIAL
  5
44
102
{ACAD_REACTORS
330
43
102
}
102
{ACAD_XDICTIONARY
360
2CC
102
}
330
43
100
AcDbMaterial
  1
BYLAYER
  0
MATERIAL
  5
46
102
{ACAD_REACTORS
330
43
102
}
102
{ACAD_XDICTIONARY
360
2D0
102
}
330
43
100
AcDbMaterial
  1
GLOBAL
  0
ACAD_PROXY_OBJECT
  5
6C
102
{ACAD_REACTORS
330
6B
102
}
330
6B
100
AcDbProxyObject
 90
      499
 91
      505
 93
      610
310
40901902A4063FBFFFFFE056BD1B81E855B9FC0AD7A3703D0AD73F4214DD185B99185C9900AD7A3703D0AC73F90141901A02B5E8DC0F42B1CFC02B5E8DC0F42B1CFE5764000000000000300FC0
340
14
340
0
340
11
340
0
 94
        0
1001
ACAD_MLEADERVER
1070
     2
  0
MLINESTYLE
  5
18
102
{ACAD_REACTORS
330
17
102
}
330
17
100
AcDbMlineStyle
  2
Standard
 70
     0
  3

 62
   256
 51
90.0
 52
90.0
 71
     2
 49
0.5
 62
   256
  6
BYLAYER
 49
-0.5
 62
   256
  6
BYLAYER
  0
ACAD_PROXY_OBJECT
  5
48
102
{ACAD_REACTORS
330
47
102
}
330
47
100
AcDbProxyObject
 90
      499
 91
      503
 93
       41
310
903313A31580
  0
ACAD_PROXY_OBJECT
  5
49
102
{ACAD_REACTORS
330
47
102
}
330
47
100
AcDbProxyObject
 90
      499
 91
      503
 93
      105
310
903313A324000000000000004000
  0
ACAD_PROXY_OBJECT
  5
4A
102
{ACAD_REACTORS
330
47
102
}
330
47
100
AcDbProxyObject
 90
      499
 91
      503
 93
      105
310
903313A344000000000000104000
  0
ACAD_PROXY_OBJECT
  5
4B
102
{ACAD_REACTORS
330
47
102
}
330
47
100
AcDbProxyObject
 90
      499
 91
      503
 93
      105
310
903313A354000000000000144000
  0
ACAD_PROXY_OBJECT
  5
4C
102
{ACAD_REACTORS
330
47
102
}
330
47
100
AcDbProxyObject
 90
      499
 91
      503
 93
      105
310
903313A384000000000000204000
  0
ACAD_PROXY_OBJECT
  5
4D
102
{ACAD_REACTORS
330
47
102
}
330
47
100
AcDbProxyObject
 90
      499
 91
      503
 93
      113
310
904313A31304000000000000244000
  0
ACAD_PROXY_OBJECT
  5
4E
102
{ACAD_REACTORS
330
47
102
}
330
47
100
AcDbProxyObject
 90
      499
 91
      503
 93
      113
310
904313A31364000000000000304000
  0
ACAD_PROXY_OBJECT
  5
4F
102
{ACAD_REACTORS
330
47
102
}
330
47
100
AcDbProxyObject
 90
      499
 91
      503
 93
      113
310
904313A32304000000000000344000
  0
ACAD_PROXY_OBJECT
  5
50
102
{ACAD_REACTORS
330
47
102
}
330
47
100
AcDbProxyObject
 90
      499
 91
      503
 93
      113
310
904313A333040000000000003E4000
  0
ACAD_PROXY_OBJECT
  5
51
102
{ACAD_REACTORS
330
47
102
}
330
47
100
AcDbProxyObject
 90
      499
 91
      503
 93
      113
310
904313A34304000000000000444000
  0
ACAD_PROXY_OBJECT
  5
52
102
{ACAD_REACTORS
330
47
102
}
330
47
100
AcDbProxyObject
 90
      499
 91
      503
 93
      113
310
904313A35304000000000000494000
  0
ACAD_PROXY_OBJECT
  5
53
102
{ACAD_REACTORS
330
47
102
}
330
47
100
AcDbProxyObject
 90
      499
 91
      503
 93
      121
310
905313A3130304000000000000594000
  0
ACAD_PROXY_OBJECT
  5
54
102
{ACAD_REACTORS
330
47
102
}
330
47
100
AcDbProxyObject
 90
      499
 91
      503
 93
      105
310
903323A310000000000000010100
  0
ACAD_PROXY_OBJECT
  5
55
102
{ACAD_REACTORS
330
47
102
}
330
47
100
AcDbProxyObject
 90
      499
 91
      503
 93
      105
310
903343A310000000000000410100
  0
ACAD_PROXY_OBJECT
  5
56
102
{ACAD_REACTORS
330
47
102
}
330
47
100
AcDbProxyObject
 90
      499
 91
      503
 93
      105
310
903383A310000000000000810100
  0
ACAD_PROXY_OBJECT
  5
57
102
{ACAD_REACTORS
330
47
102
}
330
47
100
AcDbProxyObject
 90
      499
 91
      503
 93
      113
310
90431303A310000000000000910100
  0
ACAD_PROXY_OBJECT
  5
58
102
{ACAD_REACTORS
330
47
102
}
330
47
100
AcDbProxyObject
 90
      499
 91
      503
 93
      121
310
9053130303A310000000000001650100
  0
ACAD_PROXY_OBJECT
  5
59
102
{ACAD_REACTORS
330
47
102
}
330
47
100
AcDbProxyObject
 90
      499
 91
      503
 93
      257
310
90E312F31323822203D2031272D3022000000000000200FC000000000000284000
  0
ACAD_PROXY_OBJECT
  5
5A
102
{ACAD_REACTORS
330
47
102
}
330
47
100
AcDbProxyObject
 90
      499
 91
      503
 93
      249
310
90D312F363422203D2031272D3022000000000000240FC000000000000284000
  0
ACAD_PROXY_OBJECT
  5
5B
102
{ACAD_REACTORS
330
47
102
}
330
47
100
AcDbProxyObject
 90
      499
 91
      503
 93
      249
310
90D312F333222203D2031272D3022000000000000280FC000000000000284000
  0
ACAD_PROXY_OBJECT
  5
5C
102
{ACAD_REACTORS
330
47
102
}
330
47
100
AcDbProxyObject
 90
      499
 91
      503
 93
      249
310
90D312F313622203D2031272D30220000000000002C0FC000000000000284000
  0
ACAD_PROXY_OBJECT
  5
5D
102
{ACAD_REACTORS
330
47
102
}
330
47
100
AcDbProxyObject
 90
      499
 91
      503
 93
      249
310
90D332F333222203D2031272D30220000000000002E0FC000000000000284000
  0
ACAD_PROXY_OBJECT
  5
5E
102
{ACAD_REACTORS
330
47
102
}
330
47
100
AcDbProxyObject
 90
      499
 91
      503
 93
      241
310
90C312F3822203D2031272D3022000000000000300FC000000000000284000
  0
ACAD_PROXY_OBJECT
  5
5F
102
{ACAD_REACTORS
330
47
102
}
330
47
100
AcDbProxyObject
 90
      499
 91
      503
 93
      249
310
90D332F313622203D2031272D3022000000000000320FC000000000000284000
  0
ACAD_PROXY_OBJECT
  5
60
102
{ACAD_REACTORS
330
47
102
}
330
47
100
AcDbProxyObject
 90
      499
 91
      503
 93
      241
310
90C312F3422203D2031272D3022000000000000340FC000000000000284000
  0
ACAD_PROXY_OBJECT
  5
61
102
{ACAD_REACTORS
330
47
102
}
330
47
100
AcDbProxyObject
 90
      499
 91
      503
 93
      241
310
90C332F3822203D2031272D3022000000000000360FC000000000000284000
  0
ACAD_PROXY_OBJECT
  5
62
102
{ACAD_REACTORS
330
47
102
}
330
47
100
AcDbProxyObject
 90
      499
 91
      503
 93
      241
310
90C312F3222203D2031272D3022000000000000380FC000000000000284000
  0
ACAD_PROXY_OBJECT
  5
63
102
{ACAD_REACTORS
330
47
102
}
330
47
100
AcDbProxyObject
 90
      499
 91
      503
 93
      241
310
90C332F3422203D2031272D30220000000000003A0FC000000000000284000
  0
ACAD_PROXY_OBJECT
  5
64
102
{ACAD_REACTORS
330
47
102
}
330
47
100
AcDbProxyObject
 90
      499
 91
      503
 93
      161
310
90A3122203D2031272D30224000000000000284000
  0
ACAD_PROXY_OBJECT
  5
65
102
{ACAD_REACTORS
330
47
102
}
330
47
100
AcDbProxyObject
 90
      499
 91
      503
 93
      257
310
90E312D312F3222203D2031272D30220000000000003E0FC000000000000284000
  0
ACAD_PROXY_OBJECT
  5
66
102
{ACAD_REACTORS
330
47
102
}
330
47
100
AcDbProxyObject
 90
      499
 91
      503
 93
      225
310
90A3322203D2031272D302200000000000002100000000000000284000
  0
ACAD_PROXY_OBJECT
  5
67
102
{ACAD_REACTORS
330
47
102
}
330
47
100
AcDbProxyObject
 90
      499
 91
      503
 93
      225
310
90A3622203D2031272D302200000000000006100000000000000284000
  0
ACAD_PROXY_OBJECT
  5
68
102
{ACAD_REACTORS
330
47
102
}
330
47
100
AcDbProxyObject
 90
      499
 91
      503
 93
      249
310
90D31272D3022203D2031272D30220000000000000A100000000000000284000
  0
ACAD_PROXY_OBJECT
  5
2F
102
{ACAD_REACTORS
330
2A
102
}
330
2A
100
AcDbProxyObject
 90
      499
 91
      501
 93
      436
310
42CC9915DA5C99599C985B595049028333333333333E33F0000000000000F90107901411070040501600405405064090741402480A0340
1001
ACAD
1000
AcDbSavedByObjectVersion
1070
     0
  0
ACAD_PROXY_OBJECT
  5
32
102
{ACAD_REACTORS
330
2A
102
}
330
2A
100
AcDbProxyObject
 90
      499
 91
      501
 93
      388
310
4150985CDA58D07406404333333333333E33F0000000000000F90107A41107004050150841D405064090741402480A0350
1001
ACAD
1000
AcDbSavedByObjectVersion
1070
     0
  0
ACAD_PROXY_OBJECT
  5
36
102
{ACAD_REACTORS
330
2A
102
}
330
2A
100
AcDbProxyObject
 90
      499
 91
      501
 93
      428
310
42109C9A59DA1D195B90C409028333333333333E33F0000000000000F9010790141107004050150841D405064090741402480A029950
1001
ACAD
1000
AcDbSavedByObjectVersion
1070
     0
  0
ACAD_PROXY_OBJECT
  5
3A
102
{ACAD_REACTORS
330
2A
102
}
330
2A
100
AcDbProxyObject
 90
      499
 91
      501
 93
      452
310
42D0DBDB1BDC90DA185B99D95104090240C333333333333E33F0000000000000F90108901411070040501508421405064090741402480A0350
1001
ACAD
1000
AcDbSavedByObjectVersion
1070
     0
  0
ACAD_PROXY_OBJECT
  5
34
102
{ACAD_REACTORS
330
2A
102
}
330
2A
100
AcDbProxyObject
 90
      499
 91
      501
 93
      500
310
4290DBDB98D95C1D1D585B10940D028333333333333E33F0000000000000F90107902409070040501000000000018199010841D405064090740C02480A0340
1001
ACAD
1000
AcDbSavedByObjectVersion
1070
     0
  0
ACAD_PROXY_OBJECT
  5
35
102
{ACAD_REACTORS
330
2A
102
}
330
2A
100
AcDbProxyObject
 90
      499
 91
      501
 93
      412
310
40D11A5B50B409028333333333333E33F0000000000000F9010790141107004050150841D405064090741402480A02677FFFFFD0
1001
ACAD
1000
AcDbSavedByObjectVersion
1070
     0
  0
ACAD_PROXY_OBJECT
  5
3D
102
{ACAD_REACTORS
330
2A
102
}
330
2A
100
AcDbProxyObject
 90
      499
 91
      501
 93
      452
310
43115919D950DBDB1BDC93D999916409028333333333333E33F0000000000000F9010790141107004050150841D405064090741402480A0350
1001
ACAD
1000
AcDbSavedByObjectVersion
1070
     0
  0
ACAD_PROXY_OBJECT
  5
39
102
{ACAD_REACTORS
330
2A
102
}
330
2A
100
AcDbProxyObject
 90
      499
 91
      501
 93
      444
310
42D19858D95C185D1D195C9B90F409028333333333333E33F0000000000000F9010790141107004050150841D405064090741402480A0350
1001
ACAD
1000
AcDbSavedByObjectVersion
1070
     0
  0
ACAD_PROXY_OBJECT
  5
2B
102
{ACAD_REACTORS
330
2A
102
}
330
2A
100
AcDbProxyObject
 90
      499
 91
      501
 93
      380
310
41119B185D240901404333333333333E33F0000000000000F9010740A907004050150841D405064090741402480A1B50
1001
ACAD
1000
AcDbSavedByObjectVersion
1070
     0
  0
ACAD_PROXY_OBJECT
  5
2C
102
{ACAD_REACTORS
330
2A
102
}
330
2A
100
AcDbProxyObject
 90
      499
 91
      501
 93
      468
310
43519B185D15DA5D1A115919D95CD0140901404333333333333E33F0000000000000F90107409019070040501600405405064090741402480A1B50
1001
ACAD
1000
AcDbSavedByObjectVersion
1070
     0
  0
ACAD_PROXY_OBJECT
  5
2D
102
{ACAD_REACTORS
330
2A
102
}
330
2A
100
AcDbProxyObject
 90
      499
 91
      501
 93
      404
310
41D1DBDD5C985D5910240902404333333333333E33F0000000000000F9010740A9070040501641D405064090741402480A1B50
1001
ACAD
1000
AcDbSavedByObjectVersion
1070
     0
  0
ACAD_PROXY_OBJECT
  5
2E
102
{ACAD_REACTORS
330
2A
102
}
330
2A
100
AcDbProxyObject
 90
      499
 91
      501
 93
      492
310
4411DBDD5C985D5915DA5D1A115919D95CD0340902404333333333333E33F0000000000000F90107409019070040501600405405064090741402480A1B50
1001
ACAD
1000
AcDbSavedByObjectVersion
1070
     0
  0
ACAD_PROXY_OBJECT
  5
31
102
{ACAD_REACTORS
330
2A
102
}
330
2A
100
AcDbProxyObject
 90
      499
 91
      501
 93
      476
310
41921A5919195B90640502408333333333333E33F0000000000000F901079024090700405020000000000001110200405405064090740C02480A0340
1001
ACAD
1000
AcDbSavedByObjectVersion
1070
     0
  0
ACAD_PROXY_OBJECT
  5
3B
102
{ACAD_REACTORS
330
2A
102
}
330
2A
100
AcDbProxyObject
 90
      499
 91
      501
 93
      428
310
42529A5D1D195C93D999914409028333333333333E33F0000000000000F9010790141107004050150A41D405064090741402480A0350
1001
ACAD
1000
AcDbSavedByObjectVersion
1070
     0
  0
ACAD_PROXY_OBJECT
  5
38
102
{ACAD_REACTORS
330
2A
102
}
330
2A
100
AcDbProxyObject
 90
      499
 91
      501
 93
      444
310
42D31A5B995C185D1D195C9B90E409028333333333333E33F0000000000000F9010790141107004050750841D405064090741402483A0350
1001
ACAD
1000
AcDbSavedByObjectVersion
1070
     0
  0
ACAD_PROXY_OBJECT
  5
3C
102
{ACAD_REACTORS
330
2A
102
}
330
2A
100
AcDbProxyObject
 90
      499
 91
      501
 93
      444
310
42D3DD995C9A185B99D3D999915409028333333333333E33F0000000000000F9010790141107004050150941D405064090741402480A0350
1001
ACAD
1000
AcDbSavedByObjectVersion
1070
     0
  0
ACAD_PROXY_OBJECT
  5
33
102
{ACAD_REACTORS
330
2A
102
}
330
2A
100
AcDbProxyObject
 90
      499
 91
      501
 93
      428
310
425499585B1A5CDD1A58D08409038333333333333E33F0000000000000F9010740A907004050150800405405064090740C02480A1B40
1001
ACAD
1000
AcDbSavedByObjectVersion
1070
     0
  0
ACAD_PROXY_OBJECT
  5
42
102
{ACAD_REACTORS
330
2A
102
}
330
2A
100
AcDbProxyObject
 90
      499
 91
      501
 93
      420
310
4194DA1859195911B40902404333333333333E33F0000000000000F9010740A41107004050150800405405064090840C02480A0B40
1001
ACAD
1000
AcDbSavedByObjectVersion
1070
     0
  0
ACAD_PROXY_OBJECT
  5
41
102
{ACAD_REACTORS
330
2A
102
}
330
2A
100
AcDbProxyObject
 90
      499
 91
      501
 93
      516
310
4454DA18591959081DDA5D1A08195919D95CD1A40902404333333333333E33F0000000000000F901074090142907004050250800405405064090740C02480A0B40
1001
ACAD
1000
AcDbSavedByObjectVersion
1070
     0
  0
ACAD_PROXY_OBJECT
  5
3E
102
{ACAD_REACTORS
330
2A
102
}
330
2A
100
AcDbProxyObject
 90
      499
 91
      501
 93
      532
310
4394DA1859195CC81BD98811DC985E5174090240C333333333333E33F0000000000000F901079024090741D01000000000000111010841D405064090740C02480A0340
1001
ACAD
1000
AcDbSavedByObjectVersion
1070
     0
  0
ACAD_PROXY_OBJECT
  5
3F
102
{ACAD_REACTORS
330
2A
102
}
330
2A
100
AcDbProxyObject
 90
      499
 91
      501
 93
      476
310
41D4DAD95D18DA1E51840502408333333333333E33F0000000000000F901079024090741D01000000000000111010B41D405064090741802480A0340
1001
ACAD
1000
AcDbSavedByObjectVersion
1070
     0
  0
ACAD_PROXY_OBJECT
  5
37
102
{ACAD_REACTORS
330
2A
102
}
330
2A
100
AcDbProxyObject
 90
      499
 91
      501
 93
      412
310
41D51A1A58DAD95B90D409028333333333333E33F0000000000000F9010790141107004050150C41D405064090741402480A0350
1001
ACAD
1000
AcDbSavedByObjectVersion
1070
     0
  0
ACAD_PROXY_OBJECT
  5
30
102
{ACAD_REACTORS
330
2A
102
}
330
2A
100
AcDbProxyObject
 90
      499
 91
      501
 93
      420
310
4255DA5C99599C985B595059028333333333333E33F0000000000000F90107901411070040501600405405064090740C02480A0340
1001
ACAD
1000
AcDbSavedByObjectVersion
1070
     0
  0
ACAD_PROXY_OBJECT
  5
40
102
{ACAD_REACTORS
330
2A
102
}
330
2A
100
AcDbProxyObject
 90
      499
 91
      501
 93
      404
310
41560B54985E51940902404000000000000E03F0000000000000F9010740501907004050150841D405064090740C02480A1B40
1001
ACAD
1000
AcDbSavedByObjectVersion
1070
     0
  0
XRECORD
  5
2AA
102
{ACAD_REACTORS
330
2A0
102
}
330
2A0
100
AcDbXrecord
340
0
  0
XRECORD
  5
2A9
102
{ACAD_REACTORS
330
2A0
102
}
330
2A0
100
AcDbXrecord
 90
        0
  0
XRECORD
  5
2C0
102
{ACAD_REACTORS
330
2A0
102
}
330
2A0
100
AcDbXrecord
1000
DSTYLE
1002
{
1070
   171
 70
     2
1070
   143
 40
25.4
1070
   274
 70
     2
1070
    41
 40
0.18
1070
   141
 40
0.09
1070
   271
 70
     4
1070
    43
 40
0.38
1070
   278
 70
    46
1070
    44
 40
0.18
1070
    42
 40
0.0625
1070
   147
 40
0.09
1070
    77
 70
     0
1070
   272
 70
     4
1070
    73
 70
     1
1070
   172
 70
     0
1070
    74
 70
     1
1070
   283
 70
     1
1070
   340
340
11
1070
   140
 40
0.18
1070
   284
 70
     0
1070
    78
 70
     0
1002
}
  0
XRECORD
  5
2AB
102
{ACAD_REACTORS
330
2A0
102
}
330
2A0
100
AcDbXrecord
  1
{3C61B253-4AC8-4821-9000-30EA3A9D31A5}
  0
XRECORD
  5
2A3
102
{ACAD_REACTORS
330
2A0
102
}
330
2A0
100
AcDbXrecord
  1

  0
XRECORD
  5
2A8
102
{ACAD_REACTORS
330
2A0
102
}
330
2A0
100
AcDbXrecord
 90
        4
  0
XRECORD
  5
2A5
102
{ACAD_REACTORS
330
2A0
102
}
330
2A0
100
AcDbXrecord
340
1A
  0
XRECORD
  5
2A7
102
{ACAD_REACTORS
330
2A0
102
}
330
2A0
100
AcDbXrecord
 90
    10781
  0
XRECORD
  5
2A6
102
{ACAD_REACTORS
330
2A0
102
}
330
2A0
100
AcDbXrecord
340
19
  0
XRECORD
  5
2AD
102
{ACAD_REACTORS
330
2A0
102
}
330
2A0
100
AcDbXrecord
 40
0.0
  0
XRECORD
  5
2B0
102
{ACAD_REACTORS
330
2A0
102
}
330
2A0
100
AcDbXrecord
340
0
  0
XRECORD
  5
2B6
102
{ACAD_REACTORS
330
2A0
102
}
330
2A0
100
AcDbXrecord
 10
0.0
 20
0.0
 30
0.0
  0
XRECORD
  5
2B2
102
{ACAD_REACTORS
330
2A0
102
}
330
2A0
100
AcDbXrecord
 10
0.0
 20
0.0
 30
0.0
  0
XRECORD
  5
2B5
102
{ACAD_REACTORS
330
2A0
102
}
330
2A0
100
AcDbXrecord
 10
0.0
 20
0.0
 30
0.0
  0
XRECORD
  5
2B3
102
{ACAD_REACTORS
330
2A0
102
}
330
2A0
100
AcDbXrecord
 10
0.0
 20
0.0
 30
0.0
  0
XRECORD
  5
2B4
102
{ACAD_REACTORS
330
2A0
102
}
330
2A0
100
AcDbXrecord
 10
0.0
 20
0.0
 30
0.0
  0
XRECORD
  5
2B1
102
{ACAD_REACTORS
330
2A0
102
}
330
2A0
100
AcDbXrecord
 10
0.0
 20
0.0
 30
0.0
  0
XRECORD
  5
2AE
102
{ACAD_REACTORS
330
2A0
102
}
330
2A0
100
AcDbXrecord
340
0
  0
XRECORD
  5
2AF
102
{ACAD_REACTORS
330
2A0
102
}
330
2A0
100
AcDbXrecord
 70
     0
  0
XRECORD
  5
2A4
102
{ACAD_REACTORS
330
2A0
102
}
330
2A0
100
AcDbXrecord
  1

  0
XRECORD
  5
2A1
102
{ACAD_REACTORS
330
2A0
102
}
330
2A0
100
AcDbXrecord
 90
        1
  0
XRECORD
  5
2A2
102
{ACAD_REACTORS
330
2A0
102
}
330
2A0
100
AcDbXrecord
 90
       70
  0
XRECORD
  5
2B9
102
{ACAD_REACTORS
330
2A0
102
}
330
2A0
100
AcDbXrecord
340
0
  0
XRECORD
  5
2BF
102
{ACAD_REACTORS
330
2A0
102
}
330
2A0
100
AcDbXrecord
 10
0.0
 20
0.0
 30
0.0
  0
XRECORD
  5
2BB
102
{ACAD_REACTORS
330
2A0
102
}
330
2A0
100
AcDbXrecord
 10
0.0
 20
0.0
 30
0.0
  0
XRECORD
  5
2BE
102
{ACAD_REACTORS
330
2A0
102
}
330
2A0
100
AcDbXrecord
 10
0.0
 20
0.0
 30
0.0
  0
XRECORD
  5
2BC
102
{ACAD_REACTORS
330
2A0
102
}
330
2A0
100
AcDbXrecord
 10
0.0
 20
0.0
 30
0.0
  0
XRECORD
  5
2BD
102
{ACAD_REACTORS
330
2A0
102
}
330
2A0
100
AcDbXrecord
 10
0.0
 20
0.0
 30
0.0
  0
XRECORD
  5
2BA
102
{ACAD_REACTORS
330
2A0
102
}
330
2A0
100
AcDbXrecord
 10
0.0
 20
0.0
 30
0.0
  0
XRECORD
  5
2B7
102
{ACAD_REACTORS
330
2A0
102
}
330
2A0
100
AcDbXrecord
340
0
  0
XRECORD
  5
2B8
102
{ACAD_REACTORS
330
2A0
102
}
330
2A0
100
AcDbXrecord
 70
     0
  0
XRECORD
  5
2AC
102
{ACAD_REACTORS
330
2A0
102
}
330
2A0
100
AcDbXrecord
  1
{FAEB1C32-E019-11D5-929B-00C0DF256EC4}
  0
DICTIONARYVAR
  5
2CA
102
{ACAD_REACTORS
330
2C1
102
}
330
2C1
100
DictionaryVariables
280
     0
  1
1:1
  0
DICTIONARYVAR
  5
2C3
102
{ACAD_REACTORS
330
2C1
102
}
330
2C1
100
DictionaryVariables
280
     0
  1
Standard
  0
DICTIONARYVAR
  5
2C2
102
{ACAD_REACTORS
330
2C1
102
}
330
2C1
100
DictionaryVariables
280
     0
  1
Standard
  0
DICTIONARYVAR
  5
2C6
102
{ACAD_REACTORS
330
2C1
102
}
330
2C1
100
DictionaryVariables
280
     0
  1
2
  0
DICTIONARYVAR
  5
2C7
102
{ACAD_REACTORS
330
2C1
102
}
330
2C1
100
DictionaryVariables
280
     0
  1
1
  0
DICTIONARYVAR
  5
2CB
102
{ACAD_REACTORS
330
2C1
102
}
330
2C1
100
DictionaryVariables
280
     0
  1
1
  0
DICTIONARY
  5
2CE
330
45
100
AcDbDictionary
280
     1
  3
ACAD_XREC_ROUNDTRIP
360
2CF
  0
DICTIONARY
  5
2CC
330
44
100
AcDbDictionary
280
     1
  3
ACAD_XREC_ROUNDTRIP
360
2CD
  0
DICTIONARY
  5
2D0
330
46
100
AcDbDictionary
280
     1
  3
ACAD_XREC_ROUNDTRIP
360
2D1
  0
XRECORD
  5
2CF
102
{ACAD_REACTORS
330
2CE
102
}
330
2CE
100
AcDbXrecord
102
MATERIAL
148
0.0
149
0.0
149
0.0
 93
        0
 94
      127
282
     0
 72
     1
 77
     1
171
     1
175
     1
179
     1
273
     0
  0
XRECORD
  5
2CD
102
{ACAD_REACTORS
330
2CC
102
}
330
2CC
100
AcDbXrecord
102
MATERIAL
148
0.0
149
0.0
149
0.0
 93
        0
 94
      127
282
     0
 72
     1
 77
     1
171
     1
175
     1
179
     1
273
     0
  0
XRECORD
  5
2D1
102
{ACAD_REACTORS
330
2D0
102
}
330
2D0
100
AcDbXrecord
102
MATERIAL
148
0.0
149
0.0
149
0.0
 93
        0
 94
      127
282
     0
 72
     1
 77
     1
171
     1
175
     1
179
     1
273
     0
  0
ENDSEC
  0
EOF
