<?xml version="1.0" encoding="UTF-8" standalone="no"?>
<svg
   xmlns:dc="http://purl.org/dc/elements/1.1/"
   xmlns:cc="http://creativecommons.org/ns#"
   xmlns:rdf="http://www.w3.org/1999/02/22-rdf-syntax-ns#"
   xmlns:svg="http://www.w3.org/2000/svg"
   xmlns="http://www.w3.org/2000/svg"
   xmlns:sodipodi="http://sodipodi.sourceforge.net/DTD/sodipodi-0.dtd"
   xmlns:inkscape="http://www.inkscape.org/namespaces/inkscape"
   width="600mm"
   height="300mm"
   version="1.1"
   id="svg8284"
   sodipodi:docname="Mohrnkopfschleuder_v_6_kuh.svg"
   inkscape:version="0.92.2 5c3e80d, 2017-08-06">
  <metadata
     id="metadata8288">
    <rdf:RDF>
      <cc:Work
         rdf:about="">
        <dc:format>image/svg+xml</dc:format>
        <dc:type
           rdf:resource="http://purl.org/dc/dcmitype/StillImage" />
        <dc:title></dc:title>
      </cc:Work>
    </rdf:RDF>
  </metadata>
  <sodipodi:namedview
     pagecolor="#ffffff"
     bordercolor="#666666"
     borderopacity="1"
     objecttolerance="10"
     gridtolerance="10"
     guidetolerance="10"
     inkscape:pageopacity="0"
     inkscape:pageshadow="2"
     inkscape:window-width="1280"
     inkscape:window-height="718"
     id="namedview8286"
     showgrid="false"
     inkscape:zoom="0.263353"
     inkscape:cx="296.94854"
     inkscape:cy="644.414"
     inkscape:window-x="0"
     inkscape:window-y="1"
     inkscape:window-maximized="1"
     inkscape:current-layer="g8280"
     units="mm" />
  <desc
     id="desc6784">C:\Users\Andreas Reheis\Documents\Laser\Mohrnkopfschleuder\Mohrnkopfschleuder_v_6.dxf - scale = 1.000000, origin = (0.000000, 0.000000), method = file</desc>
  <defs
     id="defs6798">
    <marker
       id="DistanceX"
       orient="auto"
       refX="0"
       refY="0"
       style="overflow:visible">
      <path
         d="M 3,-3 -3,3 M 0,-5 V 5"
         style="stroke:#000000;stroke-width:0.5"
         id="path6786"
         inkscape:connector-curvature="0" />
    </marker>
    <pattern
       height="8"
       id="Hatch"
       patternUnits="userSpaceOnUse"
       width="8"
       x="0"
       y="0">
      <path
         d="M8 4 l-4,4"
         linecap="square"
         stroke="#000000"
         stroke-width="0.25"
         id="path6789" />
      <path
         d="M6 2 l-4,4"
         linecap="square"
         stroke="#000000"
         stroke-width="0.25"
         id="path6791" />
      <path
         d="M4 0 l-4,4"
         linecap="square"
         stroke="#000000"
         stroke-width="0.25"
         id="path6793" />
    </pattern>
    <symbol
       id="*MODEL_SPACE" />
    <symbol
       id="*PAPER_SPACE" />
  </defs>
  <g
     inkscape:groupmode="layer"
     inkscape:label="0"
     id="g6800"
     transform="translate(342.56251,-644.53984)" />
  <g
     inkscape:groupmode="layer"
     inkscape:label="PROFILEEDGES"
     id="g8280"
     transform="translate(342.56251,-644.53984)">
    <g
       id="g931"
       transform="translate(-159.11488,-235.21638)">
      <g
         transform="matrix(0,-1,-1,0,1699.3266,1318.1514)"
         id="g9008">
        <path
           inkscape:connector-curvature="0"
           style="fill:none;stroke:#000000"
           d="m 219.10576,1058.352 -1.23834,-1.4725 -0.81505,-1.7428 -0.33621,-1.8944 0.16556,-1.9168 0.65602,-1.8087 1.1018,-1.5773 1.47247,-1.2383 1.74281,-0.8151 1.89438,-0.3362 1.91684,0.1656 1.80867,0.656 1.57726,1.1018 1.23835,1.4725 0.81505,1.7428 0.3362,1.8944 -0.16555,1.9168 -0.65603,1.8087 -1.10179,1.5772 -1.47248,1.2384 -1.74281,0.815 -1.89437,0.3362 -1.91684,-0.1655 -1.80868,-0.656 z"
           id="path8932" />
        <path
           inkscape:connector-curvature="0"
           style="fill:none;stroke:#000000"
           d="m 25.248743,1602.1678 -0.25113,-1.9075 0.25113,-1.9076 0.736274,-1.7775 1.171243,-1.5264 1.526393,-1.1712 1.777522,-0.7363 1.907517,-0.2511 1.907517,0.2511 1.777523,0.7363 1.526393,1.1712 1.171243,1.5264 0.736274,1.7775 0.251129,1.9076 -0.251129,1.9075 -0.736274,1.7775 -1.171243,1.5264 -1.526393,1.1712 -1.777523,0.7363 -1.907517,0.2511 -1.907517,-0.2511 -1.777522,-0.7363 -1.526393,-1.1712 -1.171243,-1.5264 z"
           id="path8930" />
        <path
           inkscape:connector-curvature="0"
           style="fill:none;stroke:#000000"
           d="m 27.15626,1167.0465 1.526393,1.1712 1.777522,0.7363 1.907517,0.2511 1.907517,-0.2511 1.777523,-0.7363 1.526393,-1.1712 1.171243,-1.5264 0.736274,-1.7775 0.251129,-1.9075 -0.251129,-1.9076 -0.736274,-1.7775 -1.171245,-1.5264 -1.526396,-1.1712 -1.777523,-0.7363 -1.907517,-0.2511 -1.907514,0.2511 -1.777522,0.7363 -1.526393,1.1712 -1.171243,1.5264 -0.736274,1.7775 -0.25113,1.9076 0.251127,1.9075 0.736277,1.7775 z"
           id="path8928" />
        <path
           inkscape:connector-curvature="0"
           style="fill:none;stroke:#000000"
           d="m 196.17997,1039.0195 -3.25574,14.7634 -14.76339,-3.2558 3.25574,-14.7633 z"
           id="path8926" />
        <path
           inkscape:connector-curvature="0"
           style="fill:none;stroke:#000000"
           d="m 312.05273,1033.3311 v -15.1181 h 15.11811 v 15.1181 z"
           id="path8924" />
        <path
           inkscape:connector-curvature="0"
           style="fill:none;stroke:#000000"
           d="m 90.116992,1035.0807 1.338896,1.4496 0.918089,1.7465 0.434723,1.9249 -0.07827,1.9719 -0.585933,1.8843 -1.053663,1.6685 -1.449589,1.3389 -1.746727,0.9181 -1.924829,0.4345 -1.971759,-0.078 -1.884312,-0.586 -1.668456,-1.0537 -1.338899,-1.4497 -0.91809,-1.7467 -0.43472,-1.9247 0.07827,-1.9718 0.585929,-1.8844 1.053663,-1.6684 1.449589,-1.3389 1.746727,-0.9181 1.924829,-0.4346 1.971753,0.078 1.884315,0.5862 z"
           id="path8922" />
        <path
           inkscape:connector-curvature="0"
           style="fill:none;stroke:#000000"
           d="m 266.74114,1070.0615 -14.76338,-3.2557 3.25573,-14.7634 14.76338,3.2558 z"
           id="path8920" />
        <path
           inkscape:connector-curvature="0"
           style="fill:none;stroke:#000000"
           d="m 327.17083,1048.4492 v 15.1181 h -15.1181 v -15.1181 z"
           id="path8918" />
        <path
           inkscape:connector-curvature="0"
           style="fill:none;stroke:#000000"
           d="m 24.808634,1018.2129 15.118113,10e-5 v 15.1181 l -15.118113,-1e-4 z"
           id="path8916" />
        <path
           inkscape:connector-curvature="0"
           style="fill:none;stroke:#000000"
           d="m 92.725291,1643.9035 -0.593387,1.8821 -1.060259,1.6642 -1.454876,1.3332 -1.750345,0.9112 -1.926531,0.4271 -1.971434,-0.086 -1.881981,-0.5934 -1.664272,-1.0603 -1.333148,-1.4548 -0.911173,-1.7504 -0.427101,-1.9265 0.08607,-1.9714 0.593386,-1.882 1.060258,-1.6643 1.454879,-1.3331 1.750349,-0.9112 1.926534,-0.4271 1.971428,0.086 1.881977,0.5934 1.664272,1.0603 1.333148,1.4549 0.911176,1.7503 0.427102,1.9265 z"
           id="path8914" />
        <path
           inkscape:connector-curvature="0"
           style="fill:none;stroke:#000000"
           d="m 24.808637,1728.764 15.118107,1e-4 v 15.1182 l -15.118107,-10e-5 z"
           id="path8912" />
        <path
           inkscape:connector-curvature="0"
           style="fill:none;stroke:#000000"
           d="m 39.926747,1373.4886 h -15.11811 v 15.1181 h 15.11811 z"
           id="path8908" />
      </g>
      <path
         inkscape:connector-curvature="0"
         id="path915"
         d="m -73.816715,1686.8455 -12.004671,-1.6289 -3.547694,-7.3881 c -4.01869,-8.3689 -4.69554,-18.3951 -1.54675,-22.9121 1.77307,-2.5436 1.69705,-2.8143 -0.99257,-3.5349 -2.30558,-0.6177 -2.83197,-1.5823 -2.52533,-4.6281 0.39835,-3.9565 -3.00543,-9.5884 -4.99055,-8.2574 -0.59942,0.4019 -2.04868,0.1486 -3.22061,-0.563 -1.92327,-1.1675 -1.86242,-1.4753 0.62473,-3.1603 3.82571,-2.5918 3.44139,-3.9587 -1.11307,-3.9587 h -3.86857 l 3.98474,-5.3792 c 5.49496,-7.4178 4.67599,-9.8455 -4.51699,-13.3903 l -7.60037,-2.9305 4.76093,-2.164 c 5.5939,-2.5424 6.22059,-5.0502 1.26959,-5.0801 -1.92025,-0.013 -4.32895,-0.5958 -5.35271,-1.2982 -1.50019,-1.0292 -1.21619,-1.5433 1.46365,-2.6485 1.82876,-0.7542 3.69987,-2.0295 4.15805,-2.8337 0.45816,-0.8042 2.01374,-1.4623 3.45683,-1.4623 2.61851,0 2.62237,-0.105 1.92084,-52.6811 -0.89561,-67.1199 -2.92606,-85.7433 -13.10152,-120.1679 -6.31035,-21.3483 -8.09799,-34.0837 -5.52448,-39.357 0.89614,-1.8363 4.15871,-6.5641 7.25014,-10.5063 4.9552,-6.3187 6.21631,-9.4151 10.64989,-26.1474 2.76599,-10.4389 5.92387,-25.1085 7.0175,-32.5992 1.88284,-12.8963 1.84211,-15.1641 -0.76711,-42.7165 -1.51553,-16.0037 -3.91339,-36.8448 -5.32858,-46.3136 -5.32516,-35.6299 -19.06026,-85.7226 -35.12068,-128.0873 -12.51608,-33.0154 -13.25713,-34.7184 -14.30573,-32.8779 -2.31085,4.0563 -4.24007,27.2284 -4.28528,51.4712 -0.0466,24.9849 0.10906,26.6742 3.44012,37.348 1.91891,6.1487 4.66916,12.8072 6.11169,14.7964 1.44252,1.9897 4.06778,7.4752 5.83393,12.1904 6.40292,17.0944 8.03771,27.6558 9.97475,64.4411 1.01716,19.3165 2.75341,43.178 3.85833,53.0255 2.06584,18.4117 1.84739,33.3003 -0.87906,59.9118 -1.88723,18.4203 -5.02146,25.7615 -10.24595,23.9987 -1.558,-0.5257 -2.86213,0.7595 -4.66813,4.5998 -3.43095,7.2957 -5.92957,9.4394 -8.40484,7.2108 -1.0474,-0.943 -1.90437,-2.2181 -1.90437,-2.8334 0,-0.6156 -0.56991,-2.7452 -1.26645,-4.7326 l -1.26646,-3.6137 -2.99242,3.774 c -2.81117,3.5455 -3.23587,3.6646 -7.01153,1.968 -2.2105,-0.9932 -5.43581,-3.6325 -7.16735,-5.8648 -2.67247,-3.4456 -3.14367,-5.4478 -3.11802,-13.2499 0.0167,-5.055 1.1513,-14.4591 2.52154,-20.8979 1.37021,-6.4389 4.47017,-23.1728 6.88878,-37.1866 2.41861,-14.0139 5.48893,-30.56 6.82291,-36.7687 2.00009,-9.3094 2.12257,-11.4153 0.69849,-12.0081 -1.16156,-0.4836 -1.72697,-3.1569 -1.72697,-8.165 0,-10.9897 -1.19603,-16.0543 -3.79138,-16.0543 -1.66679,0 -2.05644,-0.8396 -1.59767,-3.4432 0.44479,-2.5242 0.0589,-3.4431 -1.44564,-3.4431 -1.56513,0 -2.057,-1.3897 -2.07181,-5.8534 -0.0139,-4.1521 -0.36298,-5.2642 -1.20129,-3.8262 -1.04053,1.7848 -1.25949,1.7848 -1.83126,0 -0.94523,-2.9508 -6.75545,-63.1814 -8.4994,-88.1075 -1.70418,-24.3579 -0.81765,-57.8716 1.91273,-72.3074 2.84336,-15.0332 16.77437,-66.52919 21.01792,-77.69292 10.91994,-28.72765 27.3461,-50.53746 45.7219,-60.70756 12.57446,-6.95913 44.449634,-14.90908 80.64832,-20.11439 15.275263,-2.19662 16.890322,-2.71421 21.684004,-6.95017 12.001498,-10.6051 25.382343,-13.71815 53.221248,-12.38177 10.474039,0.50269 25.899443,1.82186 34.278674,2.93126 20.678445,2.73805 63.148864,7.11629 86.331474,8.89973 51.03318,3.92608 75.93016,4.59792 182.81958,4.93357 119.27912,0.37448 133.8407,0.92594 182.68819,6.91891 28.23407,3.46401 41.64198,6.39046 55.80873,12.18137 10.72072,4.38224 34.41642,17.40714 49.00504,26.93663 9.91136,6.47441 14.41393,8.48174 24.71696,11.01983 6.92886,1.70704 17.09655,5.19238 22.59473,7.74532 13.57752,6.30444 26.55733,10.40726 54.28612,17.1595 17.62368,4.29146 23.94098,5.34001 25.39161,4.21466 12.85907,-9.9761 23.41512,-10.02827 37.47928,-0.18523 9.22922,6.45916 19.41849,8.9151 28.35773,6.83543 8.18981,-1.90551 12.0581,-5.95957 14.64119,-15.34443 1.77576,-6.45204 3.32134,-8.90423 8.68025,-13.77284 20.07841,-18.24133 23.46451,-23.98554 24.83261,-42.12741 0.41249,-5.46906 1.17221,-8.47249 2.06244,-8.15351 0.7752,0.27779 3.12329,3.51138 5.2181,7.18555 3.51884,6.17201 3.80753,7.65135 3.7928,19.43204 l -0.0165,12.75118 6.29217,0.93886 c 7.68871,1.14717 18.17126,4.96742 24.91882,9.08151 l 5.03491,3.0698 5.12071,-5.42439 c 5.76505,-6.10703 11.54544,-17.7047 13.99777,-28.08512 0.90407,-3.82685 2.09544,-6.95784 2.64758,-6.95784 0.55201,0 2.20552,2.55556 3.67429,5.6789 6.06136,12.88893 2.18039,28.3713 -10.9759,43.78719 l -6.84152,8.01654 6.33306,14.04877 c 5.72288,12.69573 7.60758,15.39953 19.56677,28.07163 15.46158,16.3835 18.48864,21.2719 18.49169,29.8617 10e-4,3.4087 0.94343,11.7615 2.09393,18.5614 1.99552,11.7952 2.3948,12.7134 8.68291,19.9707 3.62515,4.1837 10.96219,13.9198 16.30463,21.6358 5.3424,7.7159 14.4708,19.4918 20.2856,26.1683 14.9583,17.1759 14.743,16.7283 14.029,29.1509 -0.8494,14.7764 -1.1538,15.8409 -6.4862,22.6717 -2.6148,3.3495 -5.6504,7.8768 -6.7459,10.0604 -1.8495,3.687 -4.9354,6.0442 -10.3867,7.9341 -1.222,0.4238 -2.2217,1.974 -2.2217,3.4455 0,3.7054 -9.57855,8.5109 -18.74455,9.4039 -9.37052,0.9128 -17.499,-1.5166 -22.224,-6.6423 -2.58791,-2.8076 -5.37718,-4.2611 -9.00387,-4.6924 -2.88994,-0.3436 -11.53883,-1.2968 -19.21979,-2.1181 -19.7105,-2.1079 -44.6853,-6.6703 -51.41802,-9.3928 -5.35483,-2.1656 -6.54894,-2.1628 -19.04364,0.043 -7.33183,1.2942 -21.32895,2.7676 -31.10473,3.2738 -15.20589,0.7874 -19.33342,1.5204 -28.56556,5.073 -21.68875,8.3464 -41.23698,21.6743 -67.7066,46.1623 -10.26735,9.4987 -10.9839,10.5387 -15.61469,22.6585 -6.04562,15.8229 -12.94897,25.9004 -24.69957,36.0567 -9.15507,7.9128 -28.27001,20.7687 -45.03075,30.2856 -4.92483,2.7964 -13.20885,8.8681 -18.40892,13.4926 -5.20007,4.6247 -12.35796,10.5185 -15.90632,13.0974 -6.87122,4.9941 -25.5677,12.7729 -37.73841,15.7018 -4.06164,0.9773 -7.84474,2.7499 -8.42442,3.9475 -2.95191,6.0972 -8.41923,35.1054 -12.73974,67.5946 -1.921,14.4457 -3.91259,22.8946 -8.92782,37.8752 l -6.45531,19.282 1.42562,26.857 c 0.78421,14.7715 2.26912,30.8856 3.29989,35.8094 1.03077,4.9238 2.49904,17.9391 3.26294,28.923 l 1.3888,19.9705 7.45599,8.516 c 4.10088,4.6839 8.5472,11.1915 9.88077,14.4615 1.5268,3.7436 6.23834,9.7708 12.72234,16.2751 l 10.29769,10.3296 -1.49353,4.8204 c -0.82155,2.6514 -1.93878,5.3572 -2.48292,6.0129 -0.54414,0.6558 -5.97858,1.741 -12.07663,2.4114 -8.95727,0.9851 -14.52273,0.6748 -28.97018,-1.615 -9.83557,-1.5586 -20.30999,-3.9988 -23.27648,-5.4225 -2.96651,-1.4235 -7.90759,-2.9971 -10.98035,-3.497 -4.21425,-0.6857 -5.92831,-1.7223 -6.97736,-4.2199 -0.7648,-1.8209 -2.31267,-3.3108 -3.4398,-3.3108 -1.12701,0 -6.14147,-1.576 -11.14312,-3.5022 -8.4408,-3.2509 -9.25156,-3.9186 -11.28923,-9.2967 -3.89203,-10.2728 -4.08932,-14.1177 -0.96882,-18.8721 1.5513,-2.3632 2.61534,-4.4161 2.3646,-4.562 -0.25074,-0.1456 -1.59853,-1.0305 -2.99508,-1.9661 -1.39653,-0.9356 -4.44251,-2.6294 -6.76876,-3.7641 l -4.22961,-2.063 0.88756,-42.3748 c 1.0172,-48.5619 -0.62184,-81.6382 -4.45266,-89.855 -6.49049,-13.9222 -9.19279,-25.4095 -10.21467,-43.4206 -0.55875,-9.8475 -1.62443,-22.863 -2.36815,-28.9229 -0.74385,-6.06 -1.96074,-22.1743 -2.70421,-35.8093 -0.74359,-13.635 -1.69577,-30.779 -2.11626,-38.0974 l -0.76429,-13.3062 -10.658,-4.47 -10.658,-4.4701 -25.66407,0.924 c -16.48384,0.5933 -30.43247,1.8789 -38.99465,3.594 -7.33183,1.4687 -25.89945,4.2587 -41.26136,6.2001 -37.36643,4.7222 -43.45572,5.9444 -50.06693,10.0479 -3.66541,2.2753 -8.76253,3.8702 -14.60018,4.5683 -4.9327,0.5901 -11.95171,1.5103 -15.59781,2.0452 -6.2617,0.9185 -7.07131,0.6659 -14.60018,-4.5558 -14.80229,-10.2659 -23.13709,-14.8715 -42.8844,-23.696 -10.82317,-4.8365 -28.01302,-13.0075 -38.19966,-18.1578 -15.88769,-8.0327 -19.58838,-9.3875 -26.02641,-9.5295 -10.9325,-0.2409 -28.225695,6.4843 -35.577354,13.8356 -3.066976,3.067 -6.937547,6.2489 -8.601242,7.0713 -2.62595,1.298 -3.194074,2.9325 -4.307369,12.3931 -1.451626,12.3354 -2.862549,14.9734 -8.00887,14.9734 -4.717775,0 -5.829736,-2.4531 -8.899709,-19.6334 -1.372721,-7.682 -2.763471,-14.2577 -3.090578,-14.6127 -1.5456,-1.6767 -2.532774,2.3776 -3.248361,13.3405 -0.968221,14.8335 -1.77038,17.644 -5.323301,18.6524 -4.661697,1.3228 -7.151343,-3.0189 -9.813172,-17.1134 -2.457882,-13.0144 -4.634451,-16.9836 -8.846539,-16.1326 -2.195053,0.4433 -38.820496,59.2881 -53.696337,86.272 -12.379552,22.4555 -15.399097,29.8742 -19.946532,49.0071 -11.315429,47.6085 -10.861693,101.1746 1.293944,152.7579 4.905621,20.8174 5.921121,23.2488 13.885771,33.2484 7.883371,9.8974 11.464122,16.9929 11.464122,22.7174 0,3.4338 1.559425,5.8164 8.252273,12.6083 4.53875,4.6058 8.234105,9.0782 8.2119,9.9382 -0.108548,4.2021 -4.112259,6.7438 -14.775352,9.3797 -13.78517,3.4076 -38.314747,4.3345 -54.954873,2.0766 z"
         style="fill:none;stroke:#000000;stroke-width:1.32233548;stroke-opacity:1" />
    </g>
  </g>
  <g
     inkscape:groupmode="layer"
     inkscape:label="SECTIONCUTEDGES"
     id="g8282"
     transform="translate(342.56251,-644.53984)" />
</svg>
