<?xml version="1.0" encoding="UTF-8" standalone="no"?>
<svg
   xmlns:dc="http://purl.org/dc/elements/1.1/"
   xmlns:cc="http://creativecommons.org/ns#"
   xmlns:rdf="http://www.w3.org/1999/02/22-rdf-syntax-ns#"
   xmlns:svg="http://www.w3.org/2000/svg"
   xmlns="http://www.w3.org/2000/svg"
   id="svg8284"
   version="1.1"
   height="300mm"
   width="600mm">
  <metadata
     id="metadata8288">
    <rdf:RDF>
      <cc:Work
         rdf:about="">
        <dc:format>image/svg+xml</dc:format>
        <dc:type
           rdf:resource="http://purl.org/dc/dcmitype/StillImage" />
        <dc:title></dc:title>
      </cc:Work>
    </rdf:RDF>
  </metadata>
  <desc
     id="desc6784">C:\Users\Andreas Reheis\Documents\Laser\Mohrnkopfschleuder\Mohrnkopfschleuder_v_6.dxf - scale = 1.000000, origin = (0.000000, 0.000000), method = file</desc>
  <defs
     id="defs6798">
    <marker
       style="overflow:visible"
       refY="0"
       refX="0"
       orient="auto"
       id="DistanceX">
      <path
         id="path6786"
         style="stroke:#000000;stroke-width:0.5"
         d="M 3,-3 -3,3 M 0,-5 V 5" />
    </marker>
    <pattern
       y="0"
       x="0"
       width="8"
       patternUnits="userSpaceOnUse"
       id="Hatch"
       height="8">
      <path
         id="path6789"
         stroke-width="0.25"
         stroke="#000000"
         linecap="square"
         d="M8 4 l-4,4" />
      <path
         id="path6791"
         stroke-width="0.25"
         stroke="#000000"
         linecap="square"
         d="M6 2 l-4,4" />
      <path
         id="path6793"
         stroke-width="0.25"
         stroke="#000000"
         linecap="square"
         d="M4 0 l-4,4" />
    </pattern>
    <symbol
       id="*MODEL_SPACE" />
    <symbol
       id="*PAPER_SPACE" />
  </defs>
  <g
     transform="translate(342.56251,-644.53984)"
     id="g6800" />
  <g
     transform="translate(342.56251,-644.53984)"
     id="g8280">
    <g
       style="fill:none;stroke:#000000;stroke-opacity:1;stroke-width:0.22677165;stroke-miterlimit:4;stroke-dasharray:none"
       id="g857">
      <g
         style="fill:none;stroke:#000000;stroke-opacity:1;stroke-width:0.22677165;stroke-miterlimit:4;stroke-dasharray:none"
         id="g9008"
         transform="matrix(0,-1,-1,0,1699.3266,1318.1514)">
        <path
           id="path8932"
           d="m 219.10576,1058.352 -1.23834,-1.4725 -0.81505,-1.7428 -0.33621,-1.8944 0.16556,-1.9168 0.65602,-1.8087 1.1018,-1.5773 1.47247,-1.2383 1.74281,-0.8151 1.89438,-0.3362 1.91684,0.1656 1.80867,0.656 1.57726,1.1018 1.23835,1.4725 0.81505,1.7428 0.3362,1.8944 -0.16555,1.9168 -0.65603,1.8087 -1.10179,1.5772 -1.47248,1.2384 -1.74281,0.815 -1.89437,0.3362 -1.91684,-0.1655 -1.80868,-0.656 z"
           style="fill:none;stroke:#000000;stroke-opacity:1;stroke-width:0.22677165;stroke-miterlimit:4;stroke-dasharray:none" />
        <path
           id="path8930"
           d="m 25.248743,1602.1678 -0.25113,-1.9075 0.25113,-1.9076 0.736274,-1.7775 1.171243,-1.5264 1.526393,-1.1712 1.777522,-0.7363 1.907517,-0.2511 1.907517,0.2511 1.777523,0.7363 1.526393,1.1712 1.171243,1.5264 0.736274,1.7775 0.251129,1.9076 -0.251129,1.9075 -0.736274,1.7775 -1.171243,1.5264 -1.526393,1.1712 -1.777523,0.7363 -1.907517,0.2511 -1.907517,-0.2511 -1.777522,-0.7363 -1.526393,-1.1712 -1.171243,-1.5264 z"
           style="fill:none;stroke:#000000;stroke-opacity:1;stroke-width:0.22677165;stroke-miterlimit:4;stroke-dasharray:none" />
        <path
           id="path8928"
           d="m 27.15626,1167.0465 1.526393,1.1712 1.777522,0.7363 1.907517,0.2511 1.907517,-0.2511 1.777523,-0.7363 1.526393,-1.1712 1.171243,-1.5264 0.736274,-1.7775 0.251129,-1.9075 -0.251129,-1.9076 -0.736274,-1.7775 -1.171245,-1.5264 -1.526396,-1.1712 -1.777523,-0.7363 -1.907517,-0.2511 -1.907514,0.2511 -1.777522,0.7363 -1.526393,1.1712 -1.171243,1.5264 -0.736274,1.7775 -0.25113,1.9076 0.251127,1.9075 0.736277,1.7775 z"
           style="fill:none;stroke:#000000;stroke-opacity:1;stroke-width:0.22677165;stroke-miterlimit:4;stroke-dasharray:none" />
        <path
           id="path8926"
           d="m 196.17997,1039.0195 -3.25574,14.7634 -14.76339,-3.2558 3.25574,-14.7633 z"
           style="fill:none;stroke:#000000;stroke-opacity:1;stroke-width:0.22677165;stroke-miterlimit:4;stroke-dasharray:none" />
        <path
           id="path8924"
           d="m 312.05273,1033.3311 v -15.1181 h 15.11811 v 15.1181 z"
           style="fill:none;stroke:#000000;stroke-opacity:1;stroke-width:0.22677165;stroke-miterlimit:4;stroke-dasharray:none" />
        <path
           id="path8922"
           d="m 90.116992,1035.0807 1.338896,1.4496 0.918089,1.7465 0.434723,1.9249 -0.07827,1.9719 -0.585933,1.8843 -1.053663,1.6685 -1.449589,1.3389 -1.746727,0.9181 -1.924829,0.4345 -1.971759,-0.078 -1.884312,-0.586 -1.668456,-1.0537 -1.338899,-1.4497 -0.91809,-1.7467 -0.43472,-1.9247 0.07827,-1.9718 0.585929,-1.8844 1.053663,-1.6684 1.449589,-1.3389 1.746727,-0.9181 1.924829,-0.4346 1.971753,0.078 1.884315,0.5862 z"
           style="fill:none;stroke:#000000;stroke-opacity:1;stroke-width:0.22677165;stroke-miterlimit:4;stroke-dasharray:none" />
        <path
           id="path8920"
           d="m 266.74114,1070.0615 -14.76338,-3.2557 3.25573,-14.7634 14.76338,3.2558 z"
           style="fill:none;stroke:#000000;stroke-opacity:1;stroke-width:0.22677165;stroke-miterlimit:4;stroke-dasharray:none" />
        <path
           id="path8918"
           d="m 327.17083,1048.4492 v 15.1181 h -15.1181 v -15.1181 z"
           style="fill:none;stroke:#000000;stroke-opacity:1;stroke-width:0.22677165;stroke-miterlimit:4;stroke-dasharray:none" />
        <path
           id="path8916"
           d="m 24.808634,1018.2129 15.118113,10e-5 v 15.1181 l -15.118113,-1e-4 z"
           style="fill:none;stroke:#000000;stroke-opacity:1;stroke-width:0.22677165;stroke-miterlimit:4;stroke-dasharray:none" />
        <path
           id="path8914"
           d="m 92.725291,1643.9035 -0.593387,1.8821 -1.060259,1.6642 -1.454876,1.3332 -1.750345,0.9112 -1.926531,0.4271 -1.971434,-0.086 -1.881981,-0.5934 -1.664272,-1.0603 -1.333148,-1.4548 -0.911173,-1.7504 -0.427101,-1.9265 0.08607,-1.9714 0.593386,-1.882 1.060258,-1.6643 1.454879,-1.3331 1.750349,-0.9112 1.926534,-0.4271 1.971428,0.086 1.881977,0.5934 1.664272,1.0603 1.333148,1.4549 0.911176,1.7503 0.427102,1.9265 z"
           style="fill:none;stroke:#000000;stroke-opacity:1;stroke-width:0.22677165;stroke-miterlimit:4;stroke-dasharray:none" />
        <path
           id="path8912"
           d="m 24.808637,1728.764 15.118107,1e-4 v 15.1182 l -15.118107,-10e-5 z"
           style="fill:none;stroke:#000000;stroke-opacity:1;stroke-width:0.22677165;stroke-miterlimit:4;stroke-dasharray:none" />
        <path
           id="path8908"
           d="m 39.926747,1373.4886 h -15.11811 v 15.1181 h 15.11811 z"
           style="fill:none;stroke:#000000;stroke-opacity:1;stroke-width:0.22677165;stroke-miterlimit:4;stroke-dasharray:none" />
      </g>
      <path
         style="fill:none;stroke:#000000;stroke-width:0.22677165;stroke-opacity:1;stroke-miterlimit:4;stroke-dasharray:none"
         d="m 504.63734,1729.637 c 9.96899,-0.8085 23.01624,-0.9803 28.9941,-0.3817 9.56998,0.9581 10.50187,0.7434 7.79715,-1.7967 -2.69075,-2.5269 -1.04033,-3.0394 13.29782,-4.1301 9.00324,-0.6849 19.46251,-1.7182 23.24259,-2.2962 6.74271,-1.031 6.60542,-1.1812 -7.25004,-7.9256 -14.03226,-6.8305 -14.27822,-6.8719 -38.28963,-6.4519 -29.92563,0.5234 -37.21211,-1.2537 -49.4043,-12.0489 -14.90219,-13.1947 -27.4629,-43.888 -36.47897,-89.1409 -6.59579,-33.1047 -7.00548,-31.2858 7.34525,-32.6105 15.84833,-1.4629 29.42497,-8.8697 46.5669,-25.4055 28.01795,-27.0265 50.32415,-42.2094 80.91826,-55.078 15.85577,-6.6695 24.45062,-12.5023 56.1782,-38.1254 20.60214,-16.6383 60.44596,-48.575 88.5418,-70.9704 73.79037,-58.819 79.56768,-66.8628 79.18379,-110.2475 -0.20209,-22.8327 -1.10485,-28.6423 -6.73141,-43.3204 -8.04568,-20.9884 -31.71835,-58.545 -77.64462,-123.1821 -36.54606,-51.4351 -37.16219,-52.8244 -23.45916,-52.8961 6.90244,-0.036 21.92807,-4.8497 27.57836,-8.835 12.22722,-8.6241 5.9685,-25.9001 -14.652,-40.4432 l -13.6082,-9.59726 10.875,1.1707 c 26.77399,2.88246 40.48741,3.44656 41.85518,1.72156 0.79743,-1.0055 -4.3599,-7.26186 -11.46059,-13.90306 l -12.91033,-12.0747 6.96634,-6.18692 c 7.87348,-6.99268 8.839,-14.19988 4.13523,-30.86846 -3.17561,-11.25295 -7.84769,-16.62431 -14.4603,-16.62431 -5.07124,0 -5.29501,-1.48363 -1.93603,-12.83434 1.32247,-4.46898 1.74819,-8.95302 0.94614,-9.96446 -0.80206,-1.01143 -5.92667,1.30715 -11.38797,5.1525 -11.23592,7.91144 -13.28794,6.60147 -9.24779,-5.90364 2.91721,-9.02911 3.52256,-20.3591 1.18531,-22.18082 -2.42181,-1.88745 -14.52804,6.08201 -22.68265,14.93181 -10.12156,10.98456 -13.10755,9.05943 -11.16856,-7.20024 1.57114,-13.17525 0.17475,-22.27273 -3.41875,-22.27273 -1.08755,0 -5.28513,4.50589 -9.32812,10.01324 -4.04299,5.50734 -9.42794,11.47841 -11.96664,13.26905 -4.49655,3.17143 -4.6568,2.8761 -6.20112,-11.42586 -3.47149,-32.15131 -4.23544,-35.38998 -7.52115,-31.88781 -1.663,1.77238 -4.82667,8.81722 -7.03051,15.65507 -4.36579,13.54574 -9.91498,23.21128 -13.32605,23.21128 -1.19198,0 -3.50395,-3.1784 -5.13783,-7.06311 -1.63374,-3.88472 -5.07445,-10.8772 -7.64599,-15.53886 l -4.67541,-8.47574 -5.37008,10.35924 c -5.30578,10.23511 -5.51004,10.37186 -17.04158,11.41644 -12.44099,1.1269 -20.67118,6.44326 -20.67118,13.35268 0,9.85484 12.6713,21.80318 36.22786,34.161 6.37742,3.34547 9.73113,6.42047 9.24432,8.47574 -0.47935,2.02419 -12.46395,7.71292 -32.1805,15.27516 -39.44762,15.13014 -57.37954,28.12853 -73.07377,52.96919 -13.07369,20.69346 -18.03201,35.44876 -28.4687,84.71896 -10.1113,47.7361 -23.29699,94.7527 -29.77218,106.1618 -5.96709,10.513 -19.11134,20.6547 -34.80158,26.8514 -16.53761,6.5314 -62.77245,15.5074 -87.32109,16.9526 -35.96662,2.117 -48.81678,-3.9362 -79.15791,-37.288 -86.84159,-95.4594 -157.569892,-135.5576 -238.948776,-135.4677 -41.005022,0.045 -111.275904,11.4234 -139.758584,22.6292 -51.77827,20.371 -101.98733,70.7932 -119.25718,119.7628 -7.63739,21.6565 -7.60647,68.4518 0.0602,90.3062 10.35598,29.5225 34.59745,61.0411 59.92542,77.9142 6.36189,4.2385 11.95432,7.4046 12.427,7.036 1.4391,-1.1214 -11.56041,-25.372 -24.088,-44.9364 -23.73992,-37.0748 -31.8559,-65.7162 -26.39473,-93.1486 3.28596,-16.5062 11.03768,-35.5448 16.96654,-41.6709 4.22029,-4.3605 4.3087,-3.5926 3.16086,27.4 -1.86906,50.458 3.86566,67.0203 48.15624,139.0803 39.75993,64.6882 38.72461,63.0972 41.05507,63.0972 2.90168,0 3.23104,1.4631 -8.64475,-38.398 -15.5554,-52.2118 -20.47138,-73.8817 -22.84431,-100.6949 -2.07859,-23.4884 -0.62641,-51.4856 2.8093,-54.1634 0.96846,-0.7545 1.76038,0.075 1.76038,1.8424 0,10.0001 16.23159,23.7826 28.00858,23.7826 3.46817,0 3.87003,1.3911 2.67471,9.2576 -3.14572,20.7015 6.03035,29.2868 39.725526,37.1681 l 21.912294,5.1254 -1.568435,6.7147 c -0.862744,3.6931 -2.207923,11.5613 -2.989189,17.4847 -2.509446,19.0282 8.779338,25.9583 42.284758,25.9583 21.688527,0 20.989121,-0.3706 35.55373232,18.835 9.78796668,12.9065 45.67709068,43.3205 51.11914168,43.3205 3.997303,0 4.096998,0.7466 -1.636952,-12.2428 -2.658411,-6.0219 -4.833358,-11.3714 -4.833358,-11.8877 0,-2.463 11.780716,7.9049 27.052048,23.808 9.280252,9.6639 17.343246,17.2041 17.918193,16.756 0.575076,-0.4481 5.268066,-9.2024 10.429121,-19.4543 5.2034,-10.3357 9.94194,-17.3809 10.63646,-15.8142 0.68902,1.5539 3.5644,8.4588 6.38923,15.3443 7.40888,18.0573 20.08506,31.2854 36.32768,37.9093 l 13.28936,5.4194 0.71968,-11.4432 c 0.39557,-6.2939 1.4831,-11.4281 2.41668,-11.4095 0.93331,0.019 5.40201,4.4474 9.92987,9.8415 7.35063,8.7568 8.51618,9.4386 10.87499,6.3632 17.40278,-22.6873 19.02485,-23.3795 36.26352,-15.4767 10.37203,4.7549 15.87271,9.9492 35.14934,33.1918 13.49452,16.2709 28.64409,26.2508 32.93561,21.6965 2.16056,-2.2926 3.5803,-1.4546 8.05965,4.7568 2.99035,4.1469 9.57729,11.268 14.63749,15.8248 8.27663,7.453 9.36391,9.6687 10.82598,22.0608 2.75914,23.3844 6.09244,35.1229 19.40785,68.3456 21.90382,54.651 32.65512,83.7487 32.65512,88.3778 0,2.445 -1.81248,5.6087 -4.02784,7.0305 -7.07489,4.5404 -17.72227,17.1493 -17.72227,20.9871 0,3.3837 1.32029,3.6365 14.97379,2.8667 13.75961,-0.7756 15.40772,-0.4507 20.32936,4.0086 4.80474,4.3537 7.67704,4.9802 27.92249,6.0915 28.91982,1.5872 58.84213,1.4297 81.77497,-0.4301 z m -90.19903,-61.2948 c -14.70088,-32.965 -26.376,-81.1416 -21.15849,-87.308 1.28962,-1.524 2.82663,-2.3715 3.41582,-1.8835 1.08111,0.8954 31.42209,84.272 36.21772,99.5261 2.28952,7.2829 2.05844,8.5328 -2.00558,10.8487 -5.68699,3.241 -5.43012,3.5715 -16.46947,-21.1833 z"
         id="path987" />
    </g>
  </g>
  <g
     transform="translate(342.56251,-644.53984)"
     id="g8282" />
</svg>
